<svg xmlns="http://www.w3.org/2000/svg" width="12" height="12" fill="currentColor"><path fill="currentColor" fill-rule="evenodd" d="M9.6 3.01a.5.5 0 0 1 .4.491v7a.5.5 0 0 1-.4.49l-.1.01h-2a.5.5 0 0 1-.5-.5v-7a.5.5 0 0 1 .5-.5h2zM7.9 10.1h1.2V3.902H7.9z" clip-rule="evenodd"/><path fill="currentColor" d="M3.5 3.05a.45.45 0 0 1 .25.077l.068.056 1.125 1.125a.45.45 0 0 1-.636.636l-.357-.356V7.5a.45.45 0 0 1-.9 0V4.588l-.357.356a.45.45 0 0 1-.636-.636l1.125-1.125A.45.45 0 0 1 3.5 3.05m7-2a.45.45 0 0 1 0 .901h-9a.45.45 0 0 1 0-.9z"/></svg>