<svg xmlns="http://www.w3.org/2000/svg" width="12" height="12" fill="currentColor"><path fill="currentColor" d="M10.5 1.05a.45.45 0 0 1 .45.451v9a.45.45 0 0 1-.9 0v-9a.45.45 0 0 1 .45-.45"/><path fill="currentColor" fill-rule="evenodd" d="M8.5 7.001a.5.5 0 0 1 .5.5v2l-.01.1a.5.5 0 0 1-.49.4h-7a.5.5 0 0 1-.49-.4l-.01-.1v-2a.5.5 0 0 1 .5-.5zm-6.6 2.1h6.2V7.9H1.9z" clip-rule="evenodd"/><path fill="currentColor" d="M7.057 2.058a.45.45 0 0 1 .636 0l1.125 1.125a.45.45 0 0 1 .056.568l-.056.068-1.125 1.125a.45.45 0 0 1-.636-.636l.356-.357H4.5a.45.45 0 0 1 0-.9h2.913l-.356-.357a.45.45 0 0 1 0-.636"/></svg>