<svg xmlns="http://www.w3.org/2000/svg" width="12" height="12" fill="currentColor"><path fill="currentColor" fill-rule="evenodd" d="M6 1.05a.45.45 0 0 1 .45.451v.5H8.5a.5.5 0 0 1 .5.5v2a.5.5 0 0 1-.5.5H6.45v1H9.5a.5.5 0 0 1 .49.4l.01.1v3a.5.5 0 0 1-.5.5H6.45v.5a.45.45 0 0 1-.9 0v-.5H2.5a.5.5 0 0 1-.5-.5v-3l.01-.1A.5.5 0 0 1 2.5 6h3.05V5H3.5a.5.5 0 0 1-.5-.5v-2a.5.5 0 0 1 .4-.49L3.5 2h2.05v-.5A.45.45 0 0 1 6 1.05M2.9 9.1h6.2V6.902H2.9zm1-5h4.2V2.902H6.202a.45.45 0 0 1-.202.05.45.45 0 0 1-.202-.05H3.9z" clip-rule="evenodd"/></svg>