<svg xmlns="http://www.w3.org/2000/svg" width="16" height="16" fill="currentColor"><path fill="currentColor" d="M2.5 2a.5.5 0 0 1 .5.5v11a.5.5 0 0 1-1 0v-11a.5.5 0 0 1 .5-.5"/><path fill="currentColor" fill-rule="evenodd" d="M13.5 9a.5.5 0 0 1 .49.4l.01.1v3a.5.5 0 0 1-.5.5h-9l-.1-.01a.5.5 0 0 1-.4-.49v-3l.01-.1a.5.5 0 0 1 .39-.39L4.5 9zM5 12h8v-2H5z" clip-rule="evenodd"/><path fill="currentColor" d="M5.646 3.646a.5.5 0 1 1 .708.708L5.707 5H10.5a.5.5 0 0 1 0 1H5.707l.647.646a.5.5 0 1 1-.708.708l-1.5-1.5-.062-.077a.5.5 0 0 1 .062-.63z"/></svg>