<svg xmlns="http://www.w3.org/2000/svg" width="16" height="16" fill="currentColor"><path fill="currentColor" d="M13.5 13a.5.5 0 0 1 0 1h-11a.5.5 0 0 1 0-1zm-8-8a.5.5 0 0 1 .5.5v4.793l.646-.647a.5.5 0 1 1 .708.707l-1.5 1.5a.5.5 0 0 1-.631.063l-.077-.062-1.5-1.5a.5.5 0 1 1 .708-.708l.646.647V5.5a.5.5 0 0 1 .5-.5"/><path fill="currentColor" fill-rule="evenodd" d="M12.5 2a.5.5 0 0 1 .5.5v9l-.01.1a.5.5 0 0 1-.49.4h-3l-.1-.01a.5.5 0 0 1-.39-.39L9 11.5v-9a.5.5 0 0 1 .4-.49L9.5 2zM10 11h2V3h-2z" clip-rule="evenodd"/></svg>