<svg xmlns="http://www.w3.org/2000/svg" width="12" height="12" fill="currentColor"><path fill="currentColor" d="M1.5 1.05a.45.45 0 0 1 .45.451v9a.45.45 0 0 1-.9 0v-9a.45.45 0 0 1 .45-.45"/><path fill="currentColor" fill-rule="evenodd" d="M10.5 7.001a.5.5 0 0 1 .5.5v2l-.01.1a.5.5 0 0 1-.49.4h-7a.5.5 0 0 1-.49-.4l-.01-.1v-2a.5.5 0 0 1 .5-.5zm-6.6 2.1h6.2V7.9H3.9z" clip-rule="evenodd"/><path fill="currentColor" d="M4.307 2.058a.45.45 0 0 1 .636.636l-.356.357H7.5a.45.45 0 0 1 0 .9H4.587l.356.357a.45.45 0 0 1-.636.636L3.182 3.82l-.056-.068a.45.45 0 0 1 .056-.568z"/></svg>