<svg xmlns="http://www.w3.org/2000/svg" width="16" height="16" fill="currentColor"><path fill="currentColor" fill-rule="evenodd" d="M12.5 4a.5.5 0 0 1 .5.5v9l-.01.1a.5.5 0 0 1-.49.4h-3l-.1-.01a.5.5 0 0 1-.39-.39L9 13.5v-9a.5.5 0 0 1 .4-.49L9.5 4zM10 13h2V5h-2z" clip-rule="evenodd"/><path fill="currentColor" d="M5.5 4a.5.5 0 0 1 .277.084l.077.062 1.5 1.5a.5.5 0 1 1-.708.708L6 5.707V10.5a.5.5 0 0 1-1 0V5.707l-.646.647a.5.5 0 1 1-.708-.708l1.5-1.5A.5.5 0 0 1 5.5 4m8-2a.5.5 0 0 1 0 1h-11a.5.5 0 0 1 0-1z"/></svg>