<svg xmlns="http://www.w3.org/2000/svg" width="16" height="16" fill="currentColor"><path fill="currentColor" d="M13.5 2a.5.5 0 0 1 .5.5v11a.5.5 0 0 1-1 0v-11a.5.5 0 0 1 .5-.5"/><path fill="currentColor" fill-rule="evenodd" d="M11.6 9.01c.196.04.35.194.39.39l.01.1v3a.5.5 0 0 1-.4.49l-.1.01h-9a.5.5 0 0 1-.5-.5v-3l.01-.1A.5.5 0 0 1 2.5 9h9zM3 12h8v-2H3z" clip-rule="evenodd"/><path fill="currentColor" d="M9.646 3.646a.5.5 0 0 1 .707 0l1.5 1.5a.5.5 0 0 1 .063.631l-.062.077-1.5 1.5a.5.5 0 1 1-.708-.708L10.293 6H5.5a.5.5 0 0 1 0-1h4.793l-.647-.646a.5.5 0 0 1 0-.708"/></svg>