<svg xmlns="http://www.w3.org/2000/svg" width="12" height="12" fill="currentColor"><path fill="currentColor" d="M10.5 10.05a.45.45 0 0 1 0 .9h-9a.45.45 0 0 1 0-.9z"/><path fill="currentColor" fill-rule="evenodd" d="M9.6 1.01a.5.5 0 0 1 .4.49v7a.5.5 0 0 1-.4.49L9.5 9h-2a.5.5 0 0 1-.5-.5v-7a.5.5 0 0 1 .5-.5h2zM7.9 8.1h1.2V1.9H7.9z" clip-rule="evenodd"/><path fill="currentColor" d="M3.5 4.05a.45.45 0 0 1 .45.45v2.913l.357-.356a.45.45 0 0 1 .636.636L3.818 8.818l-.068.056a.45.45 0 0 1-.568-.056L2.057 7.693a.45.45 0 0 1 .636-.636l.357.356V4.5a.45.45 0 0 1 .45-.45"/></svg>