<svg xmlns="http://www.w3.org/2000/svg" width="20" height="20" fill="currentColor"><path fill="currentColor" fill-rule="evenodd" d="M10 1.95a.55.55 0 0 1 .55.549v2.5h2.95a.5.5 0 0 1 .49.4l.01.1v3a.5.5 0 0 1-.5.5h-2.95v1h5.95a.5.5 0 0 1 .49.4l.01.1v4a.5.5 0 0 1-.5.5h-5.95v2.5a.55.55 0 1 1-1.1 0v-2.5H3.5a.5.5 0 0 1-.5-.5v-4a.5.5 0 0 1 .4-.49l.1-.01h5.95v-1H6.5a.5.5 0 0 1-.5-.5v-3l.01-.1a.5.5 0 0 1 .49-.4h2.95v-2.5a.55.55 0 0 1 .55-.55M4.1 13.9h11.8v-2.801H4.1zm3-6h5.8V6.098H7.1z" clip-rule="evenodd"/></svg>