<svg xmlns="http://www.w3.org/2000/svg" width="20" height="20" fill="currentColor"><path fill="currentColor" d="M17.5 16.95a.55.55 0 1 1 0 1.1h-15a.55.55 0 1 1 0-1.1zm-11-11a.55.55 0 0 1 .55.55v7.673l1.06-1.063a.55.55 0 1 1 .778.778l-2 2-.086.07a.55.55 0 0 1-.692-.07l-2-2a.55.55 0 1 1 .778-.778l1.061 1.062V6.5a.55.55 0 0 1 .55-.55"/><path fill="currentColor" fill-rule="evenodd" d="M16.6 2.01a.5.5 0 0 1 .4.49v13a.5.5 0 0 1-.5.5h-5a.5.5 0 0 1-.5-.5v-13l.01-.1a.5.5 0 0 1 .39-.39l.1-.01h5zM12.1 14.9h3.8V3.1h-3.8z" clip-rule="evenodd"/></svg>