<svg xmlns="http://www.w3.org/2000/svg" width="20" height="20" fill="currentColor"><path fill="currentColor" d="M2.5 1.95a.55.55 0 0 1 .55.549v15a.55.55 0 1 1-1.1 0v-15a.55.55 0 0 1 .55-.55"/><path fill="currentColor" fill-rule="evenodd" d="M17.6 11.009c.196.04.35.194.39.39l.01.1v5l-.01.1a.5.5 0 0 1-.49.4h-13a.5.5 0 0 1-.5-.5v-5a.5.5 0 0 1 .5-.5h13zm-12.5 4.89h11.8v-3.8H5.1z" clip-rule="evenodd"/><path fill="currentColor" d="M6.111 4.11a.55.55 0 1 1 .778.778L5.827 5.949H13.5a.55.55 0 1 1 0 1.1H5.827L6.89 8.11a.55.55 0 1 1-.778.778l-2-2-.07-.086a.55.55 0 0 1 .07-.692z"/></svg>