<svg xmlns="http://www.w3.org/2000/svg" width="20" height="20" fill="currentColor"><path fill="currentColor" d="M17.5 1.95a.55.55 0 0 1 .55.549v15a.55.55 0 1 1-1.1 0v-15a.55.55 0 0 1 .55-.55"/><path fill="currentColor" fill-rule="evenodd" d="M15.5 10.999a.5.5 0 0 1 .5.5v5a.5.5 0 0 1-.5.5h-13a.5.5 0 0 1-.49-.4L2 16.5v-5l.01-.1a.5.5 0 0 1 .39-.39l.1-.01zm-12.4 4.9h11.8v-3.8H3.1z" clip-rule="evenodd"/><path fill="currentColor" d="M13.111 4.11a.55.55 0 0 1 .778 0l2 2a.55.55 0 0 1 .07.692l-.07.086-2 2a.55.55 0 1 1-.778-.778l1.062-1.061H6.5a.55.55 0 1 1 0-1.1h7.673L13.11 4.888a.55.55 0 0 1 0-.778"/></svg>