<svg xmlns="http://www.w3.org/2000/svg" width="16" height="16" fill="currentColor"><path fill="currentColor" fill-rule="evenodd" d="M8 2a.5.5 0 0 1 .5.5v1.375A.5.5 0 0 1 8.482 4H10.5a.5.5 0 0 1 .5.5v2a.5.5 0 0 1-.5.5h-2v1h4a.5.5 0 0 1 .49.4l.01.1v3a.5.5 0 0 1-.5.5h-4v1.5a.5.5 0 0 1-1 0V12h-4l-.1-.01a.5.5 0 0 1-.4-.49v-3l.01-.1a.5.5 0 0 1 .39-.39L3.5 8h4V7h-2a.5.5 0 0 1-.5-.5v-2a.5.5 0 0 1 .4-.49L5.5 4h2.018a.5.5 0 0 1-.018-.125V2.5A.5.5 0 0 1 8 2m-4 9h8V9H4zm2-5h4V5H6z" clip-rule="evenodd"/></svg>