<svg xmlns="http://www.w3.org/2000/svg" width="20" height="20" fill="currentColor"><path fill="currentColor" fill-rule="evenodd" d="M16.5 3.999a.5.5 0 0 1 .5.5v13a.5.5 0 0 1-.4.49l-.1.01h-5l-.1-.01a.5.5 0 0 1-.39-.39l-.01-.1v-13a.5.5 0 0 1 .5-.5zm-4.4 12.9h3.8V5.1h-3.8z" clip-rule="evenodd"/><path fill="currentColor" d="M6.111 4.11a.55.55 0 0 1 .692-.07l.086.07 2 2a.55.55 0 1 1-.778.778L7.05 5.826V13.5a.55.55 0 1 1-1.1 0V5.826L4.89 6.888a.55.55 0 1 1-.778-.778zM17.5 1.95a.55.55 0 1 1 0 1.099h-15a.55.55 0 1 1 0-1.1z"/></svg>