<svg xmlns="http://www.w3.org/2000/svg" width="20" height="20" fill="currentColor"><path fill="currentColor" d="M16.15 6.549H3.85v9.45c0 .8.65 1.45 1.45 1.45h9.4c.8 0 1.45-.65 1.45-1.45zm-3.851 1.4a.55.55 0 1 1 0 1.1h-4.6a.55.55 0 1 1 0-1.1zM17.45 3.3a.75.75 0 0 0-.75-.75H3.3a.75.75 0 0 0-.75.75v1.4c0 .414.336.75.75.75h13.4a.75.75 0 0 0 .75-.75zm1.1 1.4a1.85 1.85 0 0 1-1.3 1.767V16a2.55 2.55 0 0 1-2.55 2.55H5.3A2.55 2.55 0 0 1 2.75 16V6.466a1.85 1.85 0 0 1-1.3-1.767V3.3A1.85 1.85 0 0 1 3.3 1.45h13.4a1.85 1.85 0 0 1 1.85 1.85z"/></svg>