<svg xmlns="http://www.w3.org/2000/svg" width="12" height="12" fill="currentColor"><g clip-path="url(#a)"><path fill="currentColor" d="M9.555 3.951h-7.11q.004.025.005.05v5.7c0 .47.38.85.85.85h5.4c.47 0 .85-.38.85-.85v-5.7q.001-.025.005-.05M7 5.051a.45.45 0 0 1 0 .9H5a.45.45 0 0 1 0-.9zm3.55-2.8a.8.8 0 0 0-.8-.8h-7.5a.8.8 0 1 0 0 1.6h7.5a.8.8 0 0 0 .8-.8m.9 0a1.7 1.7 0 0 1-1.04 1.566q.039.085.04.184v5.7a1.75 1.75 0 0 1-1.75 1.75H3.3a1.75 1.75 0 0 1-1.75-1.75v-5.7q0-.099.039-.184A1.7 1.7 0 0 1 2.25.551h7.5a1.7 1.7 0 0 1 1.7 1.7"/></g><defs><clipPath id="a"><path fill="currentColor" d="M0 0h12v12H0z"/></clipPath></defs></svg>