<svg width="16" height="16" viewBox="0 0 16 16" fill="none" xmlns="http://www.w3.org/2000/svg"><path d="M8.89062 7.65215C9.08272 7.45405 9.39939 7.44862 9.59766 7.64043L12.3477 10.3074C12.4448 10.4016 12.5 10.5315 12.5 10.6668C12.4999 10.802 12.4447 10.9311 12.3477 11.0252L9.59766 13.6922C9.3994 13.8842 9.08277 13.8796 8.89062 13.6814C8.69848 13.4832 8.70413 13.1666 8.90234 12.9744L10.7666 11.1668H4C3.72397 11.1668 3.50018 10.9428 3.5 10.6668C3.5 10.3907 3.72386 10.1668 4 10.1668H10.7666L8.90234 8.35918C8.70424 8.16708 8.69881 7.85042 8.89062 7.65215ZM6.40234 2.30449C6.60061 2.11268 6.91728 2.11811 7.10938 2.31621C7.30119 2.51448 7.29576 2.83114 7.09766 3.02324L5.2334 4.83086H12C12.2761 4.83086 12.5 5.05472 12.5 5.33086C12.4998 5.60685 12.276 5.83086 12 5.83086H5.2334L7.09766 7.63848C7.29587 7.83068 7.30152 8.14726 7.10938 8.34551C6.91723 8.54366 6.6006 8.54822 6.40234 8.35625L3.65234 5.68926C3.55531 5.59516 3.50009 5.46602 3.5 5.33086C3.5 5.19558 3.55523 5.06566 3.65234 4.97148L6.40234 2.30449Z" fill="currentColor"/></svg>