<svg xmlns="http://www.w3.org/2000/svg" width="20" height="20" fill="currentColor"><path fill="currentColor" d="M9.728 16.814a.55.55 0 1 1 .78.774l-.725.732a.55.55 0 1 1-.78-.775zm2.902-2.929a.55.55 0 0 1 .782.776l-1.452 1.464a.55.55 0 0 1-.781-.776zm1.584-7.85a.55.55 0 0 1 .78.774l-8.707 8.784a.55.55 0 0 1-.781-.774zm1.319 4.923a.55.55 0 1 1 .78.774l-1.45 1.464a.55.55 0 0 1-.782-.775zm-3.74-8.913a.2.2 0 0 1 .266.251l-1.535 4.292a.2.2 0 0 1-.327.079l-.916-.869-7.038 7.038a.55.55 0 1 1-.777-.777l7.017-7.017-.953-.904a.2.2 0 0 1 .06-.329zm5.917 6.716a.55.55 0 0 1 .78.775l-.724.732a.55.55 0 0 1-.782-.775z"/></svg>