<svg width="12" height="12" viewBox="0 0 12 12" fill="none" xmlns="http://www.w3.org/2000/svg"><path d="M4.71484 1.64043C4.91311 1.44861 5.22978 1.45405 5.42188 1.65215C5.61369 1.85042 5.60826 2.16708 5.41016 2.35918L4.23438 3.4998H9C9.27614 3.4998 9.5 3.72366 9.5 3.9998C9.5 4.27595 9.27614 4.4998 9 4.4998H4.23438L5.41016 5.64043C5.60826 5.83253 5.61369 6.14919 5.42188 6.34746C5.22978 6.54556 4.91311 6.55099 4.71484 6.35918L2.65234 4.35918C2.55523 4.26501 2.5 4.13508 2.5 3.9998C2.5 3.86453 2.55523 3.7346 2.65234 3.64043L4.71484 1.64043Z" fill="currentColor"/><path d="M7.28516 5.64043C7.08689 5.44862 6.77022 5.45405 6.57812 5.65215C6.38631 5.85042 6.39174 6.16708 6.58984 6.35918L7.76562 7.4998L3 7.4998C2.72386 7.4998 2.5 7.72366 2.5 7.9998C2.5 8.27595 2.72386 8.4998 3 8.4998L7.76563 8.4998L6.58984 9.64043C6.39174 9.83253 6.38631 10.1492 6.57813 10.3475C6.77022 10.5456 7.08689 10.551 7.28516 10.3592L9.34766 8.35918C9.44477 8.26501 9.5 8.13508 9.5 7.9998C9.5 7.86453 9.44477 7.7346 9.34766 7.64043L7.28516 5.64043Z" fill="currentColor"/></svg>