<svg xmlns="http://www.w3.org/2000/svg" width="12" height="12" fill="currentColor"><path fill="currentColor" d="M5.97 9.784a.45.45 0 0 1 .638.633l-.653.66a.45.45 0 0 1-.639-.635zm2.473-6.247a.45.45 0 0 1 .639.634l-5.225 5.27a.45.45 0 0 1-.638-.634zm.138 3.612a.45.45 0 0 1 .64.634L7.914 9.1a.45.45 0 0 1-.639-.635zM6.932 1.313a.2.2 0 0 1 .258.259l-.88 2.265a.2.2 0 0 1-.328.07l-.336-.336-4.214 4.216a.45.45 0 0 1-.637-.637L5.01 2.934l-.413-.413a.2.2 0 0 1 .069-.328zm3.609 3.859a.45.45 0 1 1 .639.634l-.654.66a.451.451 0 0 1-.638-.636z"/></svg>