<svg xmlns="http://www.w3.org/2000/svg" width="16" height="16" fill="currentColor"><path fill="currentColor" d="M8.03 13.117a.5.5 0 0 1 .71.705l-.87.877a.5.5 0 0 1-.711-.703zm3.299-8.329a.5.5 0 0 1 .71.705l-6.966 7.026a.5.5 0 1 1-.711-.703zm.184 4.816a.5.5 0 0 1 .711.703l-1.742 1.758a.5.5 0 0 1-.71-.705zm-2.13-7.906a.2.2 0 0 1 .259.258L8.377 5.213a.2.2 0 0 1-.328.07l-.59-.591-5.622 5.62a.5.5 0 0 1-.707-.706l5.621-5.621-.694-.695a.2.2 0 0 1 .07-.328zm4.742 5.27a.5.5 0 0 1 .71.704l-.87.878a.5.5 0 1 1-.71-.703z"/></svg>