<svg width="12" height="12" viewBox="0 0 12 12" fill="none" xmlns="http://www.w3.org/2000/svg"><path d="M9.25 6C9.25 5.04308 9.24934 4.37563 9.18164 3.87207C9.11587 3.38289 8.99506 3.12396 8.81055 2.93945C8.62604 2.75494 8.36711 2.63413 7.87793 2.56836C7.37437 2.50066 6.70692 2.5 5.75 2.5H5C4.04308 2.5 3.37563 2.50066 2.87207 2.56836C2.38289 2.63413 2.12396 2.75494 1.93945 2.93945C1.75494 3.12396 1.63413 3.38289 1.56836 3.87207C1.50066 4.37563 1.5 5.04308 1.5 6C1.5 6.95692 1.50066 7.62437 1.56836 8.12793C1.63413 8.61711 1.75494 8.87604 1.93945 9.06055C2.12396 9.24506 2.38289 9.36587 2.87207 9.43164C3.37563 9.49934 4.04308 9.5 5 9.5H5.75C6.70692 9.5 7.37437 9.49934 7.87793 9.43164C8.36711 9.36587 8.62604 9.24506 8.81055 9.06055C8.99506 8.87604 9.11587 8.61711 9.18164 8.12793C9.24934 7.62437 9.25 6.95692 9.25 6ZM10.25 6C10.25 6.92848 10.2506 7.67511 10.1719 8.26074C10.0912 8.86081 9.91886 9.3663 9.51758 9.76758C9.1163 10.1689 8.61081 10.3412 8.01074 10.4219C7.42511 10.5006 6.67848 10.5 5.75 10.5H5C4.07152 10.5 3.32489 10.5006 2.73926 10.4219C2.13919 10.3412 1.6337 10.1689 1.23242 9.76758C0.831144 9.3663 0.658803 8.86081 0.578125 8.26074C0.49943 7.67511 0.5 6.92848 0.5 6C0.5 5.07152 0.49943 4.32489 0.578125 3.73926C0.658803 3.13919 0.831144 2.6337 1.23242 2.23242C1.6337 1.83114 2.13919 1.6588 2.73926 1.57813C3.32489 1.49943 4.07152 1.5 5 1.5H5.75C6.67848 1.5 7.42511 1.49943 8.01074 1.57813C8.61081 1.6588 9.1163 1.83114 9.51758 2.23242C9.91886 2.6337 10.0912 3.13919 10.1719 3.73926C10.2506 4.32489 10.25 5.07152 10.25 6Z" fill="currentColor"/><path d="M10 4.5C10.2215 4.5 10.438 4.49864 10.6152 4.52246 10.8068 4.54822 11.0254 4.61136 11.207 4.79297 11.3886 4.97458 11.4518 5.19316 11.4775 5.38477 11.5014 5.56197 11.5 5.77846 11.5 6 11.5 6.22154 11.5014 6.43803 11.4775 6.61523 11.4518 6.80684 11.3886 7.02542 11.207 7.20703 11.0254 7.38864 10.8068 7.45178 10.6152 7.47754 10.438 7.50136 10.2215 7.5 10 7.5V4.5ZM5.36621 4.17969C5.54304 3.96781 5.85827 3.93951 6.07031 4.11621 6.28219 4.29304 6.31049 4.60827 6.13379 4.82031L5.56738 5.5H6.25C6.44401 5.5 6.62084 5.61239 6.70312 5.78809 6.78527 5.96372 6.75793 6.17134 6.63379 6.32031L5.38379 7.82031C5.20696 8.03219 4.89173 8.06049 4.67969 7.88379 4.46781 7.70696 4.43951 7.39173 4.61621 7.17969L5.18262 6.5H4.5C4.30599 6.5 4.12916 6.38761 4.04688 6.21191 3.96473 6.03628 3.99207 5.82866 4.11621 5.67969L5.36621 4.17969Z" fill="currentColor"/></svg>