<svg xmlns="http://www.w3.org/2000/svg" width="20" height="20" fill="currentColor"><path fill="currentColor" fill-rule="evenodd" d="M5.416 10.7c.77 0 1.403-.002 1.902.065.515.069.97.22 1.332.584.363.363.514.817.583 1.332.067.499.067 1.131.067 1.901s0 1.403-.067 1.902c-.069.515-.22.97-.583 1.332-.363.364-.817.514-1.332.583-.499.067-1.132.067-1.902.067s-1.403 0-1.901-.067c-.515-.069-.97-.22-1.332-.583-.364-.363-.515-.817-.584-1.332-.067-.499-.066-1.132-.066-1.902s-.001-1.402.066-1.901c.069-.515.22-.97.584-1.332.363-.364.817-.515 1.332-.584.498-.067 1.131-.066 1.901-.066m0 1.099c-.8 0-1.346.002-1.755.056-.392.053-.576.146-.701.271s-.218.308-.27.701c-.055.409-.057.954-.057 1.755s.002 1.347.056 1.756c.053.393.146.576.271.701s.309.218.701.27c.409.055.954.056 1.755.056s1.347 0 1.756-.055c.392-.053.576-.146.701-.27.125-.126.218-.31.27-.702.055-.409.056-.955.056-1.756 0-.8 0-1.346-.055-1.755-.053-.392-.146-.576-.271-.701s-.309-.218-.701-.27c-.409-.056-.955-.057-1.756-.057m9.167-1.098a3.884 3.884 0 1 1 0 7.766 3.884 3.884 0 0 1 0-7.767m0 1.099a2.784 2.784 0 1 0 .001 5.567 2.784 2.784 0 0 0-.001-5.567M5.416 1.531a3.884 3.884 0 1 1 0 7.768 3.884 3.884 0 0 1 0-7.768m0 1.1a2.784 2.784 0 1 0 0 5.567 2.784 2.784 0 0 0 0-5.567" clip-rule="evenodd"/><path fill="currentColor" d="M14.583 2.367a.55.55 0 0 1 .55.55v1.95h1.95a.55.55 0 0 1 0 1.1h-1.95v1.95a.55.55 0 0 1-1.1 0v-1.95h-1.95a.55.55 0 1 1 0-1.1h1.95v-1.95a.55.55 0 0 1 .55-.55"/></svg>