<svg xmlns="http://www.w3.org/2000/svg" width="12" height="12" fill="currentColor"><g fill="currentColor" fill-rule="evenodd" clip-path="url(#a)" clip-rule="evenodd"><path d="M8.75 6.3a2.45 2.45 0 1 1 0 4.902 2.45 2.45 0 0 1 0-4.901m0 .901a1.55 1.55 0 1 0 0 3.1 1.55 1.55 0 0 0 0-3.1m-5.5-.903c.458 0 .847 0 1.157.04.322.044.624.14.868.385.244.244.34.546.384.868.041.31.04.698.04 1.157s.001.848-.04 1.157c-.044.322-.14.624-.384.868s-.546.34-.868.384c-.31.042-.699.041-1.157.041-.46 0-.848 0-1.158-.04-.322-.044-.624-.14-.868-.385-.244-.244-.34-.545-.384-.868C.8 9.597.8 9.208.8 8.75s-.001-.848.04-1.157c.044-.322.14-.624.384-.868s.546-.34.868-.384c.31-.042.699-.041 1.158-.041m0 .9c-.484 0-.802 0-1.038.032-.222.03-.302.08-.351.13-.05.048-.1.128-.13.35-.03.236-.031.554-.031 1.038s0 .802.032 1.037c.03.223.08.303.129.352s.129.099.351.129c.236.031.554.032 1.038.032.483 0 .801 0 1.037-.032.222-.03.302-.08.351-.13.05-.048.1-.129.13-.35.03-.236.031-.554.031-1.038s0-.802-.032-1.037c-.03-.223-.08-.303-.129-.352s-.129-.099-.351-.129C4.05 7.2 3.733 7.2 3.25 7.2m0-6.4a2.45 2.45 0 1 1 0 4.901 2.45 2.45 0 0 1 0-4.9m0 .901a1.55 1.55 0 1 0 0 3.1 1.55 1.55 0 0 0 0-3.1m5.5-.903c.458 0 .847 0 1.157.04.322.044.624.14.868.385.244.244.34.546.384.868.041.31.04.698.04 1.157s.001.848-.04 1.157c-.044.322-.14.624-.384.868s-.546.34-.868.384c-.31.042-.699.041-1.157.041-.46 0-.848 0-1.158-.04-.322-.044-.624-.14-.868-.385-.244-.244-.34-.546-.384-.868-.041-.309-.04-.698-.04-1.157s-.001-.848.04-1.157c.044-.322.14-.624.384-.868s.546-.34.868-.384c.31-.042.699-.041 1.158-.041m0 .9c-.484 0-.802 0-1.038.032-.222.03-.302.08-.351.13-.05.048-.1.129-.13.35-.03.236-.031.554-.031 1.038s0 .802.032 1.037c.03.223.08.303.129.352s.129.099.351.129c.236.031.554.032 1.038.032.483 0 .801 0 1.037-.032.222-.03.302-.08.351-.13.05-.048.1-.128.13-.35.03-.236.031-.554.031-1.038s0-.802-.032-1.037c-.03-.223-.08-.303-.129-.352s-.129-.099-.351-.129C9.55 1.7 9.233 1.7 8.75 1.7"/></g><defs><clipPath id="a"><path fill="currentColor" d="M0 0h12v12H0z"/></clipPath></defs></svg>