<svg xmlns="http://www.w3.org/2000/svg" width="20" height="20" fill="currentColor"><path fill="currentColor" fill-rule="evenodd" d="M14.583 10.7a3.884 3.884 0 1 1 0 7.766 3.884 3.884 0 0 1 0-7.767m0 1.099a2.784 2.784 0 1 0 .001 5.567 2.784 2.784 0 0 0-.001-5.567m-9.167-1.101c.77 0 1.403 0 1.902.067.515.069.97.22 1.332.583s.514.817.583 1.332c.067.499.067 1.132.067 1.902s0 1.403-.067 1.902c-.069.515-.22.97-.583 1.332s-.817.514-1.332.583c-.499.067-1.132.067-1.902.067s-1.403 0-1.901-.067c-.515-.069-.97-.22-1.332-.583-.364-.363-.515-.817-.584-1.332-.067-.499-.066-1.132-.066-1.902s-.001-1.403.066-1.902c.069-.515.22-.97.584-1.332.363-.363.817-.514 1.332-.583.498-.067 1.131-.067 1.901-.067m0 1.1c-.8 0-1.346.002-1.755.056-.392.053-.576.147-.701.272s-.218.308-.27.7c-.055.409-.057.955-.057 1.756s.002 1.347.056 1.756c.053.392.146.575.271.7s.309.219.701.272c.409.054.954.055 1.755.055s1.347 0 1.756-.055c.392-.053.576-.147.701-.272s.218-.308.27-.7c.055-.409.056-.955.056-1.756s0-1.347-.055-1.756c-.053-.392-.146-.575-.271-.7s-.309-.219-.701-.271c-.409-.055-.955-.056-1.756-.056m0-10.267a3.884 3.884 0 1 1 0 7.768 3.884 3.884 0 0 1 0-7.768m0 1.1a2.784 2.784 0 1 0 .001 5.567 2.784 2.784 0 0 0-.001-5.567m9.167-1.1c.77 0 1.403-.001 1.902.066.515.069.97.22 1.332.584.363.363.514.817.583 1.332.067.499.067 1.131.067 1.901s0 1.403-.067 1.902c-.069.515-.22.97-.583 1.332-.363.364-.817.514-1.332.583-.499.068-1.132.067-1.902.067s-1.403 0-1.902-.067c-.515-.069-.97-.22-1.332-.583-.364-.363-.514-.817-.583-1.332-.068-.499-.067-1.132-.067-1.902s0-1.402.067-1.901c.069-.515.22-.97.583-1.332s.817-.515 1.332-.584c.499-.067 1.132-.066 1.902-.066m0 1.1c-.8 0-1.347.002-1.756.057-.392.052-.575.145-.7.27s-.219.308-.272.701c-.054.409-.055.954-.055 1.755s0 1.347.055 1.756c.053.393.147.576.272.701s.308.218.7.27c.409.055.955.056 1.756.056s1.347 0 1.756-.055c.392-.053.575-.146.7-.27.125-.126.219-.31.272-.702.055-.409.055-.955.055-1.756 0-.8 0-1.346-.055-1.755-.053-.392-.147-.576-.272-.701s-.308-.218-.7-.27c-.409-.055-.955-.057-1.756-.057" clip-rule="evenodd"/></svg>