<svg xmlns="http://www.w3.org/2000/svg" width="16" height="16" fill="currentColor"><path fill="currentColor" fill-rule="evenodd" d="M4.333 8.5c.614 0 1.125 0 1.53.054.418.056.795.18 1.099.483.304.304.428.681.484 1.1.055.404.053.916.053 1.53s.002 1.125-.053 1.53c-.056.418-.18.795-.484 1.099s-.681.428-1.1.484c-.404.055-.915.053-1.529.053s-1.126.002-1.53-.053c-.419-.056-.796-.18-1.1-.484-.303-.304-.427-.681-.483-1.1-.055-.404-.054-.915-.054-1.529s0-1.126.054-1.53c.056-.419.18-.796.483-1.1.304-.303.681-.427 1.1-.483.404-.055.916-.054 1.53-.054m0 1c-.642 0-1.074 0-1.396.044-.308.041-.44.113-.527.2s-.159.219-.2.527c-.043.321-.044.753-.044 1.396s0 1.075.044 1.396c.041.308.113.439.2.526s.219.159.527.2c.322.043.754.044 1.396.044.643 0 1.075 0 1.396-.044.308-.041.439-.113.526-.2s.159-.218.2-.526c.043-.322.044-.754.044-1.396 0-.643 0-1.075-.044-1.396-.041-.308-.113-.44-.2-.527s-.218-.159-.526-.2c-.321-.043-.753-.044-1.396-.044m7.334-1a3.167 3.167 0 1 1-.001 6.333 3.167 3.167 0 0 1 .001-6.333m0 1a2.167 2.167 0 1 0 0 4.335 2.167 2.167 0 0 0 0-4.335M4.333 1.166a3.167 3.167 0 1 1-.001 6.333 3.167 3.167 0 0 1 .001-6.333m0 1a2.167 2.167 0 1 0 0 4.334 2.167 2.167 0 0 0 0-4.334" clip-rule="evenodd"/><path fill="currentColor" d="M11.666 1.834a.5.5 0 0 1 .5.5v1.5h1.5a.5.5 0 1 1 0 1h-1.5v1.5a.5.5 0 1 1-1 0v-1.5h-1.5a.5.5 0 1 1 0-1h1.5v-1.5a.5.5 0 0 1 .5-.5"/></svg>