<svg xmlns="http://www.w3.org/2000/svg" width="16" height="16" fill="currentColor"><path fill="currentColor" fill-rule="evenodd" d="M4.333 8.499c.614 0 1.125 0 1.53.054.418.056.795.18 1.099.483.304.304.428.682.484 1.1.055.405.053.916.053 1.53s.002 1.125-.053 1.53c-.056.418-.18.796-.484 1.1-.304.303-.681.427-1.1.483-.404.055-.915.054-1.529.054s-1.126 0-1.53-.054c-.419-.056-.796-.18-1.1-.483-.304-.304-.427-.682-.483-1.1-.055-.405-.054-.916-.054-1.53s0-1.125.054-1.53c.056-.418.18-.796.483-1.1.304-.303.681-.427 1.1-.483.404-.055.916-.054 1.53-.054m0 1c-.643 0-1.074.002-1.396.045-.308.041-.44.112-.527.2-.087.086-.159.218-.2.526-.043.322-.044.753-.044 1.396s0 1.075.044 1.396c.041.308.113.44.2.527s.22.158.527.2c.322.042.753.044 1.396.044s1.075-.002 1.396-.045c.307-.041.439-.112.526-.2.087-.086.159-.218.2-.525.043-.322.044-.754.044-1.397s0-1.074-.044-1.396c-.041-.308-.113-.44-.2-.527s-.219-.158-.526-.199c-.321-.043-.753-.045-1.396-.045m7.334-.999a3.167 3.167 0 1 1-.001 6.333 3.167 3.167 0 0 1 .001-6.333m0 1a2.167 2.167 0 1 0 0 4.335 2.167 2.167 0 0 0 0-4.335M4.333 1.166a3.167 3.167 0 1 1-.001 6.333 3.167 3.167 0 0 1 .001-6.333m0 1a2.167 2.167 0 1 0 0 4.334 2.167 2.167 0 0 0 0-4.334m7.333-1c.614 0 1.125 0 1.53.054.418.056.796.18 1.1.483.303.304.427.681.483 1.1.055.404.054.916.054 1.53s0 1.125-.054 1.53c-.056.418-.18.795-.483 1.099-.304.304-.682.428-1.1.484-.405.055-.916.053-1.53.053s-1.125.002-1.53-.053c-.418-.056-.796-.18-1.1-.484-.303-.304-.427-.681-.483-1.1-.055-.404-.054-.915-.054-1.529s0-1.126.054-1.53c.056-.419.18-.796.483-1.1.304-.304.682-.427 1.1-.483.405-.055.916-.054 1.53-.054m0 1c-.643 0-1.074 0-1.396.044-.308.041-.44.113-.527.2s-.158.22-.199.527c-.043.322-.045.753-.045 1.396s.002 1.075.045 1.396c.041.307.112.439.2.526.086.087.218.159.526.2.322.043.753.044 1.396.044s1.075 0 1.396-.044c.308-.041.44-.113.527-.2s.158-.219.2-.526c.042-.321.044-.753.044-1.396s-.002-1.074-.045-1.396c-.041-.308-.112-.44-.2-.527-.086-.087-.218-.159-.525-.2-.322-.043-.754-.044-1.397-.044" clip-rule="evenodd"/></svg>