<svg xmlns="http://www.w3.org/2000/svg" width="20" height="20" fill="currentColor"><path fill="currentColor" fill-rule="evenodd" d="M14.584 10.75a3.834 3.834 0 1 1-.001 7.669 3.834 3.834 0 0 1 0-7.669m0 1a2.833 2.833 0 1 0 0 5.667 2.833 2.833 0 0 0 0-5.667m-9.167-1.001c.771 0 1.4-.001 1.895.066.51.068.951.216 1.304.569.352.352.5.793.57 1.303.066.494.065 1.124.065 1.895 0 .772 0 1.4-.066 1.895-.068.51-.217.952-.57 1.304-.352.353-.794.5-1.303.569-.495.066-1.124.065-1.895.065-.772 0-1.401.001-1.896-.065-.509-.069-.95-.217-1.303-.569-.352-.352-.5-.794-.57-1.303-.066-.495-.064-1.124-.064-1.896s-.002-1.4.065-1.896c.068-.509.217-.95.57-1.302.352-.353.793-.501 1.302-.57.495-.066 1.124-.065 1.896-.065m0 1c-.8 0-1.35.001-1.762.057-.399.053-.594.15-.73.285-.135.136-.231.331-.285.73-.055.412-.056.962-.056 1.761 0 .8 0 1.349.056 1.762.054.398.15.594.285.73.136.135.331.23.73.284.413.056.962.057 1.762.057s1.35-.001 1.762-.057c.398-.053.594-.15.73-.285.135-.135.231-.331.285-.73.055-.412.057-.961.057-1.761s-.002-1.349-.057-1.762c-.054-.398-.15-.594-.285-.73-.136-.135-.332-.23-.73-.284-.413-.056-.963-.057-1.762-.057m0-10.167a3.834 3.834 0 1 1 0 7.668 3.834 3.834 0 0 1 0-7.668m0 1a2.833 2.833 0 1 0 0 5.667 2.833 2.833 0 0 0 0-5.667m9.167-1c.771 0 1.4-.001 1.895.065.51.069.951.217 1.304.57.352.352.5.794.568 1.303.067.494.066 1.124.066 1.895s0 1.4-.066 1.896c-.068.509-.216.95-.568 1.303-.353.353-.795.501-1.304.57-.495.066-1.124.065-1.896.065s-1.4.001-1.895-.065c-.51-.069-.95-.218-1.303-.57-.352-.352-.5-.794-.57-1.303-.066-.495-.065-1.125-.065-1.896s0-1.4.066-1.895c.068-.51.217-.95.57-1.303.352-.353.793-.501 1.302-.57.495-.066 1.124-.065 1.896-.065m0 1c-.8 0-1.35.001-1.762.057-.399.053-.594.15-.73.285-.135.136-.231.33-.285.73-.055.412-.056.961-.056 1.761s0 1.35.056 1.763c.054.398.15.594.285.73.136.135.332.23.73.284.412.056.962.057 1.761.057.8 0 1.35-.001 1.762-.057.398-.053.594-.15.73-.285.135-.135.231-.331.285-.73.055-.412.056-.962.056-1.762s0-1.349-.056-1.762c-.054-.398-.15-.593-.285-.73-.136-.135-.332-.23-.73-.284-.413-.056-.962-.057-1.762-.057" clip-rule="evenodd"/></svg>