<svg width="12" height="12" viewBox="0 0 12 12" fill="none" xmlns="http://www.w3.org/2000/svg"><g clip-path="url(#a)"><path d="M9 5.96856C9 5.15739 8.34242 4.49981 7.53125 4.49981H4.46875C3.65758 4.49981 3 5.15739 3 5.96856V7.49981C3 8.98628 4.08118 10.2197 5.5 10.4578V7.49981C5.5 7.22367 5.72386 6.99981 6 6.99981C6.27614 6.99981 6.5 7.22367 6.5 7.49981V10.4578C7.91882 10.2197 9 8.98628 9 7.49981V5.96856ZM6 1.99981C5.11506 1.99981 4.38473 2.65683 4.26758 3.50958C4.33397 3.50422 4.40097 3.49981 4.46875 3.49981H7.53125C7.59869 3.49981 7.66537 3.50427 7.73145 3.50958C7.61423 2.65689 6.8849 1.99981 6 1.99981ZM10 6.49981H11C11.2761 6.49981 11.5 6.72367 11.5 6.99981C11.5 7.27596 11.2761 7.49981 11 7.49981H10C10 8.11111 9.86138 8.68966 9.61621 9.20782L10.4355 9.53595L10.5254 9.58282C10.7195 9.71073 10.8035 9.96107 10.7139 10.1854C10.6242 10.4096 10.3908 10.5331 10.1621 10.492L10.0645 10.4637L9.06738 10.0652C8.33363 10.9416 7.23241 11.4998 6 11.4998C4.76737 11.4998 3.66539 10.9419 2.93164 10.0652L1.93555 10.4637C1.67916 10.5662 1.38869 10.4418 1.28613 10.1854C1.18364 9.92899 1.30809 9.63849 1.56445 9.53595L2.38281 9.20782C2.13776 8.68976 2 8.11096 2 7.49981H1C0.723858 7.49981 0.5 7.27596 0.5 6.99981C0.5 6.72367 0.723858 6.49981 1 6.49981H2V5.96856C2 5.53079 2.1146 5.11999 2.31445 4.76348L1.56445 4.46368L1.47461 4.41681C1.28045 4.2889 1.19646 4.03856 1.28613 3.81427C1.37581 3.59006 1.60917 3.46653 1.83789 3.50763L1.93555 3.53595L2.93555 3.93536C2.96363 3.94659 2.98985 3.96091 3.01465 3.97638C3.09017 3.92116 3.16831 3.86956 3.25 3.82306V3.74981C3.25 3.02523 3.53224 2.36798 3.99023 1.87677L3.24316 1.42852L3.16113 1.36798C2.99004 1.21082 2.94725 0.950021 3.07129 0.742977C3.21331 0.506283 3.52008 0.429263 3.75684 0.571102L4.875 1.242C5.21863 1.08761 5.59886 0.999813 6 0.999813C6.40083 0.999813 6.7806 1.08784 7.12402 1.242L8.24316 0.571102C8.47992 0.429263 8.78669 0.506283 8.92871 0.742977C9.07055 0.979728 8.99353 1.28651 8.75684 1.42852L8.00879 1.87677C8.46705 2.36803 8.75 3.02499 8.75 3.74981V3.82306C8.83146 3.86943 8.90904 3.92133 8.98438 3.97638C9.00938 3.96073 9.0361 3.9467 9.06445 3.93536L10.0645 3.53595C10.3208 3.43339 10.6113 3.55787 10.7139 3.81427C10.8164 4.07064 10.6919 4.36113 10.4355 4.46368L9.68457 4.76348C9.88457 5.12009 10 5.53062 10 5.96856V6.49981Z" fill="currentColor"/></g><defs><clipPath id="a"><rect width="12" height="12" rx="1.5" fill="currentColor"/></clipPath></defs></svg>