<svg xmlns="http://www.w3.org/2000/svg" width="16" height="16" fill="currentColor"><path fill="currentColor" d="M12.049 7.959A2.06 2.06 0 0 0 9.989 5.9H6.01a2.06 2.06 0 0 0-2.06 2.059V9.95a4.05 4.05 0 0 0 3.55 4.018V9.95a.5.5 0 0 1 1 0v4.018a4.05 4.05 0 0 0 3.549-4.018v-.633l-.002-.017.002-.019zm-4.05-5.31a2.423 2.423 0 0 0-2.418 2.28q.21-.029.428-.029h3.98q.218 0 .427.03a2.42 2.42 0 0 0-2.417-2.28m5.05 6.15h1.448a.5.5 0 0 1 0 1H13.05v.151c0 .828-.201 1.61-.555 2.299l1.217.486a.5.5 0 0 1-.371.929l-1.3-.52a.5.5 0 0 1-.093-.048A5.04 5.04 0 0 1 8 15a5.04 5.04 0 0 1-3.948-1.903.5.5 0 0 1-.09.048l-1.3.519a.5.5 0 1 1-.372-.929l1.214-.486A5 5 0 0 1 2.95 9.95V9.8H1.5a.5.5 0 1 1 0-1h1.45v-.841c0-.604.177-1.166.479-1.64L2.29 5.864a.5.5 0 0 1 .371-.929l1.3.52q.091.037.157.102.214-.17.457-.3v-.182c0-.97.403-1.845 1.05-2.468L4.491 1.93a.5.5 0 1 1 .515-.858l1.518.91A3.4 3.4 0 0 1 8 1.65c.527 0 1.027.12 1.473.332l1.52-.91a.5.5 0 0 1 .513.858l-1.132.678a3.42 3.42 0 0 1 1.05 2.468v.182q.244.13.458.3a.5.5 0 0 1 .159-.102l1.3-.52a.5.5 0 1 1 .37.93l-1.14.455a3.04 3.04 0 0 1 .479 1.639z"/></svg>