<svg xmlns="http://www.w3.org/2000/svg" width="20" height="20" fill="currentColor"><path fill="currentColor" d="M9.452 12.399a.55.55 0 0 1 1.1 0v5.02a5.05 5.05 0 0 0 4.5-5.02V9.95a2.6 2.6 0 0 0-2.6-2.6h-4.9a2.6 2.6 0 0 0-2.6 2.6v2.45a5.05 5.05 0 0 0 4.5 5.02zm.55-9.05a3.05 3.05 0 0 0-3.048 2.949q.292-.049.597-.049h4.9q.306.001.597.05a3.05 3.05 0 0 0-3.046-2.95m6.15 7.7h1.85a.55.55 0 0 1 0 1.1h-1.85v.25a6.1 6.1 0 0 1-.708 2.864l1.563.626a.55.55 0 1 1-.409 1.021l-1.6-.64a.5.5 0 0 1-.147-.091 6.14 6.14 0 0 1-4.85 2.37 6.14 6.14 0 0 1-4.85-2.37.5.5 0 0 1-.146.09l-1.6.641a.551.551 0 0 1-.408-1.021l1.561-.626a6.1 6.1 0 0 1-.707-2.863v-.25h-1.85a.55.55 0 0 1 0-1.101h1.85v-1.1c0-.758.228-1.464.62-2.05l-1.474-.59a.55.55 0 1 1 .409-1.02l1.6.639a.55.55 0 0 1 .208.152q.296-.24.637-.417V6.4a4.14 4.14 0 0 1 1.335-3.05l-1.467-.88a.55.55 0 0 1 .566-.942l1.9 1.14A4.1 4.1 0 0 1 10 2.248c.652 0 1.269.15 1.818.418l1.9-1.14a.55.55 0 1 1 .566.944l-1.468.88a4.14 4.14 0 0 1 1.336 3.05v.263q.34.177.636.417a.55.55 0 0 1 .21-.152l1.6-.64a.551.551 0 0 1 .41 1.022l-1.476.589c.391.587.62 1.292.62 2.05z"/></svg>