<svg xmlns="http://www.w3.org/2000/svg" width="12" height="12" fill="currentColor"><g clip-path="url(#a)"><path fill="currentColor" d="M9.05 5.97c0-.84-.68-1.52-1.519-1.52H4.47a1.52 1.52 0 0 0-1.519 1.52V7.5a3.05 3.05 0 0 0 2.6 3.016V7.501a.45.45 0 0 1 .9 0v3.015a3.05 3.05 0 0 0 2.6-3.015zM6 1.95a1.8 1.8 0 0 0-1.791 1.614q.128-.013.26-.013H7.53q.132 0 .259.013A1.8 1.8 0 0 0 6 1.951m3.95 4.6H11a.45.45 0 0 1 0 .9H9.95v.05c0 .623-.145 1.212-.401 1.736l.868.347a.45.45 0 0 1-.334.836l-1-.4-.028-.015A3.94 3.94 0 0 1 6 11.45a3.94 3.94 0 0 1-3.056-1.447l-.027.014-1 .4a.45.45 0 0 1-.334-.835l.867-.347a3.9 3.9 0 0 1-.4-1.735v-.05H1a.45.45 0 0 1 0-.9h1.05v-.582c0-.449.124-.869.338-1.229l-.805-.321a.45.45 0 0 1 .334-.836l1 .4a.5.5 0 0 1 .098.056A2.4 2.4 0 0 1 3.3 3.85v-.1c0-.734.293-1.398.767-1.885l-.798-.48a.45.45 0 1 1 .461-.77l1.141.685a2.69 2.69 0 0 1 2.255 0L8.269.615a.45.45 0 1 1 .462.771l-.8.48a2.7 2.7 0 0 1 .77 1.885v.1q.148.084.283.188a.5.5 0 0 1 .099-.056l1-.4a.45.45 0 0 1 .334.836l-.806.321c.214.36.34.78.34 1.23z"/></g><defs><clipPath id="a"><rect width="12" height="12" fill="currentColor" rx="2"/></clipPath></defs></svg>