<svg xmlns="http://www.w3.org/2000/svg" width="20" height="20" fill="currentColor"><path fill="currentColor" d="M14 .95a.55.55 0 0 1 .55.549v.95h.488a3.01 3.01 0 0 1 3.012 3.014v10.072a3.014 3.014 0 0 1-3.014 3.014H4.964a3.014 3.014 0 0 1-3.014-3.014V5.463a3.01 3.01 0 0 1 3.012-3.014h.488V1.5a.55.55 0 1 1 1.1 0v.95h6.9V1.5A.55.55 0 0 1 14 .95M3.05 8.048v7.486c0 1.057.857 1.914 1.914 1.914h10.072a1.915 1.915 0 0 0 1.914-1.914V8.05zm3.55 5.2a.8.8 0 1 1 0 1.6.8.8 0 0 1 0-1.6m3.399 0a.8.8 0 1 1 0 1.6.8.8 0 0 1 0-1.6m3.4 0a.8.8 0 1 1 0 1.6.8.8 0 0 1 0-1.6m-6.798-2.75a.8.8 0 1 1 0 1.6.8.8 0 0 1 0-1.6m3.398 0a.8.8 0 1 1 0 1.6.8.8 0 0 1 0-1.6m3.4 0a.8.8 0 1 1 0 1.6.8.8 0 0 1 0-1.6m-8.437-6.95A1.913 1.913 0 0 0 3.05 5.463v1.486h13.9V5.463a1.913 1.913 0 0 0-1.912-1.914h-.488v.95a.55.55 0 1 1-1.1 0v-.95h-6.9v.95a.55.55 0 1 1-1.1 0v-.95z"/></svg>