<svg xmlns="http://www.w3.org/2000/svg" width="20" height="20" fill="currentColor"><path fill="currentColor" d="M16.95 8.049H3.05v7.486c0 1.057.857 1.914 1.914 1.914h10.072a1.915 1.915 0 0 0 1.914-1.914zm-3 5.7a.7.7 0 1 0-1.4 0 .7.7 0 0 0 1.4 0m-.5-9.25v-.95h-6.9v.95a.55.55 0 1 1-1.1 0v-.95h-.488A1.913 1.913 0 0 0 3.05 5.463v1.486h13.9V5.463a1.913 1.913 0 0 0-1.912-1.914h-.488v.95a.55.55 0 1 1-1.1 0m1.6 9.25a1.8 1.8 0 1 1-3.6 0 1.8 1.8 0 0 1 3.6 0m3 1.786a3.014 3.014 0 0 1-3.014 3.014H4.964a3.014 3.014 0 0 1-3.014-3.014V5.463a3.01 3.01 0 0 1 3.012-3.014h.488V1.5a.55.55 0 1 1 1.1 0v.95h6.9V1.5a.55.55 0 1 1 1.1 0v.95h.488a3.01 3.01 0 0 1 3.012 3.014z"/></svg>