<svg width="12" height="12" viewBox="0 0 12 12" fill="none" xmlns="http://www.w3.org/2000/svg"><path d="M6 9.18182C6.089 9.18182 6.176 9.15516 6.25001 9.10521C6.32401 9.05527 6.38169 8.98428 6.41575 8.90122C6.44981 8.81816 6.45872 8.72677 6.44135 8.6386C6.42399 8.55042 6.38113 8.46943 6.3182 8.40586C6.25526 8.34229 6.17508 8.299 6.08779 8.28146C6.0005 8.26392 5.91002 8.27292 5.82779 8.30733C5.74557 8.34173 5.67529 8.39999 5.62584 8.47474C5.57639 8.54949 5.55 8.63737 5.55 8.72727C5.55 8.84783 5.59741 8.96344 5.6818 9.04869C5.76619 9.13393 5.88065 9.18182 6 9.18182ZM8.25 9.18182C8.339 9.18182 8.426 9.15516 8.50001 9.10521C8.57401 9.05527 8.63169 8.98428 8.66575 8.90122C8.69981 8.81816 8.70872 8.72677 8.69135 8.6386C8.67399 8.55042 8.63113 8.46943 8.5682 8.40586C8.50526 8.34229 8.42508 8.299 8.33779 8.28146C8.2505 8.26392 8.16002 8.27292 8.07779 8.30733C7.99557 8.34173 7.92528 8.39999 7.87584 8.47474C7.82639 8.54949 7.8 8.63737 7.8 8.72727C7.8 8.84783 7.84741 8.96344 7.9318 9.04869C8.01619 9.13393 8.13065 9.18182 8.25 9.18182ZM8.25 7.36364C8.339 7.36364 8.426 7.33698 8.50001 7.28703C8.57401 7.23709 8.63169 7.1661 8.66575 7.08304C8.69981 6.99998 8.70872 6.90859 8.69135 6.82041C8.67399 6.73224 8.63113 6.65125 8.5682 6.58768C8.50526 6.52411 8.42508 6.48082 8.33779 6.46328C8.2505 6.44574 8.16002 6.45474 8.07779 6.48915C7.99557 6.52355 7.92528 6.58181 7.87584 6.65656C7.82639 6.73131 7.8 6.81919 7.8 6.90909C7.8 7.02964 7.84741 7.14526 7.9318 7.2305C8.01619 7.31575 8.13065 7.36364 8.25 7.36364ZM6 7.36364C6.089 7.36364 6.176 7.33698 6.25001 7.28703C6.32401 7.23709 6.38169 7.1661 6.41575 7.08304C6.44981 6.99998 6.45872 6.90859 6.44135 6.82041C6.42399 6.73224 6.38113 6.65125 6.3182 6.58768C6.25526 6.52411 6.17508 6.48082 6.08779 6.46328C6.0005 6.44574 5.91002 6.45474 5.82779 6.48915C5.74557 6.52355 5.67529 6.58181 5.62584 6.65656C5.57639 6.73131 5.55 6.81919 5.55 6.90909C5.55 7.02964 5.59741 7.14526 5.6818 7.2305C5.76619 7.31575 5.88065 7.36364 6 7.36364ZM9.15 1.90909H8.7V1.45455C8.7 1.33399 8.65259 1.21838 8.5682 1.13313C8.48381 1.04789 8.36935 1 8.25 1C8.13065 1 8.01619 1.04789 7.9318 1.13313C7.84741 1.21838 7.8 1.33399 7.8 1.45455V1.90909H4.2V1.45455C4.2 1.33399 4.15259 1.21838 4.0682 1.13313C3.98381 1.04789 3.86935 1 3.75 1C3.63065 1 3.51619 1.04789 3.4318 1.13313C3.34741 1.21838 3.3 1.33399 3.3 1.45455V1.90909H2.85C2.49196 1.90909 2.14858 2.05276 1.89541 2.30849C1.64223 2.56422 1.5 2.91107 1.5 3.27273V9.63636C1.5 9.99802 1.64223 10.3449 1.89541 10.6006C2.14858 10.8563 2.49196 11 2.85 11H9.15C9.50804 11 9.85142 10.8563 10.1046 10.6006C10.3578 10.3449 10.5 9.99802 10.5 9.63636V3.27273C10.5 2.91107 10.3578 2.56422 10.1046 2.30849C9.85142 2.05276 9.50804 1.90909 9.15 1.90909ZM9.6 9.63636C9.6 9.75692 9.55259 9.87253 9.4682 9.95778C9.38381 10.043 9.26935 10.0909 9.15 10.0909H2.85C2.73065 10.0909 2.61619 10.043 2.5318 9.95778C2.44741 9.87253 2.4 9.75692 2.4 9.63636V5.54545H9.6V9.63636ZM9.6 4.63636H2.4V3.27273C2.4 3.15217 2.44741 3.03656 2.5318 2.95132C2.61619 2.86607 2.73065 2.81818 2.85 2.81818H3.3V3.27273C3.3 3.39328 3.34741 3.5089 3.4318 3.59414C3.51619 3.67938 3.63065 3.72727 3.75 3.72727C3.86935 3.72727 3.98381 3.67938 4.0682 3.59414C4.15259 3.5089 4.2 3.39328 4.2 3.27273V2.81818H7.8V3.27273C7.8 3.39328 7.84741 3.5089 7.9318 3.59414C8.01619 3.67938 8.13065 3.72727 8.25 3.72727C8.36935 3.72727 8.48381 3.67938 8.5682 3.59414C8.65259 3.5089 8.7 3.39328 8.7 3.27273V2.81818H9.15C9.26935 2.81818 9.38381 2.86607 9.4682 2.95132C9.55259 3.03656 9.6 3.15217 9.6 3.27273V4.63636ZM3.75 7.36364C3.839 7.36364 3.926 7.33698 4.00001 7.28703C4.07401 7.23709 4.13169 7.1661 4.16575 7.08304C4.19981 6.99998 4.20872 6.90859 4.19135 6.82041C4.17399 6.73224 4.13113 6.65125 4.0682 6.58768C4.00526 6.52411 3.92508 6.48082 3.83779 6.46328C3.7505 6.44574 3.66002 6.45474 3.57779 6.48915C3.49557 6.52355 3.42529 6.58181 3.37584 6.65656C3.32639 6.73131 3.3 6.81919 3.3 6.90909C3.3 7.02964 3.34741 7.14526 3.4318 7.2305C3.51619 7.31575 3.63065 7.36364 3.75 7.36364ZM3.75 9.18182C3.839 9.18182 3.926 9.15516 4.00001 9.10521C4.07401 9.05527 4.13169 8.98428 4.16575 8.90122C4.19981 8.81816 4.20872 8.72677 4.19135 8.6386C4.17399 8.55042 4.13113 8.46943 4.0682 8.40586C4.00526 8.34229 3.92508 8.299 3.83779 8.28146C3.7505 8.26392 3.66002 8.27292 3.57779 8.30733C3.49557 8.34173 3.42529 8.39999 3.37584 8.47474C3.32639 8.54949 3.3 8.63737 3.3 8.72727C3.3 8.84783 3.34741 8.96344 3.4318 9.04869C3.51619 9.13393 3.63065 9.18182 3.75 9.18182Z" fill="currentColor"/></svg>