<svg width="16" height="16" viewBox="0 0 16 16" fill="none" xmlns="http://www.w3.org/2000/svg"><path d="M14.1689 7.99707C14.1689 7.42899 14.1676 6.93445 14.1592 6.5H1.8457C1.83724 6.93445 1.83594 7.42899 1.83594 7.99707V9.33105C1.83594 10.6021 1.83661 11.5054 1.92871 12.1904C2.01889 12.861 2.18859 13.2472 2.4707 13.5293C2.75281 13.8114 3.13897 13.9811 3.80957 14.0713C4.49462 14.1634 5.3979 14.1641 6.66895 14.1641H9.33594C10.6071 14.1641 11.5102 14.1634 12.1953 14.0713C12.8659 13.9811 13.2521 13.8113 13.5342 13.5293C13.8163 13.2472 13.986 12.861 14.0762 12.1904C14.1683 11.5054 14.1689 10.6021 14.1689 9.33105V7.99707ZM11.5 11C11.5 10.7239 11.2761 10.5 11 10.5C10.7239 10.5 10.5 10.7239 10.5 11C10.5 11.2761 10.7239 11.5 11 11.5C11.2761 11.5 11.5 11.2761 11.5 11ZM6.66895 3.16406C5.3979 3.16406 4.49462 3.16473 3.80957 3.25684C3.13897 3.34702 2.75281 3.51672 2.4707 3.79883C2.18859 4.08094 2.01889 4.4671 1.92871 5.1377C1.91334 5.25206 1.90135 5.37279 1.89063 5.5H14.1143C14.1035 5.3728 14.0915 5.25205 14.0762 5.1377C13.986 4.46712 13.8163 4.08093 13.5342 3.79883C13.2521 3.51679 12.8659 3.347 12.1953 3.25684C11.5102 3.16474 10.6071 3.16406 9.33594 3.16406H6.66895ZM12.5 11C12.5 11.8284 11.8284 12.5 11 12.5C10.1716 12.5 9.5 11.8284 9.5 11C9.5 10.1716 10.1716 9.5 11 9.5C11.8284 9.5 12.5 10.1716 12.5 11ZM15.1689 9.33105C15.1689 10.5737 15.1705 11.5561 15.0674 12.3232C14.9623 13.1047 14.7409 13.7375 14.2422 14.2363C13.7434 14.7351 13.1105 14.9564 12.3291 15.0615C11.5619 15.1647 10.5789 15.1641 9.33594 15.1641H6.66895C5.42621 15.1641 4.44391 15.1647 3.67676 15.0615C2.89514 14.9564 2.26258 14.7352 1.76367 14.2363C1.26476 13.7374 1.04356 13.1049 0.938477 12.3232C0.835349 11.5561 0.835937 10.5738 0.835938 9.33105V7.99707C0.835937 6.75434 0.835349 5.77203 0.938477 5.00488C1.04356 4.22327 1.26476 3.59071 1.76367 3.0918C2.26258 2.59289 2.89514 2.37169 3.67676 2.2666C3.83043 2.24594 3.99275 2.22994 4.16406 2.2168V1.66406C4.16406 1.38792 4.38792 1.16406 4.66406 1.16406C4.94021 1.16406 5.16406 1.38792 5.16406 1.66406V2.17383C5.61703 2.16504 6.11733 2.16406 6.66895 2.16406H9.33594C9.88557 2.16406 10.3843 2.16514 10.8359 2.17383V1.66406C10.8359 1.38792 11.0598 1.16406 11.3359 1.16406C11.6121 1.16406 11.8359 1.38792 11.8359 1.66406V2.2168C12.0092 2.23001 12.1738 2.24573 12.3291 2.2666C13.1105 2.37172 13.7434 2.593 14.2422 3.0918C14.7409 3.59066 14.9623 4.22344 15.0674 5.00488C15.1705 5.77202 15.1689 6.75438 15.1689 7.99707V9.33105Z" fill="currentColor"/></svg>