<svg xmlns="http://www.w3.org/2000/svg" width="16" height="16" fill="currentColor"><path fill="currentColor" d="M11 1a.5.5 0 0 1 .5.5V2h.5a2.5 2.5 0 0 1 2.5 2.5v8A2.5 2.5 0 0 1 12 15H4a2.5 2.5 0 0 1-2.5-2.5v-8A2.5 2.5 0 0 1 4 2h.5v-.5a.5.5 0 0 1 1 0V2h5v-.5A.5.5 0 0 1 11 1M2.5 12.5A1.5 1.5 0 0 0 4 14h8a1.5 1.5 0 0 0 1.5-1.5V7h-11zM5.2 11a.7.7 0 1 1 0 1.401.7.7 0 0 1 0-1.401m2.801 0a.7.7 0 1 1 0 1.401A.7.7 0 0 1 8 11m2.799 0a.7.7 0 1 1 0 1.401.7.7 0 0 1 0-1.401M5.2 8.6a.7.7 0 1 1 0 1.4.7.7 0 0 1 0-1.4m2.801 0a.7.7 0 1 1 0 1.4.7.7 0 0 1 0-1.4m2.799 0a.7.7 0 1 1 0 1.4.7.7 0 0 1 0-1.4M4 3a1.5 1.5 0 0 0-1.5 1.5V6h11V4.5A1.5 1.5 0 0 0 12 3h-.5v.5a.5.5 0 0 1-1 0V3h-5v.5a.5.5 0 0 1-1 0V3z"/></svg>