<svg xmlns="http://www.w3.org/2000/svg" width="12" height="12" fill="currentColor"><path fill="currentColor" d="M10.05 5.945q-.025.005-.05.006H2l-.05-.006v3.593c0 .56.454 1.013 1.013 1.013h6.074c.56 0 1.013-.454 1.013-1.013zm-2 2.306a.3.3 0 1 0-.6 0 .3.3 0 0 0 .6 0m-.5-5.25v-.55h-3.1v.55a.45.45 0 0 1-.9 0v-.55h-.587c-.56 0-1.013.454-1.013 1.013v1.592q.025-.004.05-.005h8q.025.001.05.005V3.464c0-.56-.454-1.013-1.013-1.013H8.45v.55a.45.45 0 0 1-.9 0m1.4 5.25a1.2 1.2 0 1 1-2.4 0 1.2 1.2 0 0 1 2.4 0m2 1.287a1.914 1.914 0 0 1-1.913 1.913H2.963A1.914 1.914 0 0 1 1.05 9.538V3.464c0-1.056.857-1.913 1.913-1.913h.587V1a.45.45 0 0 1 .9 0v.55h3.1V1a.45.45 0 0 1 .9 0v.55h.587c1.056 0 1.913.857 1.913 1.913z"/></svg>