<svg xmlns="http://www.w3.org/2000/svg" width="16" height="16" fill="currentColor"><path fill="currentColor" d="M13.5 7h-11v5.5A1.5 1.5 0 0 0 4 14h8a1.5 1.5 0 0 0 1.5-1.5zM11 11a.5.5 0 1 0-1 0 .5.5 0 0 0 1 0m-.5-7.5V3h-5v.5a.5.5 0 0 1-1 0V3H4a1.5 1.5 0 0 0-1.5 1.5V6h11V4.5A1.5 1.5 0 0 0 12 3h-.5v.5a.5.5 0 0 1-1 0M12 11a1.5 1.5 0 1 1-3 0 1.5 1.5 0 0 1 3 0m2.5 1.5A2.5 2.5 0 0 1 12 15H4a2.5 2.5 0 0 1-2.5-2.5v-8A2.5 2.5 0 0 1 4 2h.5v-.5a.5.5 0 0 1 1 0V2h5v-.5a.5.5 0 0 1 1 0V2h.5a2.5 2.5 0 0 1 2.5 2.5z"/></svg>