<svg xmlns="http://www.w3.org/2000/svg" width="12" height="12" fill="currentColor"><path fill="currentColor" d="M8 .55a.45.45 0 0 1 .45.451v.55h.75c.966 0 1.75.783 1.75 1.75v6.4a1.75 1.75 0 0 1-1.75 1.75H2.8a1.75 1.75 0 0 1-1.75-1.75v-6.4c0-.967.783-1.75 1.75-1.75h.75V1a.45.45 0 0 1 .9 0v.55h3.1V1A.45.45 0 0 1 8 .551m2 5.401H2q-.025-.001-.05-.005v3.755c0 .47.38.85.85.85h6.4c.47 0 .85-.38.85-.85V5.946q-.025.004-.05.005m-6 2.25a.5.5 0 1 1 0 1 .5.5 0 0 1 0-1m2 0a.5.5 0 1 1 0 1 .5.5 0 0 1 0-1m2 0a.5.5 0 1 1 0 1 .5.5 0 0 1 0-1m-4-1.5a.5.5 0 1 1 0 1 .5.5 0 0 1 0-1m2 0a.5.5 0 1 1 0 1 .5.5 0 0 1 0-1m2 0a.5.5 0 1 1 0 1 .5.5 0 0 1 0-1m-5.2-4.25a.85.85 0 0 0-.85.85v1.754L2 5.051h8q.025 0 .05.004V3.3a.85.85 0 0 0-.85-.85h-.75V3a.45.45 0 0 1-.9 0v-.55h-3.1V3a.45.45 0 0 1-.9 0v-.55z"/></svg>