<svg width="12" height="12" viewBox="0 0 12 12" fill="none" xmlns="http://www.w3.org/2000/svg"><path d="M8.80176 2.96094V2.20605C8.80165 1.97229 8.61075 1.78125 8.37695 1.78125H1.91699C1.68329 1.78136 1.49229 1.97235 1.49219 2.20605V2.96094L1.48242 3.0625C1.43565 3.29015 1.23368 3.46094 0.992188 3.46094C0.750699 3.46094 0.548725 3.29015 0.501953 3.0625L0.492188 2.96094V2.20605C0.492293 1.42007 1.131 0.781356 1.91699 0.78125H8.37695C9.16303 0.78125 9.80165 1.42 9.80176 2.20605V2.96094C9.80176 3.23708 9.5779 3.46094 9.30176 3.46094C9.02581 3.46071 8.80176 3.23694 8.80176 2.96094Z" fill="currentColor"/><path d="M4.64844 9.0459V1.65625C4.64844 1.38011 4.87229 1.15625 5.14844 1.15625C5.42458 1.15625 5.64844 1.38011 5.64844 1.65625V9.0459C5.64844 9.32204 5.42458 9.5459 5.14844 9.5459C4.87229 9.5459 4.64844 9.32204 4.64844 9.0459Z" fill="currentColor"/><path d="M6.24316 8.54688 6.34375 8.55664C6.5717 8.60318 6.74316 8.80517 6.74316 9.04688 6.74316 9.28858 6.5717 9.49057 6.34375 9.53711L6.24316 9.54688H3.45312C3.17698 9.54688 2.95312 9.32302 2.95312 9.04688 2.95312 8.77073 3.17698 8.54688 3.45312 8.54688H6.24316ZM10.5088 6.23145V5.83203C10.5088 5.74317 10.4375 5.67188 10.3486 5.67188H6.84375C6.56761 5.67188 6.34375 5.44802 6.34375 5.17188 6.34375 4.89573 6.56761 4.67188 6.84375 4.67188H10.3486C10.9898 4.67188 11.5088 5.19089 11.5088 5.83203V6.23145C11.5088 6.50757 11.2849 6.73142 11.0088 6.73145 10.7326 6.73145 10.5088 6.50759 10.5088 6.23145Z" fill="currentColor"/><path d="M7.53906 10.7178V5.4375C7.53906 5.16136 7.76292 4.9375 8.03906 4.9375C8.31521 4.9375 8.53906 5.16136 8.53906 5.4375V10.7178C8.53891 10.9938 8.31511 11.2178 8.03906 11.2178C7.76301 11.2178 7.53921 10.9938 7.53906 10.7178Z" fill="currentColor"/><path d="M9.1084 10.2188C9.38454 10.2188 9.6084 10.4426 9.6084 10.7188C9.6084 10.9949 9.38454 11.2188 9.1084 11.2188H6.96875C6.69261 11.2188 6.46875 10.9949 6.46875 10.7188C6.46875 10.4426 6.69261 10.2188 6.96875 10.2188H9.1084Z" fill="currentColor"/></svg>