<svg xmlns="http://www.w3.org/2000/svg" width="20" height="20" fill="currentColor"><path fill="currentColor" d="M16.096 11.846c0-.432-.303-.682-.558-.682h-2.216c-.252 0-.551.245-.556.67v4.935h-.001v.68h3.33zm-4.43-7.631c0-.538-.002-.886-.036-1.143-.033-.24-.084-.317-.127-.36s-.12-.095-.36-.127c-.257-.034-.605-.036-1.142-.036-.538 0-.886.001-1.143.036-.24.032-.317.084-.36.127s-.095.12-.127.36c-.034.257-.036.605-.036 1.143V17.45h3.33v-5.604l.001-.023zm-7.76 13.234h3.33V6.986c-.01-.502-.339-.745-.557-.745H4.463c-.222 0-.558.25-.558.769zm8.86-7.282a1.6 1.6 0 0 1 .556-.102h2.216c.969 0 1.657.853 1.657 1.78v5.604H18v1.1H2a.55.55 0 1 1 0-1.1h.806V7.01c0-.937.656-1.867 1.657-1.867h2.216c.2 0 .386.038.556.105V4.215c0-.507-.001-.942.045-1.29.049-.362.16-.709.44-.99.282-.282.63-.392.992-.44.347-.047.782-.046 1.289-.046s.941-.001 1.288.045c.363.049.71.16.991.44.282.282.392.63.44.992.047.347.046.782.046 1.289z"/></svg>