<svg width="16" height="16" viewBox="0 0 16 16" fill="none" xmlns="http://www.w3.org/2000/svg"><path d="M13.5 9.66407C13.5 9.38792 13.2761 9.16407 13 9.16407H11C10.7239 9.16407 10.5 9.38792 10.5 9.66407V14.1641H13.5V9.66407ZM9.5 3.33594C9.5 2.85065 9.49882 2.53689 9.46777 2.30567C9.43862 2.0888 9.39158 2.02049 9.35352 1.98242C9.31545 1.94436 9.24714 1.89732 9.03027 1.86817C8.79905 1.83712 8.48529 1.83594 8 1.83594C7.51471 1.83594 7.20095 1.83712 6.96973 1.86817C6.75286 1.89732 6.68455 1.94436 6.64648 1.98242C6.60842 2.02049 6.56138 2.0888 6.53223 2.30567C6.50118 2.53689 6.5 2.85065 6.5 3.33594V14.1641H9.5V3.33594ZM2.5 14.1641H5.5V6.33594C5.5 6.0598 5.27614 5.83594 5 5.83594H3C2.72386 5.83594 2.5 6.0598 2.5 6.33594V14.1641ZM10.5 8.25098C10.6565 8.19559 10.8245 8.16407 11 8.16407H13C13.8284 8.16407 14.5 8.83564 14.5 9.66407V14.1641H14.6689V15.1641H1.33594C1.0598 15.1641 0.835938 14.9402 0.835938 14.6641C0.835938 14.3879 1.0598 14.1641 1.33594 14.1641H1.5V6.33594C1.5 5.50751 2.17157 4.83594 3 4.83594H5C5.1755 4.83594 5.34347 4.86747 5.5 4.92285V3.33594C5.5 2.87867 5.49888 2.48525 5.54102 2.17188C5.58509 1.84418 5.68466 1.53018 5.93945 1.27539C6.19424 1.0206 6.50824 0.921033 6.83594 0.876956C7.14931 0.834824 7.54273 0.83594 8 0.83594C8.45727 0.83594 8.85069 0.834824 9.16406 0.876956C9.49176 0.921032 9.80576 1.0206 10.0605 1.27539C10.3153 1.53018 10.4149 1.84418 10.459 2.17188C10.5011 2.48525 10.5 2.87867 10.5 3.33594V8.25098Z" fill="currentColor"/></svg>