<svg xmlns="http://www.w3.org/2000/svg" width="16" height="16" fill="currentColor"><path fill="currentColor" d="M12.9 9.5c0-.327-.227-.5-.4-.5h-1.8c-.172 0-.4.173-.4.5V14h2.6zM9.3 3.3c0-.438-.001-.717-.029-.921-.025-.19-.065-.238-.088-.262-.024-.023-.073-.063-.262-.089C8.717 2.001 8.438 2 8 2s-.717 0-.92.028c-.19.026-.24.066-.263.09s-.063.071-.088.26c-.028.205-.029.484-.029.922V14h2.6zM3.1 14h2.6V5.571l-.012-.14C5.638 5.132 5.425 5 5.3 5H3.5c-.143 0-.4.17-.4.571zm7.2-5.938Q10.488 8 10.7 8h1.8c.821 0 1.4.722 1.4 1.5V14h.6v1h-13a.5.5 0 0 1 0-1h.6V5.571C2.1 4.79 2.649 4 3.5 4h1.8q.213.002.4.063V3.3c0-.41-.001-.768.037-1.054.04-.3.133-.596.373-.836s.536-.332.836-.373C7.232 1 7.59 1 8 1s.768-.001 1.054.037c.3.04.595.133.836.373.24.24.332.536.373.836.038.286.037.644.037 1.054z"/></svg>