<svg xmlns="http://www.w3.org/2000/svg" width="12" height="12" fill="currentColor"><path fill="currentColor" d="M9.706 7.152c0-.221-.152-.318-.242-.318H8.079c-.09 0-.242.097-.242.318v3.397h1.869zM6.933 2.384c0-.34-.001-.549-.022-.7-.018-.139-.046-.16-.05-.164s-.029-.031-.164-.05a6 6 0 0 0-.699-.02c-.339 0-.549 0-.7.02-.138.02-.16.046-.164.05-.004.003-.03.025-.049.164-.02.151-.022.36-.022.7V4.06q.003.035.003.07v6.419h1.87v-.32h-.003zm-4.635 8.165h1.869v-.32h-.004V4.085a.44.44 0 0 0-.094-.247c-.053-.063-.105-.081-.144-.081H2.54c-.039 0-.092.018-.145.08a.46.46 0 0 0-.097.294zM7.832 5.96q.118-.027.247-.027h1.385c.674 0 1.141.591 1.141 1.218v3.397H11v.9H1a.45.45 0 0 1 0-.9h.397V4.13c0-.627.442-1.275 1.143-1.275h1.385q.125 0 .238.027v-.5c0-.313 0-.593.03-.819.031-.238.106-.481.305-.68s.442-.274.68-.306c.226-.03.507-.03.82-.03.314 0 .594 0 .82.03.238.032.481.107.68.306s.273.442.305.68c.03.226.029.506.029.82z"/></svg>