<svg width="16" height="16" viewBox="0 0 16 16" fill="none" xmlns="http://www.w3.org/2000/svg"><g clip-path="url(#a)"><path d="M14.1665 8.00098C14.1665 4.59533 11.4061 1.83416 8.00049 1.83398C4.59473 1.83398 1.8335 4.59522 1.8335 8.00098C1.83367 11.4066 4.59484 14.167 8.00049 14.167C11.406 14.1668 14.1663 11.4065 14.1665 8.00098ZM9.97998 5.98047C10.1752 5.78521 10.4917 5.78521 10.687 5.98047C10.8823 6.17573 10.8823 6.49224 10.687 6.6875L7.354 10.0205C7.15874 10.2158 6.84223 10.2158 6.64697 10.0205L5.31299 8.6875C5.11794 8.49228 5.11794 8.17569 5.31299 7.98047C5.5082 7.78526 5.82474 7.78537 6.02002 7.98047L6.99951 8.95996L9.97998 5.98047ZM15.1665 8.00098C15.1663 11.9588 11.9583 15.1668 8.00049 15.167C4.04256 15.167 0.833672 11.9589 0.833496 8.00098C0.833496 4.04294 4.04245 0.833984 8.00049 0.833984C11.9584 0.83416 15.1665 4.04304 15.1665 8.00098Z" fill="currentColor"/></g><defs><clipPath id="a"><path fill="currentColor" d="M0 0H16V16H0z"/></clipPath></defs></svg>