<svg xmlns="http://www.w3.org/2000/svg" width="16" height="16" fill="currentColor"><path fill="currentColor" d="M5.146 11.074a.5.5 0 0 1 0 1h-.4a.5.5 0 1 1 0-1zm6.08 0a.5.5 0 0 1 0 1h-4.2a.5.5 0 1 1 0-1zm-6.08-2.27a.5.5 0 0 1 0 1h-.4a.5.5 0 0 1 0-1zm6.08 0a.5.5 0 0 1 0 1h-4.2a.5.5 0 0 1 0-1zm-6.08-2.28a.5.5 0 0 1 0 1h-.4a.5.5 0 1 1 0-1zm6.08 0a.5.5 0 0 1 0 1h-4.2a.5.5 0 1 1 0-1zM10 2.3a.3.3 0 0 0-.3-.3H6.3a.3.3 0 0 0-.3.3v1.4a.3.3 0 0 0 .3.3h3.4a.3.3 0 0 0 .3-.3zm4.5 10.2A2.5 2.5 0 0 1 12 15H4a2.5 2.5 0 0 1-2.5-2.5v-8A2.5 2.5 0 0 1 4 2h1.036A1.3 1.3 0 0 1 6.3 1h3.4a1.3 1.3 0 0 1 1.264 1H12a2.5 2.5 0 0 1 2.5 2.5zM11 3.7A1.3 1.3 0 0 1 9.7 5H6.3A1.3 1.3 0 0 1 5 3.7V3H4a1.5 1.5 0 0 0-1.5 1.5v8A1.5 1.5 0 0 0 4 14h8a1.5 1.5 0 0 0 1.5-1.5v-8A1.5 1.5 0 0 0 12 3h-1z"/></svg>