<svg xmlns="http://www.w3.org/2000/svg" width="20" height="20" fill="currentColor"><path fill="currentColor" d="M6.547 13.502a.55.55 0 1 1 0 1.1h-.6a.55.55 0 0 1 0-1.1zm7.452 0a.55.55 0 1 1 0 1.1h-5.8a.55.55 0 0 1 0-1.1zm-7.452-2.701a.55.55 0 1 1 0 1.1h-.6a.55.55 0 0 1 0-1.1zm7.452 0a.55.55 0 1 1 0 1.1h-5.8a.55.55 0 0 1 0-1.1zM6.547 8.1a.55.55 0 1 1 0 1.1h-.6a.55.55 0 0 1 0-1.1zm7.452 0a.55.55 0 1 1 0 1.1h-5.8a.55.55 0 0 1 0-1.1zM12.45 2.799a.25.25 0 0 0-.25-.25H7.8a.25.25 0 0 0-.25.25v1.4c0 .138.112.25.25.25h4.4a.25.25 0 0 0 .25-.25zm1.1 1.4a1.35 1.35 0 0 1-1.35 1.35H7.8a1.35 1.35 0 0 1-1.35-1.35v-.15H5.3a1.75 1.75 0 0 0-1.75 1.75v9.9c0 .967.783 1.75 1.75 1.75h9.4a1.75 1.75 0 0 0 1.75-1.75V5.8a1.75 1.75 0 0 0-1.75-1.75h-1.15zm0-1.25h1.15a2.85 2.85 0 0 1 2.85 2.85v9.9a2.85 2.85 0 0 1-2.85 2.85H5.3a2.85 2.85 0 0 1-2.85-2.85V5.8A2.85 2.85 0 0 1 5.3 2.95h1.15V2.8c0-.746.604-1.35 1.35-1.35h4.4c.746 0 1.35.604 1.35 1.35z"/></svg>