<svg width="12" height="12" viewBox="0 0 12 12" fill="none" xmlns="http://www.w3.org/2000/svg"><path d="M10 4.99707C10 4.27591 9.99861 3.78536 9.94922 3.41797C9.90176 3.06494 9.81832 2.90132 9.70703 2.79004C9.60881 2.69184 9.47128 2.61651 9.2041 2.56738C9.01303 2.53229 8.77779 2.51471 8.47559 2.50586C8.35822 3.07442 7.85527 3.50195 7.25195 3.50195H4.75195C4.14857 3.50195 3.64464 3.07451 3.52734 2.50586C3.22373 2.51468 2.98758 2.53217 2.7959 2.56738C2.52872 2.61651 2.39119 2.69184 2.29297 2.79004C2.18168 2.90132 2.09825 3.06494 2.05078 3.41797C2.00139 3.78536 2 4.27591 2 4.99707V7.99707C2 8.71815 2.00142 9.20879 2.05078 9.57617C2.09824 9.92914 2.18171 10.0928 2.29297 10.2041C2.40425 10.3154 2.56787 10.3988 2.9209 10.4463C3.2883 10.4957 3.77884 10.4971 4.5 10.4971H7.5C8.22116 10.4971 8.71171 10.4957 9.0791 10.4463C9.43213 10.3988 9.59575 10.3154 9.70703 10.2041C9.81829 10.0928 9.90176 9.92914 9.94922 9.57617C9.99858 9.20879 10 8.71815 10 7.99707V4.99707ZM3.74805 8.24805C4.02419 8.24805 4.24805 8.4719 4.24805 8.74805C4.24805 9.02419 4.02419 9.24805 3.74805 9.24805H3.49805C3.22191 9.24805 2.99805 9.02419 2.99805 8.74805C2.99805 8.4719 3.22191 8.24805 3.49805 8.24805H3.74805ZM8.5 8.24805C8.77614 8.24805 9 8.4719 9 8.74805C9 9.02419 8.77614 9.24805 8.5 9.24805H5.25C4.97386 9.24805 4.75 9.02419 4.75 8.74805C4.75 8.4719 4.97386 8.24805 5.25 8.24805H8.5ZM3.74805 6.50195L3.84863 6.51172C4.0766 6.55825 4.24805 6.76024 4.24805 7.00195C4.24805 7.24367 4.0766 7.44566 3.84863 7.49219L3.74805 7.50195H3.49805C3.22191 7.50195 2.99805 7.2781 2.99805 7.00195C2.99805 6.72581 3.22191 6.50195 3.49805 6.50195H3.74805ZM8.5 6.50195C8.77614 6.50195 9 6.72581 9 7.00195C9 7.2781 8.77614 7.50195 8.5 7.50195H5.25C4.97386 7.50195 4.75 7.2781 4.75 7.00195C4.75 6.72581 4.97386 6.50195 5.25 6.50195H8.5ZM3.74805 4.75L3.84863 4.75977C4.0766 4.80629 4.24805 5.00829 4.24805 5.25C4.24805 5.49171 4.0766 5.69371 3.84863 5.74023L3.74805 5.75H3.49805C3.22191 5.75 2.99805 5.52614 2.99805 5.25C2.99805 4.97386 3.22191 4.75 3.49805 4.75H3.74805ZM8.5 4.75C8.77614 4.75 9 4.97386 9 5.25C9 5.52614 8.77614 5.75 8.5 5.75H5.25C4.97386 5.75 4.75 5.52614 4.75 5.25C4.75 4.97386 4.97386 4.75 5.25 4.75H8.5ZM4.75195 1.50195C4.61388 1.50195 4.50195 1.61388 4.50195 1.75195V2.25195C4.50195 2.39002 4.61388 2.50195 4.75195 2.50195H7.25195C7.39003 2.50195 7.50195 2.39002 7.50195 2.25195V1.75195C7.50195 1.61388 7.39003 1.50195 7.25195 1.50195H4.75195ZM11 7.99707C11 8.69004 11.0009 9.26043 10.9404 9.70996C10.878 10.1737 10.742 10.5832 10.4141 10.9111C10.0861 11.2391 9.67665 11.3751 9.21289 11.4375C8.76336 11.4979 8.19297 11.4971 7.5 11.4971H4.5C3.80703 11.4971 3.23664 11.4979 2.78711 11.4375C2.32336 11.3751 1.9139 11.2391 1.58594 10.9111C1.25799 10.5832 1.12196 10.1737 1.05957 9.70996C0.999133 9.26043 1 8.69004 1 7.99707V4.99707C1 4.30415 0.999136 3.73369 1.05957 3.28418C1.12197 2.82046 1.258 2.41095 1.58594 2.08301C1.87175 1.79722 2.22049 1.65654 2.61524 1.58398C2.88005 1.53534 3.18423 1.51415 3.52637 1.50488C3.64105 0.932864 4.14618 0.501953 4.75195 0.501953H7.25195C7.85799 0.501953 8.36217 0.933466 8.47656 1.50586C8.81749 1.51517 9.12071 1.53548 9.38477 1.58398C9.77951 1.65654 10.1282 1.79722 10.4141 2.08301C10.742 2.41095 10.878 2.82046 10.9404 3.28418C11.0009 3.73369 11 4.30415 11 4.99707V7.99707Z" fill="currentColor"/></svg>