<svg width="16" height="16" viewBox="0 0 16 16" fill="none" xmlns="http://www.w3.org/2000/svg"><path d="M13.5 6.66309C13.5 5.70628 13.4993 5.0387 13.4316 4.53516C13.3659 4.04605 13.245 3.78704 13.0605 3.60254C12.8982 3.44024 12.6796 3.3282 12.3018 3.25879C12.0047 3.20424 11.6362 3.18016 11.1582 3.16992C11.0749 3.9195 10.4407 4.50293 9.66895 4.50293H6.33594C5.56409 4.50293 4.92893 3.91957 4.8457 3.16992C4.36578 3.18012 3.99607 3.20409 3.69824 3.25879C3.32037 3.3282 3.10176 3.44024 2.93945 3.60254C2.755 3.78704 2.63412 4.04605 2.56836 4.53516C2.50069 5.0387 2.5 5.70628 2.5 6.66309V10.6631C2.5 11.6199 2.50066 12.2875 2.56836 12.791C2.63413 13.2801 2.75496 13.5391 2.93945 13.7236C3.12395 13.9081 3.38301 14.028 3.87207 14.0938C4.37564 14.1615 5.04306 14.1631 6 14.1631H10C10.9569 14.1631 11.6244 14.1615 12.1279 14.0938C12.617 14.028 12.8761 13.9081 13.0605 13.7236C13.245 13.5391 13.3659 13.2801 13.4316 12.791C13.4993 12.2875 13.5 11.6199 13.5 10.6631V6.66309ZM4.99707 11.1641C5.27321 11.1641 5.49707 11.3879 5.49707 11.6641C5.49707 11.9402 5.27321 12.1641 4.99707 12.1641H4.66406C4.38792 12.1641 4.16406 11.9402 4.16406 11.6641C4.16406 11.3879 4.38792 11.1641 4.66406 11.1641H4.99707ZM11.333 11.1641C11.6091 11.1641 11.833 11.3879 11.833 11.6641C11.833 11.9402 11.6091 12.1641 11.333 12.1641H7C6.72386 12.1641 6.5 11.9402 6.5 11.6641C6.5 11.3879 6.72386 11.1641 7 11.1641H11.333ZM4.99707 8.83594C5.27321 8.83594 5.49707 9.0598 5.49707 9.33594C5.49707 9.61208 5.27321 9.83594 4.99707 9.83594H4.66406C4.38792 9.83594 4.16406 9.61208 4.16406 9.33594C4.16406 9.0598 4.38792 8.83594 4.66406 8.83594H4.99707ZM11.333 8.83594C11.6091 8.83594 11.833 9.0598 11.833 9.33594C11.833 9.61208 11.6091 9.83594 11.333 9.83594H7C6.72386 9.83594 6.5 9.61208 6.5 9.33594C6.5 9.0598 6.72386 8.83594 7 8.83594H11.333ZM4.99707 6.5C5.27321 6.5 5.49707 6.72386 5.49707 7C5.49707 7.27614 5.27321 7.5 4.99707 7.5H4.66406C4.38792 7.5 4.16406 7.27614 4.16406 7C4.16406 6.72386 4.38792 6.5 4.66406 6.5H4.99707ZM11.333 6.5C11.6091 6.5 11.833 6.72386 11.833 7C11.833 7.27614 11.6091 7.5 11.333 7.5H7C6.72386 7.5 6.5 7.27614 6.5 7C6.5 6.72386 6.72386 6.5 7 6.5H11.333ZM6.33594 1.83594C6.0598 1.83594 5.83594 2.0598 5.83594 2.33594V3.00293C5.83611 3.27892 6.0599 3.50293 6.33594 3.50293H9.66895C9.94498 3.50293 10.1688 3.27892 10.1689 3.00293V2.33594C10.1689 2.0598 9.94509 1.83594 9.66895 1.83594H6.33594ZM14.5 10.6631C14.5 11.5916 14.5006 12.3382 14.4219 12.9238C14.3412 13.5239 14.1689 14.0294 13.7676 14.4307C13.3663 14.8319 12.8608 15.0043 12.2607 15.085C11.6751 15.1637 10.9285 15.1631 10 15.1631H6C5.07153 15.1631 4.32489 15.1637 3.73926 15.085C3.13923 15.0043 2.63369 14.8319 2.23242 14.4307C1.83114 14.0294 1.6588 13.5239 1.57813 12.9238C1.49941 12.3382 1.5 11.5916 1.5 10.6631V6.66309C1.5 5.73441 1.49938 4.98706 1.57813 4.40137C1.65882 3.80153 1.8313 3.29668 2.23242 2.89551C2.58238 2.54555 3.01225 2.36821 3.51758 2.27539C3.89389 2.20627 4.33476 2.18024 4.84473 2.16992C4.92732 1.4196 5.56361 0.835938 6.33594 0.835938H9.66895C10.4412 0.835938 11.0765 1.41967 11.1592 2.16992C11.6675 2.18029 12.1071 2.20645 12.4824 2.27539C12.9878 2.36821 13.4176 2.54555 13.7676 2.89551C14.1687 3.29668 14.3412 3.80153 14.4219 4.40137C14.5006 4.98706 14.5 5.73441 14.5 6.66309V10.6631Z" fill="currentColor"/></svg>