<svg xmlns="http://www.w3.org/2000/svg" width="12" height="12" fill="currentColor"><path fill="currentColor" d="M10.05 3.3a.85.85 0 0 0-.85-.849h-.882c-.119.515-.58.9-1.13.9H4.813a1.16 1.16 0 0 1-1.132-.9H2.8a.85.85 0 0 0-.85.85v6.4c0 .47.38.85.85.85h6.4c.47 0 .85-.38.85-.85zM3.967 8.134a.45.45 0 0 1 0 .9h-.29a.45.45 0 0 1 0-.9zm4.395 0a.45.45 0 0 1 0 .9H5.326a.45.45 0 0 1 0-.9zM3.967 6.49a.45.45 0 0 1 0 .9h-.29a.45.45 0 0 1 0-.9zm4.395 0a.45.45 0 0 1 0 .9H5.326a.45.45 0 0 1 0-.9zM3.967 4.844a.45.45 0 0 1 0 .9h-.29a.45.45 0 0 1 0-.9zm4.395 0a.45.45 0 0 1 0 .9H5.326a.45.45 0 0 1 0-.9zM4.812 1.45a.263.263 0 0 0-.262.263v.474c0 .145.118.263.263.263h2.375a.26.26 0 0 0 .261-.263v-.474a.26.26 0 0 0-.261-.263zM10.95 9.7a1.75 1.75 0 0 1-1.75 1.75H2.8A1.75 1.75 0 0 1 1.05 9.7V3.3c0-.967.783-1.75 1.75-1.75h.862c.08-.565.564-1 1.15-1h2.375c.587 0 1.07.435 1.15 1H9.2c.966 0 1.75.783 1.75 1.75z"/></svg>