<svg width="12" height="12" viewBox="0 0 12 12" fill="none" xmlns="http://www.w3.org/2000/svg"><path fill-rule="evenodd" clip-rule="evenodd" d="M5.99916 2.24531C3.92597 2.24531 2.24531 3.92597 2.24531 5.99916C2.24531 8.07235 3.92597 9.75301 5.99916 9.75301C8.07235 9.75301 9.75301 8.07235 9.75301 5.99916C9.75301 3.92597 8.07235 2.24531 5.99916 2.24531ZM1.44531 5.99916C1.44531 3.48414 3.48414 1.44531 5.99916 1.44531C8.51418 1.44531 10.553 3.48414 10.553 5.99916C10.553 8.51418 8.51418 10.553 5.99916 10.553C3.48414 10.553 1.44531 8.51418 1.44531 5.99916ZM5.72224 3.75301C5.94315 3.75301 6.12224 3.93209 6.12224 4.15301V5.95273L7.70884 6.5477C7.91569 6.62527 8.02049 6.85584 7.94292 7.06269C7.86535 7.26953 7.63479 7.37434 7.42794 7.29677L5.58179 6.60446C5.42566 6.54591 5.32224 6.39667 5.32224 6.22993V4.15301C5.32224 3.93209 5.50132 3.75301 5.72224 3.75301Z" fill="currentColor"/></svg>