<svg width="16" height="16" viewBox="0 0 16 16" fill="none" xmlns="http://www.w3.org/2000/svg"><path d="M14 8C14 4.68629 11.3137 2 8 2C4.68629 2 2 4.68629 2 8C2 11.3137 4.68629 14 8 14V15C4.13401 15 1 11.866 1 8C1 4.13401 4.13401 1 8 1C11.866 1 15 4.13401 15 8C15 11.866 11.866 15 8 15V14C11.3137 14 14 11.3137 14 8Z" fill="currentColor"/><path d="M7.5 5C7.5 4.72386 7.72386 4.5 8 4.5C8.27614 4.5 8.5 4.72386 8.5 5V8.16113L10.6855 9.03613C10.9419 9.13869 11.0664 9.42916 10.9639 9.68555C10.8613 9.94194 10.5708 10.0664 10.3145 9.96387L7.81445 8.96387C7.62462 8.88794 7.5 8.70445 7.5 8.5V5Z" fill="currentColor"/></svg>