<svg width="12" height="12" viewBox="0 0 12 12" fill="none" xmlns="http://www.w3.org/2000/svg"><path d="M8.12301 3.17184C8.31827 2.97658 8.63478 2.97658 8.83004 3.17184C9.0253 3.3671 9.0253 3.68361 8.83004 3.87887L6.70699 6.00192L8.82711 8.12203L8.89059 8.20016C9.0187 8.39423 8.99795 8.65822 8.82711 8.82906C8.65627 8.99991 8.39228 9.02065 8.1982 8.89254L8.12008 8.82906L5.99996 6.70895L3.87985 8.82906C3.68455 9.02388 3.36793 9.02418 3.17281 8.82906C2.9777 8.63395 2.978 8.31733 3.17281 8.12203L5.29293 6.00192L3.16988 3.87887C2.97462 3.68361 2.97462 3.3671 3.16988 3.17184C3.36515 2.97658 3.68165 2.97658 3.87692 3.17184L5.99996 5.29488L8.12301 3.17184Z" fill="currentColor"/></svg>