<svg width="16" height="16" viewBox="0 0 16 16" fill="none" xmlns="http://www.w3.org/2000/svg"><path d="M10.6464 4.64645C10.8417 4.45118 11.1582 4.45118 11.3535 4.64645C11.5487 4.84171 11.5487 5.15822 11.3535 5.35348L8.70699 7.99996L11.3535 10.6464L11.4179 10.7246C11.5461 10.9187 11.5243 11.1826 11.3535 11.3535C11.1826 11.5243 10.9187 11.5461 10.7246 11.4179L10.6464 11.3535L7.99996 8.70699L5.35348 11.3535C5.15822 11.5487 4.84171 11.5487 4.64645 11.3535C4.45118 11.1582 4.45118 10.8417 4.64645 10.6464L7.29293 7.99996L4.64645 5.35348C4.45118 5.15822 4.45118 4.84171 4.64645 4.64645C4.84171 4.45118 5.15822 4.45118 5.35348 4.64645L7.99996 7.29293L10.6464 4.64645Z" fill="currentColor"/></svg>