<svg width="16" height="16" viewBox="0 0 16 16" fill="none" xmlns="http://www.w3.org/2000/svg"><path d="M14 2.5C14 2.22386 13.7761 2 13.5 2H10.667V14.001H13.5C13.7761 14.001 14 13.7771 14 13.501V2.5ZM6.33301 14.001H9.66699V2H6.33301V14.001ZM2 13.501C2.00003 13.7771 2.22388 14.001 2.5 14.001H5.33301V2H2.5C2.22386 2 2 2.22386 2 2.5V13.501ZM15 13.501C15 14.3294 14.3284 15.001 13.5 15.001H2.5C1.67159 15.001 1.00003 14.3294 1 13.501V2.5C1 1.67157 1.67157 1 2.5 1H13.5C14.3284 1 15 1.67157 15 2.5V13.501Z" fill="currentColor"/></svg>