<svg width="12" height="12" viewBox="0 0 12 12" fill="none" xmlns="http://www.w3.org/2000/svg"><g clip-path="url(#a)"><path d="M1.5 6C1.5 3.51472 3.51472 1.5 6 1.5C8.48528 1.5 10.5 3.51472 10.5 6C10.5 8.48528 8.48528 10.5 6 10.5C5.2793 10.5 4.59976 10.3304 3.99707 10.0303C3.72486 9.89469 3.39569 9.84165 3.07031 9.92871L1.95703 10.2266C1.84587 10.256 1.74405 10.1541 1.77344 10.043L2.07129 8.92969C2.15835 8.60431 2.10531 8.27514 1.96973 8.00293C1.66956 7.40024 1.5 6.7207 1.5 6ZM0.5 6C0.5 6.87892 0.70658 7.71111 1.07422 8.44922C1.11605 8.53323 1.12125 8.61176 1.10547 8.6709L0.807617 9.78418C0.579007 10.6389 1.36107 11.421 2.21582 11.1924L3.3291 10.8945C3.38824 10.8787 3.46677 10.884 3.55078 10.9258C4.28889 11.2934 5.12108 11.5 6 11.5C9.03757 11.5 11.5 9.03757 11.5 6C11.5 2.96243 9.03757 0.5 6 0.5C2.96243 0.5 0.5 2.96243 0.5 6Z" fill="currentColor"/></g><defs><clipPath id="a"><path fill="currentColor" d="M0 0H12V12H0z"/></clipPath></defs></svg>