<svg xmlns="http://www.w3.org/2000/svg" width="20" height="20" fill="currentColor"><path fill="currentColor" d="M17.45 4.299a1.75 1.75 0 0 0-1.75-1.75H4.3a1.75 1.75 0 0 0-1.75 1.75v8.2c0 .966.783 1.75 1.75 1.75h1.548c.755 0 1.48.3 2.014.835L10 17.222l2.138-2.138a2.85 2.85 0 0 1 2.014-.835H15.7a1.75 1.75 0 0 0 1.75-1.75zm-6.65 5.15a.55.55 0 1 1 0 1.1h-4a.55.55 0 0 1 0-1.1zm2.4-2.4a.55.55 0 0 1 0 1.1H6.8a.55.55 0 0 1 0-1.1zm5.35 5.45a2.85 2.85 0 0 1-2.85 2.85h-1.548a1.75 1.75 0 0 0-1.237.512l-2.413 2.413a.71.71 0 0 1-1.004 0l-2.413-2.413a1.75 1.75 0 0 0-1.237-.512H4.3a2.85 2.85 0 0 1-2.85-2.85v-8.2a2.85 2.85 0 0 1 2.85-2.85h11.4a2.85 2.85 0 0 1 2.85 2.85z"/></svg>