<svg width="12" height="12" viewBox="0 0 12 12" fill="none" xmlns="http://www.w3.org/2000/svg"><g clip-path="url(#a)"><path d="M6 0.5C9.03757 0.5 11.5 2.96243 11.5 6C11.5 9.03757 9.03757 11.5 6 11.5C5.12108 11.5 4.28889 11.2934 3.55078 10.9258C3.46677 10.884 3.38824 10.8787 3.3291 10.8945L2.21582 11.1924C1.36107 11.421 0.579007 10.6389 0.807617 9.78418L1.10547 8.6709C1.12125 8.61176 1.11605 8.53323 1.07422 8.44922C0.70658 7.71111 0.5 6.87892 0.5 6C0.5 2.96243 2.96243 0.5 6 0.5ZM4.5 6.5C4.22386 6.5 4 6.72386 4 7C4 7.27614 4.22386 7.5 4.5 7.5H5.5C5.77614 7.5 6 7.27614 6 7C6 6.72386 5.77614 6.5 5.5 6.5H4.5ZM4.5 4.5C4.22386 4.5 4 4.72386 4 5C4 5.27614 4.22386 5.5 4.5 5.5H7.5C7.77614 5.5 8 5.27614 8 5C8 4.72386 7.77614 4.5 7.5 4.5H4.5Z" fill="currentColor"/></g><defs><clipPath id="a"><path fill="currentColor" d="M0 0H12V12H0z"/></clipPath></defs></svg>