<svg width="16" height="16" viewBox="0 0 16 16" fill="none" xmlns="http://www.w3.org/2000/svg"><g clip-path="url(#a)"><path d="M14.5 6.9502C14.5 5.79488 14.4992 4.96334 14.4375 4.31445C14.3765 3.67299 14.2593 3.26168 14.0576 2.93262C13.8103 2.52899 13.471 2.18974 13.0674 1.94238C12.7383 1.74074 12.327 1.62349 11.6855 1.5625C11.0367 1.50082 10.2051 1.5 9.0498 1.5H6.9502C5.79489 1.5 4.96333 1.50082 4.31445 1.5625C3.673 1.62349 3.26167 1.74074 2.93262 1.94238C2.52899 2.18974 2.18974 2.52899 1.94238 2.93262C1.74074 3.26168 1.62349 3.67299 1.5625 4.31445C1.50081 4.96334 1.5 5.79488 1.5 6.9502V7.65039C1.5 8.47244 1.50036 9.06418 1.53223 9.53125C1.56379 9.99368 1.6248 10.2974 1.72852 10.5479C2.03296 11.2829 2.6166 11.8674 3.35156 12.1719C3.71733 12.3234 4.18272 12.3794 5.06152 12.3945C5.34964 12.3995 5.59986 12.4029 5.80664 12.4258C6.02279 12.4497 6.2328 12.4975 6.43359 12.6143C6.63275 12.7301 6.77672 12.8859 6.90332 13.0596C7.02371 13.2248 7.14775 13.4354 7.29004 13.6758L7.66992 14.3164C7.81453 14.5607 8.18547 14.5607 8.33008 14.3164L8.70996 13.6758C8.85225 13.4354 8.97629 13.2248 9.09668 13.0596C9.22328 12.8859 9.36725 12.7301 9.56641 12.6143C9.7672 12.4975 9.97722 12.4497 10.1934 12.4258C10.4001 12.4029 10.6504 12.3995 10.9385 12.3945C11.8173 12.3794 12.2827 12.3234 12.6484 12.1719C13.3834 11.8674 13.967 11.2829 14.2715 10.5479C14.3752 10.2974 14.4362 9.99368 14.4678 9.53125C14.4996 9.06418 14.5 8.47244 14.5 7.65039V6.9502ZM8.66699 7.5C8.94299 7.50018 9.16699 7.72397 9.16699 8C9.16699 8.27603 8.94299 8.49982 8.66699 8.5H5C4.72386 8.5 4.5 8.27614 4.5 8C4.5 7.72386 4.72386 7.5 5 7.5H8.66699ZM10.333 5.5C10.6091 5.5 10.833 5.72386 10.833 6C10.833 6.27614 10.6091 6.5 10.333 6.5H5C4.72386 6.5 4.5 6.27614 4.5 6C4.5 5.72386 4.72386 5.5 5 5.5H10.333ZM15.5 7.65039C15.5 8.45851 15.5005 9.08973 15.4658 9.59863C15.4308 10.1122 15.358 10.538 15.1953 10.9307C14.7893 11.9108 14.0104 12.6897 13.0303 13.0957C12.4718 13.3269 11.8344 13.3784 10.9561 13.3936C10.6492 13.3988 10.4526 13.4033 10.3027 13.4199C10.1624 13.4355 10.1049 13.4588 10.0693 13.4795C10.0321 13.5012 9.98478 13.5394 9.90527 13.6484C9.81949 13.7661 9.72219 13.928 9.57031 14.1846L9.19141 14.8262C8.65958 15.7247 7.34042 15.7247 6.80859 14.8262L6.42969 14.1846C6.27781 13.928 6.18052 13.7661 6.09473 13.6484C6.01523 13.5394 5.96786 13.5012 5.93066 13.4795C5.89511 13.4588 5.83753 13.4355 5.69727 13.4199C5.54743 13.4033 5.35085 13.3988 5.04395 13.3936C4.16556 13.3784 3.52825 13.3269 2.96973 13.0957C1.98961 12.6897 1.21066 11.9108 0.804688 10.9307C0.642042 10.538 0.569219 10.1122 0.53418 9.59863C0.499486 9.08973 0.5 8.45851 0.5 7.65039V6.9502C0.5 5.81423 0.499174 4.92693 0.566407 4.21973C0.634357 3.50507 0.775731 2.92274 1.08984 2.41016C1.41965 1.87199 1.87199 1.41965 2.41016 1.08984C2.92274 0.775729 3.50507 0.634357 4.21973 0.566407C4.92692 0.499175 5.81424 0.5 6.9502 0.5H9.0498C10.1858 0.5 11.0731 0.499175 11.7803 0.566407C12.4949 0.634357 13.0773 0.775729 13.5898 1.08984C14.128 1.41965 14.5804 1.87199 14.9102 2.41016C15.2243 2.92275 15.3656 3.50507 15.4336 4.21973C15.5008 4.92693 15.5 5.81423 15.5 6.9502V7.65039Z" fill="currentColor"/></g><defs><clipPath id="a"><path fill="currentColor" d="M0 0H16V16H0z"/></clipPath></defs></svg>