<svg xmlns="http://www.w3.org/2000/svg" width="12" height="12" fill="currentColor"><g clip-path="url(#a)"><path fill="currentColor" d="M1.45 6.001a4.55 4.55 0 1 1 2.525 4.075 1.27 1.27 0 0 0-.892-.098l-1.112.297a.2.2 0 0 1-.245-.245l.297-1.112a1.27 1.27 0 0 0-.098-.892 4.5 4.5 0 0 1-.475-2.025m-.9 0c0 .871.205 1.695.57 2.427a.37.37 0 0 1 .034.257L.856 9.798a1.1 1.1 0 0 0 1.347 1.347l1.113-.298a.37.37 0 0 1 .257.035A5.45 5.45 0 1 0 .55 6.002"/></g><defs><clipPath id="a"><path fill="currentColor" d="M0 0h12v12H0z"/></clipPath></defs></svg>