<svg xmlns="http://www.w3.org/2000/svg" width="12" height="12" fill="currentColor"><g clip-path="url(#a)"><path fill="currentColor" d="M10.55 2.3a.85.85 0 0 0-.85-.849H2.3a.85.85 0 0 0-.85.85v5.4c0 .47.38.85.85.85h1.162c.464 0 .91.184 1.237.512L6 10.364l1.3-1.3a1.75 1.75 0 0 1 1.238-.513H9.7c.47 0 .85-.38.85-.85zM6.5 5.55a.45.45 0 0 1 0 .901H4a.45.45 0 0 1 0-.9zM8 4.05a.45.45 0 0 1 0 .901H4a.45.45 0 0 1 0-.9zm3.45 3.651a1.75 1.75 0 0 1-1.75 1.75H8.538a.85.85 0 0 0-.6.25l-1.55 1.547a.55.55 0 0 1-.777 0L4.063 9.7a.85.85 0 0 0-.601-.249H2.3a1.75 1.75 0 0 1-1.75-1.75v-5.4c0-.967.783-1.75 1.75-1.75h7.4c.966 0 1.75.783 1.75 1.75z"/></g><defs><clipPath id="a"><rect width="12" height="12" fill="currentColor" rx="2"/></clipPath></defs></svg>