<svg xmlns="http://www.w3.org/2000/svg" width="16" height="16" fill="currentColor"><path fill="currentColor" d="M14.5 3.5A1.5 1.5 0 0 0 13 2H4a1.5 1.5 0 0 0-1.5 1.5v6.4A1.5 1.5 0 0 0 4 11.4h1.9q.048 0 .095.01.033.005.064.018l.03.01a.5.5 0 0 1 .169.114l2.24 2.24 2.247-2.246a.5.5 0 0 1 .243-.133l.011-.004a.5.5 0 0 1 .1-.009H13a1.5 1.5 0 0 0 1.5-1.5zm-5.352 4a.5.5 0 0 1 0 1h-3.25a.5.5 0 1 1 0-1zm1.95-1.95a.5.5 0 0 1 0 1h-5.2a.5.5 0 1 1 0-1zM15.5 9.9a2.5 2.5 0 0 1-2.5 2.5h-1.694l-2.362 2.362a.63.63 0 0 1-.891 0L5.69 12.4H4a2.5 2.5 0 0 1-2.5-2.5V3.5A2.5 2.5 0 0 1 4 1h9a2.5 2.5 0 0 1 2.5 2.5z"/></svg>