<svg xmlns="http://www.w3.org/2000/svg" width="12" height="12" fill="currentColor"><g clip-path="url(#a)"><path fill="currentColor" d="M11.5 10.55a.45.45 0 0 1 0 .901H.5a.45.45 0 0 1 0-.9zm-.95-8.25a.85.85 0 0 0-.85-.849H2.3a.85.85 0 0 0-.85.85v5.4c0 .47.38.85.85.85h7.4c.47 0 .85-.38.85-.85zM7.5 6.55a.45.45 0 0 1 0 .901h-3a.45.45 0 0 1 0-.9zm3.95 1.151a1.75 1.75 0 0 1-1.75 1.75H2.3a1.75 1.75 0 0 1-1.75-1.75v-5.4c0-.967.783-1.75 1.75-1.75h7.4c.966 0 1.75.783 1.75 1.75z"/></g><defs><clipPath id="a"><path fill="currentColor" d="M0 0h12v12H0z"/></clipPath></defs></svg>