<svg xmlns="http://www.w3.org/2000/svg" width="16" height="16" fill="currentColor"><path fill="currentColor" d="M13.308 1.01c.95.096 1.692.899 1.692 1.875l-.01.192a1.886 1.886 0 0 1-1.875 1.693l-.192-.01a1.89 1.89 0 0 1-1.485-1.018L8.52 4.41q.017.179.018.36l-.005.194a3.75 3.75 0 0 1-.768 2.092l4.42 4.422c.274-.156.591-.247.93-.247l.193.01c.95.097 1.692.9 1.692 1.875l-.01.193a1.885 1.885 0 0 1-1.875 1.692l-.192-.01a1.886 1.886 0 0 1-1.683-1.682l-.01-.193c0-.338.09-.656.247-.93l-4.42-4.422a3.75 3.75 0 0 1-2.161.771l-.85 3.098c.44.345.723.88.724 1.483l-.01.193c-.097.95-.9 1.692-1.875 1.692l-.193-.01a1.885 1.885 0 0 1-1.682-1.682L1 13.115c0-1.04.844-1.885 1.885-1.885l.192.01.037.005.773-2.811a3.77 3.77 0 0 1-2.882-3.471L1 4.77A3.77 3.77 0 0 1 4.77 1l.193.005a3.77 3.77 0 0 1 3.331 2.43l2.942-.672A1.883 1.883 0 0 1 13.116 1zM2.885 12.23a.885.885 0 1 0 0 1.77.885.885 0 0 0 0-1.77m10.23 0a.885.885 0 1 0 0 1.77.885.885 0 0 0 0-1.77M4.77 2a2.77 2.77 0 1 0 0 5.54 2.77 2.77 0 0 0 0-5.54m8.345 0a.885.885 0 1 0 0 1.77.885.885 0 0 0 0-1.77"/></svg>