<svg xmlns="http://www.w3.org/2000/svg" width="12" height="12" fill="currentColor"><g clip-path="url(#a)"><path fill="currentColor" d="M10.02.5a1.481 1.481 0 0 1 0 2.962 1.48 1.48 0 0 1-1.29-.755l-2.317.53q.01.112.01.225l-.004.152a2.94 2.94 0 0 1-.536 1.55l3.513 3.513a1.48 1.48 0 1 1-.664.61L5.26 5.811c-.46.353-1.026.57-1.642.603l-.68 2.476a1.48 1.48 0 1 1-.837-.347l.61-2.218A2.962 2.962 0 0 1 3.46.5a2.96 2.96 0 0 1 2.749 1.86l2.338-.534A1.48 1.48 0 0 1 10.02.5M1.98 9.438a.58.58 0 1 0 0 1.16.58.58 0 0 0 0-1.16m8.04 0a.58.58 0 1 0 0 1.16.58.58 0 0 0 0-1.16M3.46 1.401a2.06 2.06 0 1 0 .001 4.122 2.06 2.06 0 0 0 0-4.122m6.56 0a.58.58 0 1 0 0 1.16.58.58 0 0 0 0-1.16"/></g><defs><clipPath id="a"><rect width="12" height="12" fill="currentColor" rx="2"/></clipPath></defs></svg>