<svg width="12" height="12" viewBox="0 0 12 12" fill="none" xmlns="http://www.w3.org/2000/svg"><g clip-path="url(#a)"><path d="M2.5 10C2.5 9.72386 2.27614 9.5 2 9.5C1.72386 9.5 1.5 9.72386 1.5 10C1.5 10.2761 1.72386 10.5 2 10.5C2.27614 10.5 2.5 10.2761 2.5 10ZM10.5 10C10.5 9.72386 10.2761 9.5 10 9.5C9.72386 9.5 9.5 9.72386 9.5 10C9.5 10.2761 9.72386 10.5 10 10.5C10.2761 10.5 10.5 10.2761 10.5 10ZM5.5 3.5C5.5 2.39543 4.60457 1.5 3.5 1.5C2.39543 1.5 1.5 2.39543 1.5 3.5C1.5 4.60457 2.39543 5.5 3.5 5.5C4.60457 5.5 5.5 4.60457 5.5 3.5ZM10.5 2C10.5 1.72386 10.2761 1.5 10 1.5C9.72386 1.5 9.5 1.72386 9.5 2C9.5 2.27614 9.72386 2.5 10 2.5C10.2761 2.5 10.5 2.27614 10.5 2ZM11.5 2C11.5 2.82843 10.8284 3.5 10 3.5C9.56714 3.5 9.17808 3.31573 8.9043 3.02246L6.49805 3.42285C6.49869 3.4485 6.5 3.4742 6.5 3.5C6.5 4.13571 6.3002 4.72379 5.96289 5.20898L9.35449 8.64746C9.55019 8.5539 9.76862 8.5 10 8.5C10.8284 8.5 11.5 9.17157 11.5 10C11.5 10.8284 10.8284 11.5 10 11.5C9.17157 11.5 8.5 10.8284 8.5 10C8.5 9.7683 8.55366 9.54941 8.64746 9.35352L8.64453 9.35156L5.26172 5.92383C4.86028 6.21611 4.38563 6.41322 3.86816 6.47656L3.0498 8.92969C3.3273 9.2019 3.5 9.58057 3.5 10C3.5 10.8284 2.82843 11.5 2 11.5C1.17157 11.5 0.5 10.8284 0.5 10C0.5 9.17157 1.17157 8.5 2 8.5C2.04611 8.5 2.09167 8.50276 2.13672 8.50684L2.83105 6.42285C1.49646 6.11867 0.5 4.92674 0.5 3.5C0.5 1.84315 1.84315 0.5 3.5 0.5C4.78382 0.5 5.87648 1.30748 6.30469 2.44141L8.50293 2.0752C8.5017 2.05027 8.5 2.02523 8.5 2C8.5 1.17157 9.17157 0.5 10 0.5C10.8284 0.5 11.5 1.17157 11.5 2Z" fill="currentColor"/></g><defs><clipPath id="a"><path fill="currentColor" d="M0 0H12V12H0z"/></clipPath></defs></svg>