<svg xmlns="http://www.w3.org/2000/svg" width="20" height="20" fill="currentColor"><path fill="currentColor" d="M16.21 1.5a2.29 2.29 0 0 1 2.289 2.288l-.012.234a2.29 2.29 0 0 1-2.277 2.055l-.233-.012a2.29 2.29 0 0 1-1.83-1.289l-3.521.805q.028.245.028.496l-.006.236a4.55 4.55 0 0 1-.914 2.514l5.377 5.376a2.29 2.29 0 0 1 3.388 2.008l-.012.234A2.29 2.29 0 0 1 16.21 18.5l-.233-.012A2.29 2.29 0 0 1 14.3 14.95L8.973 9.62a4.56 4.56 0 0 1-2.802 1.031l-1.023 3.723c.563.417.929 1.083.93 1.837l-.013.234A2.29 2.29 0 0 1 3.788 18.5l-.233-.012a2.29 2.29 0 0 1 .233-4.565q.171.002.336.027l.937-3.41a4.58 4.58 0 0 1-3.555-4.227L1.5 6.077A4.577 4.577 0 0 1 6.077 1.5l.236.006a4.58 4.58 0 0 1 4.066 3.004l3.547-.81a2.286 2.286 0 0 1 2.284-2.2M3.788 15.023A1.19 1.19 0 1 0 3.79 17.4a1.19 1.19 0 0 0-.002-2.378m12.422 0a1.19 1.19 0 1 0 .002 2.378 1.19 1.19 0 0 0-.002-2.378M6.077 2.6a3.478 3.478 0 1 0 0 6.955 3.478 3.478 0 0 0 0-6.955m10.133 0a1.19 1.19 0 1 0 .001 2.378A1.19 1.19 0 0 0 16.21 2.6"/></svg>