<svg width="16" height="16" viewBox="0 0 16 16" fill="none" xmlns="http://www.w3.org/2000/svg"><path d="M13.5 7.33594C13.5 6.37902 13.4993 5.71157 13.4316 5.20801C13.3659 4.71882 13.2451 4.4599 13.0605 4.27539C12.876 4.09088 12.6171 3.97007 12.1279 3.9043C11.6244 3.8366 10.9569 3.83594 10 3.83594H8C7.04308 3.83594 6.37563 3.8366 5.87207 3.9043C5.38289 3.97007 5.12396 4.09088 4.93945 4.27539C4.75494 4.4599 4.63413 4.71882 4.56836 5.20801C4.50066 5.71157 4.5 6.37902 4.5 7.33594V10.6689C4.5 11.6257 4.5007 12.2934 4.56836 12.7969C4.63411 13.2859 4.75504 13.545 4.93945 13.7295C5.12396 13.914 5.38289 14.0348 5.87207 14.1006C6.37564 14.1683 7.04306 14.1689 8 14.1689H10C10.9569 14.1689 11.6244 14.1683 12.1279 14.1006C12.6171 14.0348 12.876 13.914 13.0605 13.7295C13.245 13.545 13.3659 13.2859 13.4316 12.7969C13.4993 12.2934 13.5 11.6257 13.5 10.6689V7.33594ZM14.5 10.6689C14.5 11.5976 14.5006 12.345 14.4219 12.9307C14.3412 13.5306 14.1688 14.0363 13.7676 14.4375C13.3664 14.8385 12.8607 15.0111 12.2607 15.0918C11.6751 15.1705 10.9284 15.1689 10 15.1689H8C7.07156 15.1689 6.32488 15.1705 5.73926 15.0918C5.13935 15.0111 4.63365 14.8385 4.23242 14.4375C3.87753 14.0826 3.70114 13.646 3.60938 13.1348C2.41452 12.947 1.5 11.9165 1.5 10.6689V6.66895C1.5 5.42621 1.49941 4.44391 1.60254 3.67676C1.70762 2.89514 1.92883 2.26258 2.42773 1.76367C2.92664 1.26476 3.55921 1.04356 4.34082 0.938477C5.10797 0.835349 6.09028 0.835937 7.33301 0.835938H10C11.2476 0.835938 12.278 1.75043 12.4658 2.94531C12.9769 3.03709 13.4128 3.21354 13.7676 3.56836C14.1689 3.96964 14.3412 4.47512 14.4219 5.0752C14.5006 5.66083 14.5 6.40745 14.5 7.33594V10.6689ZM2.5 10.6689C2.5 11.3277 2.92511 11.8863 3.51562 12.0879C3.5012 11.6719 3.5 11.2 3.5 10.6689V7.33594C3.5 6.40745 3.49943 5.66083 3.57812 5.0752C3.6588 4.47512 3.83114 3.96964 4.23242 3.56836C4.6337 3.16708 5.13919 2.99474 5.73926 2.91406C6.32489 2.83537 7.07152 2.83594 8 2.83594H10C10.5308 2.83594 11.0021 2.83716 11.418 2.85156C11.2163 2.26115 10.6587 1.83594 10 1.83594H7.33301C6.06197 1.83594 5.15868 1.83661 4.47363 1.92871C3.80304 2.01889 3.41688 2.18859 3.13477 2.4707C2.85266 2.75281 2.68296 3.13897 2.59277 3.80957C2.50067 4.49462 2.5 5.3979 2.5 6.66895V10.6689Z" fill="currentColor"/></svg>