<svg xmlns="http://www.w3.org/2000/svg" width="12" height="12" fill="currentColor"><path fill="currentColor" d="M10.05 4.54c0-.602-.487-1.089-1.088-1.089H5.038c-.6 0-1.088.487-1.088 1.088v4.924c0 .6.487 1.088 1.088 1.088h3.924c.6 0 1.088-.487 1.088-1.088zm-2-2c0-.602-.487-1.089-1.088-1.089H3.038c-.6 0-1.088.487-1.088 1.088v4.924c0 .6.487 1.088 1.088 1.088h.012V4.539c0-1.098.89-1.988 1.988-1.988H8.05zm.9.01h.012a1.99 1.99 0 0 1 1.988 1.99v4.923c0 1.098-.89 1.988-1.988 1.988H5.038A1.99 1.99 0 0 1 3.05 9.463V9.45h-.012A1.99 1.99 0 0 1 1.05 7.463V2.539c0-1.098.89-1.988 1.988-1.988h3.924c1.098 0 1.988.89 1.988 1.988z"/></svg>