<svg xmlns="http://www.w3.org/2000/svg" width="20" height="20" fill="currentColor"><path fill="currentColor" d="M16.45 7.299a1.75 1.75 0 0 0-1.75-1.75H8.3a1.75 1.75 0 0 0-1.75 1.75v8.4c0 .967.784 1.75 1.75 1.75h6.4a1.75 1.75 0 0 0 1.75-1.75zm-3-3a1.75 1.75 0 0 0-1.75-1.75H5.3a1.75 1.75 0 0 0-1.75 1.75v8.4c0 .967.784 1.75 1.75 1.75h.15V7.3A2.85 2.85 0 0 1 8.3 4.45h5.15zm1.1.15h.15a2.85 2.85 0 0 1 2.85 2.85v8.4a2.85 2.85 0 0 1-2.85 2.85H8.3a2.85 2.85 0 0 1-2.85-2.85v-.151H5.3A2.85 2.85 0 0 1 2.45 12.7V4.3A2.85 2.85 0 0 1 5.3 1.45h6.4a2.85 2.85 0 0 1 2.85 2.85z"/></svg>