<svg width="12" height="12" viewBox="0 0 12 12" fill="none" xmlns="http://www.w3.org/2000/svg"><g clip-path="url(#a)"><path d="M9.5 6C9.5 5.04308 9.49934 4.37563 9.43164 3.87207C9.36587 3.38289 9.24506 3.12396 9.06055 2.93945C8.87604 2.75494 8.61711 2.63413 8.12793 2.56836C7.62437 2.50066 6.95692 2.5 6 2.5C5.04308 2.5 4.37563 2.50066 3.87207 2.56836C3.38289 2.63413 3.12396 2.75494 2.93945 2.93945C2.75494 3.12396 2.63413 3.38289 2.56836 3.87207C2.50066 4.37563 2.5 5.04308 2.5 6C2.5 6.95692 2.50066 7.62437 2.56836 8.12793C2.63413 8.61711 2.75494 8.87604 2.93945 9.06055C3.12396 9.24506 3.38289 9.36587 3.87207 9.43164C4.37563 9.49934 5.04308 9.5 6 9.5C6.95692 9.5 7.62437 9.49934 8.12793 9.43164C8.61711 9.36587 8.87604 9.24506 9.06055 9.06055C9.24506 8.87604 9.36587 8.61711 9.43164 8.12793C9.49934 7.62437 9.5 6.95692 9.5 6ZM8 5C8 4.63262 7.99845 4.40728 7.97656 4.24414C7.95656 4.09535 7.92821 4.07469 7.92676 4.07324C7.92531 4.07179 7.90465 4.04344 7.75586 4.02344C7.59272 4.00155 7.36738 4 7 4H5C4.63262 4 4.40728 4.00155 4.24414 4.02344C4.09535 4.04344 4.07469 4.07179 4.07324 4.07324C4.07179 4.07469 4.04344 4.09535 4.02344 4.24414C4.00155 4.40728 4 4.63262 4 5V7C4 7.36738 4.00155 7.59272 4.02344 7.75586C4.04344 7.90465 4.07179 7.92531 4.07324 7.92676C4.07469 7.92821 4.09535 7.95656 4.24414 7.97656C4.40728 7.99845 4.63262 8 5 8H7C7.36738 8 7.59272 7.99845 7.75586 7.97656C7.90465 7.95656 7.92531 7.92821 7.92676 7.92676C7.92821 7.92531 7.95656 7.90465 7.97656 7.75586C7.99845 7.59272 8 7.36738 8 7V5ZM10.5 6C10.5 6.36031 10.4985 6.69323 10.4941 7H11C11.2761 7 11.5 7.22386 11.5 7.5C11.5 7.77614 11.2761 8 11 8H10.4512C10.443 8.09025 10.4331 8.17712 10.4219 8.26074C10.3412 8.86081 10.1689 9.3663 9.76758 9.76758C9.3663 10.1689 8.86081 10.3412 8.26074 10.4219C8.17715 10.4331 8.09022 10.442 8 10.4502V11C8 11.2761 7.77614 11.5 7.5 11.5C7.22386 11.5 7 11.2761 7 11V10.4932C6.69322 10.4976 6.36032 10.5 6 10.5C5.63968 10.5 5.30678 10.4976 5 10.4932V11C5 11.2761 4.77614 11.5 4.5 11.5C4.22386 11.5 4 11.2761 4 11V10.4502C3.90978 10.442 3.82285 10.4331 3.73926 10.4219C3.13919 10.3412 2.6337 10.1689 2.23242 9.76758C1.83114 9.3663 1.6588 8.86081 1.57812 8.26074C1.56689 8.17712 1.55705 8.09025 1.54883 8H1C0.723858 8 0.5 7.77614 0.5 7.5C0.5 7.22386 0.723858 7 1 7H1.50586C1.50146 6.69323 1.5 6.36031 1.5 6C1.5 5.63969 1.50146 5.30677 1.50586 5H1C0.723858 5 0.5 4.77614 0.5 4.5C0.5 4.22386 0.723858 4 1 4H1.54883C1.55705 3.90975 1.56689 3.82288 1.57812 3.73926C1.6588 3.13919 1.83114 2.6337 2.23242 2.23242C2.6337 1.83114 3.13919 1.6588 3.73926 1.57812C3.82288 1.56689 3.90975 1.55705 4 1.54883V1C4 0.723858 4.22386 0.5 4.5 0.5C4.77614 0.5 5 0.723858 5 1V1.50586C5.30677 1.50146 5.63969 1.5 6 1.5C6.36031 1.5 6.69323 1.50146 7 1.50586V1C7 0.723858 7.22386 0.5 7.5 0.5C7.77614 0.5 8 0.723858 8 1V1.54883C8.09025 1.55705 8.17712 1.56689 8.26074 1.57812C8.86081 1.6588 9.3663 1.83114 9.76758 2.23242C10.1689 2.6337 10.3412 3.13919 10.4219 3.73926C10.4331 3.82288 10.443 3.90975 10.4512 4H11C11.2761 4 11.5 4.22386 11.5 4.5C11.5 4.77614 11.2761 5 11 5H10.4941C10.4985 5.30677 10.5 5.63969 10.5 6ZM9 7C9 7.33942 9.00075 7.64435 8.96777 7.88965C8.93285 8.14929 8.85198 8.4156 8.63379 8.63379C8.4156 8.85198 8.14929 8.93285 7.88965 8.96777C7.64435 9.00075 7.33942 9 7 9H5C4.66058 9 4.35565 9.00075 4.11035 8.96777C3.85071 8.93285 3.5844 8.85198 3.36621 8.63379C3.14802 8.4156 3.06715 8.14929 3.03223 7.88965C2.99925 7.64435 3 7.33942 3 7V5C3 4.66058 2.99925 4.35565 3.03223 4.11035C3.06715 3.85071 3.14802 3.5844 3.36621 3.36621C3.5844 3.14802 3.85071 3.06715 4.11035 3.03223C4.35565 2.99925 4.66058 3 5 3H7C7.33942 3 7.64435 2.99925 7.88965 3.03223C8.14929 3.06715 8.4156 3.14802 8.63379 3.36621C8.85198 3.5844 8.93285 3.85071 8.96777 4.11035C9.00075 4.35565 9 4.66058 9 5V7Z" fill="currentColor"/></g><defs><clipPath id="a"><path fill="currentColor" d="M0 0H12V12H0z"/></clipPath></defs></svg>