<svg xmlns="http://www.w3.org/2000/svg" width="12" height="12" fill="currentColor"><g clip-path="url(#a)"><path fill="currentColor" d="M9.55 3.3a.85.85 0 0 0-.85-.849H3.3a.85.85 0 0 0-.85.85v5.4c0 .47.38.85.85.85h5.4c.47 0 .85-.38.85-.85zm-1.799 1a.05.05 0 0 0-.05-.049h-3.4a.05.05 0 0 0-.05.05v3.4c0 .028.022.05.05.05h3.4a.05.05 0 0 0 .05-.05zm.9 3.401a.95.95 0 0 1-.95.95h-3.4a.95.95 0 0 1-.95-.95v-3.4a.95.95 0 0 1 .95-.95h3.4a.95.95 0 0 1 .95.95zm1.8-3.65H11a.45.45 0 0 1 0 .9h-.55v2.1H11a.45.45 0 0 1 0 .9h-.55v.75a1.75 1.75 0 0 1-1.75 1.75h-.75v.55a.45.45 0 0 1-.9 0v-.55h-2.1v.55a.45.45 0 0 1-.9 0v-.55H3.3a1.75 1.75 0 0 1-1.75-1.75v-.75H1a.45.45 0 0 1 0-.9h.55v-2.1H1a.45.45 0 0 1 0-.9h.55V3.3c0-.967.783-1.75 1.75-1.75h.75V1a.45.45 0 0 1 .9 0v.55h2.1V1a.45.45 0 0 1 .9 0v.55h.75c.967 0 1.75.783 1.75 1.75z"/></g><defs><clipPath id="a"><rect width="12" height="12" fill="currentColor" rx="2"/></clipPath></defs></svg>