<svg xmlns="http://www.w3.org/2000/svg" width="20" height="20" fill="currentColor"><path fill="currentColor" d="M15.95 5.999A1.95 1.95 0 0 0 14 4.049H6a1.95 1.95 0 0 0-1.95 1.95v8A1.95 1.95 0 0 0 6 15.949h8A1.95 1.95 0 0 0 15.95 14zm-2.5 1.5a.95.95 0 0 0-.95-.95h-5a.95.95 0 0 0-.95.95v5c0 .525.425.95.95.95h5a.95.95 0 0 0 .95-.95zm1.1 5a2.05 2.05 0 0 1-2.05 2.05h-5a2.05 2.05 0 0 1-2.05-2.05v-5a2.05 2.05 0 0 1 2.05-2.05h5a2.05 2.05 0 0 1 2.05 2.05zm2.5-5.45H18a.55.55 0 0 1 0 1.1h-.95v3.7H18a.55.55 0 1 1 0 1.1h-.95V14A3.05 3.05 0 0 1 14 17.05h-1.05V18a.55.55 0 0 1-1.1 0v-.951h-3.7V18a.55.55 0 0 1-1.1 0v-.951H6a3.05 3.05 0 0 1-3.05-3.05v-1.05H2a.55.55 0 1 1 0-1.1h.95v-3.7H2a.55.55 0 0 1 0-1.1h.95v-1.05A3.05 3.05 0 0 1 6 2.949h1.05V2a.55.55 0 1 1 1.1 0v.95h3.7V2a.55.55 0 1 1 1.1 0v.95H14A3.05 3.05 0 0 1 17.05 6z"/></svg>