<svg xmlns="http://www.w3.org/2000/svg" width="16" height="16" fill="currentColor"><path fill="currentColor" d="M12.701 4.8a1.5 1.5 0 0 0-1.5-1.5h-6.4a1.5 1.5 0 0 0-1.5 1.5v6.4a1.5 1.5 0 0 0 1.5 1.5h6.4a1.5 1.5 0 0 0 1.5-1.5V4.798m-2.1 1.1a.5.5 0 0 0-.5-.5H5.9a.5.5 0 0 0-.5.5v4.2a.5.5 0 0 0 .5.5h4.2a.5.5 0 0 0 .5-.5zm1 4.2a1.5 1.5 0 0 1-1.5 1.5H5.9a1.5 1.5 0 0 1-1.5-1.5V5.9a1.5 1.5 0 0 1 1.5-1.5h4.2a1.5 1.5 0 0 1 1.5 1.5zm2.1-4.55h.799a.5.5 0 0 1 0 1h-.799v2.9h.799a.5.5 0 0 1 0 1h-.799v.75a2.5 2.5 0 0 1-2.5 2.5h-.75v.799a.5.5 0 0 1-1 0v-.8H6.55v.8a.5.5 0 0 1-1 0v-.8H4.8a2.5 2.5 0 0 1-2.5-2.5v-.75h-.8a.5.5 0 1 1 0-1h.8v-2.9h-.8a.5.5 0 0 1 0-1h.802V4.8a2.5 2.5 0 0 1 2.5-2.5h.749v-.8a.5.5 0 0 1 1 0v.8H9.45v-.8a.5.5 0 0 1 1 0v.8h.75a2.5 2.5 0 0 1 2.5 2.5z"/></svg>