<svg xmlns="http://www.w3.org/2000/svg" width="12" height="12" fill="currentColor"><g clip-path="url(#a)"><path fill="currentColor" d="M6 .5a5.5 5.5 0 1 1 0 11 5.5 5.5 0 0 1 0-11m0 .9a4.6 4.6 0 1 0 0 9.2 4.6 4.6 0 0 0 0-9.2m1.682 2.282a.45.45 0 0 1 .636.636L6.637 6l1.681 1.682a.45.45 0 0 1-.636.636L6 6.637 4.318 8.318a.45.45 0 0 1-.636-.636L5.363 6 3.682 4.318a.45.45 0 0 1 .636-.636L6 5.363z"/></g><defs><clipPath id="a"><rect width="12" height="12" fill="currentColor" rx="2"/></clipPath></defs></svg>