<svg width="12" height="12" viewBox="0 0 12 12" fill="none" xmlns="http://www.w3.org/2000/svg"><g clip-path="url(#a)"><path d="M3.14648 3.85352C2.95122 3.65825 2.95122 3.34175 3.14648 3.14648C3.34175 2.95122 3.65825 2.95122 3.85352 3.14648L6 5.29297L8.14648 3.14648C8.34175 2.95122 8.65825 2.95122 8.85352 3.14648C9.04878 3.34175 9.04878 3.65825 8.85352 3.85351L6.70703 6L8.85352 8.14648C9.04878 8.34175 9.04878 8.65825 8.85352 8.85351C8.65825 9.04878 8.34175 9.04878 8.14648 8.85351L6 6.70703L3.85352 8.85352C3.65825 9.04878 3.34175 9.04878 3.14648 8.85352C2.95122 8.65825 2.95122 8.34175 3.14648 8.14648L5.29297 6L3.14648 3.85352Z" fill="currentColor"/><path d="M10.9091 6C10.9091 3.28878 8.71122 1.09091 6 1.09091C3.28878 1.09091 1.09091 3.28878 1.09091 6C1.09091 8.71122 3.28878 10.9091 6 10.9091V12C2.68629 12 0 9.31371 0 6C0 2.68629 2.68629 0 6 0C9.31371 0 12 2.68629 12 6C12 9.31371 9.31371 12 6 12V10.9091C8.71122 10.9091 10.9091 8.71122 10.9091 6Z" fill="currentColor"/></g><defs><clipPath id="a"><rect width="12" height="12" rx="6" fill="currentColor"/></clipPath></defs></svg>