<svg width="16" height="16" viewBox="0 0 16 16" fill="none" xmlns="http://www.w3.org/2000/svg"><g clip-path="url(#a)" fill="currentColor"><path d="M14.1689 8.00293C14.1689 4.59728 11.4085 1.83611 8.00293 1.83594C4.59717 1.83594 1.83594 4.59717 1.83594 8.00293C1.83611 11.4085 4.59728 14.1689 8.00293 14.1689C11.4084 14.1688 14.1688 11.4084 14.1689 8.00293ZM15.1689 8.00293C15.1688 11.9607 11.9607 15.1688 8.00293 15.1689C4.045 15.1689 0.836114 11.9608 0.835938 8.00293C0.835938 4.04489 4.04489 0.835938 8.00293 0.835938C11.9608 0.836114 15.1689 4.045 15.1689 8.00293Z"/><path d="M7.5 8.66406V4.66406C7.5 4.38792 7.72386 4.16406 8 4.16406 8.27614 4.16406 8.5 4.38792 8.5 4.66406V8.66406C8.5 8.9402 8.27614 9.16406 8 9.16406 7.72386 9.16406 7.5 8.9402 7.5 8.66406ZM8.66927 10.6667C8.66927 11.0349 8.37079 11.3333 8.0026 11.3333 7.63441 11.3333 7.33594 11.0349 7.33594 10.6667 7.33594 10.2985 7.63441 10 8.0026 10 8.37079 10 8.66927 10.2985 8.66927 10.6667Z"/></g><defs><clipPath id="a"><path fill="currentColor" d="M0 0H16V16H0z"/></clipPath></defs></svg>