<svg xmlns="http://www.w3.org/2000/svg" width="16" height="16" fill="currentColor"><path fill="currentColor" d="M6.598 1.548C7.156.478 8.683.472 9.25 1.536l6.006 11.258A1.5 1.5 0 0 1 13.934 15H2.05a1.5 1.5 0 0 1-1.33-2.194zm1.397 9.151a.667.667 0 0 0-.654.791q.005.025.013.048l.022.072q.01.023.022.045a.7.7 0 0 0 .144.197l.046.039.052.038q.022.013.046.024.03.016.061.03a1 1 0 0 0 .113.036l.135.013a1 1 0 0 0 .131-.013l.016-.005a1 1 0 0 0 .095-.029q.028-.01.053-.024a.64.64 0 0 0 .233-.192 1 1 0 0 0 .07-.114q.01-.019.018-.039a.7.7 0 0 0 .05-.25.67.67 0 0 0-.532-.653zM8 4.8a.5.5 0 0 0-.5.5v4a.5.5 0 0 0 1 0v-4a.5.5 0 0 0-.5-.5"/></svg>