<svg width="20" height="20" viewBox="0 0 20 20" fill="none" xmlns="http://www.w3.org/2000/svg"><path d="M9.99324 1.875C11.2417 1.875 12.1879 2.59596 13.0811 3.73047C13.9668 4.85547 14.9062 6.52425 16.1114 8.66113L16.4141 9.19824C17.4132 10.9696 18.2036 12.3653 18.6163 13.4834C19.0337 14.6144 19.1326 15.642 18.5011 16.5479C17.8882 17.4267 16.8657 17.7863 15.5762 17.9561C14.2818 18.1265 12.5377 18.125 10.297 18.125H9.69051C7.44979 18.125 5.70566 18.1264 4.41121 17.9561C3.12183 17.7863 2.09925 17.4266 1.4864 16.5479C0.854896 15.642 0.953711 14.6144 1.37117 13.4834C1.78389 12.3653 2.57335 10.9695 3.57234 9.19824L3.87605 8.66113C5.08121 6.52436 6.01968 4.85547 6.90535 3.73047C7.79853 2.59598 8.74494 1.87513 9.99324 1.875ZM9.99324 3.125C9.31621 3.12511 8.69178 3.48269 7.88777 4.50391C7.07613 5.53488 6.19062 7.10046 4.96394 9.27539L4.66121 9.8125C3.63958 11.6239 2.91351 12.9152 2.54402 13.916C2.17932 14.9041 2.23004 15.4289 2.5118 15.833C2.81232 16.2637 3.37648 16.5591 4.5743 16.7168C5.7676 16.8739 7.41257 16.875 9.69051 16.875H10.297C12.5749 16.875 14.2199 16.8739 15.4132 16.7168C16.6111 16.5591 17.1752 16.2638 17.4757 15.833C17.7574 15.4289 17.8081 14.9041 17.4434 13.916C17.074 12.9152 16.3479 11.6239 15.3262 9.8125L15.0225 9.27539C13.7959 7.10057 12.9113 5.53488 12.0997 4.50391C11.2956 3.48252 10.6704 3.125 9.99324 3.125Z" fill="currentColor"/><path d="M9.37508 10.8369V6.66992C9.37508 6.32474 9.6549 6.04492 10.0001 6.04492 10.3453 6.04492 10.6251 6.32474 10.6251 6.66992V10.8369C10.6249 11.1819 10.3451 11.4619 10.0001 11.4619 9.65501 11.4619 9.37525 11.1819 9.37508 10.8369ZM10.8269 13.3333C10.8269 13.7936 10.4538 14.1667 9.99357 14.1667 9.53333 14.1667 9.16023 13.7936 9.16023 13.3333 9.16023 12.8731 9.53333 12.5 9.99357 12.5 10.4538 12.5 10.8269 12.8731 10.8269 13.3333Z" fill="currentColor"/></svg>