<svg width="16" height="16" viewBox="0 0 16 16" fill="none" xmlns="http://www.w3.org/2000/svg"><path d="M7.99508 1.5C8.99366 1.50012 9.75031 2.07687 10.4648 2.98438C11.1734 3.88434 11.9245 5.2193 12.8886 6.92871L13.1318 7.3584C13.9311 8.77554 14.5624 9.89259 14.8925 10.7871C15.2265 11.6919 15.3059 12.5136 14.8007 13.2383C14.3105 13.9413 13.4924 14.2285 12.4609 14.3643C11.4253 14.5006 10.0299 14.5 8.23727 14.5H7.75192C5.9594 14.5 4.56379 14.5006 3.52829 14.3643C2.49685 14.2284 1.67863 13.9414 1.18844 13.2383C0.68328 12.5137 0.762751 11.6918 1.09665 10.7871C1.42681 9.89259 2.05909 8.77554 2.85836 7.3584L3.10055 6.92871C4.06469 5.21926 4.81583 3.88436 5.52438 2.98438C6.23899 2.07671 6.99631 1.5 7.99508 1.5ZM7.99508 2.5C7.45345 2.5 6.95366 2.78575 6.31051 3.60254C5.66119 4.42729 4.953 5.67995 3.97165 7.41992L3.72848 7.84961C2.91114 9.29877 2.33072 10.3321 2.03512 11.1328C1.74342 11.9231 1.78347 12.3427 2.00876 12.666C2.24911 13.0108 2.70061 13.2469 3.65915 13.373C4.61374 13.4987 5.92965 13.5 7.75192 13.5H8.23727C10.0595 13.5 11.3754 13.4987 12.33 13.373C13.2886 13.2469 13.7401 13.0108 13.9804 12.666C14.2058 12.3427 14.2458 11.9232 13.9541 11.1328C13.6585 10.3321 13.078 9.29874 12.2607 7.84961L12.0185 7.41992C11.0371 5.67988 10.329 4.42731 9.67965 3.60254C9.03651 2.78567 8.53666 2.50011 7.99508 2.5Z" fill="currentColor"/><path d="M7.49997 8.66895V5.33594C7.49997 5.0598 7.72382 4.83594 7.99997 4.83594 8.27611 4.83594 8.49997 5.0598 8.49997 5.33594V8.66895L8.4902 8.77051C8.44343 8.99816 8.24146 9.16895 7.99997 9.16895 7.75847 9.16895 7.5565 8.99816 7.50973 8.77051L7.49997 8.66895ZM8.66142 10.6667C8.66142 11.0349 8.36295 11.3333 7.99476 11.3333 7.62657 11.3333 7.32809 11.0349 7.32809 10.6667 7.32809 10.2985 7.62657 10 7.99476 10 8.36295 10 8.66142 10.2985 8.66142 10.6667Z" fill="currentColor"/></svg>