<svg width="20" height="20" viewBox="0 0 20 20" fill="none" xmlns="http://www.w3.org/2000/svg"><g clip-path="url(#a)" fill="currentColor"><path d="M18.125 10C18.125 5.51269 14.4873 1.875 10 1.875C5.51269 1.875 1.875 5.51269 1.875 10C1.875 14.4873 5.51269 18.125 10 18.125C14.4873 18.125 18.125 14.4873 18.125 10ZM19.375 10C19.375 15.1777 15.1777 19.375 10 19.375C4.82233 19.375 0.625 15.1777 0.625 10C0.625001 4.82233 4.82233 0.625001 10 0.625C15.1777 0.625 19.375 4.82233 19.375 10Z"/><path d="M9.375 10.8301V5.83008C9.375 5.4849 9.65482 5.20508 10 5.20508 10.3452 5.20508 10.625 5.4849 10.625 5.83008V10.8301C10.625 11.1753 10.3452 11.4551 10 11.4551 9.65482 11.4551 9.375 11.1753 9.375 10.8301ZM10.8385 13.3333C10.8385 13.7936 10.4654 14.1667 10.0052 14.1667 9.54497 14.1667 9.17188 13.7936 9.17188 13.3333 9.17188 12.8731 9.54497 12.5 10.0052 12.5 10.4654 12.5 10.8385 12.8731 10.8385 13.3333Z"/></g><defs><clipPath id="a"><path fill="currentColor" d="M0 0H20V20H0z"/></clipPath></defs></svg>