<svg width="12" height="12" viewBox="0 0 12 12" fill="none" xmlns="http://www.w3.org/2000/svg"><g clip-path="url(#a)" fill="currentColor"><path d="M10.5 6C10.5 3.51472 8.48528 1.5 6 1.5C3.51472 1.5 1.5 3.51472 1.5 6C1.5 8.48528 3.51472 10.5 6 10.5C8.48528 10.5 10.5 8.48528 10.5 6ZM11.5 6C11.5 9.03757 9.03757 11.5 6 11.5C2.96243 11.5 0.5 9.03757 0.5 6C0.5 2.96243 2.96243 0.5 6 0.5C9.03757 0.5 11.5 2.96243 11.5 6Z"/><path d="M5.5 6.5V3.5C5.5 3.22386 5.72386 3 6 3 6.27614 3 6.5 3.22386 6.5 3.5V6.5C6.5 6.77614 6.27614 7 6 7 5.72386 7 5.5 6.77614 5.5 6.5ZM6.5 8C6.5 8.27614 6.27614 8.5 6 8.5 5.72386 8.5 5.5 8.27614 5.5 8 5.5 7.72386 5.72386 7.5 6 7.5 6.27614 7.5 6.5 7.72386 6.5 8Z"/></g><defs><clipPath id="a"><path fill="currentColor" d="M0 0H12V12H0z"/></clipPath></defs></svg>