<svg xmlns="http://www.w3.org/2000/svg" width="16" height="16" fill="currentColor"><path fill="currentColor" d="M8 1a7 7 0 1 1 0 14A7 7 0 0 1 8 1m.003 9a.667.667 0 0 0-.654.793l.01.04.025.078.02.043a.66.66 0 0 0 .198.242l.044.033.056.03q.023.013.048.024a1 1 0 0 0 .118.036l.135.014a1 1 0 0 0 .126-.014l.036-.009.084-.026.038-.017a.65.65 0 0 0 .245-.2q.017-.022.032-.046l.037-.065.018-.038a1 1 0 0 0 .036-.117l.014-.134A.667.667 0 0 0 8.003 10M8 4.1a.5.5 0 0 0-.5.5v4a.5.5 0 0 0 1 0v-4a.5.5 0 0 0-.5-.5"/></svg>