<svg width="12" height="12" viewBox="0 0 12 12" fill="none" xmlns="http://www.w3.org/2000/svg"><path d="M9.5 7.5957C9.35726 7.69276 9.20758 7.78342 9.05176 7.86133C8.24486 8.26473 7.16527 8.5 6 8.5C4.83473 8.5 3.75514 8.26473 2.94824 7.86133C2.79242 7.78342 2.64274 7.69276 2.5 7.5957V9C2.5 9.26087 2.7248 9.63144 3.39551 9.9668C4.0363 10.2871 4.95632 10.5 6 10.5C7.04368 10.5 7.9637 10.2871 8.60449 9.9668C9.2752 9.63144 9.5 9.26087 9.5 9V7.5957ZM9.5 4.5957C9.35726 4.69276 9.20758 4.78342 9.05176 4.86133C8.24486 5.26473 7.16527 5.5 6 5.5C4.83473 5.5 3.75514 5.26473 2.94824 4.86133C2.79242 4.78342 2.64274 4.69276 2.5 4.5957V6C2.5 6.26087 2.7248 6.63144 3.39551 6.9668C4.0363 7.28715 4.95632 7.5 6 7.5C7.04368 7.5 7.9637 7.28715 8.60449 6.9668C9.2752 6.63144 9.5 6.26087 9.5 6V4.5957ZM9.5 3C9.5 2.73913 9.2752 2.36856 8.60449 2.0332C7.9637 1.71285 7.04368 1.5 6 1.5C4.95632 1.5 4.0363 1.71285 3.39551 2.0332C2.7248 2.36856 2.5 2.73913 2.5 3C2.5 3.26087 2.7248 3.63144 3.39551 3.9668C4.0363 4.28715 4.95632 4.5 6 4.5C7.04368 4.5 7.9637 4.28715 8.60449 3.9668C9.2752 3.63144 9.5 3.26087 9.5 3ZM10.5 9C10.5 9.8437 9.82877 10.4728 9.05176 10.8613C8.24486 11.2647 7.16527 11.5 6 11.5C4.83473 11.5 3.75514 11.2647 2.94824 10.8613C2.17123 10.4728 1.5 9.8437 1.5 9V3C1.5 2.1563 2.17123 1.52718 2.94824 1.13867C3.75514 0.735269 4.83473 0.5 6 0.5C7.16527 0.5 8.24486 0.735269 9.05176 1.13867C9.82877 1.52718 10.5 2.1563 10.5 3V9Z" fill="currentColor"/></svg>