<svg xmlns="http://www.w3.org/2000/svg" width="12" height="12" fill="currentColor"><g clip-path="url(#a)"><path fill="currentColor" d="M9.937 3.751a.45.45 0 0 1 .41.484L9.89 9.842a1.75 1.75 0 0 1-1.744 1.607h-4.29c-.912 0-1.67-.7-1.745-1.607l-.459-5.607a.45.45 0 0 1 .897-.073l.46 5.607a.85.85 0 0 0 .846.78h4.29a.85.85 0 0 0 .848-.78l.46-5.607a.45.45 0 0 1 .485-.411M4.563 4.998a.45.45 0 0 1 .492.402l.278 2.779a.45.45 0 0 1-.896.09L4.16 5.49a.45.45 0 0 1 .404-.492m2.867 0a.45.45 0 0 1 .403.492l-.279 2.78a.45.45 0 0 1-.896-.09l.279-2.78a.45.45 0 0 1 .492-.402M6.928.548c.132 0 .247 0 .354.016.396.06.75.296.944.649.053.096.09.205.131.322l.055.155.016.044a.68.68 0 0 0 .622.414l.05.001h1.601a.45.45 0 0 1 0 .9h-9.4a.45.45 0 0 1 0-.9h1.65a.68.68 0 0 0 .622-.415l.016-.044.055-.155c.04-.117.077-.226.13-.322a1.3 1.3 0 0 1 .945-.649c.107-.016.222-.015.354-.015zm-2.075.906a.4.4 0 0 0-.29.192c-.008.016-.019.04-.07.188l-.056.155-.023.067-.04.093h3.253l-.04-.093-.024-.067-.054-.155a2 2 0 0 0-.072-.188.4.4 0 0 0-.289-.192 2 2 0 0 0-.22-.005H5.073c-.162 0-.196.001-.22.005"/></g><defs><clipPath id="a"><path fill="currentColor" d="M0 0h12v12H0z"/></clipPath></defs></svg>