<svg width="12" height="12" viewBox="0 0 12 12" fill="none" xmlns="http://www.w3.org/2000/svg"><path d="M9.4502 3.74906C9.72571 3.76742 9.93436 4.00577 9.91602 4.28128L9.68652 7.7305C9.6432 8.38041 9.60841 8.91701 9.52441 9.3389C9.43754 9.77497 9.28618 10.1575 8.96387 10.459C8.64158 10.7605 8.25039 10.8857 7.80957 10.9434C7.38304 10.9992 6.84573 10.9981 6.19434 10.9981H5.80762C5.15604 10.9981 4.61802 10.9992 4.19141 10.9434C3.75085 10.8857 3.36024 10.7602 3.03809 10.459C2.71577 10.1575 2.56441 9.77497 2.47754 9.3389C2.39353 8.91699 2.35876 8.38047 2.31543 7.7305L2.08496 4.28128C2.06663 4.00578 2.27527 3.76742 2.55078 3.74906C2.82628 3.73072 3.06464 3.93937 3.08301 4.21488L3.3125 7.66409C3.35764 8.34122 3.38973 8.80069 3.45801 9.14359C3.52351 9.4724 3.61051 9.62546 3.7207 9.72855C3.83089 9.8316 3.98894 9.9087 4.32129 9.95218C4.668 9.99753 5.12879 9.99808 5.80762 9.99808H6.19434C6.8728 9.99808 7.33306 9.99749 7.67969 9.95218C8.0119 9.90872 8.17009 9.83153 8.28027 9.72855C8.39046 9.62546 8.47746 9.4724 8.54297 9.14359C8.61125 8.80068 8.64333 8.34126 8.68848 7.66409L8.91797 4.21488C8.93633 3.93947 9.17483 3.73091 9.4502 3.74906Z" fill="currentColor"/><path d="M4.69629 5.00491C4.97103 4.97744 5.21564 5.17746 5.24316 5.45218L5.49316 7.95218C5.52064 8.22692 5.32062 8.47153 5.0459 8.49905 4.77116 8.52653 4.52655 8.32651 4.49902 8.05179L4.24902 5.55179C4.22155 5.27705 4.42157 5.03244 4.69629 5.00491ZM7.2959 5.00491C7.57062 5.03244 7.77064 5.27705 7.74316 5.55179L7.49316 8.05179C7.46564 8.32651 7.22103 8.52653 6.94629 8.49905 6.67157 8.47153 6.47155 8.22692 6.49902 7.95218L6.74902 5.45218C6.77655 5.17746 7.02116 4.97744 7.2959 5.00491Z" fill="currentColor"/><path fill-rule="evenodd" clip-rule="evenodd" d="M10.7461 3.00003C10.7461 2.72389 10.5222 2.50003 10.2461 2.50003H8.74609C8.71537 2.50003 8.7089 2.50015 8.7041 2.50003C8.49827 2.49478 8.31711 2.36358 8.24707 2.16995L8.2334 2.12991L8.18457 1.98441C8.14874 1.87689 8.11457 1.76919 8.06445 1.67288C7.88171 1.32194 7.54306 1.07805 7.15234 1.01566C7.045 0.998551 6.93182 1.00003 6.81836 1.00003H5.17383C5.06037 1.00003 4.94718 0.998551 4.83984 1.01566C4.44912 1.07805 4.11048 1.32194 3.92773 1.67288C3.87762 1.76919 3.84345 1.87689 3.80762 1.98441L3.75879 2.13089C3.74922 2.15959 3.74674 2.16547 3.74512 2.16995C3.67508 2.36358 3.49391 2.49478 3.28809 2.50003C3.28329 2.50015 3.27681 2.50003 3.24609 2.50003H1.74609C1.46995 2.50003 1.24609 2.72389 1.24609 3.00003C1.24609 3.27617 1.46995 3.50003 1.74609 3.50003H3.24609H3.31348H8.67871H8.74609H10.2461C10.5222 3.50003 10.7461 3.27617 10.7461 3.00003ZM7.23633 2.30081L7.28418 2.44632C7.29075 2.46604 7.29714 2.48361 7.3031 2.50003H4.68909C4.69505 2.48362 4.70142 2.46609 4.70801 2.44632L4.75586 2.30081C4.80216 2.16191 4.80973 2.14396 4.81445 2.1348C4.85098 2.06465 4.91898 2.01548 4.99707 2.00296C5.00717 2.00135 5.0253 2.00003 5.17383 2.00003H6.81836C6.96689 2.00003 6.98502 2.00135 6.99512 2.00296C7.0732 2.01548 7.14121 2.06465 7.17773 2.1348C7.18246 2.14396 7.19003 2.16192 7.23633 2.30081Z" fill="currentColor"/></svg>