<svg xmlns="http://www.w3.org/2000/svg" width="16" height="16" fill="currentColor"><path fill="currentColor" d="M13.059 5.504a.5.5 0 0 1 .437.555l-.792 6.733A2.5 2.5 0 0 1 10.222 15H5.778a2.5 2.5 0 0 1-2.482-2.208l-.792-6.733a.5.5 0 1 1 .992-.118l.793 6.734A1.5 1.5 0 0 0 5.78 14h4.443c.76 0 1.4-.57 1.489-1.325l.793-6.734a.5.5 0 0 1 .555-.437M6.25 7.003a.5.5 0 0 1 .548.447l.333 3.333a.5.5 0 0 1-.995.1L5.803 7.55a.5.5 0 0 1 .447-.547m3.503 0a.5.5 0 0 1 .448.547l-.334 3.333a.5.5 0 1 1-.995-.1l.334-3.333a.5.5 0 0 1 .547-.447M9.09 1.5c.157 0 .293-.002.42.019a1.5 1.5 0 0 1 1.094.789c.059.114.1.242.15.391l.064.195.02.056c.117.323.42.541.763.55h2.06a.5.5 0 1 1 0 1H2.327a.5.5 0 0 1 0-1h2.06a.83.83 0 0 0 .762-.55l.02-.056.064-.195c.05-.149.091-.277.15-.391.22-.421.627-.715 1.095-.79.127-.02.262-.018.42-.018zM6.637 2.506a.5.5 0 0 0-.365.264 2 2 0 0 0-.088.246l-.065.193q-.015.048-.028.081a2 2 0 0 1-.092.21h3.992a2 2 0 0 1-.093-.21l-.027-.081-.064-.193a2 2 0 0 0-.09-.246.5.5 0 0 0-.364-.264A2 2 0 0 0 9.09 2.5H6.898c-.192 0-.232.001-.261.006"/></svg>