<svg width="16" height="16" viewBox="0 0 16 16" fill="none" xmlns="http://www.w3.org/2000/svg"><path d="M13.6611 3.50004C13.9373 3.50004 14.1611 3.72389 14.1611 4.00004 14.1611 4.27618 13.9373 4.50004 13.6611 4.50004H2.32812C2.05198 4.50004 1.82812 4.27618 1.82812 4.00004 1.82812 3.72389 2.05198 3.50004 2.32812 3.50004H13.6611ZM12.5898 5.16508C12.8653 5.18352 13.074 5.42186 13.0557 5.6973L12.749 10.2969C12.6909 11.1682 12.6446 11.8705 12.5352 12.42 12.4229 12.9834 12.2322 13.4543 11.8379 13.8233 11.4436 14.1922 10.9612 14.3513 10.3916 14.4258 9.83613 14.4985 9.13203 14.4971 8.25879 14.4971H7.74316C6.86986 14.4971 6.16585 14.4985 5.61035 14.4258 5.04073 14.3513 4.55839 14.1921 4.16406 13.8233 3.76972 13.4543 3.57907 12.9834 3.4668 12.42 3.35735 11.8706 3.31102 11.1682 3.25293 10.2969L2.94629 5.6973 2.9502 5.59574C2.98174 5.36551 3.17117 5.18114 3.41211 5.16508 3.65331 5.14903 3.8662 5.30687 3.92773 5.53129L3.94434 5.6309 4.25098 10.2305C4.31087 11.1289 4.35356 11.7543 4.44727 12.2246 4.53816 12.6808 4.66541 12.9223 4.84766 13.0928 5.02991 13.2632 5.27911 13.3743 5.74023 13.4346 6.21583 13.4968 6.84263 13.4971 7.74316 13.4971H8.25879C9.15928 13.4971 9.78614 13.4968 10.2617 13.4346 10.7228 13.3743 10.9721 13.2632 11.1543 13.0928 11.3365 12.9223 11.4638 12.6808 11.5547 12.2246 11.6484 11.7543 11.6911 11.1289 11.751 10.2305L12.0576 5.6309C12.076 5.35537 12.3143 5.14671 12.5898 5.16508Z" fill="currentColor"/><path d="M6.27832 6.8389C6.51863 6.81487 6.73649 6.96467 6.80566 7.18656L6.8252 7.28617 7.15918 10.6192C7.18666 10.8939 6.98571 11.1396 6.71094 11.167 6.43628 11.1943 6.19153 10.9935 6.16406 10.7188L5.83105 7.38578V7.28422C5.85489 7.05302 6.03803 6.86298 6.27832 6.8389ZM9.71094 6.8389C9.98571 6.86638 10.1867 7.11101 10.1592 7.38578L9.82519 10.7188C9.79772 10.9936 9.55309 11.1945 9.27832 11.167 9.00356 11.1395 8.80358 10.8939 8.83105 10.6192L9.16406 7.28617C9.19156 7.01151 9.43628 6.81156 9.71094 6.8389ZM9.09082 1.50004C9.24806 1.50004 9.38373 1.49831 9.51074 1.51859 9.97955 1.5935 10.3852 1.88657 10.6045 2.30765 10.6638 2.42165 10.7052 2.55023 10.7549 2.69926L10.8193 2.89359C10.8319 2.93135 10.8358 2.94178 10.8389 2.95023 10.9556 3.27294 11.2585 3.49134 11.6016 3.50004 11.6105 3.50026 11.6217 3.50004 11.6611 3.50004V4.50004C11.6269 4.50004 11.6008 4.49968 11.5762 4.49906 10.8213 4.47993 10.1553 4.00012 9.89844 3.29008 9.89005 3.26686 9.88193 3.24154 9.87109 3.20902L9.80664 3.01566C9.74622 2.8344 9.73158 2.7962 9.71777 2.76957 9.64467 2.62919 9.50883 2.53085 9.35254 2.5059 9.3229 2.5012 9.28219 2.50004 9.09082 2.50004H6.89844C6.70638 2.50004 6.6664 2.50117 6.63672 2.5059 6.48043 2.53085 6.34556 2.62919 6.27246 2.76957 6.25861 2.79622 6.24422 2.83379 6.18359 3.01566L6.11914 3.20902C6.10826 3.24167 6.09923 3.26683 6.09082 3.29008 5.83398 4.00012 5.16791 4.47993 4.41309 4.49906 4.38847 4.49968 4.36238 4.50004 4.32812 4.50004V3.50004C4.36816 3.50004 4.37965 3.50027 4.38867 3.50004 4.73153 3.49117 5.03365 3.27275 5.15039 2.95023 5.15345 2.94177 5.15736 2.93129 5.16992 2.89359L5.23438 2.69926C5.28403 2.55029 5.32549 2.42161 5.38477 2.30765 5.60406 1.88653 6.01063 1.59346 6.47949 1.51859 6.60636 1.49839 6.7414 1.50004 6.89844 1.50004H9.09082Z" fill="currentColor"/></svg>