<svg xmlns="http://www.w3.org/2000/svg" width="20" height="20" fill="currentColor"><path fill="currentColor" d="M3.549 6.252a.55.55 0 0 1 .6.495l.868 9.118a1.75 1.75 0 0 0 1.742 1.584h6.484a1.75 1.75 0 0 0 1.742-1.584l.869-9.118a.55.55 0 1 1 1.094.105l-.868 9.117a2.85 2.85 0 0 1-2.837 2.58H6.76a2.85 2.85 0 0 1-2.837-2.58l-.868-9.117a.55.55 0 0 1 .495-.6m4.264 2.133a.55.55 0 0 1 .602.493l.444 4.444a.55.55 0 0 1-1.094.11L7.32 8.987a.55.55 0 0 1 .492-.602m4.373 0c.302.03.522.3.492.602l-.445 4.445a.55.55 0 0 1-1.094-.11l.444-4.444a.55.55 0 0 1 .602-.493m-.715-6.936c.214 0 .384-.002.543.024.591.095 1.1.468 1.375 1 .073.143.125.305.193.51l.087.263.026.08c.174.486.624.81 1.127.822l.083.001H17.5a.55.55 0 1 1 0 1.1h-15a.55.55 0 0 1 0-1.1h2.688a1.23 1.23 0 0 0 1.127-.823l.027-.08.087-.263a3.6 3.6 0 0 1 .193-.51 1.89 1.89 0 0 1 1.376-1c.159-.026.328-.024.542-.024zM8.54 2.55c-.253 0-.317.001-.367.01a.79.79 0 0 0-.573.419 3 3 0 0 0-.126.35l-.087.263-.036.105q-.087.242-.22.453h5.75a2.4 2.4 0 0 1-.257-.558l-.086-.263a3 3 0 0 0-.127-.35.79.79 0 0 0-.573-.42 3 3 0 0 0-.367-.01z"/></svg>