<svg xmlns="http://www.w3.org/2000/svg" width="20" height="20" fill="currentColor"><path fill="currentColor" fill-rule="evenodd" d="M12.5 2a.5.5 0 0 1 .5.5v6.95h1V5.5a.5.5 0 0 1 .5-.5h3a.5.5 0 0 1 .5.5v9l-.01.1a.5.5 0 0 1-.49.4h-3a.5.5 0 0 1-.49-.4l-.01-.1v-3.95h-1v6.95a.5.5 0 0 1-.4.49l-.1.01h-5l-.1-.01a.5.5 0 0 1-.39-.39L7 17.5v-6.95H6v2.95a.5.5 0 0 1-.5.5h-3a.5.5 0 0 1-.5-.5v-7a.5.5 0 0 1 .5-.5h3a.5.5 0 0 1 .5.5v2.95h1V2.5a.5.5 0 0 1 .5-.5zM8.1 16.9h3.8V3.1H8.1zm7-3h1.8V6.1h-1.8zm-12-1h1.8V7.1H3.1z" clip-rule="evenodd"/></svg>