<svg xmlns="http://www.w3.org/2000/svg" width="12" height="12" fill="currentColor"><path fill="currentColor" fill-rule="evenodd" d="M7.5 0a.5.5 0 0 1 .5.5v2l-.01.1a.5.5 0 0 1-.49.4H6.45v1h4.05a.5.5 0 0 1 .5.5v3a.5.5 0 0 1-.5.5H6.45v1H8.5a.5.5 0 0 1 .5.5v2l-.01.1a.5.5 0 0 1-.49.4h-5a.5.5 0 0 1-.49-.4L3 11.5v-2a.5.5 0 0 1 .4-.49L3.5 9h2.05V8H1.5l-.1-.01A.5.5 0 0 1 1 7.5v-3a.5.5 0 0 1 .4-.49L1.5 4h4.05V3H4.5a.5.5 0 0 1-.49-.4L4 2.5v-2a.5.5 0 0 1 .5-.5zM3.9 11.1h4.2V9.9H6.202A.45.45 0 0 1 6 9.95a.45.45 0 0 1-.202-.05H3.9zm-2-4h3.898q.091-.048.202-.05.11.002.202.05H10.1V4.9H6.202A.45.45 0 0 1 6 4.95a.45.45 0 0 1-.202-.05H1.9zm3-5h.898q.091-.048.202-.05.11.002.202.05H7.1V.9H4.9z" clip-rule="evenodd"/></svg>