<svg xmlns="http://www.w3.org/2000/svg" width="16" height="16" fill="currentColor"><path fill="currentColor" fill-rule="evenodd" d="M9.5 2a.5.5 0 0 1 .5.5v5h1v-3a.5.5 0 0 1 .5-.5h2l.1.01a.5.5 0 0 1 .4.49v7a.5.5 0 0 1-.4.49l-.1.01h-2a.5.5 0 0 1-.5-.5v-3h-1v5l-.01.1a.5.5 0 0 1-.49.4h-3a.5.5 0 0 1-.49-.4L6 13.5v-5H5v2a.5.5 0 0 1-.4.49l-.1.01h-2a.5.5 0 0 1-.49-.4L2 10.5v-5a.5.5 0 0 1 .5-.5h2l.1.01a.5.5 0 0 1 .4.49v2h1v-5a.5.5 0 0 1 .5-.5zM7 13h2V3H7zm5-2h1V5h-1zm-9-1h1V6H3z" clip-rule="evenodd"/></svg>