<svg xmlns="http://www.w3.org/2000/svg" width="16" height="16" fill="currentColor"><path fill="currentColor" fill-rule="evenodd" d="M10.5 2a.5.5 0 0 1 .5.5v2l-.01.1a.5.5 0 0 1-.49.4h-2v1h5a.5.5 0 0 1 .5.5v3a.5.5 0 0 1-.5.5h-5v1h3a.5.5 0 0 1 .5.5v2l-.01.1a.5.5 0 0 1-.49.4h-7a.5.5 0 0 1-.49-.4L4 13.5v-2a.5.5 0 0 1 .5-.5h3v-1h-5l-.1-.01A.5.5 0 0 1 2 9.5v-3a.5.5 0 0 1 .4-.49L2.5 6h5V5h-2a.5.5 0 0 1-.49-.4L5 4.5v-2a.5.5 0 0 1 .4-.49L5.5 2zM5 13h6v-1H5zM3 9h10V7H3zm3-5h4V3H6z" clip-rule="evenodd"/></svg>