<svg xmlns="http://www.w3.org/2000/svg" width="20" height="20" fill="currentColor"><path fill="currentColor" fill-rule="evenodd" d="M13.5 2a.5.5 0 0 1 .5.5v3a.5.5 0 0 1-.5.5h-2.95v1h6.95a.5.5 0 0 1 .5.5v5a.5.5 0 0 1-.5.5h-6.95v1h3.95a.5.5 0 0 1 .5.5v3a.5.5 0 0 1-.5.5h-9l-.1-.01a.5.5 0 0 1-.4-.49v-3a.5.5 0 0 1 .4-.49l.1-.01h3.95v-1H2.5a.5.5 0 0 1-.49-.4L2 12.5v-5l.01-.1a.5.5 0 0 1 .39-.39L2.5 7h6.95V6H6.5a.5.5 0 0 1-.5-.5v-3a.5.5 0 0 1 .5-.5zM6.1 16.9h7.8v-1.8H6.1zm-3-5h13.8V8.1H3.1zm4-7h5.8V3.1H7.1z" clip-rule="evenodd"/></svg>