<svg xmlns="http://www.w3.org/2000/svg" width="12" height="12" fill="currentColor"><path fill="currentColor" fill-rule="evenodd" d="M7.5 1a.5.5 0 0 1 .5.5v4.05h1V3.5a.5.5 0 0 1 .5-.5h2l.1.01a.5.5 0 0 1 .4.49v5a.5.5 0 0 1-.4.49l-.1.01h-2a.5.5 0 0 1-.49-.4L9 8.5V6.45H8v4.05l-.01.1a.5.5 0 0 1-.49.4h-3a.5.5 0 0 1-.49-.4L4 10.5V6.45H3V7.5a.5.5 0 0 1-.4.49L2.5 8h-2a.5.5 0 0 1-.5-.5v-3A.5.5 0 0 1 .5 4h2l.1.01a.5.5 0 0 1 .4.49v1.05h1V1.5a.5.5 0 0 1 .5-.5zM4.9 5.798q.048.091.05.202-.002.11-.05.201V10.1h2.2V6.2a.45.45 0 0 1-.05-.2q.002-.11.05-.202V1.9H4.9zm5 0q.048.091.05.202-.002.11-.05.201V8.1h1.2V3.9H9.9zM.9 7.1h1.2v-.9a.45.45 0 0 1-.05-.2q.002-.11.05-.202V4.9H.9z" clip-rule="evenodd"/></svg>