<svg xmlns="http://www.w3.org/2000/svg" width="12" height="12" fill="currentColor"><path fill="currentColor" d="M9.2.55c.966 0 1.75.784 1.75 1.75v2.201a.45.45 0 0 1-.9 0v-2.2a.85.85 0 0 0-.85-.85H2.8a.85.85 0 0 0-.85.85v7.4c0 .47.38.85.85.85h3.7a.45.45 0 0 1 0 .9H2.8a1.75 1.75 0 0 1-1.75-1.75v-7.4c0-.967.783-1.75 1.75-1.75zm0 4.8c1.35 0 2.4 1.152 2.4 2.516 0 .615-.235 1.284-.566 1.863-.332.582-.79 1.126-1.292 1.473-.104.072-.275.204-.542.204s-.438-.132-.542-.204c-.502-.348-.96-.89-1.293-1.473-.33-.579-.565-1.248-.565-1.863 0-1.364 1.05-2.515 2.4-2.515m0 .901c-.804 0-1.5.698-1.5 1.615 0 .406.163.919.447 1.417.283.496.657.926 1.023 1.179l.03.02.03-.02c.366-.253.74-.683 1.023-1.179.284-.498.447-1.011.447-1.417 0-.917-.696-1.615-1.5-1.615m0 .85a.541.541 0 1 1 0 1.083.541.541 0 0 1 0-1.082m-3.7-.05a.45.45 0 0 1 0 .9H4a.45.45 0 0 1 0-.9zm.9-1.5a.45.45 0 0 1 0 .9H4a.45.45 0 0 1 0-.9zM8 4.05a.45.45 0 0 1 0 .9H4a.45.45 0 0 1 0-.9z"/></svg>