<svg xmlns="http://www.w3.org/2000/svg" width="16" height="16" fill="currentColor"><path fill="currentColor" d="M13 3.522V3.5A1.5 1.5 0 0 0 11.5 2h-7A1.5 1.5 0 0 0 3 3.5v9A1.5 1.5 0 0 0 4.5 14h7a1.5 1.5 0 0 0 1.5-1.5v-1.962a.5.5 0 1 1 1 0V12.5a2.5 2.5 0 0 1-2.5 2.5h-7A2.5 2.5 0 0 1 2 12.5v-9A2.5 2.5 0 0 1 4.5 1h7A2.5 2.5 0 0 1 14 3.5v.022a.5.5 0 0 1-1 0"/><path fill="currentColor" d="M8 7.5a.5.5 0 0 1 0 1l-2.398-.002a.5.5 0 0 1 0-1zM10 5a.5.5 0 0 1 0 1H5.602a.5.5 0 0 1 0-1zm-3 5a.5.5 0 0 1 0 1H5.602a.5.5 0 0 1 0-1zm5.762-4.104a.45.45 0 0 1 .321.131l1.25 1.25a.45.45 0 0 1 .005.631l-3.3 3.404a.45.45 0 0 1-.323.136h-1.25a.45.45 0 0 1-.45-.45v-1.25a.45.45 0 0 1 .127-.313l3.3-3.403.068-.057a.45.45 0 0 1 .252-.08M9.915 9.93v.618h.61L13.382 7.6l-.613-.614zm3.943-5.206a.78.78 0 0 1 1.047.053l.78.78c.306.306.306.8 0 1.106l-.61.61a.45.45 0 0 1-.636 0l-1.25-1.25a.45.45 0 0 1 0-.635l.61-.61zm.285.981.614.613.209-.208-.614-.613z"/></svg>