<svg xmlns="http://www.w3.org/2000/svg" width="20" height="20" fill="currentColor"><path fill="currentColor" d="M3.963 4.049H3.8c-.69 0-1.25.56-1.25 1.25v9.4c0 .69.56 1.25 1.25 1.25h.163a3 3 0 0 1-.013-.25V4.3q.001-.127.013-.25m7.236 7.9a.55.55 0 1 1 0 1.1H6.6a.55.55 0 1 1 0-1.1zm2.2-2.503a.55.55 0 0 1 0 1.1H6.6a.55.55 0 1 1 0-1.1zm0-2.497a.55.55 0 1 1 0 1.1H6.6a.55.55 0 1 1 0-1.1zm5.15 7.75a2.35 2.35 0 0 1-2.349 2.35h-.49a2.85 2.85 0 0 1-2.51 1.5H6.8a2.85 2.85 0 0 1-2.51-1.5H3.8a2.35 2.35 0 0 1-2.35-2.35V5.3A2.35 2.35 0 0 1 3.8 2.95h.49a2.85 2.85 0 0 1 2.51-1.5h6.4c1.086 0 2.029.607 2.51 1.5h.49a2.35 2.35 0 0 1 2.35 2.35zm-13.5 1c0 .967.784 1.75 1.75 1.75H13.2a1.75 1.75 0 0 0 1.75-1.75V4.3a1.75 1.75 0 0 0-1.75-1.75H6.8A1.75 1.75 0 0 0 5.05 4.3zm11 0q0 .127-.012.25h.163c.69 0 1.25-.56 1.25-1.25V5.3c0-.69-.56-1.25-1.25-1.25h-.163q.012.124.013.25z"/></svg>