<svg xmlns="http://www.w3.org/2000/svg" width="12" height="12" fill="currentColor"><g clip-path="url(#a)"><path fill="currentColor" d="M2.102 2.39a.673.673 0 0 0-.652.673v5.875c0 .365.29.66.652.672L2.1 9.563V2.438zm4.36 5.084a.45.45 0 0 1 0 .9H4.156a.45.45 0 0 1 0-.9zm1.386-1.925a.45.45 0 0 1 0 .9H4.155a.45.45 0 0 1 0-.9zm0-1.921a.45.45 0 0 1 0 .9H4.155a.45.45 0 0 1 0-.9zm3.602 5.31c0 .87-.705 1.576-1.575 1.576h-.233c-.328.56-.934.937-1.63.937H3.988a1.89 1.89 0 0 1-1.629-.937h-.233c-.87 0-1.575-.706-1.575-1.576V3.063c0-.87.705-1.575 1.575-1.575h.233c.328-.56.934-.937 1.63-.937h4.025c.695 0 1.301.377 1.629.937h.233c.87 0 1.575.706 1.575 1.575zM3 9.563c0 .546.442.988.987.988h4.026A.987.987 0 0 0 9 9.563V2.438a.987.987 0 0 0-.987-.987H3.987A.987.987 0 0 0 3 2.438zm6.9 0q0 .024-.003.047a.67.67 0 0 0 .653-.672V3.063a.673.673 0 0 0-.653-.672l.003.047z"/></g><defs><clipPath id="a"><rect width="12" height="12" fill="currentColor" rx="5"/></clipPath></defs></svg>