<svg xmlns="http://www.w3.org/2000/svg" width="16" height="16" fill="currentColor"><path fill="currentColor" d="M3.04 3.219h-.077A.963.963 0 0 0 2 4.182v7.636c0 .532.431.963.963.963h.076q-.006-.075-.008-.15V3.369q.002-.075.008-.15M8.601 10a.5.5 0 0 1 0 1h-3a.5.5 0 0 1 0-1zm1.8-2.502a.5.5 0 0 1 0 1h-4.8a.5.5 0 0 1 0-1zm0-2.498a.5.5 0 0 1 0 1h-4.8a.5.5 0 0 1 0-1zM15 11.818a1.963 1.963 0 0 1-1.963 1.963h-.367A2.37 2.37 0 0 1 10.6 15H5.4c-.89 0-1.665-.492-2.07-1.219h-.367A1.963 1.963 0 0 1 1 11.818V4.182c0-1.084.879-1.963 1.963-1.963h.367A2.37 2.37 0 0 1 5.4 1h5.2c.89 0 1.665.492 2.07 1.219h.367c1.084 0 1.963.879 1.963 1.963zm-10.969.813A1.37 1.37 0 0 0 5.401 14H10.6a1.37 1.37 0 0 0 1.369-1.37V3.37A1.37 1.37 0 0 0 10.599 2H5.4a1.37 1.37 0 0 0-1.369 1.37zm8.938 0q-.002.075-.008.15h.076a.963.963 0 0 0 .963-.963V4.182a.963.963 0 0 0-.963-.963h-.076q.006.075.008.15z"/></svg>