<svg width="16" height="16" viewBox="0 0 16 16" fill="none" xmlns="http://www.w3.org/2000/svg"><path d="M13.5 6.66895C13.5 5.3979 13.4993 4.49462 13.4072 3.80957C13.317 3.13897 13.1473 2.75281 12.8652 2.4707C12.5831 2.18859 12.197 2.01889 11.5264 1.92871C10.8413 1.83661 9.93803 1.83594 8.66699 1.83594H7.33301C6.06197 1.83594 5.15868 1.83661 4.47363 1.92871C3.80304 2.01889 3.41688 2.18859 3.13477 2.4707C2.85266 2.75281 2.68296 3.13897 2.59277 3.80957C2.50067 4.49462 2.5 5.3979 2.5 6.66895V9.33594C2.5 10.6071 2.50068 11.5102 2.59277 12.1953C2.68293 12.8659 2.85272 13.2521 3.13477 13.5342C3.41687 13.8163 3.80306 13.986 4.47363 14.0762C5.15868 14.1683 6.06197 14.1689 7.33301 14.1689H8.66699C9.93804 14.1689 10.8413 14.1683 11.5264 14.0762C12.1969 13.986 12.5831 13.8163 12.8652 13.5342C13.1473 13.2521 13.3171 12.8659 13.4072 12.1953C13.4993 11.5102 13.5 10.6071 13.5 9.33594V6.66895ZM8.66895 10.1641C8.94509 10.1641 9.16895 10.3879 9.16895 10.6641C9.16895 10.9402 8.94509 11.1641 8.66895 11.1641H5.33594C5.0598 11.1641 4.83594 10.9402 4.83594 10.6641C4.83594 10.3879 5.0598 10.1641 5.33594 10.1641H8.66895ZM10.6689 7.5C10.9451 7.5 11.1689 7.72386 11.1689 8C11.1689 8.27614 10.9451 8.5 10.6689 8.5H5.33594C5.0598 8.5 4.83594 8.27614 4.83594 8C4.83594 7.72386 5.0598 7.5 5.33594 7.5H10.6689ZM10.6689 4.83594C10.9451 4.83594 11.1689 5.05979 11.1689 5.33594C11.1689 5.61208 10.9451 5.83594 10.6689 5.83594H5.33594C5.0598 5.83594 4.83594 5.61208 4.83594 5.33594C4.83594 5.05979 5.0598 4.83594 5.33594 4.83594H10.6689ZM14.5 9.33594C14.5 10.5789 14.5006 11.5619 14.3975 12.3291C14.2923 13.1105 14.0711 13.7434 13.5723 14.2422C13.0734 14.7409 12.4406 14.9623 11.6592 15.0674C10.892 15.1705 9.90968 15.1689 8.66699 15.1689H7.33301C6.09032 15.1689 5.10796 15.1705 4.34082 15.0674C3.55938 14.9623 2.92659 14.7409 2.42773 14.2422C1.92894 13.7434 1.70765 13.1105 1.60254 12.3291C1.49939 11.5619 1.5 10.5789 1.5 9.33594V6.66895C1.5 5.42621 1.49941 4.44391 1.60254 3.67676C1.70762 2.89514 1.92883 2.26258 2.42773 1.76367C2.92664 1.26476 3.55921 1.04356 4.34082 0.938477C5.10797 0.835349 6.09028 0.835937 7.33301 0.835938H8.66699C9.90972 0.835937 10.892 0.835349 11.6592 0.938477C12.4408 1.04356 13.0734 1.26476 13.5723 1.76367C14.0712 2.26258 14.2924 2.89514 14.3975 3.67676C14.5006 4.44391 14.5 5.42621 14.5 6.66895V9.33594Z" fill="currentColor"/></svg>