<svg xmlns="http://www.w3.org/2000/svg" width="20" height="20" fill="currentColor"><path fill="currentColor" d="M16.45 4.299a1.75 1.75 0 0 0-1.75-1.75H5.3a1.75 1.75 0 0 0-1.75 1.75v11.4c0 .967.783 1.75 1.75 1.75h9.4a1.75 1.75 0 0 0 1.75-1.75zm-5.25 7.65a.55.55 0 1 1 0 1.1H6.6a.55.55 0 1 1 0-1.1zm2.2-2.503a.55.55 0 0 1 0 1.1H6.6a.55.55 0 1 1 0-1.1zm0-2.497a.55.55 0 1 1 0 1.1H6.6a.55.55 0 1 1 0-1.1zm4.15 8.75a2.85 2.85 0 0 1-2.85 2.85H5.3a2.85 2.85 0 0 1-2.85-2.85V4.3A2.85 2.85 0 0 1 5.3 1.45h9.4a2.85 2.85 0 0 1 2.85 2.85z"/></svg>