<svg width="12" height="12" viewBox="0 0 12 12" fill="none" xmlns="http://www.w3.org/2000/svg"><path d="M10 5.00195C10 4.04504 9.99934 3.37759 9.93164 2.87402C9.86587 2.38484 9.74506 2.12592 9.56055 1.94141C9.37604 1.7569 9.11711 1.63608 8.62793 1.57031C8.12437 1.50262 7.45692 1.50195 6.5 1.50195H5.5C4.54308 1.50195 3.87563 1.50262 3.37207 1.57031C2.88289 1.63608 2.62396 1.7569 2.43945 1.94141C2.25494 2.12592 2.13413 2.38484 2.06836 2.87402C2.00066 3.37759 2 4.04504 2 5.00195V7.00195C2 7.95887 2.00066 8.62632 2.06836 9.12988C2.13413 9.61907 2.25494 9.87799 2.43945 10.0625C2.62396 10.247 2.88289 10.3678 3.37207 10.4336C3.87563 10.5013 4.54308 10.502 5.5 10.502H6.5C7.45692 10.502 8.12437 10.5013 8.62793 10.4336C9.11711 10.3678 9.37604 10.247 9.56055 10.0625C9.74506 9.87799 9.86587 9.61907 9.93164 9.12988C9.99934 8.62632 10 7.95887 10 7.00195V5.00195ZM6.50195 7.49805C6.7781 7.49805 7.00195 7.7219 7.00195 7.99805C7.00195 8.27419 6.7781 8.49805 6.50195 8.49805H4.00195C3.72581 8.49805 3.50195 8.27419 3.50195 7.99805C3.50195 7.7219 3.72581 7.49805 4.00195 7.49805H6.50195ZM8.00195 5.5C8.2781 5.5 8.50195 5.72386 8.50195 6C8.50195 6.27614 8.2781 6.5 8.00195 6.5H4.00195C3.72581 6.5 3.50195 6.27614 3.50195 6C3.50195 5.72386 3.72581 5.5 4.00195 5.5H8.00195ZM8.00195 3.50195C8.2781 3.50195 8.50195 3.72581 8.50195 4.00195C8.50195 4.2781 8.2781 4.50195 8.00195 4.50195H4.00195C3.72581 4.50195 3.50195 4.2781 3.50195 4.00195C3.50195 3.72581 3.72581 3.50195 4.00195 3.50195H8.00195ZM11 7.00195C11 7.93044 11.0006 8.67706 10.9219 9.2627C10.8412 9.86277 10.6689 10.3683 10.2676 10.7695C9.8663 11.1708 9.36081 11.3432 8.76074 11.4238C8.17511 11.5025 7.42848 11.502 6.5 11.502H5.5C4.57152 11.502 3.82489 11.5025 3.23926 11.4238C2.63919 11.3432 2.1337 11.1708 1.73242 10.7695C1.33114 10.3683 1.1588 9.86277 1.07813 9.2627C0.99943 8.67706 1 7.93044 1 7.00195V5.00195C1 4.07347 0.99943 3.32685 1.07813 2.74121C1.1588 2.14114 1.33114 1.63565 1.73242 1.23438C2.1337 0.833097 2.63919 0.660756 3.23926 0.580078C3.82489 0.501383 4.57152 0.501953 5.5 0.501953H6.5C7.42848 0.501953 8.17511 0.501383 8.76074 0.580078C9.36081 0.660756 9.8663 0.833097 10.2676 1.23438C10.6689 1.63565 10.8412 2.14114 10.9219 2.74121C11.0006 3.32685 11 4.07347 11 5.00195V7.00195Z" fill="currentColor"/></svg>