<svg width="16" height="16" viewBox="0 0 16 16" fill="none" xmlns="http://www.w3.org/2000/svg"><g clip-path="url(#a)"><path d="M2.8335 5.33398C2.8335 4.51936 2.83231 3.84465 2.88525 3.2959C2.59415 3.36617 2.41212 3.46735 2.27295 3.60645C2.08848 3.79092 1.96763 4.05008 1.90186 4.53906C1.83416 5.04257 1.8335 5.71024 1.8335 6.66699V9.33398C1.8335 10.2909 1.83416 10.9584 1.90186 11.4619C1.96762 11.9511 2.08845 12.21 2.27295 12.3945C2.41213 12.5337 2.59407 12.6348 2.88525 12.7051C2.83234 12.1564 2.8335 11.4815 2.8335 10.667V5.33398ZM8.00049 10.834C8.27648 10.8342 8.50049 11.058 8.50049 11.334C8.50049 11.61 8.27648 11.8338 8.00049 11.834H6.00049C5.72435 11.834 5.50049 11.6101 5.50049 11.334C5.50049 11.0578 5.72435 10.834 6.00049 10.834H8.00049ZM10.0005 8.16699C10.2764 8.16717 10.5003 8.39111 10.5005 8.66699C10.5005 8.94303 10.2765 9.16682 10.0005 9.16699H6.00049C5.72435 9.16699 5.50049 8.94313 5.50049 8.66699C5.50066 8.391 5.72445 8.16699 6.00049 8.16699H10.0005ZM10.0005 5.50098C10.2765 5.50115 10.5005 5.72494 10.5005 6.00098C10.5003 6.27686 10.2764 6.5008 10.0005 6.50098H6.00049C5.72445 6.50098 5.50066 6.27697 5.50049 6.00098C5.50049 5.72483 5.72435 5.50098 6.00049 5.50098H10.0005ZM15.1665 9.33398C15.1665 10.2624 15.168 11.0091 15.0894 11.5947C15.0087 12.1946 14.8361 12.7003 14.4351 13.1016C14.023 13.5136 13.5007 13.6829 12.8794 13.7607C12.7761 14.0103 12.6344 14.2362 12.4351 14.4355C12.0338 14.8368 11.5282 15.0092 10.9282 15.0898C10.3425 15.1686 9.59518 15.167 8.6665 15.167H7.3335C6.40506 15.167 5.65838 15.1685 5.07275 15.0898C4.47284 15.0092 3.96714 14.8366 3.56592 14.4355C3.36651 14.2361 3.22385 14.0104 3.12061 13.7607C2.49943 13.6829 1.97787 13.5135 1.56592 13.1016C1.16465 12.7003 0.992298 12.1948 0.911621 11.5947C0.832931 11.0091 0.833496 10.2625 0.833496 9.33398V6.66699C0.833496 5.73849 0.832888 4.99186 0.911621 4.40625C0.992299 3.80618 1.16464 3.30069 1.56592 2.89941C1.97788 2.48756 2.49945 2.3171 3.12061 2.23926C3.22382 1.99006 3.3668 1.76552 3.56592 1.56641C3.9672 1.16513 4.47268 0.992787 5.07275 0.91211C5.65839 0.833415 6.40501 0.833985 7.3335 0.833985H8.6665C9.59518 0.833985 10.3425 0.833366 10.9282 0.91211C11.5282 0.992803 12.0338 1.16519 12.4351 1.56641C12.6342 1.76563 12.7762 1.99088 12.8794 2.24023C13.5007 2.31808 14.023 2.48738 14.4351 2.89941C14.8362 3.30067 15.0087 3.80625 15.0894 4.40625C15.1681 4.99185 15.1665 5.73853 15.1665 6.66699V9.33398ZM3.8335 10.667C3.8335 11.6237 3.8342 12.2914 3.90186 12.7949C3.96761 13.284 4.08853 13.543 4.27295 13.7275C4.45746 13.912 4.71638 14.0329 5.20557 14.0986C5.70913 14.1663 6.37655 14.167 7.3335 14.167H8.6665C9.62325 14.167 10.2909 14.1663 10.7944 14.0986C11.2836 14.0329 11.5425 13.912 11.7271 13.7275C11.9116 13.543 12.0324 13.2841 12.0981 12.7949C12.1658 12.2914 12.1665 11.6237 12.1665 10.667V5.33398C12.1665 4.37704 12.1658 3.70962 12.0981 3.20605C12.0324 2.71687 11.9116 2.45795 11.7271 2.27344C11.5426 2.08902 11.2835 1.96809 10.7944 1.90234C10.2909 1.83469 9.62322 1.83398 8.6665 1.83398H7.3335C6.37658 1.83398 5.70913 1.83465 5.20557 1.90234C4.71638 1.96811 4.45746 2.08893 4.27295 2.27344C4.08844 2.45795 3.96762 2.71687 3.90186 3.20605C3.83416 3.70962 3.8335 4.37707 3.8335 5.33398V10.667ZM13.1665 10.667C13.1665 11.4815 13.1667 12.1564 13.1138 12.7051C13.4056 12.6348 13.5877 12.5338 13.7271 12.3945C13.9116 12.21 14.0324 11.9511 14.0981 11.4619C14.1658 10.9584 14.1665 10.2909 14.1665 9.33398V6.66699C14.1665 5.71024 14.1658 5.04257 14.0981 4.53906C14.0324 4.05011 13.9115 3.79091 13.7271 3.60645C13.5877 3.46723 13.4055 3.36615 13.1138 3.2959C13.1667 3.84467 13.1665 4.5193 13.1665 5.33398V10.667Z" fill="currentColor"/></g><defs><clipPath id="a"><rect width="16" height="16" rx="5" fill="currentColor"/></clipPath></defs></svg>