<svg xmlns="http://www.w3.org/2000/svg" width="20" height="20" fill="currentColor"><path fill="currentColor" d="M14.7 1.45a2.85 2.85 0 0 1 2.85 2.849v3.7a.55.55 0 1 1-1.1 0v-3.7a1.75 1.75 0 0 0-1.75-1.75H5.3a1.75 1.75 0 0 0-1.75 1.75v11.4c0 .967.783 1.75 1.75 1.75h6.2a.55.55 0 1 1 0 1.1H5.3a2.85 2.85 0 0 1-2.85-2.85V4.3A2.85 2.85 0 0 1 5.3 1.45zm.6 7.7c2.086 0 3.75 1.737 3.75 3.846 0 .95-.377 1.997-.914 2.91-.54.916-1.282 1.763-2.083 2.295-.17.113-.398.281-.753.281s-.584-.168-.753-.28c-.801-.533-1.543-1.38-2.083-2.296-.538-.912-.914-1.96-.914-2.91 0-2.109 1.663-3.847 3.75-3.847m0 1.099c-1.448 0-2.65 1.214-2.65 2.747 0 .686.282 1.538.762 2.352.477.809 1.112 1.518 1.743 1.937l.113.073q.02.013.032.018l.032-.018c.03-.018.063-.04.112-.073.632-.42 1.266-1.128 1.743-1.937.48-.814.762-1.666.762-2.352 0-1.533-1.201-2.747-2.65-2.747m0 1.652a1.2 1.2 0 1 1 0 2.401 1.2 1.2 0 0 1 0-2.4m-5.3.048a.55.55 0 1 1 0 1.1H6.6a.55.55 0 1 1 0-1.1zm1-2.503a.55.55 0 0 1 0 1.1H6.6a.55.55 0 1 1 0-1.1zm2.4-2.497a.55.55 0 1 1 0 1.1H6.6a.55.55 0 1 1 0-1.1z"/></svg>