<svg xmlns="http://www.w3.org/2000/svg" width="12" height="12" fill="currentColor"><path fill="currentColor" d="M10.05 2.332v-.031a.85.85 0 0 0-.85-.85H2.8a.85.85 0 0 0-.85.85v7.4c0 .47.38.85.85.85h6.4c.47 0 .85-.38.85-.85V7.88a.45.45 0 0 1 .9 0V9.7a1.75 1.75 0 0 1-1.75 1.75H2.8A1.75 1.75 0 0 1 1.05 9.7V2.3c0-.967.783-1.75 1.75-1.75h6.4c.966 0 1.75.783 1.75 1.75v.031a.45.45 0 0 1-.9 0"/><path fill="currentColor" d="M5.5 5.55a.45.45 0 0 1 0 .901H4a.45.45 0 0 1 0-.9zm1-1.5a.45.45 0 0 1 0 .901H4a.45.45 0 0 1 0-.9zm-2 3a.45.45 0 0 1 0 .901H4a.45.45 0 0 1 0-.9zm5.606-3.557a.72.72 0 0 1 .792 0l.114.092.638.634a.72.72 0 0 1 0 1.021L7.84 9.022a.45.45 0 0 1-.317.131H6.5a.45.45 0 0 1-.45-.45V7.688c0-.12.048-.235.133-.32l3.81-3.783zM6.95 7.874v.379h.388l3.55-3.524-.386-.382z"/></svg>