<svg xmlns="http://www.w3.org/2000/svg" width="16" height="16" fill="currentColor"><path fill="currentColor" d="M12 7.5c1.679 0 3 1.42 3 3.122 0 .766-.297 1.605-.718 2.335-.423.733-1.005 1.413-1.64 1.846-.133.091-.332.24-.642.24s-.509-.15-.643-.24c-.633-.433-1.215-1.113-1.638-1.846-.422-.73-.719-1.569-.719-2.335C9 8.921 10.321 7.5 12 7.5M11.5 1A2.5 2.5 0 0 1 14 3.5V6a.5.5 0 0 1-1 0V3.5A1.5 1.5 0 0 0 11.5 2h-7A1.5 1.5 0 0 0 3 3.5v9A1.5 1.5 0 0 0 4.5 14h4a.5.5 0 0 1 0 1h-4A2.5 2.5 0 0 1 2 12.5v-9A2.5 2.5 0 0 1 4.5 1zm.5 7.5c-1.082 0-2 .928-2 2.122 0 .53.215 1.196.584 1.835.367.636.855 1.191 1.337 1.52l.079.052.08-.052c.48-.329.969-.883 1.336-1.52.37-.64.584-1.304.584-1.835 0-1.194-.918-2.122-2-2.122m-.001 1.2a.8.8 0 1 1 0 1.6.8.8 0 0 1 0-1.6M7.2 10a.5.5 0 0 1 0 1H5.602a.5.5 0 0 1 0-1zm1-2.502a.5.5 0 0 1 0 1H5.602a.5.5 0 0 1 0-1zM10.401 5a.5.5 0 0 1 0 1h-4.8a.5.5 0 0 1 0-1z"/></svg>