<svg xmlns="http://www.w3.org/2000/svg" width="20" height="20" fill="currentColor"><path fill="currentColor" d="M15.5 1.45a2.05 2.05 0 0 1 2.05 2.049.55.55 0 1 1-1.1 0 .95.95 0 0 0-.95-.95H5.3a1.75 1.75 0 0 0-1.75 1.75v11.4c0 .967.783 1.75 1.75 1.75h9.4a1.75 1.75 0 0 0 1.75-1.75v-4.2a.55.55 0 1 1 1.1 0v4.2a2.85 2.85 0 0 1-2.85 2.85H5.3a2.85 2.85 0 0 1-2.85-2.85V4.3A2.85 2.85 0 0 1 5.3 1.45z"/><path fill="currentColor" fill-rule="evenodd" d="M15.5 6.574a.5.5 0 0 1 .356.146l1.705 1.693a.5.5 0 0 1 .006.704l-4.504 4.611a.5.5 0 0 1-.357.15H11a.5.5 0 0 1-.5-.5v-1.693a.5.5 0 0 1 .143-.35l4.503-4.61.076-.063a.5.5 0 0 1 .278-.088m-4 5.315v.99h.994l4.01-4.106-.995-.989z" clip-rule="evenodd"/><path fill="currentColor" d="M8.5 11.95a.55.55 0 1 1 0 1.099H6.6a.55.55 0 1 1 0-1.1zm1-2.505a.55.55 0 1 1 0 1.1H6.6a.55.55 0 1 1 0-1.1z"/><path fill="currentColor" fill-rule="evenodd" d="M17.07 4.96a.956.956 0 0 1 1.201 0l.073.066 1.064 1.057a.95.95 0 0 1 0 1.347l-.832.826a.5.5 0 0 1-.705 0l-1.706-1.694a.5.5 0 0 1 0-.71l.833-.826zm.157 1.247.996.988.443-.44-.996-.987z" clip-rule="evenodd"/><path fill="currentColor" d="M11.5 6.95a.55.55 0 1 1 0 1.099H6.6a.55.55 0 1 1 0-1.1z"/></svg>