<svg width="20" height="20" viewBox="0 0 20 20" fill="none" xmlns="http://www.w3.org/2000/svg"><g clip-path="url(#a)"><path d="M18.125 10C18.125 5.51269 14.4873 1.875 10 1.875C5.51269 1.875 1.875 5.51269 1.875 10C1.875 14.4873 5.51269 18.125 10 18.125C14.4873 18.125 18.125 14.4873 18.125 10ZM13.2119 5.93164C13.3876 5.6347 13.7713 5.53637 14.0684 5.71191C14.3653 5.8876 14.4636 6.27129 14.2881 6.56836L9.85645 14.0684C9.75584 14.2385 9.58033 14.3503 9.38379 14.3711C9.18714 14.3918 8.99232 14.3183 8.8584 14.1729L5.79004 10.8398C5.55637 10.5859 5.57321 10.1908 5.82715 9.95703C6.0811 9.7234 6.47622 9.7393 6.70996 9.99316L9.20801 12.707L13.2119 5.93164ZM19.375 10C19.375 15.1777 15.1777 19.375 10 19.375C4.82233 19.375 0.625 15.1777 0.625 10C0.625 4.82233 4.82233 0.625 10 0.625C15.1777 0.625 19.375 4.82233 19.375 10Z" fill="currentColor"/></g><defs><clipPath id="a"><path fill="currentColor" d="M0 0H20V20H0z"/></clipPath></defs></svg>