<svg width="12" height="12" viewBox="0 0 12 12" fill="none" xmlns="http://www.w3.org/2000/svg"><path d="M9.75 10C10.0261 10 10.25 10.2239 10.25 10.5C10.25 10.7761 10.0261 11 9.75 11H2.25C1.97386 11 1.75 10.7761 1.75 10.5C1.75 10.2239 1.97386 10 2.25 10H9.75ZM5.5 2.25C5.5 1.97386 5.72386 1.75 6 1.75C6.27614 1.75 6.5 1.97386 6.5 2.25V6.34082L7.53223 5.36914C7.73321 5.17989 8.04992 5.1897 8.23926 5.39062C8.42824 5.59157 8.4185 5.9074 8.21777 6.09668L6.34277 7.86426C6.15026 8.04542 5.84974 8.04542 5.65723 7.86426L3.78223 6.09668C3.5815 5.9074 3.57176 5.59157 3.76074 5.39062C3.95008 5.1897 4.26679 5.17989 4.46777 5.36914L5.5 6.34082V2.25Z" fill="currentColor"/></svg>