<svg width="16" height="16" viewBox="0 0 16 16" fill="none" xmlns="http://www.w3.org/2000/svg"><path d="M13 12C13.2761 12 13.5 12.2239 13.5 12.5C13.5 12.7761 13.2761 13 13 13H3C2.72386 13 2.5 12.7761 2.5 12.5C2.5 12.2239 2.72386 12 3 12H13ZM7.5 3C7.5 2.72386 7.72386 2.5 8 2.5C8.27614 2.5 8.5 2.72386 8.5 3V8.84082L10.1572 7.28027C10.3582 7.09099 10.6749 7.10082 10.8643 7.30176C11.0532 7.50272 11.0435 7.81855 10.8428 8.00781L8.34277 10.3643C8.15026 10.5454 7.84974 10.5454 7.65723 10.3643L5.15723 8.00781C4.95648 7.81855 4.94679 7.50272 5.13574 7.30176C5.32509 7.10082 5.6418 7.09099 5.84277 7.28027L7.5 8.84082V3Z" fill="currentColor"/></svg>