<svg width="16" height="16" viewBox="0 0 16 16" fill="none" xmlns="http://www.w3.org/2000/svg"><path d="M13 12.0001C13.2761 12.0001 13.5 12.224 13.5 12.5001C13.5 12.7762 13.2761 13.0001 13 13.0001H3C2.72386 13.0001 2.5 12.7762 2.5 12.5001C2.5 12.224 2.72386 12.0001 3 12.0001H13ZM7.5 10.0001V4.15831L5.84277 5.71983C5.6418 5.90912 5.32509 5.89929 5.13574 5.69835C4.94679 5.49738 4.95648 5.18155 5.15723 4.99229L7.65723 2.63585L7.73438 2.57628C7.92342 2.45757 8.1744 2.4774 8.34277 2.63585L10.8428 4.99229C11.0435 5.18155 11.0532 5.49738 10.8643 5.69835C10.6749 5.89929 10.3582 5.90912 10.1572 5.71983L8.5 4.15831V10.0001C8.5 10.2762 8.27614 10.5001 8 10.5001C7.72386 10.5001 7.5 10.2762 7.5 10.0001Z" fill="currentColor"/></svg>