<svg width="12" height="12" viewBox="0 0 12 12" fill="none" xmlns="http://www.w3.org/2000/svg"><path d="M9.75 10.0001C10.0261 10.0001 10.25 10.224 10.25 10.5001C10.25 10.7762 10.0261 11.0001 9.75 11.0001H2.25C1.97386 11.0001 1.75 10.7762 1.75 10.5001C1.75 10.224 1.97386 10.0001 2.25 10.0001H9.75ZM5.5 7.50011V3.40831L4.46777 4.38097C4.26679 4.57021 3.95008 4.56041 3.76074 4.35948C3.57176 4.15853 3.5815 3.8427 3.78223 3.65343L5.65723 1.88585L5.73438 1.82628C5.92342 1.70757 6.1744 1.7274 6.34277 1.88585L8.21777 3.65343C8.4185 3.8427 8.42824 4.15853 8.23926 4.35948C8.04992 4.56041 7.73321 4.57021 7.53223 4.38097L6.5 3.40831V7.50011C6.5 7.77625 6.27614 8.00011 6 8.00011C5.72386 8.00011 5.5 7.77625 5.5 7.50011Z" fill="currentColor"/></svg>