<svg xmlns="http://www.w3.org/2000/svg" width="12" height="12" fill="currentColor"><path fill="currentColor" fill-rule="evenodd" d="M5 1a1 1 0 0 1 1 1v8l-.005.102a1 1 0 0 1-.892.893L5 11H2l-.103-.005a1 1 0 0 1-.892-.893L1 10V2a1 1 0 0 1 1-1zm-3 .9a.1.1 0 0 0-.1.1v8a.1.1 0 0 0 .1.1h3a.1.1 0 0 0 .1-.1V2a.1.1 0 0 0-.1-.1z" clip-rule="evenodd"/><path fill="currentColor" d="M8.682 4.182a.45.45 0 0 1 .636.636l-.731.732h2.663a.45.45 0 0 1 0 .9H8.587l.731.732a.45.45 0 0 1-.636.636l-1.5-1.5-.056-.068a.45.45 0 0 1 .056-.568z"/></svg>