<svg xmlns="http://www.w3.org/2000/svg" width="16" height="16" fill="currentColor"><path fill="currentColor" d="M13 5a1.5 1.5 0 0 0-1.5-1.5h-8A1.5 1.5 0 0 0 2 5v6a1.5 1.5 0 0 0 1.5 1.5h8A1.5 1.5 0 0 0 13 11zm-5.299.48a.5.5 0 0 1 .77.64L7.365 7.45H8.8a.5.5 0 0 1 .385.82l-1.787 2.15a.5.5 0 0 1-.768-.64l1.104-1.33H6.3a.5.5 0 0 1-.385-.82zM14 6.21q.1.007.19.024a.9.9 0 0 1 .528.293l.061.08.048.077c.102.18.138.377.154.557.02.206.019.464.019.76 0 .297 0 .554-.019.76s-.063.434-.202.635a.9.9 0 0 1-.59.373q-.09.015-.189.022V11a2.5 2.5 0 0 1-2.5 2.5h-8A2.5 2.5 0 0 1 1 11V5a2.5 2.5 0 0 1 2.5-2.5h8A2.5 2.5 0 0 1 14 5z"/></svg>