<svg xmlns="http://www.w3.org/2000/svg" width="12" height="12" fill="currentColor"><path fill="currentColor" d="M9.55 3.3a.85.85 0 0 0-.85-.849H2.3a.85.85 0 0 0-.85.85v5.4c0 .47.38.85.85.85h6.4c.47 0 .85-.38.85-.85zm-4.046.913a.45.45 0 0 1 .691.576l-.634.762h.789a.452.452 0 0 1 .345.738l-1.25 1.5a.45.45 0 0 1-.691-.576l.635-.762h-.79a.45.45 0 0 1-.345-.738zm4.946.338h.05c.093 0 .253-.003.392.034a.68.68 0 0 1 .363.241l.074.12.049.118c.04.12.054.244.062.358.01.155.01.35.01.579 0 .23 0 .424-.01.58-.01.15-.033.32-.11.475a.68.68 0 0 1-.437.361c-.14.037-.3.034-.393.034h-.05v1.25a1.75 1.75 0 0 1-1.75 1.75H2.3a1.75 1.75 0 0 1-1.75-1.75v-5.4c0-.967.783-1.75 1.75-1.75h6.4c.967 0 1.75.783 1.75 1.75z"/></svg>