<svg xmlns="http://www.w3.org/2000/svg" width="20" height="20" fill="currentColor"><path fill="currentColor" d="M16.696 6.115c0-1.03-.835-1.865-1.865-1.865H4.014c-1.03 0-1.865.835-1.865 1.865v7.77c0 1.03.835 1.866 1.865 1.866h10.817c1.03 0 1.865-.835 1.865-1.865v-1.76h-.002v-4.25h.002zm-7.044.91a.55.55 0 0 1 .847.702L9.069 9.45h1.876a.55.55 0 0 1 .424.9l-2.176 2.626a.55.55 0 1 1-.847-.702l1.429-1.724H7.9a.55.55 0 0 1-.424-.902zm8.143.865q.095.008.182.023c.256.047.508.16.696.418.172.233.228.502.252.752.025.248.024.558.024.918s0 .67-.024.918c-.024.25-.08.518-.252.752a1.06 1.06 0 0 1-.696.417q-.087.015-.182.023v1.775a2.966 2.966 0 0 1-2.964 2.966H4.014a2.966 2.966 0 0 1-2.965-2.966v-7.77A2.965 2.965 0 0 1 4.014 3.15h10.817a2.965 2.965 0 0 1 2.964 2.965z"/></svg>