<svg xmlns="http://www.w3.org/2000/svg" width="16" height="16" fill="currentColor"><path fill="currentColor" d="M8.962 4.14a.5.5 0 0 1 .358.147l2.318 2.32a.5.5 0 0 1 .006.7L5.638 13.5h9.364a.5.5 0 1 1 0 1h-14a.5.5 0 0 1 0-1H2.4a.5.5 0 0 1-.057-.226v-2.32a.5.5 0 0 1 .14-.348l6.124-6.314a.5.5 0 0 1 .355-.151m-5.619 7.016v1.617h1.608l5.632-5.808L8.97 5.353zm7.78-9.188a1.116 1.116 0 0 1 1.579 0l1.446 1.447a1.116 1.116 0 0 1 0 1.58l-1.13 1.131a.5.5 0 0 1-.709 0l-2.318-2.32a.5.5 0 0 1 0-.706zm.872.707a.116.116 0 0 0-.165 0l-.779.778 1.612 1.612.778-.778a.116.116 0 0 0 0-.165z"/></svg>