<svg xmlns="http://www.w3.org/2000/svg" width="20" height="20" fill="currentColor"><path fill="currentColor" d="M11.146 5.47a.55.55 0 0 1 .393.161l2.708 2.708a.55.55 0 0 1 .006.771L7.23 16.35H18.5a.55.55 0 1 1 0 1.1h-17a.55.55 0 1 1 0-1.1h2.013a.54.54 0 0 1-.063-.25v-2.707a.55.55 0 0 1 .155-.383l7.15-7.373a.55.55 0 0 1 .39-.167M4.55 13.615v1.936h1.926l6.61-6.817-1.93-1.931zm9.142-10.692a1.27 1.27 0 0 1 1.796 0l1.69 1.69a1.27 1.27 0 0 1 0 1.795l-1.322 1.323a.55.55 0 0 1-.778 0L12.37 5.023a.55.55 0 0 1 0-.779zm1.018.778a.17.17 0 0 0-.24 0l-.933.932 1.93 1.93.932-.932a.17.17 0 0 0 0-.24z"/></svg>