<svg xmlns="http://www.w3.org/2000/svg" width="12" height="12" fill="currentColor"><path fill="currentColor" d="M6.832 3.076c.12 0 .236.045.321.13L8.858 4.9a.45.45 0 0 1 .005.634L4.94 9.55H11a.45.45 0 0 1 0 .9H1a.45.45 0 0 1 0-.9h.882V8.137a.45.45 0 0 1 .128-.315l4.504-4.611a.45.45 0 0 1 .318-.135M2.782 8.32v1.06H3.85l4.058-4.155-1.066-1.06zm5.583-6.806a.906.906 0 0 1 1.276 0l1.064 1.056a.9.9 0 0 1 0 1.276l-.833.827a.45.45 0 0 1-.634 0L7.532 2.978a.45.45 0 0 1 0-.638zm.636.637-.002.001-.51.507 1.066 1.06.514-.511L9.007 2.15z"/></svg>