<svg width="16" height="16" viewBox="0 0 16 16" fill="none" xmlns="http://www.w3.org/2000/svg"><path d="M8.44629 4.52019C8.58011 4.5192 8.70905 4.57208 8.80371 4.66668L10.6787 6.54168C10.8717 6.73484 10.8737 7.04778 10.6836 7.24383L6.07031 11.9997H13.5C13.7761 11.9997 14 12.2235 14 12.4997C14 12.7758 13.7761 12.9997 13.5 12.9997H1.5C1.22386 12.9997 1 12.7758 1 12.4997C1 12.2235 1.22386 11.9997 1.5 11.9997H3V10.1247C3.00007 9.99497 3.0504 9.87022 3.14062 9.77703L8.09082 4.67254C8.18406 4.57639 8.31236 4.52122 8.44629 4.52019ZM4 10.3278V11.4997H5.16309L9.62207 6.90008L8.45508 5.73308L4 10.3278ZM10.125 2.79266C10.5152 2.40243 11.1469 2.40246 11.5371 2.79266L12.707 3.96258C13.0972 4.35282 13.0973 4.98447 12.707 5.37469L11.792 6.28875C11.5967 6.48395 11.2802 6.48399 11.085 6.28875L9.21094 4.41473C9.11727 4.32106 9.06456 4.19367 9.06445 4.06121C9.06445 3.92863 9.11721 3.80146 9.21094 3.70769L10.125 2.79266ZM10.2715 4.06121L11.4385 5.2282L11.998 4.66765L10.8311 3.50066L10.2715 4.06121Z" fill="currentColor"/></svg>