<svg width="12" height="12" viewBox="0 0 12 12" fill="none" xmlns="http://www.w3.org/2000/svg"><path d="M10 3.73438C9.98334 3.75027 9.96747 3.76743 9.94824 3.78125L6.61133 6.17676C6.24466 6.43967 5.75534 6.43967 5.38867 6.17676L2.05176 3.78125L2 3.73438V8.33301C2 8.71849 2.29681 9 2.625 9H9.375C9.70319 9 10 8.71849 10 8.33301V3.73438ZM5.97168 5.36426C5.98198 5.37156 5.99165 5.37402 6 5.37402C6.00835 5.37402 6.01802 5.37156 6.02832 5.36426L9.32031 3H2.67969L5.97168 5.36426ZM11 8.33301C11 9.23619 10.2894 10 9.375 10H2.625C1.71055 10 1 9.23619 1 8.33301V3.66699C1 2.76381 1.71055 2 2.625 2H9.375C10.2894 2 11 2.76381 11 3.66699V8.33301Z" fill="currentColor"/></svg>