<svg xmlns="http://www.w3.org/2000/svg" width="20" height="20" fill="currentColor"><path fill="currentColor" d="m17.442 5.302-6.122 4.766a2.15 2.15 0 0 1-2.64 0L2.557 5.302q-.007.075-.007.15v9.094c0 1.05.852 1.903 1.903 1.903h11.094a1.904 1.904 0 0 0 1.903-1.903V5.452q-.001-.075-.008-.15M4.453 3.549a1.9 1.9 0 0 0-1.469.691l6.37 4.96c.38.296.912.296 1.292 0l6.369-4.96a1.9 1.9 0 0 0-1.468-.691zM18.55 14.546a3.003 3.003 0 0 1-3.003 3.003H4.453a3.003 3.003 0 0 1-3.003-3.003V5.452A3.003 3.003 0 0 1 4.453 2.45h11.094a3.003 3.003 0 0 1 3.003 3.003z"/></svg>