<svg xmlns="http://www.w3.org/2000/svg" width="16" height="16" fill="currentColor"><path fill="currentColor" d="M1 12.5V8.8a2.5 2.5 0 0 1 2.5-2.5h2.063a.5.5 0 0 1 0 1H3.5A1.5 1.5 0 0 0 2 8.8v3.7A1.5 1.5 0 0 0 3.5 14h9a1.5 1.5 0 0 0 1.5-1.5V8.8a1.5 1.5 0 0 0-1.5-1.5h-2.062a.5.5 0 0 1 0-1H12.5A2.5 2.5 0 0 1 15 8.8v3.7a2.5 2.5 0 0 1-2.5 2.5h-9A2.5 2.5 0 0 1 1 12.5m6.5-3V2.848L6.379 4.152A.5.5 0 0 1 5.62 3.5l2-2.326.08-.074a.5.5 0 0 1 .68.073l2 2.326a.5.5 0 0 1-.758.652L8.5 2.848V9.5a.5.5 0 0 1-1 0"/></svg>