<svg xmlns="http://www.w3.org/2000/svg" width="20" height="20" fill="currentColor"><path fill="currentColor" d="M9.999 3.736c3.288 0 5.431 1.556 6.737 3.102.65.769 1.094 1.536 1.376 2.111a9 9 0 0 1 .403.961l.006.017.001.006v.002L18 10.1l.521.173-.001.003v.005l-.007.017-.02.056-.077.199a10.3 10.3 0 0 1-1.714 2.753c-1.317 1.506-3.461 3.01-6.711 2.958-3.239-.053-5.376-1.55-6.69-3.03a10.3 10.3 0 0 1-1.396-2.015 9 9 0 0 1-.417-.916l-.006-.017-.001-.005H1.48v-.002l.52-.18-.525-.164v-.001l.001-.001.001-.006.006-.017.02-.056q.024-.074.075-.204c.066-.171.167-.413.308-.7.282-.576.727-1.343 1.376-2.112C4.567 5.292 6.71 3.736 10 3.736m0 1.1c-2.891 0-4.748 1.351-5.898 2.712a9.3 9.3 0 0 0-1.5 2.5l-.017.043q.008.014.014.032c.059.138.15.34.278.583a9.2 9.2 0 0 0 1.245 1.798c1.159 1.303 3.022 2.612 5.886 2.66 2.853.046 4.708-1.257 5.866-2.582a9.2 9.2 0 0 0 1.523-2.445l.017-.043-.017-.045a9.3 9.3 0 0 0-1.5-2.5C14.747 6.187 12.89 4.836 10 4.836m1.45 5.188c0-.756-.636-1.395-1.45-1.395-.815 0-1.45.639-1.45 1.395 0 .757.634 1.397 1.45 1.397.815 0 1.45-.64 1.45-1.397M2 10.1l-.521.178-.059-.17.055-.172zm16.578.005-.057.168L18 10.1l.524-.164zm-6.029-.08c0 1.392-1.155 2.496-2.55 2.496s-2.55-1.104-2.55-2.497 1.157-2.496 2.55-2.496c1.395 0 2.55 1.104 2.55 2.496"/></svg>