<svg xmlns="http://www.w3.org/2000/svg" width="16" height="16" fill="currentColor"><path fill="currentColor" d="M3.246 2.646a.5.5 0 0 1 .707 0l10 10a.5.5 0 1 1-.707.707l-1.372-1.37-.006.005c-.997.636-2.275 1.08-3.877 1.054-2.611-.043-4.335-1.251-5.396-2.443A8.3 8.3 0 0 1 1.47 8.975a7 7 0 0 1-.32-.697l-.017-.045-.005-.012v-.005l-.002-.001v-.001l-.053-.156.049-.157V7.9l.002-.002.001-.007.008-.025.03-.085a6 6 0 0 1 .119-.299c.106-.25.27-.594.503-.984.445-.746 1.152-1.67 2.208-2.396l-.747-.748a.5.5 0 0 1 0-.707m1.426 2.202c-.964.63-1.616 1.47-2.029 2.162a7 7 0 0 0-.51 1.035h.001c.046.11.12.27.221.463.204.388.525.906.987 1.426.92 1.033 2.394 2.07 4.665 2.108 1.298.021 2.325-.313 3.138-.79l-1.74-1.738-.017.02A2.12 2.12 0 0 1 8 10.048c-1.147 0-2.1-.908-2.101-2.057 0-.525.202-1.004.53-1.366q.021-.023.046-.042L4.71 4.817q-.017.017-.037.03M8 2.9c2.652 0 4.382 1.256 5.435 2.502.524.62.881 1.238 1.108 1.701a7 7 0 0 1 .311.731l.016.047.005.013V7.9h.002l-.478.15.475.159h-.001l-.004.013-.01.028q-.012.036-.037.1a6 6 0 0 1-.149.35c-.133.29-.34.687-.633 1.125a.5.5 0 1 1-.83-.555c.258-.386.438-.737.554-.989q.063-.143.1-.237l-.003-.012a7.4 7.4 0 0 0-1.19-1.984C11.761 4.969 10.291 3.9 8 3.9q-.39 0-.748.04a.5.5 0 0 1-.107-.995Q7.557 2.9 8 2.9m6.924 5.156-.05.152-.475-.157.478-.15zM6.9 7.99c0 .571.48 1.057 1.1 1.057.268 0 .51-.092.699-.242l-1.52-1.52-.009.01c-.17.188-.27.43-.27.695"/></svg>