<svg xmlns="http://www.w3.org/2000/svg" width="20" height="20" fill="currentColor"><path fill="currentColor" d="M4.11 3.362a.55.55 0 0 1 .777 0l12.5 12.5a.55.55 0 1 1-.777.778l-1.76-1.761q-.027.024-.056.044c-1.234.787-2.817 1.338-4.804 1.306-3.239-.053-5.376-1.551-6.69-3.03a10.3 10.3 0 0 1-1.396-2.015 9 9 0 0 1-.417-.916l-.006-.017-.001-.005h-.001v-.002l.52-.18-.525-.165.004-.012.01-.03q.012-.038.037-.105.048-.135.146-.37c.132-.309.335-.737.623-1.22.564-.945 1.464-2.117 2.814-3.024L4.11 4.14a.55.55 0 0 1 0-.778m1.78 2.559a.6.6 0 0 1-.092.076c-1.218.797-2.04 1.857-2.56 2.728-.26.433-.44.816-.556 1.087q-.06.146-.098.245l.013.03c.059.139.15.34.278.584a9.2 9.2 0 0 0 1.245 1.798c1.159 1.303 3.022 2.612 5.886 2.659 1.681.027 3.008-.414 4.048-1.043l-2.299-2.299a1 1 0 0 1-.07.075 2.57 2.57 0 0 1-1.687.624c-1.395 0-2.55-1.103-2.55-2.496 0-.637.244-1.217.642-1.656a.6.6 0 0 1 .117-.096zM10 3.7c3.288 0 5.431 1.556 6.737 3.102.65.769 1.094 1.536 1.376 2.111a9 9 0 0 1 .403.961l.006.017.001.005V9.9l-.523.165.521.174v.002l-.001.003q0 .005-.004.01l-.013.035q-.015.045-.046.123a8 8 0 0 1-.183.433c-.166.36-.422.854-.785 1.397a.55.55 0 0 1-.914-.611 9 9 0 0 0 .699-1.246 7 7 0 0 0 .139-.327l-.016-.043a9.3 9.3 0 0 0-1.5-2.501C14.746 6.152 12.889 4.8 9.999 4.8q-.492 0-.94.05a.55.55 0 0 1-.12-1.094 10 10 0 0 1 1.06-.056m-8 6.363-.521.18-.059-.172.055-.172zm16.578.005-.057.168-.521-.173.524-.164zM8.548 9.99c0 .757.635 1.397 1.45 1.397.375 0 .713-.136.968-.357l.019-.014-2.022-2.022a1 1 0 0 1-.057.08 1.36 1.36 0 0 0-.358.916"/></svg>