<svg xmlns="http://www.w3.org/2000/svg" width="16" height="16" fill="currentColor"><path fill="currentColor" d="M8 2.928c2.652 0 4.382 1.256 5.435 2.503.524.62.881 1.238 1.108 1.7a7 7 0 0 1 .311.73l.016.047.005.014v.005l.002.002.047.154-.05.153-.001.002-.001.005-.005.014a3 3 0 0 1-.08.207 8.3 8.3 0 0 1-1.38 2.219c-1.062 1.215-2.794 2.43-5.416 2.386-2.611-.042-4.335-1.25-5.396-2.443A8.3 8.3 0 0 1 1.47 9.002a7 7 0 0 1-.32-.696l-.017-.044-.005-.014v-.004l-.002-.002-.053-.156.049-.157.477.15-.476-.15v-.002l.002-.005.003-.014.017-.047.06-.164A8.4 8.4 0 0 1 2.563 5.43c1.054-1.246 2.785-2.502 5.438-2.502m0 1c-2.292 0-3.761 1.07-4.672 2.148a7.4 7.4 0 0 0-1.19 1.984l-.006.01.002.003c.046.11.119.27.221.463.204.388.525.906.987 1.426.92 1.033 2.394 2.07 4.665 2.107 2.26.037 3.73-.994 4.647-2.044a7.3 7.3 0 0 0 1.208-1.94l.004-.01-.005-.015a7.4 7.4 0 0 0-1.19-1.983c-.91-1.08-2.38-2.15-4.671-2.15m1.1 4.09c0-.57-.48-1.056-1.1-1.056S6.9 7.447 6.9 8.018c0 .57.48 1.056 1.1 1.056S9.1 8.59 9.1 8.02m1 0c0 1.15-.954 2.057-2.1 2.057s-2.101-.91-2.101-2.057c0-1.15.954-2.057 2.1-2.057s2.1.908 2.1 2.057"/></svg>