<svg xmlns="http://www.w3.org/2000/svg" width="12" height="12" fill="currentColor"><path fill="currentColor" d="M1.05 9.701v-7.4c0-.967.784-1.75 1.75-1.75h3.163c.464 0 .91.184 1.237.512l3.238 3.239c.329.328.513.773.513 1.237v4.162a1.75 1.75 0 0 1-1.75 1.75h-6.4a1.75 1.75 0 0 1-1.75-1.75m3.246-2.92a.45.45 0 0 1 .634-.055l1.012.85a.45.45 0 0 1 0 .689l-1.012.85a.45.45 0 0 1-.578-.69l.066-.055H2.953a.45.45 0 0 1 0-.9h1.465l-.066-.055a.45.45 0 0 1-.056-.634m2.6-2.23h2.508L6.896 2.077zM1.951 9.7c0 .47.38.85.85.85h6.4c.47 0 .85-.38.85-.85V5.54q0-.045-.005-.09l-.032.002H6.646a.65.65 0 0 1-.65-.65V1.479l.002-.027H2.801a.85.85 0 0 0-.85.849z"/></svg>