<svg xmlns="http://www.w3.org/2000/svg" width="12" height="12" fill="currentColor"><path fill="currentColor" d="M1.05 9.701v-7.4c0-.967.783-1.75 1.75-1.75h3.162c.464 0 .91.184 1.237.512l3.239 3.239c.328.328.512.773.512 1.237v4.162a1.75 1.75 0 0 1-1.75 1.75H2.8a1.75 1.75 0 0 1-1.75-1.75m2.803-3.13a.45.45 0 0 1 .899 0v1.463l.056-.065a.45.45 0 0 1 .69.578l-.85 1.013a.45.45 0 0 1-.69 0l-.85-1.013a.45.45 0 0 1 .689-.578l.056.065zm3.043-2.02h2.507L6.896 2.077zM1.95 9.7c0 .47.38.85.85.85h6.4c.47 0 .85-.38.85-.85V5.54q0-.045-.005-.09l-.032.002H6.646a.65.65 0 0 1-.65-.65V1.479l.001-.027H2.8a.85.85 0 0 0-.85.849z"/></svg>