<svg xmlns="http://www.w3.org/2000/svg" width="20" height="20" fill="currentColor"><path fill="currentColor" d="M1.45 15.696V7.5A2.85 2.85 0 0 1 4.3 4.65h1.632V4.3a2.85 2.85 0 0 1 2.85-2.85h3.466c.756 0 1.481.3 2.016.835l3.452 3.451a2.85 2.85 0 0 1 .834 2.016v4.746a2.85 2.85 0 0 1-2.85 2.85h-1.632v.35a2.85 2.85 0 0 1-2.85 2.85H4.3a2.85 2.85 0 0 1-2.85-2.85M8.877 9.77h3.298L8.877 6.514zm4.48-3.2h3.3l-3.3-3.255zM2.55 15.696c0 .967.783 1.75 1.75 1.75h6.918a1.75 1.75 0 0 0 1.75-1.75v-4.425q-.001-.207-.05-.406l-.025.003h-4.31a.806.806 0 0 1-.806-.806V5.81l.002-.03a2 2 0 0 0-.333-.032H4.3a1.75 1.75 0 0 0-1.75 1.75zM7.032 4.648h.414c.756 0 1.481.3 2.016.835l3.771 3.772q.053.054.101.111l.124.122a.8.8 0 0 1 .2.316c.264.44.41.945.41 1.467v2.976H15.7a1.75 1.75 0 0 0 1.75-1.75V7.751q-.001-.045-.005-.089-.034.005-.072.006h-4.31a.806.806 0 0 1-.805-.806v-4.25q0-.033.004-.063h-3.48a1.75 1.75 0 0 0-1.75 1.75z"/></svg>