<svg xmlns="http://www.w3.org/2000/svg" width="16" height="16" fill="currentColor"><path fill="currentColor" d="M1.5 12.5v-9A2.5 2.5 0 0 1 4 1h3.854l.242.012a2.5 2.5 0 0 1 1.318.535 1 1 0 0 1 .112.092l4.296 4.188a1 1 0 0 1 .094.11 2.5 2.5 0 0 1 .584 1.606V12.5A2.5 2.5 0 0 1 12 15H4a2.5 2.5 0 0 1-2.5-2.5m7.668-6.3h3.603L9.168 2.687zM2.5 12.5A1.5 1.5 0 0 0 4 14h8a1.5 1.5 0 0 0 1.5-1.5V7.543q-.002-.188-.048-.367a1 1 0 0 1-.188.024H8.969a.8.8 0 0 1-.801-.8V2.212q.001-.09.02-.173a2 2 0 0 0-.189-.032L7.854 2H4a1.5 1.5 0 0 0-1.5 1.5z"/></svg>