<svg xmlns="http://www.w3.org/2000/svg" width="20" height="20" fill="currentColor"><path fill="currentColor" d="M2.45 15.7V4.298a2.85 2.85 0 0 1 2.85-2.85h4.506c.643 0 1.262.22 1.762.614q.034.02.067.042l.107.096 5.001 5.145.008.008.097.1a1 1 0 0 1 .117.153 2.85 2.85 0 0 1 .585 1.726v6.366a2.85 2.85 0 0 1-2.85 2.85H5.3a2.85 2.85 0 0 1-2.85-2.85m4.92-4.028a.55.55 0 0 1 .77-.115l1.687 1.25a.55.55 0 0 1 0 .884l-1.687 1.25a.55.55 0 0 1-.655-.884l.348-.258H5a.55.55 0 1 1 0-1.1h2.833l-.348-.258a.55.55 0 0 1-.115-.77m3.96-3.823h4.367L11.33 3.354zm-7.78 7.85c0 .967.783 1.75 1.75 1.75h9.4a1.75 1.75 0 0 0 1.75-1.75V9.333c0-.138-.02-.273-.05-.405a1 1 0 0 1-.185.021H11.11a.88.88 0 0 1-.882-.88V2.813q.001-.107.025-.205a1.8 1.8 0 0 0-.448-.06H5.3a1.75 1.75 0 0 0-1.75 1.75z"/></svg>