<svg width="16" height="16" viewBox="0 0 16 16" fill="none" xmlns="http://www.w3.org/2000/svg"><g clip-path="url(#a)"><path d="M0.835938 9.33597V6.66898C0.835937 5.42625 0.835349 4.44394 0.938477 3.67679C1.04356 2.89518 1.26476 2.26262 1.76367 1.76371C2.26294 1.26444 2.89734 1.04252 3.68164 0.937536C4.452 0.834433 5.43984 0.835974 6.68945 0.835974C7.668 0.835972 8.2867 0.828089 8.85449 1.04593C9.42221 1.26379 9.87488 1.68166 10.5986 2.33304L13.2383 4.70902C14.0747 5.46184 14.6115 5.9308 14.8955 6.5684C15.1795 7.2061 15.1689 7.91939 15.1689 9.04496V9.33597C15.1689 10.5789 15.1705 11.5619 15.0674 12.3291C14.9623 13.1105 14.741 13.7434 14.2422 14.2422C13.7434 14.741 13.1105 14.9623 12.3291 15.0674C11.5619 15.1706 10.5789 15.169 9.33594 15.169H6.66895C5.42626 15.169 4.44389 15.1705 3.67676 15.0674C2.89531 14.9624 2.26253 14.7409 1.76367 14.2422C1.26488 13.7434 1.04359 13.1105 0.938477 12.3291C0.835325 11.5619 0.835938 10.5789 0.835938 9.33597ZM1.83594 9.33597C1.83594 10.6071 1.83662 11.5103 1.92871 12.1953C2.01887 12.8659 2.18866 13.2521 2.4707 13.5342C2.75281 13.8163 3.139 13.986 3.80957 14.0762C4.49462 14.1683 5.3979 14.169 6.66895 14.169H9.33594C10.6071 14.169 11.5102 14.1683 12.1953 14.0762C12.866 13.986 13.252 13.8164 13.5342 13.5342C13.8163 13.2521 13.986 12.8661 14.0762 12.1953C14.1683 11.5102 14.1689 10.6071 14.1689 9.33597V9.04496C14.1689 8.01581 14.161 7.53056 14.0508 7.1641H11.9971C11.2257 7.1641 10.5964 7.1652 10.1016 7.09867C9.59243 7.03017 9.1512 6.8817 8.79883 6.52933C8.44646 6.17697 8.29799 5.73573 8.22949 5.2266C8.16296 4.73175 8.16406 4.10248 8.16406 3.33109V1.89164C7.85764 1.84031 7.43984 1.83597 6.68945 1.83597C5.41167 1.83597 4.50305 1.83659 3.81445 1.92875C3.13986 2.01903 2.75245 2.18899 2.4707 2.47074C2.18859 2.75285 2.01889 3.13901 1.92871 3.80961C1.83661 4.49466 1.83594 5.39794 1.83594 6.66898V9.33597ZM9.16406 3.33109C9.16406 4.13066 9.16523 4.68008 9.2207 5.09281C9.27427 5.49122 9.37017 5.68661 9.50586 5.8223C9.64155 5.95799 9.83694 6.05389 10.2354 6.10746C10.6481 6.16294 11.1975 6.1641 11.9971 6.1641H13.3438C13.1469 5.97346 12.8952 5.74544 12.5693 5.45218L9.92969 3.07718C9.6042 2.78425 9.36108 2.57014 9.16406 2.40824V3.33109Z" fill="currentColor"/></g><defs><clipPath id="a"><path fill="currentColor" d="M0 0H16V16H0z"/></clipPath></defs></svg>