<svg width="12" height="12" viewBox="0 0 12 12" fill="none" xmlns="http://www.w3.org/2000/svg"><g clip-path="url(#a)"><path d="M0.501953 7.002V5.002C0.501953 4.07352 0.501383 3.32689 0.580078 2.74126C0.660756 2.14119 0.833097 1.6357 1.23438 1.23442C1.63604 0.832757 2.14312 0.660697 2.74512 0.580128C3.33302 0.501472 4.08316 0.502002 5.0166 0.502003C5.74118 0.502003 6.233 0.494393 6.68555 0.668018C7.13805 0.841659 7.49718 1.17486 8.0332 1.65728L10.0127 3.43853C10.6319 3.99578 11.0598 4.36785 11.2861 4.87603C11.5122 5.38408 11.502 5.95049 11.502 6.78325V7.002C11.502 7.93049 11.5025 8.67711 11.4238 9.26274C11.3432 9.86282 11.1708 10.3683 10.7695 10.7696C10.3683 11.1709 9.86277 11.3432 9.2627 11.4239C8.67706 11.5026 7.93044 11.502 7.00195 11.502H5.00195C4.07347 11.502 3.32685 11.5026 2.74121 11.4239C2.14114 11.3432 1.63565 11.1709 1.23438 10.7696C0.833097 10.3683 0.660756 9.86282 0.580078 9.26274C0.501383 8.67711 0.501953 7.93049 0.501953 7.002ZM5.75 8.50005C6.02614 8.50005 6.25 8.72391 6.25 9.00005C6.25 9.27619 6.02614 9.50005 5.75 9.50005H3C2.72386 9.50005 2.5 9.27619 2.5 9.00005C2.5 8.72391 2.72386 8.50005 3 8.50005H5.75ZM7 6.7481C7.27614 6.7481 7.5 6.97195 7.5 7.2481C7.5 7.52424 7.27614 7.7481 7 7.7481H3C2.72386 7.7481 2.5 7.52424 2.5 7.2481C2.5 6.97195 2.72386 6.7481 3 6.7481H7ZM1.50195 7.002C1.50195 7.95892 1.50262 8.62637 1.57031 9.12993C1.63608 9.61912 1.7569 9.87804 1.94141 10.0625C2.12592 10.2471 2.38484 10.3679 2.87402 10.4336C3.37759 10.5013 4.04504 10.502 5.00195 10.502H7.00195C7.95887 10.502 8.62632 10.5013 9.12988 10.4336C9.61907 10.3679 9.87799 10.2471 10.0625 10.0625C10.247 9.87804 10.3678 9.61912 10.4336 9.12993C10.5013 8.62637 10.502 7.95892 10.502 7.002V6.78325C10.502 6.08976 10.4962 5.74217 10.4424 5.4981H8.99805C8.42293 5.4981 7.94102 5.49958 7.55957 5.44829C7.16381 5.39506 6.80213 5.27679 6.51074 4.9854C6.21935 4.69401 6.10108 4.33233 6.04785 3.93657C5.99657 3.55512 5.99805 3.07322 5.99805 2.4981V1.52739C5.79119 1.50485 5.50058 1.502 5.0166 1.502C4.0552 1.502 3.38405 1.50268 2.87793 1.57036C2.38571 1.63624 2.12553 1.75734 1.94141 1.94146C1.7569 2.12596 1.63608 2.38489 1.57031 2.87407C1.50262 3.37763 1.50195 4.04509 1.50195 5.002V7.002ZM6.99805 2.4981C6.99805 3.10128 6.99886 3.50348 7.03906 3.80278C7.07737 4.08773 7.1431 4.2037 7.21777 4.27837C7.29245 4.35304 7.40841 4.41877 7.69336 4.45708C7.99266 4.49728 8.39487 4.4981 8.99805 4.4981H9.69043C9.59 4.40574 9.47593 4.30066 9.34375 4.18169L7.36426 2.40044C7.22162 2.27206 7.10167 2.16391 6.99805 2.07329V2.4981Z" fill="currentColor"/></g><defs><clipPath id="a"><path fill="currentColor" d="M0 0H12V12H0z"/></clipPath></defs></svg>