<svg xmlns="http://www.w3.org/2000/svg" width="16" height="16" fill="currentColor"><path fill="currentColor" d="M1 12.498V6.1a2.5 2.5 0 0 1 2.5-2.5h1.142v-.1a2.5 2.5 0 0 1 2.5-2.5h2.63a2.5 2.5 0 0 1 1.768.732l2.728 2.728A2.5 2.5 0 0 1 15 6.228v3.67a2.5 2.5 0 0 1-2.5 2.5h-1.142v.1a2.5 2.5 0 0 1-2.5 2.5H3.5a2.5 2.5 0 0 1-2.5-2.5m6.14-4.74h2.498L7.14 5.296zm3.641-2.599h2.497l-2.497-2.464zM2 12.498a1.5 1.5 0 0 0 1.5 1.5h5.358a1.5 1.5 0 0 0 1.5-1.5V9.087q-.001-.167-.038-.328H6.85a.71.71 0 0 1-.708-.708V4.625a1.5 1.5 0 0 0-.27-.025H3.5A1.5 1.5 0 0 0 2 6.1zM5.642 3.6h.23c.454 0 .894.126 1.277.355q.065.03.124.076a2.5 2.5 0 0 1 .366.301l2.987 2.987q.043.044.082.09l.139.138c.092.091.15.197.182.306.213.373.33.797.33 1.234v2.311H12.5a1.5 1.5 0 0 0 1.5-1.5v-3.67q-.001-.036-.004-.07l-.006.001h-3.5a.71.71 0 0 1-.709-.708V2h-2.64a1.5 1.5 0 0 0-1.5 1.501z"/></svg>