<svg xmlns="http://www.w3.org/2000/svg" width="12" height="12" fill="currentColor"><g clip-path="url(#a)"><path fill="currentColor" d="M.55 9.701v-5.4c0-.967.783-1.75 1.75-1.75h1.052V2.3A1.75 1.75 0 0 1 5.102.55h2.36c.465 0 .91.184 1.238.512l2.24 2.239c.328.328.511.773.511 1.237V7.7a1.75 1.75 0 0 1-1.75 1.75h-1.05v.25a1.75 1.75 0 0 1-1.75 1.75H2.3A1.75 1.75 0 0 1 .55 9.7m4.853-3.95h1.698L5.403 4.077zm2.801-2h1.697L8.204 2.077zM1.45 9.701c0 .47.38.85.85.85h4.6c.47 0 .85-.38.85-.85V6.74l-.005-.088H5.113a.61.61 0 0 1-.61-.61v-2.59H2.3a.85.85 0 0 0-.85.849zm2.801-7.15h.21c.465 0 .91.184 1.238.512l2.439 2.439q.034.036.066.073l.031.031q.067.068.109.145c.198.289.306.633.306.988v1.812h1.051c.47 0 .85-.38.85-.85v-3.05H7.915a.61.61 0 0 1-.61-.61v-2.59H5.102a.85.85 0 0 0-.851.85z"/></g><defs><clipPath id="a"><rect width="12" height="12" fill="currentColor" rx="2"/></clipPath></defs></svg>