<svg width="16" height="16" viewBox="0 0 16 16" fill="none" xmlns="http://www.w3.org/2000/svg"><path d="M1.5 12.9337V5.06648C1.5 4.88817 1.49962 4.72416 1.51074 4.58796C1.52236 4.44594 1.54875 4.29029 1.62695 4.13679C1.73879 3.91734 1.91727 3.73887 2.13672 3.62703C2.29022 3.54882 2.4458 3.52243 2.58789 3.51081C2.72411 3.49968 2.88798 3.50007 3.06641 3.50007H6.16699V3.06648C6.16699 2.88817 6.16661 2.72416 6.17774 2.58796C6.18935 2.44594 6.21574 2.29028 6.29395 2.13679C6.40581 1.91737 6.58426 1.73884 6.80371 1.62703C6.95716 1.54888 7.11284 1.52243 7.25488 1.51081C7.39104 1.49971 7.55511 1.50007 7.7334 1.50007H10.8916C11.0307 1.50007 11.1816 1.49694 11.3291 1.5323C11.4479 1.56083 11.5624 1.60787 11.667 1.67195C11.7964 1.75123 11.9007 1.86075 11.999 1.95906L14.041 4.00105C14.1396 4.09961 14.2488 4.20364 14.3281 4.33308C14.3911 4.43589 14.4388 4.54962 14.4678 4.66999C14.503 4.81682 14.5 4.96741 14.5 5.10359V10.9337C14.5 11.1121 14.5005 11.2759 14.4893 11.4122C14.4776 11.5544 14.4512 11.71 14.373 11.8634C14.2619 12.0814 14.0842 12.2606 13.8633 12.3731C13.71 12.4512 13.5548 12.4777 13.4131 12.4893C13.2769 12.5005 13.1126 12.5001 12.9346 12.5001H9.83301V12.9337C9.83301 13.1121 9.83348 13.2759 9.82227 13.4122C9.81057 13.5544 9.78419 13.71 9.70606 13.8634C9.59459 14.082 9.41652 14.2609 9.19629 14.3731C9.04279 14.4513 8.88698 14.4777 8.74512 14.4893C8.60903 14.5004 8.44546 14.5001 8.26758 14.5001H3.06543C2.8875 14.5001 2.72389 14.5004 2.58789 14.4893C2.44594 14.4777 2.29013 14.4513 2.13672 14.3731C1.91681 14.261 1.73852 14.0822 1.62695 13.8634C1.54879 13.71 1.52237 13.5542 1.51074 13.4122C1.50518 13.3441 1.50227 13.2688 1.50098 13.1885L1.5 12.9337ZM6.50781 6.66414C6.51171 6.71158 6.5163 6.73411 6.51856 6.74226C6.53476 6.77399 6.55995 6.79977 6.59082 6.8155C6.5799 6.80994 6.58909 6.81971 6.66895 6.82624C6.7548 6.83327 6.87086 6.83308 7.06543 6.83308H8.78906C8.78808 6.83199 8.78721 6.83036 8.78613 6.82917C8.76173 6.80245 8.72758 6.76867 8.66699 6.70808L6.62598 4.66609C6.56529 4.6054 6.5308 4.57149 6.50391 4.54695C6.50248 4.54564 6.5013 4.54421 6.5 4.54304V6.26667C6.5 6.46161 6.50078 6.57809 6.50781 6.66414ZM2.5 12.9337L2.50781 13.3302C2.51177 13.3785 2.51634 13.4014 2.51856 13.4093C2.53478 13.4408 2.56027 13.4659 2.59082 13.4815C2.59888 13.4838 2.62137 13.4884 2.66895 13.4923C2.7548 13.4993 2.87085 13.5001 3.06543 13.5001H8.26758C8.46201 13.5001 8.57803 13.4993 8.66406 13.4923C8.7111 13.4884 8.73375 13.4838 8.74219 13.4815C8.77266 13.466 8.79807 13.4412 8.81445 13.4093C8.81669 13.4014 8.82218 13.3787 8.82617 13.3302C8.83324 13.2442 8.83301 13.1281 8.83301 12.9337V7.83308H7.06543C6.8875 7.83308 6.72389 7.83344 6.58789 7.82234C6.44594 7.81073 6.29013 7.78429 6.13672 7.70613C5.91688 7.59405 5.73854 7.41536 5.62695 7.19636C5.54874 7.04285 5.52236 6.88728 5.51074 6.74519C5.49962 6.60898 5.5 6.44507 5.5 6.26667V4.50007H3.06641C2.87147 4.50007 2.75497 4.50085 2.66895 4.50789C2.62135 4.5118 2.59886 4.51639 2.59082 4.51863C2.55965 4.53457 2.5345 4.55973 2.51856 4.59089C2.5163 4.599 2.51173 4.62206 2.50781 4.66999C2.50081 4.75604 2.5 4.87204 2.5 5.06648V12.9337ZM11.1738 4.66414C11.1804 4.74404 11.1901 4.75315 11.1846 4.74226C11.2008 4.77406 11.2269 4.79975 11.2578 4.8155C11.2469 4.80993 11.256 4.81971 11.3359 4.82624C11.4218 4.83325 11.538 4.83308 11.7324 4.83308H13.4561C13.455 4.83194 13.4543 4.83041 13.4531 4.82917C13.4287 4.80242 13.3947 4.76879 13.334 4.70808L11.292 2.66609C11.2315 2.60556 11.1978 2.57146 11.1709 2.54695C11.1695 2.54567 11.1683 2.54419 11.167 2.54304V4.26667C11.167 4.46161 11.1668 4.57809 11.1738 4.66414ZM7.16699 3.7989C7.22581 3.85134 7.28058 3.90662 7.33301 3.95906L9.375 6.00105C9.47347 6.09951 9.5819 6.20378 9.66113 6.33308C9.72419 6.43598 9.7728 6.54952 9.80176 6.66999C9.83701 6.81682 9.83301 6.96742 9.83301 7.10359V11.5001H12.9346C13.129 11.5001 13.2451 11.4993 13.3311 11.4923C13.378 11.4884 13.4007 11.4838 13.4092 11.4815C13.4391 11.4663 13.4648 11.4419 13.4814 11.4093C13.4762 11.4196 13.4856 11.4098 13.4922 11.3302C13.4993 11.2442 13.5 11.1282 13.5 10.9337V5.83308H11.7324C11.5544 5.83308 11.39 5.83347 11.2539 5.82234C11.1121 5.81072 10.957 5.78423 10.8037 5.70613C10.5838 5.59407 10.4056 5.41539 10.2939 5.19636C10.2157 5.04285 10.1893 4.88728 10.1777 4.74519C10.1666 4.60897 10.167 4.44508 10.167 4.26667V2.50007H7.7334C7.53846 2.50007 7.42197 2.50085 7.33594 2.50789C7.28871 2.51175 7.26613 2.51634 7.25781 2.51863C7.22645 2.53461 7.20055 2.55953 7.18457 2.59089C7.19016 2.57993 7.18039 2.58967 7.17383 2.66999C7.16683 2.75603 7.16699 2.87208 7.16699 3.06648V3.7989Z" fill="currentColor"/></svg>