<svg xmlns="http://www.w3.org/2000/svg" width="16" height="16" fill="currentColor"><path fill="currentColor" d="M1.5 12.5v-9A2.5 2.5 0 0 1 4 1h3.799c.528 0 1.033.169 1.454.464q.147.054.273.175l2.159 2.104.01.009a48 48 0 0 1 2.117 2.027c.45.46.688 1.079.688 1.711v5.01A2.5 2.5 0 0 1 12 15H4a2.5 2.5 0 0 1-2.5-2.5m4.228-3.48a.5.5 0 0 1 .704-.065l1.387 1.15a.5.5 0 0 1 0 .77l-1.387 1.15a.5.5 0 0 1-.639-.77l.32-.265H3.8a.5.5 0 0 1 0-1h2.313l-.32-.265a.5.5 0 0 1-.065-.704m3.44-2.82h3.605l-1.754-1.71a53 53 0 0 1-1.851-1.755zM2.5 12.5A1.5 1.5 0 0 0 4 14h8a1.5 1.5 0 0 0 1.5-1.5V7.49q-.001-.162-.035-.317a.8.8 0 0 1-.201.027H8.969a.8.8 0 0 1-.801-.8V2.212a1 1 0 0 1 .016-.16A1.5 1.5 0 0 0 7.799 2H4a1.5 1.5 0 0 0-1.5 1.5z"/></svg>