<svg width="12" height="12" viewBox="0 0 12 12" fill="none" xmlns="http://www.w3.org/2000/svg"><path d="M9.4 3H2.6C2.54477 3 2.5 3.04477 2.5 3.1V3.91716C2.5 3.9702 2.52107 4.02107 2.55858 4.05858L5.47071 6.97071C5.48946 6.98946 5.5 7.0149 5.5 7.04142V9.75858C5.5 9.84767 5.60771 9.89229 5.67071 9.82929L6.47071 9.02929C6.48946 9.01054 6.5 8.9851 6.5 8.95858V7.04142C6.5 7.0149 6.51054 6.98946 6.52929 6.97071L9.44142 4.05858C9.47893 4.02107 9.5 3.9702 9.5 3.91716V3.1C9.5 3.04477 9.45523 3 9.4 3Z" fill="currentColor"/></svg>