<svg width="12" height="12" viewBox="0 0 12 12" fill="none" xmlns="http://www.w3.org/2000/svg"><path d="M10.5 2.90724C10.5 2.56055 10.4987 2.35399 10.4775 2.20606C10.4679 2.13857 10.4563 2.10401 10.4492 2.0879C10.4441 2.07621 10.4414 2.07309 10.4385 2.07032C10.4367 2.06835 10.4106 2.04043 10.2608 2.02149C10.0951 2.0006 9.86685 2.00001 9.50001 2.00001H2.50001C2.13317 2.00001 1.90491 2.0006 1.73927 2.02149C1.58944 2.04043 1.56332 2.06836 1.56153 2.07032C1.55858 2.07309 1.55595 2.07621 1.55079 2.0879C1.54373 2.10401 1.53215 2.13857 1.52247 2.20606C1.50127 2.35399 1.50001 2.56055 1.50001 2.90724V3.25196C1.50001 3.52162 1.50073 3.68656 1.51368 3.81153C1.52534 3.92396 1.54354 3.96392 1.55763 3.98731C1.57275 4.01237 1.60346 4.05173 1.70606 4.12306C1.81691 4.20005 1.97064 4.28777 2.21583 4.42579L3.67286 5.24513C3.96878 5.41171 4.18468 5.53028 4.34669 5.67091C4.66179 5.94447 4.86576 6.2798 4.95606 6.68458C5.0028 6.89417 5.00001 7.12869 5.00001 7.43653V8.77149L5.00196 9.06153C5.00361 9.13786 5.00691 9.19697 5.0127 9.24708C5.01793 9.29217 5.02347 9.31642 5.02735 9.32813C5.03024 9.33682 5.03227 9.3395 5.03321 9.34083C5.03422 9.34224 5.03805 9.34722 5.04981 9.35645C5.06345 9.36712 5.08863 9.38391 5.1338 9.40724C5.23285 9.45833 5.37227 9.51333 5.60548 9.6045C6.08919 9.79359 6.40248 9.91503 6.63673 9.97071C6.7485 9.99726 6.81566 10.0014 6.8545 9.99903C6.88618 9.99711 6.89616 9.99155 6.90138 9.98829C6.90568 9.98562 6.90907 9.9838 6.917 9.96876C6.9291 9.94582 6.94784 9.89546 6.96388 9.79395C6.99803 9.57733 7.00001 9.26623 7.00001 8.77149V7.43653C7.00001 7.12869 6.99722 6.89417 7.04395 6.68458C7.13425 6.2798 7.33823 5.94447 7.65333 5.67091C7.81534 5.53028 8.03124 5.41171 8.32716 5.24513L9.78419 4.42579C10.0294 4.28777 10.1831 4.20005 10.294 4.12306C10.3966 4.05173 10.4273 4.01237 10.4424 3.98731C10.4565 3.96392 10.4747 3.92395 10.4863 3.81153C10.4993 3.68656 10.5 3.52162 10.5 3.25196V2.90724ZM11.5 3.25196C11.5 3.50105 11.5009 3.72589 11.4815 3.91407C11.4607 4.1145 11.4136 4.31221 11.2979 4.50391C11.1833 4.69374 11.0307 4.82867 10.8643 4.94434C10.7056 5.05456 10.5033 5.16805 10.2744 5.29688L8.81739 6.1172C8.47726 6.30867 8.3744 6.36964 8.3086 6.42677C8.14958 6.56496 8.06159 6.71376 8.01954 6.90235C8.00271 6.97783 8.00001 7.07726 8.00001 7.43653V8.77149C8.00001 9.23119 8.00148 9.63637 7.95216 9.94923C7.90035 10.2778 7.7757 10.6205 7.43165 10.8359C7.09646 11.0456 6.7325 11.0208 6.40626 10.9434C6.08749 10.8677 5.69633 10.7141 5.24122 10.5361C5.02744 10.4526 4.8309 10.3765 4.67481 10.2959C4.50938 10.2105 4.34553 10.0983 4.21876 9.91993C4.09035 9.73919 4.041 9.54749 4.01954 9.36231C3.99973 9.1912 4.00001 8.98712 4.00001 8.77149V7.43653C4.00001 7.07726 3.9973 6.97783 3.98048 6.90235C3.93843 6.71376 3.85044 6.56496 3.69142 6.42677C3.62561 6.36964 3.52276 6.30867 3.18263 6.1172L1.7256 5.29688C1.49673 5.16805 1.29442 5.05456 1.13575 4.94434C0.969272 4.82867 0.816737 4.69374 0.702158 4.50391C0.586466 4.31221 0.539328 4.1145 0.518564 3.91407C0.499103 3.72589 0.500009 3.50105 0.500009 3.25196V2.90724C0.500009 2.59069 0.498551 2.2997 0.532236 2.06446C0.568508 1.81134 0.654271 1.55166 0.877939 1.34181C1.09704 1.13625 1.36022 1.06137 1.61427 1.02931C1.85709 0.998675 2.15974 1.00001 2.50001 1.00001H9.50001C9.84028 1.00001 10.1429 0.998675 10.3858 1.02931C10.6398 1.06137 10.903 1.13625 11.1221 1.34181C11.3457 1.55166 11.4315 1.81134 11.4678 2.06446C11.5015 2.2997 11.5 2.59069 11.5 2.90724V3.25196Z" fill="currentColor"/></svg>