<svg xmlns="http://www.w3.org/2000/svg" width="20" height="20" fill="currentColor"><path fill="currentColor" fill-rule="evenodd" d="M15 18H5l5-6zm-7.864-1h5.728L10 13.563z" clip-rule="evenodd"/><path fill="currentColor" d="M3.75 9.5a.5.5 0 0 1 0 1H2.5a.5.5 0 0 1 0-1zm5 0a.5.5 0 0 1 0 1h-2.5a.5.5 0 0 1 0-1zm5 0a.5.5 0 0 1 0 1h-2.5a.5.5 0 0 1 0-1zm3.75 0a.5.5 0 0 1 0 1h-1.25a.5.5 0 0 1 0-1z"/><path fill="currentColor" fill-rule="evenodd" d="M10 8 5 2h10zm0-1.563L12.864 3H7.136z" clip-rule="evenodd"/></svg>