<svg xmlns="http://www.w3.org/2000/svg" width="12" height="12" fill="currentColor"><path fill="currentColor" d="M6 8.926a.45.45 0 0 1 .45.45v1.125a.45.45 0 0 1-.9 0V9.376a.45.45 0 0 1 .45-.45"/><path fill="currentColor" fill-rule="evenodd" d="m5 6.001-4 3v-6zm-3.1 1.2L3.5 6 1.9 4.8zm9.1 1.8-4-3 4-3zm-2.5-3 1.6 1.2v-2.4z" clip-rule="evenodd"/><path fill="currentColor" d="M6 4.426a.45.45 0 0 1 .45.45v2.25a.45.45 0 0 1-.9 0v-2.25a.45.45 0 0 1 .45-.45M6 1.05a.45.45 0 0 1 .45.451v1.125a.45.45 0 0 1-.9 0V1.501a.45.45 0 0 1 .45-.45"/></svg>