<svg xmlns="http://www.w3.org/2000/svg" width="20" height="20" fill="currentColor"><path fill="currentColor" d="M10 15.7a.55.55 0 0 1 .55.549v1.25a.55.55 0 1 1-1.1 0v-1.25a.55.55 0 0 1 .55-.55"/><path fill="currentColor" fill-rule="evenodd" d="m8 9.999-6 5v-10zM3.1 12.65 6.282 10 3.1 7.347zM18 14.999l-6-5 6-5zm-4.282-5 3.182 2.652V7.348z" clip-rule="evenodd"/><path fill="currentColor" d="M10 10.7a.55.55 0 0 1 .55.549v2.5a.55.55 0 1 1-1.1 0v-2.5a.55.55 0 0 1 .55-.55M10 5.7a.55.55 0 0 1 .55.549v2.5a.55.55 0 1 1-1.1 0v-2.5a.55.55 0 0 1 .55-.55m0-3.749a.55.55 0 0 1 .55.549v1.25a.55.55 0 1 1-1.1 0v-1.25a.55.55 0 0 1 .55-.55"/></svg>