<svg xmlns="http://www.w3.org/2000/svg" width="20" height="20" fill="currentColor"><path fill="currentColor" d="M6.494 2.3c.586 0 1.127.192 1.566.513h6.512a2.354 2.354 0 0 1 2.35 2.269A2.66 2.66 0 0 1 18.5 7.508v7.437a2.657 2.657 0 0 1-2.656 2.657H4.156a2.65 2.65 0 0 1-2.05-.967 2.65 2.65 0 0 1-.606-1.69V4.957a2.656 2.656 0 0 1 2.656-2.656zM4.156 3.4c-.86 0-1.556.698-1.556 1.557v9.988a1.56 1.56 0 0 0 .355.99q.093.112.212.21l.104.08c.252.175.556.277.885.277h11.688c.805 0 1.468-.613 1.548-1.397l.008-.16V7.508c0-.86-.697-1.557-1.556-1.557H9.963c-1.097 0-1.765-.854-2.008-1.524a1.56 1.56 0 0 0-1.337-1.022L6.494 3.4zm11.156 4.195a.55.55 0 0 1 0 1.1h-4.57a.55.55 0 1 1 0-1.1zM8.989 4.053c.156.429.517.799.974.799h5.823a1.256 1.256 0 0 0-1.214-.939h-5.64q.03.068.057.14"/></svg>