<svg xmlns="http://www.w3.org/2000/svg" width="16" height="16" fill="currentColor"><path fill="currentColor" d="M5.146 1.7c.567 0 1.08.219 1.464.576h5.158c1.051 0 1.921.768 2.084 1.774A2.15 2.15 0 0 1 15 5.953v6.193a2.155 2.155 0 0 1-2.154 2.154H3.154A2.15 2.15 0 0 1 1 12.145v-8.29C1 2.665 1.965 1.7 3.154 1.7zm-1.992 1C2.517 2.7 2 3.215 2 3.853v8.292q0 .066.006.119a1.14 1.14 0 0 0 .258.614c.213.258.533.42.89.42h9.692c.637 0 1.154-.516 1.154-1.153V5.953c0-.515-.338-.952-.806-1.1l-.007-.002a1.2 1.2 0 0 0-.341-.051H7.98c-.968 0-1.545-.76-1.749-1.334a1.2 1.2 0 0 0-.17-.31.5.5 0 0 1-.104-.119 1.15 1.15 0 0 0-.627-.323l-.184-.015zm8.721 3.345a.5.5 0 0 1 0 1h-3.23a.5.5 0 0 1 0-1zM7.238 3.276c.128.25.34.456.604.51l.138.014h4.732a1.11 1.11 0 0 0-.944-.524z"/></svg>