<svg width="16" height="16" viewBox="0 0 16 16" fill="none" xmlns="http://www.w3.org/2000/svg"><g clip-path="url(#a)"><path d="M0.833511 9.334V4.6338C0.83351 4.0682 0.831112 3.71567 0.888198 3.4131C1.12999 2.13245 2.13196 1.13048 3.41261 0.888686C3.71518 0.8316 4.06772 0.833999 4.63332 0.833999C4.88154 0.833999 5.03761 0.833457 5.18996 0.847671C5.79052 0.903831 6.36111 1.13192 6.83644 1.50099H11.0005C11.294 1.50099 11.4891 1.50003 11.6597 1.52248C12.7815 1.67017 13.6643 2.55299 13.812 3.67482C13.8176 3.71719 13.8217 3.76108 13.8247 3.80763C14.0095 3.89189 14.181 4.00011 14.3384 4.14162C14.404 4.2006 14.4669 4.26354 14.5259 4.32912C14.8779 4.7206 15.0286 5.19707 15.0991 5.75783C15.1681 6.30628 15.1665 7.00188 15.1665 7.86623V9.334C15.1665 10.5769 15.1681 11.5599 15.065 12.3272C14.9598 13.1086 14.7386 13.7414 14.2398 14.2402C13.7409 14.7391 13.1081 14.9603 12.3267 15.0654C11.5594 15.1686 10.5765 15.167 9.33351 15.167H6.66652C5.42383 15.167 4.44147 15.1686 3.67433 15.0654C2.89289 14.9604 2.2601 14.7389 1.76124 14.2402C1.26245 13.7415 1.04116 13.1085 0.93605 12.3272C0.832898 11.5599 0.833511 10.5769 0.833511 9.334ZM12.0005 6.16701C12.2764 6.16718 12.5003 6.39112 12.5005 6.66701C12.5005 6.94304 12.2765 7.16683 12.0005 7.16701H8.66652C8.39053 7.16683 8.16652 6.94304 8.16652 6.66701C8.16669 6.39112 8.39063 6.16718 8.66652 6.16701H12.0005ZM7.87648 2.50099C8.30423 2.92616 8.49793 3.10496 8.71828 3.22755C8.8635 3.30832 9.01746 3.37242 9.17726 3.41798C9.45278 3.49652 9.75506 3.50099 10.5523 3.50099H10.8013C11.5916 3.50099 12.2405 3.50212 12.7652 3.5547C12.5938 3.00381 12.1159 2.59098 11.5288 2.51369C11.4396 2.50199 11.3252 2.50099 11.0005 2.50099H7.87648ZM1.83351 9.334C1.83351 10.6051 1.83419 11.5083 1.92628 12.1934C2.01644 12.864 2.18623 13.2501 2.46828 13.5322C2.75038 13.8143 3.13657 13.984 3.80714 14.0742C4.49219 14.1663 5.39548 14.167 6.66652 14.167H9.33351C10.6047 14.167 11.5078 14.1663 12.1929 14.0742C12.8636 13.9841 13.2496 13.8144 13.5318 13.5322C13.8139 13.2501 13.9836 12.8641 14.0737 12.1934C14.1658 11.5083 14.1665 10.6052 14.1665 9.334V7.86623C14.1665 6.97574 14.1662 6.3544 14.1069 5.88283C14.0492 5.42381 13.9425 5.17684 13.7818 4.99806C13.7464 4.95872 13.7088 4.92115 13.6694 4.88576C13.4907 4.725 13.2437 4.61827 12.7847 4.56056C12.3131 4.50129 11.6918 4.50099 10.8013 4.50099H10.5523C9.81165 4.50099 9.34487 4.50457 8.90382 4.37892C8.67014 4.31231 8.4443 4.2197 8.23195 4.10158C7.83106 3.87854 7.50389 3.54442 6.97999 3.02052L6.61281 2.65431C6.42438 2.46588 6.3523 2.39398 6.27882 2.33302C5.9433 2.05489 5.5311 1.88434 5.09718 1.84376C5.00197 1.83487 4.90028 1.834 4.63332 1.834C4.02224 1.834 3.78567 1.83573 3.59816 1.87111C2.72188 2.03653 2.03604 2.72236 1.87062 3.59865C1.83524 3.78616 1.83351 4.02273 1.83351 4.6338V9.334Z" fill="currentColor"/></g><defs><clipPath id="a"><path fill="currentColor" d="M0 0H16V16H0z"/></clipPath></defs></svg>