<svg xmlns="http://www.w3.org/2000/svg" width="12" height="12" fill="currentColor"><path fill="currentColor" d="M3.8 1.05c.365 0 .702.12.975.321H8.64c.824 0 1.504.6 1.634 1.388A1.65 1.65 0 0 1 11.5 4.35V9.3c0 .911-.74 1.65-1.65 1.65h-7.7a1.65 1.65 0 0 1-1.05-.377C.734 10.271.5 9.813.5 9.3V2.7c0-.911.74-1.65 1.65-1.65zm-1.65.901a.75.75 0 0 0-.75.75v6.6a.747.747 0 0 0 .75.75h7.7a.75.75 0 0 0 .746-.673L10.6 9.3V4.35a.75.75 0 0 0-.75-.75H6c-.844 0-1.326-.67-1.49-1.145a.75.75 0 0 0-.71-.505zm7.15 2.5a.45.45 0 0 1 0 .9H6.55a.45.45 0 0 1 0-.9zM5.407 2.27c.117.239.33.43.594.43h3.321a.76.76 0 0 0-.681-.43z"/></svg>