<svg width="16" height="16" viewBox="0 0 16 16" fill="none" xmlns="http://www.w3.org/2000/svg"><path d="M2 4.96985C2 4.44033 2 4.17557 2.04161 3.95503C2.22478 2.98419 2.98419 2.22478 3.95503 2.04161C4.17557 2 4.44033 2 4.96985 2C5.20186 2 5.31786 2 5.42934 2.01043C5.90999 2.05537 6.36591 2.24422 6.73757 2.55231C6.82377 2.62377 6.9058 2.7058 7.06985 2.86985L7.4 3.2C7.88947 3.68947 8.1342 3.9342 8.42727 4.09726C8.58826 4.18683 8.75904 4.25756 8.93621 4.30807C9.25874 4.4 9.60485 4.4 10.2971 4.4H10.5213C12.1007 4.4 12.8904 4.4 13.4037 4.86168C13.4509 4.90415 13.4959 4.94908 13.5383 4.9963C14 5.50961 14 6.29932 14 7.87874V9.2C14 11.4627 14 12.5941 13.2971 13.2971C12.5941 14 11.4627 14 9.2 14H6.8C4.53726 14 3.40589 14 2.70294 13.2971C2 12.5941 2 11.4627 2 9.2V4.96985Z" fill="currentColor"/></svg>