<svg xmlns="http://www.w3.org/2000/svg" width="12" height="12" fill="currentColor"><path fill="currentColor" d="M4.182 7.182a.45.45 0 0 1 .636.636l-2.232 2.233h.913a.45.45 0 0 1 0 .9h-2a.45.45 0 0 1-.45-.45v-2a.45.45 0 0 1 .9 0v.913zm3 .001a.45.45 0 0 1 .635 0l1.501 1.5.732.731v-.833a.45.45 0 0 1 .9 0v1.92a.45.45 0 0 1-.45.45h-2a.45.45 0 0 1 0-.9h.913L7.182 7.819a.45.45 0 0 1 0-.636M3.501 1.05a.45.45 0 0 1 0 .901h-.913l2.231 2.232a.45.45 0 0 1-.636.636L1.95 2.588V3.5a.45.45 0 0 1-.9 0v-2a.45.45 0 0 1 .45-.45zm6.999 0a.45.45 0 0 1 .45.451v2a.45.45 0 0 1-.9 0v-.913L7.818 4.819a.45.45 0 0 1-.636-.636L9.413 1.95H8.5a.45.45 0 0 1 0-.9z"/></svg>