<svg xmlns="http://www.w3.org/2000/svg" width="20" height="20" fill="currentColor"><path fill="currentColor" d="M7.146 12.147a.5.5 0 0 1 .708.707l-3.73 3.729H6.25a.5.5 0 0 1 0 1H2.917a.5.5 0 0 1-.5-.5V13.75a.5.5 0 0 1 1 0v2.126zm5-.001a.5.5 0 0 1 .706 0l3.731 3.729v-1.992a.5.5 0 0 1 1 0v3.199a.5.5 0 0 1-.5.5h-3.334a.5.5 0 0 1 0-1h2.127l-3.73-3.73a.5.5 0 0 1 0-.707m4.937-9.728a.5.5 0 0 1 .5.5V6.25a.5.5 0 0 1-1 0V4.124l-3.73 3.73a.5.5 0 0 1-.707-.708l3.73-3.729H13.75a.5.5 0 0 1 0-1zM6.251 2.416a.5.5 0 0 1 0 1H4.124l3.73 3.73a.5.5 0 0 1-.707.707l-3.73-3.73V6.25a.5.5 0 1 1-1 0V2.916a.5.5 0 0 1 .5-.5z"/></svg>