<svg xmlns="http://www.w3.org/2000/svg" width="16" height="16" fill="currentColor"><path fill="currentColor" d="M9.646 9.647a.5.5 0 0 1 .706 0l2.814 2.814v-1.353a.5.5 0 0 1 1 0v2.56a.5.5 0 0 1-.5.5h-2.667a.5.5 0 0 1 0-1h1.46l-2.813-2.813a.5.5 0 0 1 0-.708m-4-.001a.5.5 0 0 1 .708.707L3.54 13.168H5a.5.5 0 0 1 0 1H2.333a.5.5 0 0 1-.5-.5V11a.5.5 0 0 1 1 0v1.46zm8.021-7.811a.5.5 0 0 1 .5.5v2.667a.5.5 0 0 1-1 0v-1.46l-2.813 2.813a.5.5 0 0 1-.708-.707l2.814-2.813H11a.5.5 0 0 1 0-1zm-8.666-.001a.5.5 0 0 1 0 1h-1.46l2.813 2.813a.5.5 0 0 1-.707.707L2.834 3.541v1.46a.5.5 0 0 1-1 0V2.334a.5.5 0 0 1 .5-.5z"/></svg>