<svg xmlns="http://www.w3.org/2000/svg" width="12" height="12" fill="currentColor"><path fill="currentColor" d="M7.182 7.183a.45.45 0 0 1 .636 0L9.8 9.164v-.833a.45.45 0 0 1 .9 0v1.92a.45.45 0 0 1-.45.45h-2a.45.45 0 0 1 0-.9h.913L7.182 7.819a.45.45 0 0 1 0-.636m-3-.003a.45.45 0 0 1 .636.637L2.837 9.8h.913a.45.45 0 0 1 0 .9h-2a.45.45 0 0 1-.45-.45v-2a.45.45 0 0 1 .9 0v.913zM3.75 1.299a.45.45 0 0 1 0 .9h-.913l1.981 1.982a.45.45 0 0 1-.636.636L2.2 2.836v.913a.45.45 0 0 1-.9 0v-2a.45.45 0 0 1 .45-.45zm6.5 0a.45.45 0 0 1 .45.45v2a.45.45 0 0 1-.9 0v-.913L7.818 4.817a.45.45 0 0 1-.636-.636l1.981-1.982H8.25a.45.45 0 0 1 0-.9z"/></svg>