<svg xmlns="http://www.w3.org/2000/svg" width="16" height="16" fill="currentColor"><path fill="currentColor" d="M5.646 9.646a.5.5 0 1 1 .708.706L3.707 13H5.5a.5.5 0 0 1 0 1h-3a.5.5 0 0 1-.5-.5v-3a.5.5 0 0 1 1 0v1.793zm4 0a.5.5 0 0 1 .707 0L13 12.293V10.5a.5.5 0 0 1 1 0v3a.5.5 0 0 1-.5.5h-3a.5.5 0 0 1 0-1h1.793l-2.647-2.646a.5.5 0 0 1 0-.708m4.021-7.812a.5.5 0 0 1 .5.5v2.667a.5.5 0 0 1-1 0v-1.46l-2.813 2.813a.5.5 0 0 1-.708-.707l2.814-2.813H11a.5.5 0 0 1 0-1zM5.5 2a.5.5 0 0 1 0 1H3.707l2.647 2.646a.5.5 0 0 1-.708.708L3 3.707V5.5a.5.5 0 0 1-1 0v-3a.5.5 0 0 1 .5-.5z"/></svg>