<svg xmlns="http://www.w3.org/2000/svg" width="20" height="20" fill="currentColor"><path fill="currentColor" d="M12.11 12.11a.55.55 0 0 1 .778 0l3.645 3.645v-1.872a.55.55 0 0 1 1.1 0v3.199a.553.553 0 0 1-.55.55h-3.334a.55.55 0 0 1 0-1.1h2.006l-3.645-3.644a.55.55 0 0 1 0-.778m-4.999-.002a.55.55 0 0 1 .778.779L4.244 16.53H6.25a.55.55 0 0 1 0 1.1H2.917a.55.55 0 0 1-.55-.55v-3.333a.55.55 0 0 1 1.1 0v2.005zm9.972-9.742a.55.55 0 0 1 .55.55v3.333a.55.55 0 0 1-1.1 0V4.244L12.89 7.89a.55.55 0 0 1-.778-.779l3.645-3.644H13.75a.55.55 0 1 1 0-1.1zM6.251 2.365a.551.551 0 0 1 0 1.1H4.245L7.89 7.11a.55.55 0 0 1-.779.778L3.467 4.243V6.25a.55.55 0 0 1-1.1 0V2.916a.55.55 0 0 1 .55-.55z"/></svg>