<svg xmlns="http://www.w3.org/2000/svg" width="16" height="16" fill="currentColor"><path fill="currentColor" d="M3.5 13a.5.5 0 0 1 0 1h-1a.5.5 0 0 1 0-1zm5 0a.5.5 0 0 1 0 1h-3a.5.5 0 0 1 0-1z"/><path fill="currentColor" fill-rule="evenodd" d="M13.5 2a.5.5 0 0 1 .5.5v11l-.01.1a.5.5 0 0 1-.49.4h-3a.5.5 0 0 1-.49-.4l-.01-.1v-11a.5.5 0 0 1 .5-.5zM11 13h2V3h-2z" clip-rule="evenodd"/><path fill="currentColor" d="M4.225 4.082a.5.5 0 0 1 .629.064l1.5 1.5a.5.5 0 1 1-.708.708L5 5.707v4.586l.646-.647a.5.5 0 1 1 .708.707l-1.5 1.5a.5.5 0 0 1-.708 0l-1.5-1.5a.5.5 0 1 1 .708-.707l.646.647V5.707l-.646.647a.5.5 0 1 1-.708-.708l1.5-1.5zM3.5 2a.5.5 0 0 1 0 1h-1a.5.5 0 0 1 0-1zm5 0a.5.5 0 0 1 0 1h-3a.5.5 0 0 1 0-1z"/></svg>