<svg xmlns="http://www.w3.org/2000/svg" width="12" height="12" fill="currentColor"><path fill="currentColor" fill-rule="evenodd" d="M10.5 1a.5.5 0 0 1 .5.5v9l-.01.1a.5.5 0 0 1-.49.4h-3a.5.5 0 0 1-.49-.4L7 10.5v-9a.5.5 0 0 1 .5-.5zm-2.6 9.1h2.2V1.9H7.9z" clip-rule="evenodd"/><path fill="currentColor" d="M2.5 10.05a.45.45 0 0 1 0 .9h-1a.45.45 0 0 1 0-.9zm3 0a.45.45 0 0 1 0 .9h-1a.45.45 0 0 1 0-.9zM3.252 3.124a.45.45 0 0 1 .566.058l1.125 1.125a.45.45 0 0 1-.636.636l-.357-.356v2.826l.357-.356a.45.45 0 0 1 .636.636L3.818 8.818a.45.45 0 0 1-.636 0L2.057 7.693a.45.45 0 0 1 .636-.636l.357.356V4.587l-.357.356a.45.45 0 0 1-.636-.636l1.125-1.125zM2.5 1.05a.45.45 0 0 1 0 .9h-1a.45.45 0 0 1 0-.9zm3 0a.45.45 0 0 1 0 .9h-1a.45.45 0 0 1 0-.9z"/></svg>