<svg xmlns="http://www.w3.org/2000/svg" width="20" height="20" fill="currentColor"><path fill="currentColor" d="M4.5 16.95a.55.55 0 1 1 0 1.099h-2a.55.55 0 1 1 0-1.1zm6 0a.55.55 0 1 1 0 1.099h-4a.55.55 0 1 1 0-1.1z"/><path fill="currentColor" fill-rule="evenodd" d="M17.5 1.999a.5.5 0 0 1 .5.5v15a.5.5 0 0 1-.4.49l-.1.01h-5l-.1-.01a.5.5 0 0 1-.39-.39l-.01-.1v-15a.5.5 0 0 1 .5-.5zm-4.4 14.9h3.8V3.1h-3.8z" clip-rule="evenodd"/><path fill="currentColor" d="M5.197 5.04a.55.55 0 0 1 .692.07l1.875 1.875a.55.55 0 1 1-.778.778l-.936-.937v6.346l.936-.937a.55.55 0 1 1 .778.778l-1.875 1.875a.55.55 0 0 1-.778 0l-1.875-1.875a.55.55 0 1 1 .778-.778l.936.937V6.826l-.936.937a.55.55 0 1 1-.778-.778L5.111 5.11zM4.5 1.95a.55.55 0 1 1 0 1.099h-2a.55.55 0 1 1 0-1.1zm6 0a.55.55 0 1 1 0 1.099h-4a.55.55 0 1 1 0-1.1z"/></svg>