<svg width="16" height="16" viewBox="0 0 16 16" fill="none" xmlns="http://www.w3.org/2000/svg"><path d="M3.38603 3.37921C5.91627 0.8527 10.0298 0.879457 12.5755 3.4251C15.1223 5.9719 15.1474 10.0875 12.6175 12.6175C10.0875 15.1474 5.97189 15.1223 3.4251 12.5755C1.91586 11.0663 1.29322 9.00647 1.56084 7.05401C1.59856 6.78067 1.85088 6.58977 2.12431 6.62725C2.39766 6.66497 2.58855 6.91729 2.55107 7.19073C2.3246 8.84411 2.85188 10.5882 4.13213 11.8685C6.29511 14.0315 9.77771 14.0432 11.9104 11.9105C14.0432 9.77772 14.0314 6.29512 11.8685 4.13214C9.70662 1.9703 6.2261 1.95693 4.09306 4.08624L4.59209 4.08917C4.86804 4.09077 5.09055 4.31609 5.08916 4.5921C5.08755 4.86805 4.86223 5.09055 4.58623 5.08917L2.88994 5.08038C2.61581 5.079 2.39335 4.85742 2.39189 4.58331L2.38408 2.88604C2.38274 2.60994 2.60504 2.38548 2.88115 2.38409C3.15726 2.38273 3.38269 2.60504 3.38408 2.88116L3.38603 3.37921ZM7.50029 5.33624C7.50029 5.06009 7.72415 4.83624 8.00029 4.83624C8.27641 4.83627 8.50029 5.06011 8.50029 5.33624V7.79522L10.0208 9.31573C10.2159 9.51089 10.2157 9.82749 10.0208 10.0228C9.82556 10.218 9.50903 10.218 9.31377 10.0228L7.50029 8.21026V5.33624Z" fill="currentColor"/></svg>