<svg xmlns="http://www.w3.org/2000/svg" width="16" height="16" fill="currentColor"><g clip-path="url(#a)"><rect width="16" height="16" fill="currentColor" rx="2"/><path fill="currentColor" d="M3.027 4.027c2.724-2.724 7.156-2.697 9.9.046 2.742 2.743 2.77 7.176.045 9.9s-7.156 2.697-9.9-.046A7.04 7.04 0 0 1 1.066 7.98a.5.5 0 1 1 .99.136A6.05 6.05 0 0 0 3.78 13.22c2.359 2.359 6.158 2.373 8.485.046s2.313-6.126-.046-8.486C9.86 2.421 6.061 2.407 3.734 4.734l-.067.067.64.004a.5.5 0 1 1-.006 1l-1.838-.01a.5.5 0 0 1-.498-.497l-.008-1.839a.5.5 0 0 1 1-.005l.002.64zM7.5 6.336a.5.5 0 0 1 1 0v2.459l1.52 1.52a.5.5 0 0 1-.707.708L7.5 9.21z"/></g><defs><clipPath id="a"><rect width="16" height="16" fill="currentColor" rx="2"/></clipPath></defs></svg>