<svg xmlns="http://www.w3.org/2000/svg" width="12" height="12" fill="currentColor"><g clip-path="url(#a)"><rect width="12" height="12" fill="currentColor" rx="2"/><path fill="currentColor" d="M2.188 2.072C4.314.009 7.72.049 9.836 2.165c2.135 2.135 2.157 5.585.035 7.707s-5.572 2.1-7.707-.035a5.49 5.49 0 0 1-1.563-4.63.45.45 0 0 1 .891.123A4.59 4.59 0 0 0 2.801 9.2c1.79 1.79 4.67 1.8 6.434.036S10.99 4.59 9.2 2.8c-1.77-1.768-4.605-1.798-6.374-.094l.333.002a.45.45 0 0 1-.004.9l-1.414-.007a.45.45 0 0 1-.448-.448l-.007-1.414a.45.45 0 0 1 .9-.005zm3.362 1.93a.45.45 0 0 1 .9 0v1.814l1.118 1.118a.45.45 0 0 1-.636.637L5.55 6.189z"/></g><defs><clipPath id="a"><rect width="12" height="12" fill="currentColor" rx="2"/></clipPath></defs></svg>