<svg xmlns="http://www.w3.org/2000/svg" width="20" height="20" fill="currentColor"><rect width="20" height="20" fill="currentColor" rx="2"/><path fill="currentColor" d="M3.926 3.925c3.327-3.327 8.74-3.294 12.092.057 3.35 3.35 3.383 8.765.056 12.092s-8.74 3.294-12.092-.057A8.6 8.6 0 0 1 1.53 8.754a.55.55 0 0 1 1.09.15 7.5 7.5 0 0 0 2.142 6.335c2.928 2.928 7.645 2.946 10.535.056s2.872-7.606-.057-10.535-7.645-2.946-10.535-.056l-.193.192.944.005A.55.55 0 0 1 5.45 6l-2.263-.01a.55.55 0 0 1-.548-.547L2.628 3.18a.55.55 0 0 1 1.1-.006l.004.944zM9.45 6.891a.55.55 0 0 1 1.1 0v2.884l1.783 1.783a.55.55 0 1 1-.777.777L9.45 10.23z"/></svg>