<svg xmlns="http://www.w3.org/2000/svg" width="12" height="12" fill="currentColor"><g fill="currentColor" fill-rule="evenodd" clip-path="url(#a)" clip-rule="evenodd"><path d="M7.999 2.55a1.45 1.45 0 1 1 0 2.9 1.45 1.45 0 0 1 0-2.9m0 .9a.55.55 0 1 0 0 1.1.55.55 0 0 0 0-1.1"/><path d="M9.256.513A2.5 2.5 0 0 1 11.5 3v6l-.013.256a2.5 2.5 0 0 1-2.231 2.231L9 11.5H3A2.5 2.5 0 0 1 .513 9.256L.5 9V3A2.5 2.5 0 0 1 3 .5h6zM3.129 5.854a.7.7 0 0 0-.956-.032l-.673.59a.5.5 0 0 1-.1.063V9A1.6 1.6 0 0 0 3 10.6h6a1.6 1.6 0 0 0 1.315-.69.5.5 0 0 1-.142-.1L8.577 8.125a1.05 1.05 0 0 0-1.295-.07l-.15.105A1.45 1.45 0 0 1 5.274 8zM3 1.4A1.6 1.6 0 0 0 1.4 3v2.303l.18-.157a1.6 1.6 0 0 1 2.186.072L5.91 7.362a.55.55 0 0 0 .705.062l.15-.105a1.95 1.95 0 0 1 2.295.038l.13.108.013.012.013.013L10.6 8.95V3A1.6 1.6 0 0 0 9 1.4z"/></g><defs><clipPath id="a"><path fill="currentColor" d="M0 0h12v12H0z"/></clipPath></defs></svg>