<svg xmlns="http://www.w3.org/2000/svg" width="16" height="16" fill="currentColor"><path fill="currentColor" fill-rule="evenodd" d="M10.665 3.5a1.834 1.834 0 1 1 0 3.668 1.834 1.834 0 0 1 0-3.668m0 1a.833.833 0 1 0 0 1.667.833.833 0 0 0 0-1.667" clip-rule="evenodd"/><path fill="currentColor" fill-rule="evenodd" d="M12.154 1.004A3 3 0 0 1 15 4v8l-.004.154a3 3 0 0 1-2.842 2.842L12 15H4a3 3 0 0 1-2.996-2.846L1 12V4a3 3 0 0 1 3-3h8zm-7.91 6.732a1.034 1.034 0 0 0-1.412-.047L2 8.416V12a2 2 0 0 0 2 2h8a2 2 0 0 0 1.83-1.197.5.5 0 0 1-.163-.097l-2.15-1.933a1.5 1.5 0 0 0-1.866-.113l-.198.14a1.83 1.83 0 0 1-2.35-.204zM4 2a2 2 0 0 0-2 2v3.088l.173-.151a2.034 2.034 0 0 1 2.777.092l2.86 2.86a.83.83 0 0 0 1.068.092l.2-.14a2.5 2.5 0 0 1 3.109.188L14 11.66V4a2 2 0 0 0-2-2z" clip-rule="evenodd"/></svg>