<svg xmlns="http://www.w3.org/2000/svg" width="20" height="20" fill="currentColor"><path fill="currentColor" fill-rule="evenodd" d="M13.332 4.45a2.217 2.217 0 1 1 0 4.434 2.217 2.217 0 0 1 0-4.434m0 1.1a1.118 1.118 0 1 0 0 2.235 1.118 1.118 0 0 0 0-2.235" clip-rule="evenodd"/><path fill="currentColor" fill-rule="evenodd" d="M15.18 1.505A3.5 3.5 0 0 1 18.5 5v10l-.005.18a3.5 3.5 0 0 1-3.315 3.315L15 18.5H5a3.5 3.5 0 0 1-3.495-3.32L1.5 15v-4.672a.55.55 0 0 1 0-.416V5A3.5 3.5 0 0 1 5 1.5h10zM5.356 9.616a1.367 1.367 0 0 0-1.866-.062l-.89.779V15A2.4 2.4 0 0 0 5 17.4h10a2.4 2.4 0 0 0 2.227-1.507.6.6 0 0 1-.093-.067l-2.687-2.418a1.95 1.95 0 0 0-2.425-.145l-.248.175a2.22 2.22 0 0 1-2.842-.247zM5 2.6A2.4 2.4 0 0 0 2.6 5v3.871l.166-.144a2.466 2.466 0 0 1 3.368.112l3.575 3.574c.384.384.988.436 1.432.124l.249-.175a3.05 3.05 0 0 1 3.794.229l2.216 1.995V5A2.4 2.4 0 0 0 15 2.6z" clip-rule="evenodd"/></svg>