<svg width="16" height="16" viewBox="0 0 16 16" fill="none" xmlns="http://www.w3.org/2000/svg"><path d="M1.5 10.7686V10.2305C1.5 9.48475 1.49862 8.86927 1.57129 8.38379C1.64707 7.8779 1.81252 7.44248 2.19336 7.10059C2.51945 6.80791 2.91382 6.66443 3.36621 6.58984C3.8081 6.51704 4.34864 6.50324 4.99707 6.5L5.00293 7.5C4.34677 7.50328 3.88114 7.51898 3.52832 7.57715C3.18595 7.63362 2.99625 7.72363 2.86133 7.84473C2.71517 7.97596 2.61656 8.15763 2.56055 8.53125C2.50148 8.92561 2.5 9.45317 2.5 10.2305V10.7686C2.5 11.5459 2.50148 12.0734 2.56055 12.4678C2.61655 12.8414 2.71517 13.0231 2.86133 13.1543C3.01531 13.2925 3.24087 13.3908 3.68457 13.4443C4.13771 13.499 4.73857 13.5 5.59961 13.5H10.4004C11.2614 13.5 11.8623 13.499 12.3154 13.4443C12.7591 13.3908 12.9847 13.2925 13.1387 13.1543C13.2848 13.0231 13.3834 12.8414 13.4395 12.4678C13.4985 12.0734 13.5 11.5459 13.5 10.7686V10.2305C13.5 9.45317 13.4985 8.92561 13.4395 8.53125C13.3834 8.15763 13.2848 7.97596 13.1387 7.84473C13.0038 7.72363 12.8141 7.63362 12.4717 7.57715C12.1189 7.51898 11.6532 7.50328 10.9971 7.5L11.0029 6.5C11.6514 6.50324 12.1919 6.51704 12.6338 6.58984C13.0862 6.66443 13.4806 6.80791 13.8066 7.10059C14.1875 7.44248 14.3529 7.8779 14.4287 8.38379C14.5014 8.86928 14.5 9.48475 14.5 10.2305V10.7686C14.5 11.5143 14.5014 12.1298 14.4287 12.6152C14.3529 13.1211 14.1875 13.5565 13.8066 13.8984C13.4334 14.2334 12.971 14.3728 12.4346 14.4375C11.9076 14.501 11.2358 14.5 10.4004 14.5H5.59961C4.76422 14.5 4.09241 14.501 3.56543 14.4375C3.02897 14.3728 2.56656 14.2334 2.19336 13.8984C1.81253 13.5565 1.64707 13.1211 1.57129 12.6152C1.49862 12.1298 1.5 11.5143 1.5 10.7686ZM7.5 3C7.5 2.72386 7.72386 2.5 8 2.5C8.27614 2.5 8.5 2.72386 8.5 3V9.72656L9.63379 8.50586C9.8216 8.30374 10.1375 8.29196 10.3398 8.47949C10.5422 8.66739 10.5541 8.98417 10.3662 9.18652L8.36621 11.3398C8.27161 11.4417 8.13904 11.5 8 11.5C7.86097 11.5 7.7284 11.4417 7.63379 11.3398L5.63379 9.18652C5.44589 8.98417 5.4578 8.66739 5.66016 8.47949C5.86248 8.29196 6.1784 8.30374 6.36621 8.50586L7.5 9.72656V3Z" fill="currentColor"/></svg>