<svg xmlns="http://www.w3.org/2000/svg" width="20" height="20" fill="currentColor"><path fill="currentColor" d="M1.45 15.799v-5.1A2.75 2.75 0 0 1 4.2 7.95h1.3a.55.55 0 1 1 0 1.1H4.2a1.65 1.65 0 0 0-1.65 1.65v5.1c0 .911.739 1.65 1.65 1.65h11.6a1.65 1.65 0 0 0 1.65-1.65v-5.1a1.65 1.65 0 0 0-1.65-1.65h-1.3a.55.55 0 1 1 0-1.1h1.3a2.75 2.75 0 0 1 2.75 2.75v5.1a2.75 2.75 0 0 1-2.75 2.75H4.2a2.75 2.75 0 0 1-2.75-2.75m8-13.8a.55.55 0 1 1 1.1 0v8.469l1.426-1.727a.55.55 0 0 1 .848.7l-2.4 2.909a.55.55 0 0 1-.848 0l-2.4-2.909a.55.55 0 0 1 .848-.7l1.426 1.727z"/></svg>