<svg xmlns="http://www.w3.org/2000/svg" width="12" height="12" fill="currentColor"><g clip-path="url(#a)"><path fill="currentColor" d="M.55 9.701v-3.3c0-.966.783-1.75 1.75-1.75H3a.45.45 0 1 1 0 .9h-.7a.85.85 0 0 0-.85.85v3.3c0 .47.38.85.85.85h7.4c.47 0 .85-.38.85-.85v-3.3a.85.85 0 0 0-.85-.85H9a.45.45 0 0 1 0-.9h.7c.967 0 1.75.784 1.75 1.75v3.3a1.75 1.75 0 0 1-1.75 1.75H2.3a1.75 1.75 0 0 1-1.75-1.75m5-8.7a.45.45 0 0 1 .9 0v4.786l.71-.824a.45.45 0 1 1 .68.587l-1.5 1.744a.45.45 0 0 1-.68 0L4.16 5.55a.45.45 0 0 1 .68-.587l.71.824z"/></g><defs><clipPath id="a"><rect width="12" height="12" fill="currentColor" rx="2"/></clipPath></defs></svg>