<svg xmlns="http://www.w3.org/2000/svg" width="12" height="12" fill="currentColor"><g clip-path="url(#a)"><path fill="currentColor" d="M6 .55a5.45 5.45 0 1 1 0 10.901 5.45 5.45 0 0 1 0-10.9m0 .901a4.55 4.55 0 1 0 0 9.1 4.55 4.55 0 0 0 0-9.1m-.06 3.55q.354 0 .544.193a.68.68 0 0 1 .192.502q0 .065-.014.226a2 2 0 0 1-.049.295l-.243.977a3 3 0 0 0-.077.497q0 .195.076.266.077.07.267.07.089 0 .2-.035.114-.035.164-.062l-.065.302a12 12 0 0 1-.468.2 1.1 1.1 0 0 1-.406.069q-.356 0-.553-.196a.68.68 0 0 1-.196-.5q0-.116.014-.24.015-.122.048-.277l.244-.98q.033-.141.055-.267t.022-.23q0-.188-.068-.262-.069-.074-.262-.074a.6.6 0 0 0-.194.033A3 3 0 0 0 5 5.572l.065-.302a6 6 0 0 1 .46-.19q.22-.078.415-.079m.56-1.5a.5.5 0 1 1 0 1 .5.5 0 0 1 0-1"/></g><defs><clipPath id="a"><path fill="currentColor" d="M0 0h12v12H0z"/></clipPath></defs></svg>