<svg width="12" height="12" viewBox="0 0 12 12" fill="none" xmlns="http://www.w3.org/2000/svg"><path fill-rule="evenodd" clip-rule="evenodd" d="M5.99916 2.24531C3.92597 2.24531 2.24531 3.92597 2.24531 5.99916C2.24531 8.07235 3.92597 9.75301 5.99916 9.75301C8.07235 9.75301 9.75301 8.07235 9.75301 5.99916C9.75301 3.92597 8.07235 2.24531 5.99916 2.24531ZM1.44531 5.99916C1.44531 3.48414 3.48414 1.44531 5.99916 1.44531C8.51418 1.44531 10.553 3.48414 10.553 5.99916C10.553 8.51418 8.51418 10.553 5.99916 10.553C3.48414 10.553 1.44531 8.51418 1.44531 5.99916Z" fill="currentColor"/><path d="M6.9348 8.23129 7 7.92915C6.96625 7.94712 6.91184 7.96765 6.83723 7.99102 6.76242 8.01439 6.69508 8.02629 6.63591 8.02629 6.50986 8.02629 6.42112 8.00287 6.36959 7.95579 6.31845 7.90872 6.29293 7.82016 6.29293 7.69045 6.29293 7.63906 6.30063 7.56244 6.31673 7.46217 6.33233 7.36124 6.35027 7.27154 6.37022 7.19308L6.61362 6.21622C6.63745 6.12657 6.65381 6.02801 6.66259 5.92044 6.67158 5.81311 6.67576 5.73801 6.67576 5.69539 6.67576 5.4894 6.61207 5.32224 6.48464 5.19329 6.35721 5.06443 6.17575 5 5.94059 5 5.80974 5 5.67139 5.02636 5.52498 5.07903 5.37856 5.13156 5.2255 5.19485 5.06537 5.26876L5 5.57113C5.04772 5.55113 5.10455 5.5296 5.17105 5.50732 5.23725 5.48513 5.3022 5.47366 5.36539 5.47366 5.49441 5.47366 5.58131 5.4986 5.62685 5.54771 5.6724 5.59697 5.69527 5.68458 5.69527 5.80984 5.69527 5.8791 5.68804 5.95605 5.67302 6.03967 5.65822 6.12383 5.63973 6.21281 5.61799 6.30673L5.37354 7.28752C5.3518 7.39059 5.33591 7.4828 5.32591 7.56467 5.316 7.64645 5.31123 7.72672 5.31123 7.80475 5.31123 8.00633 5.37693 8.1725 5.50829 8.30363 5.63965 8.43424 5.82383 8.5 6.06062 8.5 6.21481 8.5 6.35015 8.47715 6.46662 8.43121 6.58296 8.38541 6.7392 8.3188 6.9348 8.23129ZM7 4C7 4.27614 6.77614 4.5 6.5 4.5 6.22386 4.5 6 4.27614 6 4 6 3.72386 6.22386 3.5 6.5 3.5 6.77614 3.5 7 3.72386 7 4Z" fill="currentColor"/></svg>