<svg xmlns="http://www.w3.org/2000/svg" width="16" height="16" fill="currentColor"><path fill="currentColor" d="M8 1a7 7 0 1 1 0 14A7 7 0 0 1 8 1m0 1a6 6 0 1 0 0 12A6 6 0 0 0 8 2m-.076 4.65q.458 0 .707.251a.9.9 0 0 1 .249.653q0 .083-.018.293-.016.21-.063.384l-.317 1.27a4 4 0 0 0-.1.647q0 .252.1.344t.346.092a1.4 1.4 0 0 0 .473-.126l-.084.393q-.382.17-.61.26-.226.09-.527.09-.462-.001-.718-.257a.88.88 0 0 1-.257-.648q0-.151.02-.312.019-.159.062-.36l.318-1.275q.042-.183.071-.347.03-.164.03-.299 0-.245-.09-.34-.09-.097-.34-.097a.8.8 0 0 0-.252.044q-.13.044-.223.083l.085-.394q.312-.144.598-.246.285-.103.54-.103M8.65 4.7a.65.65 0 1 1 0 1.3.65.65 0 0 1 0-1.3"/></svg>