<svg xmlns="http://www.w3.org/2000/svg" width="20" height="20" fill="currentColor"><path fill="currentColor" d="M10 1.45a8.55 8.55 0 1 1 0 17.099 8.55 8.55 0 1 1 0-17.1m0 1.099a7.45 7.45 0 1 0 0 14.9 7.45 7.45 0 0 0 0-14.9m-.089 5.9q.53 0 .816.29t.287.753q0 .096-.02.338a2.5 2.5 0 0 1-.073.443l-.365 1.465q-.046.177-.081.405-.035.225-.035.341 0 .293.115.399.115.105.4.105.133 0 .3-.053.169-.052.245-.092l-.098.453q-.44.197-.702.3a1.7 1.7 0 0 1-.61.103q-.531 0-.827-.295a1 1 0 0 1-.296-.748 3 3 0 0 1 .022-.36q.022-.185.072-.416l.366-1.47q.048-.213.083-.401.033-.189.033-.345 0-.283-.103-.393-.102-.111-.392-.112a.9.9 0 0 0-.291.051 4 4 0 0 0-.257.096l.098-.453q.36-.167.69-.286t.623-.118m.839-2.25a.75.75 0 1 1 0 1.5.75.75 0 0 1 0-1.5"/></svg>