<svg xmlns="http://www.w3.org/2000/svg" width="12" height="12" fill="currentColor"><path fill="currentColor" d="M3.55 8.001a.45.45 0 0 1 .9 0v1.7c0 .47.38.85.85.85h3.9c.47 0 .85-.38.85-.85v-7.4a.85.85 0 0 0-.85-.85H5.3a.85.85 0 0 0-.85.85V4a.45.45 0 0 1-.9 0V2.95H2.5a.55.55 0 0 0-.55.55v5c0 .304.246.55.55.55h1.05zm2.382-3.568a.45.45 0 0 1 .636 0l1.25 1.25a.45.45 0 0 1 0 .636l-1.25 1.25a.45.45 0 0 1-.636-.636l.481-.482H3a.45.45 0 0 1 0-.9h3.413l-.481-.482a.45.45 0 0 1 0-.636M10.95 9.7a1.75 1.75 0 0 1-1.75 1.75H5.3a1.75 1.75 0 0 1-1.73-1.5H2.5c-.8 0-1.45-.65-1.45-1.45v-5c0-.8.65-1.45 1.45-1.45h1.07A1.75 1.75 0 0 1 5.3.55h3.9c.966 0 1.75.783 1.75 1.75z"/></svg>