<svg xmlns="http://www.w3.org/2000/svg" width="16" height="16" fill="currentColor"><path fill="currentColor" d="M5 10.5a.5.5 0 0 1 1 0v2A1.5 1.5 0 0 0 7.5 14H12a1.5 1.5 0 0 0 1.5-1.5v-9A1.5 1.5 0 0 0 12 2H7.5A1.5 1.5 0 0 0 6 3.5v2a.5.5 0 0 1-1 0V4H3.5a1 1 0 0 0-1 1v6a1 1 0 0 0 1 1H5zm3.253-4.462a.5.5 0 0 1 .707-.032l1.777 1.625a.5.5 0 0 1 0 .738L8.96 9.994a.5.5 0 0 1-.675-.738l.827-.756H4a.5.5 0 0 1 0-1h5.112l-.827-.756a.5.5 0 0 1-.032-.706M14.5 12.5A2.5 2.5 0 0 1 12 15H7.5a2.5 2.5 0 0 1-2.45-2H3.5a2 2 0 0 1-2-2V5a2 2 0 0 1 2-2h1.55A2.5 2.5 0 0 1 7.5 1H12a2.5 2.5 0 0 1 2.5 2.5z"/></svg>