<svg xmlns="http://www.w3.org/2000/svg" width="20" height="20" fill="currentColor"><path fill="currentColor" d="M6.45 12.999a.55.55 0 1 1 1.1 0v2.8c0 .911.739 1.65 1.65 1.65h6.1a1.65 1.65 0 0 0 1.65-1.65v-11.6a1.65 1.65 0 0 0-1.65-1.65H9.2a1.65 1.65 0 0 0-1.65 1.65V7a.55.55 0 1 1-1.1 0V4.55H4.3c-.69 0-1.25.56-1.25 1.25v8.4c0 .69.56 1.25 1.25 1.25h2.15zm3.849-5.37a.55.55 0 0 1 .777-.036l2.194 2a.55.55 0 0 1 0 .812l-2.194 2a.55.55 0 0 1-.741-.812l1.145-1.044H5a.55.55 0 1 1 0-1.1h6.48l-1.145-1.044a.55.55 0 0 1-.036-.776m7.75 8.17a2.75 2.75 0 0 1-2.75 2.75H9.2a2.75 2.75 0 0 1-2.644-2H4.3a2.35 2.35 0 0 1-2.35-2.35V5.8A2.35 2.35 0 0 1 4.3 3.45h2.256a2.75 2.75 0 0 1 2.644-2h6.1a2.75 2.75 0 0 1 2.75 2.75z"/></svg>