<svg width="12" height="12" viewBox="0 0 12 12" fill="none" xmlns="http://www.w3.org/2000/svg"><path d="M5.89649 4.39649C6.06735 4.22562 6.33132 4.20387 6.52539 4.33203L6.60352 4.39649L7.85352 5.64648C8.04878 5.84175 8.04878 6.15825 7.85352 6.35352L6.60352 7.60352C6.40826 7.79878 6.09175 7.79878 5.89649 7.60352C5.70123 7.40825 5.70123 7.09175 5.89649 6.89648L6.29297 6.5H3C2.72386 6.5 2.5 6.27614 2.5 6C2.5 5.72386 2.72386 5.5 3 5.5H6.29297L5.89649 5.10352L5.83204 5.02539C5.70387 4.83131 5.72563 4.56735 5.89649 4.39649ZM3.5 4C3.5 3.52736 3.50067 3.11197 3.51954 2.75293C3.1702 2.75568 2.907 2.76258 2.69532 2.79102C2.41037 2.82933 2.2944 2.89505 2.21973 2.96973C2.14506 3.0444 2.07933 3.16037 2.04102 3.44531C2.00082 3.74461 2 4.14682 2 4.75V7.25C2 7.85318 2.00082 8.25539 2.04102 8.55469C2.07933 8.83964 2.14506 8.9556 2.21973 9.03027C2.2944 9.10495 2.41037 9.17068 2.69532 9.20899C2.907 9.23742 3.17021 9.24335 3.51954 9.24609C3.50073 8.88728 3.5 8.47222 3.5 8C3.5 7.72386 3.72386 7.5 4 7.5C4.27615 7.5 4.5 7.72386 4.5 8C4.5 8.72115 4.50141 9.21171 4.55079 9.5791C4.59825 9.93213 4.68169 10.0957 4.79297 10.207C4.90426 10.3183 5.06788 10.4018 5.4209 10.4492C5.7883 10.4986 6.27885 10.5 7 10.5H7.5C8.22116 10.5 8.71171 10.4986 9.07911 10.4492C9.43213 10.4018 9.59575 10.3183 9.70704 10.207C9.81832 10.0957 9.90176 9.93213 9.94922 9.5791C9.9986 9.21171 10 8.72115 10 8V4C10 3.27885 9.9986 2.78829 9.94922 2.4209C9.90176 2.06787 9.81832 1.90425 9.70704 1.79297C9.59575 1.68168 9.43213 1.59825 9.07911 1.55078C8.71171 1.5014 8.22116 1.5 7.5 1.5H7C6.27885 1.5 5.7883 1.5014 5.4209 1.55078C5.06788 1.59825 4.90426 1.68168 4.79297 1.79297C4.68169 1.90425 4.59825 2.06787 4.55079 2.4209C4.50141 2.78829 4.5 3.27885 4.5 4C4.5 4.27614 4.27615 4.5 4 4.5C3.72386 4.5 3.5 4.27614 3.5 4ZM11 8C11 8.69297 11.0009 9.26336 10.9404 9.71289C10.878 10.1767 10.742 10.5861 10.4141 10.9141C10.0861 11.242 9.67665 11.378 9.2129 11.4404C8.76336 11.5009 8.19298 11.5 7.5 11.5H7C6.30703 11.5 5.73665 11.5009 5.28711 11.4404C4.82335 11.378 4.41391 11.242 4.08594 10.9141C3.89064 10.7188 3.76384 10.4945 3.67969 10.2471C3.24396 10.2458 2.86987 10.2417 2.56153 10.2002C2.16577 10.147 1.80409 10.0287 1.5127 9.73731C1.22131 9.44591 1.10304 9.08424 1.04981 8.68848C0.998524 8.30702 1 7.82512 1 7.25V4.75C1 4.17488 0.998524 3.69298 1.04981 3.31152C1.10304 2.91577 1.22131 2.55409 1.5127 2.2627C1.80409 1.9713 2.16577 1.85304 2.56153 1.79981C2.86988 1.75835 3.24396 1.75321 3.67969 1.75195C3.76384 1.50491 3.89087 1.28101 4.08594 1.08594C4.41391 0.757973 4.82335 0.621966 5.28711 0.559571C5.73665 0.499133 6.30703 0.500001 7 0.500001H7.5C8.19298 0.500001 8.76336 0.499133 9.2129 0.559571C9.67665 0.621966 10.0861 0.757973 10.4141 1.08594C10.742 1.4139 10.878 1.82335 10.9404 2.28711C11.0009 2.73664 11 3.30703 11 4V8Z" fill="currentColor"/></svg>