<svg xmlns="http://www.w3.org/2000/svg" width="16" height="16" fill="currentColor"><path fill="currentColor" d="M12.3 1A1.7 1.7 0 0 1 14 2.7v7.258l.003.005.064.118 1.574 3.51A1 1 0 0 1 14.728 15H1.273a1 1 0 0 1-.913-1.41l1.574-3.509.063-.118L2 9.958V2.7A1.7 1.7 0 0 1 3.7 1zM1.273 14h13.455l-1.552-3.46H2.824zM4 12.53a.5.5 0 1 1 0 1 .5.5 0 0 1 0-1m2 0a.5.5 0 1 1 0 1 .5.5 0 0 1 0-1m4 0a.5.5 0 1 1 0 1 .5.5 0 0 1 0-1m2 0a.5.5 0 1 1 0 1 .5.5 0 0 1 0-1m-4-.03a.5.5 0 1 1 0 1 .5.5 0 0 1 0-1m-3-1.3a.5.5 0 1 1 0 1 .5.5 0 0 1 0-1m2 0a.5.5 0 1 1 0 1 .5.5 0 0 1 0-1m2 0a.5.5 0 1 1 0 1 .5.5 0 0 1 0-1m2 0a.5.5 0 1 1 0 1 .5.5 0 0 1 0-1M3.7 2a.7.7 0 0 0-.7.7v6.84h10V2.7a.7.7 0 0 0-.7-.7z"/></svg>