<svg xmlns="http://www.w3.org/2000/svg" width="12" height="12" fill="currentColor"><g clip-path="url(#a)"><path fill="currentColor" d="M9.55 1.8a.35.35 0 0 0-.35-.349H2.8a.35.35 0 0 0-.35.35v5.25h7.1zm-8.368 8.75h9.636L9.703 7.952H2.297zM6 4.55a.45.45 0 0 1 0 .901H4a.45.45 0 0 1 0-.9zm2-1.5a.45.45 0 0 1 0 .901H4a.45.45 0 0 1 0-.9zm2.45 4.25q0 .05-.01.096l.026.05 1.33 3.099a.65.65 0 0 1-.598.906H.803a.65.65 0 0 1-.597-.906l1.329-3.1.024-.049a1 1 0 0 1-.009-.095V1.8c0-.69.56-1.25 1.25-1.25h6.4c.69 0 1.25.56 1.25 1.25z"/></g><defs><clipPath id="a"><path fill="currentColor" d="M0 0h12v12H0z"/></clipPath></defs></svg>