<svg xmlns="http://www.w3.org/2000/svg" width="12" height="12" fill="currentColor"><g clip-path="url(#a)"><path fill="currentColor" d="M9.2.55c.69.001 1.25.56 1.25 1.25v5.5q-.001.049-.01.096l.026.05 1.329 3.099a.65.65 0 0 1-.598.906H.804a.65.65 0 0 1-.597-.906l1.328-3.1q.011-.025.024-.049a1 1 0 0 1-.009-.095V1.8c0-.69.56-1.25 1.25-1.25zm-8.017 10h9.635L9.704 7.952H2.297zM3.4 9.402a.4.4 0 1 1 0 .8.4.4 0 0 1 0-.8m1.3 0a.4.4 0 1 1 .002.8.4.4 0 0 1-.001-.8m1.302 0a.4.4 0 1 1 0 .8.4.4 0 0 1 0-.8m1.296 0a.4.4 0 1 1 .001.8.4.4 0 0 1 0-.8m1.301 0a.4.4 0 1 1 .001.8.4.4 0 0 1 0-.8m-4.55-1a.35.35 0 1 1 0 .7.35.35 0 0 1 0-.7m1.301 0a.35.35 0 1 1 0 .7.35.35 0 0 1 0-.7m1.301 0a.35.35 0 1 1 0 .7.35.35 0 0 1 0-.7m1.3 0a.35.35 0 1 1 .001.7.35.35 0 0 1 0-.7m-5.15-6.95a.35.35 0 0 0-.35.35v5.25h7.1V1.8a.35.35 0 0 0-.35-.35z"/></g><defs><clipPath id="a"><path fill="currentColor" d="M0 0h12v12H0z"/></clipPath></defs></svg>