<svg xmlns="http://www.w3.org/2000/svg" width="20" height="20" fill="currentColor"><path fill="currentColor" d="M15.3 1.95a1.95 1.95 0 0 1 1.95 1.95v8.63l.008.01.078.127 2.248 4.305a1.078 1.078 0 0 1-.955 1.577H1.37c-.81 0-1.33-.86-.955-1.577l2.248-4.305.078-.128.005-.007.003-8.634A1.95 1.95 0 0 1 4.7 1.95zM1.407 17.45h17.186l-2.227-4.262H3.634zm3.845-2.05a.65.65 0 1 1 0 1.298.65.65 0 0 1 0-1.299m2.398 0a.65.65 0 1 1 0 1.298.65.65 0 0 1 0-1.299m2.399 0a.65.65 0 1 1 0 1.299.65.65 0 0 1 0-1.3m2.402 0a.65.65 0 1 1 0 1.298.65.65 0 0 1 0-1.299m2.399 0a.65.65 0 1 1 0 1.298.65.65 0 0 1 0-1.299m-8.352-1.5a.6.6 0 1 1 0 1.2.6.6 0 0 1 0-1.2m2.402 0a.6.6 0 1 1 .001 1.2.6.6 0 0 1 0-1.2m2.399 0a.6.6 0 1 1 0 1.2.6.6 0 0 1 0-1.2m2.402 0a.6.6 0 1 1 0 1.2.6.6 0 0 1 0-1.2M4.7 3.048a.85.85 0 0 0-.85.85l-.002 8.189H16.15V3.899a.85.85 0 0 0-.85-.85z"/></svg>