<svg xmlns="http://www.w3.org/2000/svg" width="16" height="16" fill="currentColor"><path fill="currentColor" fill-rule="evenodd" d="M8.001 2.166c.938 0 1.696.311 2.994.83l1.872.75c.65.26 1.177.469 1.536.657.18.094.353.201.487.33a.83.83 0 0 1 .277.6c0 .269-.14.469-.277.6a2.1 2.1 0 0 1-.487.329 12 12 0 0 1-.913.404c.368.15.677.282.913.405.18.094.353.2.487.328a.83.83 0 0 1 .277.601c0 .269-.14.469-.277.6a2.1 2.1 0 0 1-.487.33 12 12 0 0 1-.913.404c.368.15.677.281.913.405.18.094.353.2.487.328a.83.83 0 0 1 .277.601c0 .269-.14.469-.277.6a2.2 2.2 0 0 1-.487.33c-.36.188-.886.398-1.536.658l-1.872.749c-1.298.519-2.056.83-2.994.83s-1.696-.311-2.994-.83l-1.873-.75c-.65-.26-1.176-.469-1.535-.657a2.1 2.1 0 0 1-.487-.33.83.83 0 0 1-.278-.6c0-.269.14-.469.278-.6.134-.129.308-.235.487-.329.235-.123.544-.255.91-.405a11 11 0 0 1-.91-.404 2.1 2.1 0 0 1-.487-.33.83.83 0 0 1-.278-.6c0-.269.14-.469.278-.6.134-.129.308-.235.487-.329.235-.123.544-.255.91-.405a11 11 0 0 1-.91-.404 2.1 2.1 0 0 1-.487-.328.86.86 0 0 1-.272-.503l-.006-.098.006-.098a.86.86 0 0 1 .272-.503c.134-.128.308-.235.487-.329.359-.188.885-.398 1.535-.658l1.873-.749c1.298-.519 2.056-.83 2.994-.83m2.994 8.17c-1.298.52-2.056.83-2.994.831-.938 0-1.696-.311-2.994-.83l-1.161-.465-.34.137c-.674.27-1.14.457-1.443.616l-.076.043.075.044c.303.159.77.346 1.444.615l1.872.75c1.35.54 1.916.758 2.623.758s1.273-.219 2.622-.759l1.873-.749c.673-.27 1.14-.457 1.442-.615l.076-.044-.075-.043c-.303-.159-.77-.347-1.443-.616l-.34-.137zm0-2.667c-1.298.52-2.056.83-2.994.83s-1.696-.31-2.994-.83l-1.161-.465-.34.137c-.674.27-1.14.457-1.443.616L1.987 8l.075.044c.303.159.77.346 1.444.615l1.872.75c1.35.54 1.916.758 2.623.758s1.273-.219 2.622-.759l1.873-.749c.673-.27 1.14-.456 1.442-.615L14.014 8l-.075-.043c-.303-.159-.77-.347-1.443-.616l-.34-.137zM8.001 3.166c-.707 0-1.273.219-2.623.759l-1.872.749c-.674.27-1.14.456-1.443.615l-.076.043.075.044c.303.159.77.347 1.444.616l1.872.75c1.35.54 1.916.757 2.623.757s1.273-.218 2.622-.758l1.873-.749c.674-.27 1.14-.457 1.442-.616l.076-.044-.075-.043c-.303-.159-.77-.346-1.443-.615l-1.873-.75c-1.35-.539-1.915-.758-2.622-.758" clip-rule="evenodd"/></svg>