<svg xmlns="http://www.w3.org/2000/svg" width="20" height="20" fill="currentColor"><path fill="currentColor" fill-rule="evenodd" d="M10 2.832c1.144 0 2.068.377 3.697 1.028l2.34.937c.816.326 1.467.585 1.909.817.22.116.424.243.579.39.158.153.31.372.31.661s-.152.51-.31.661a2.6 2.6 0 0 1-.58.39c-.347.183-.825.38-1.41.615.585.236 1.063.433 1.41.615.221.116.425.243.58.39.158.153.31.373.31.662s-.152.509-.31.66a2.6 2.6 0 0 1-.58.39c-.348.184-.827.38-1.414.617.587.237 1.066.434 1.415.617.22.116.424.243.579.39.158.152.31.372.31.662s-.152.508-.31.66a2.6 2.6 0 0 1-.58.39c-.441.233-1.092.492-1.907.818l-2.341.937c-1.629.651-2.553 1.028-3.696 1.028s-2.068-.377-3.697-1.028l-2.34-.937c-.815-.326-1.466-.585-1.908-.817a2.6 2.6 0 0 1-.58-.39.95.95 0 0 1-.302-.556l-.007-.105.007-.105a.95.95 0 0 1 .302-.556 2.6 2.6 0 0 1 .58-.39c.349-.183.828-.382 1.414-.618-.586-.236-1.065-.433-1.414-.616a2.6 2.6 0 0 1-.58-.39.95.95 0 0 1-.302-.557l-.007-.104.007-.105a.95.95 0 0 1 .302-.556 2.6 2.6 0 0 1 .58-.39c.348-.183.825-.38 1.41-.616-.585-.235-1.062-.432-1.41-.614a2.6 2.6 0 0 1-.58-.39c-.158-.152-.309-.373-.309-.662s.151-.509.31-.66a2.6 2.6 0 0 1 .58-.39c.441-.233 1.092-.492 1.907-.818l2.34-.937c1.629-.651 2.553-1.028 3.697-1.028m3.697 9.97c-1.629.652-2.553 1.03-3.696 1.03-1.144-.001-2.068-.378-3.697-1.03l-1.496-.598-.473.19c-.839.335-1.43.572-1.815.774-.124.065-.21.121-.271.165.06.044.147.1.271.166.385.202.976.439 1.815.774l2.341.937c1.68.672 2.412.957 3.325.957.912 0 1.644-.285 3.325-.957l2.34-.937c.84-.335 1.43-.572 1.815-.774.124-.065.21-.122.271-.166-.06-.044-.147-.1-.271-.165-.385-.202-.976-.439-1.815-.774l-.473-.19zm0-3.332c-1.63.651-2.553 1.029-3.696 1.029s-2.068-.378-3.697-1.03l-1.5-.6-.469.189c-.839.335-1.43.572-1.815.774-.124.065-.21.121-.271.165.06.044.147.1.271.166.385.202.976.439 1.815.774l2.341.937c1.68.672 2.412.957 3.325.957.912 0 1.644-.285 3.325-.957l2.34-.937c.84-.335 1.43-.572 1.815-.774.124-.065.21-.122.271-.166-.06-.044-.147-.1-.271-.165-.385-.202-.976-.439-1.815-.774l-.47-.189zM10 3.832c-.913 0-1.644.285-3.325.957l-2.34.937c-.84.335-1.43.572-1.816.774-.124.065-.21.121-.271.165.06.044.147.1.271.166.385.202.976.439 1.815.774l2.341.937c1.68.672 2.412.957 3.325.957.912 0 1.644-.285 3.325-.957l2.34-.937c.84-.335 1.43-.572 1.815-.774.124-.065.21-.122.271-.166a2 2 0 0 0-.271-.165c-.385-.202-.976-.439-1.815-.774l-2.34-.937c-1.681-.672-2.413-.957-3.325-.957" clip-rule="evenodd"/></svg>