<svg xmlns="http://www.w3.org/2000/svg" width="12" height="12" fill="currentColor"><path fill="currentColor" fill-rule="evenodd" d="M6.001 1.55c.72 0 1.304.241 2.273.629l1.405.561c.486.195.885.354 1.159.497.136.072.274.156.382.26a.7.7 0 0 1 .23.503.7.7 0 0 1-.231.505 1.7 1.7 0 0 1-.382.259 7 7 0 0 1-.519.236q.306.126.519.236c.136.072.274.156.382.26A.7.7 0 0 1 11.45 6a.7.7 0 0 1-.231.505 1.7 1.7 0 0 1-.382.259 7 7 0 0 1-.519.236q.306.126.519.236c.136.072.274.156.382.26A.7.7 0 0 1 11.45 8a.7.7 0 0 1-.231.505 1.7 1.7 0 0 1-.382.259c-.274.143-.673.302-1.16.497l-1.404.561c-.969.388-1.552.628-2.273.628-.72 0-1.304-.24-2.273-.628l-1.405-.561c-.486-.195-.885-.354-1.159-.497a1.7 1.7 0 0 1-.382-.26.72.72 0 0 1-.225-.421L.55 8.001l.007-.083a.72.72 0 0 1 .225-.422c.108-.103.246-.187.382-.259a7 7 0 0 1 .517-.236 7 7 0 0 1-.517-.236 1.7 1.7 0 0 1-.382-.26.72.72 0 0 1-.225-.421L.55 6.001l.007-.083a.72.72 0 0 1 .225-.422c.108-.103.246-.187.382-.259a7 7 0 0 1 .517-.236 7 7 0 0 1-.517-.236 1.7 1.7 0 0 1-.382-.26.72.72 0 0 1-.225-.421L.55 4.001l.007-.083a.72.72 0 0 1 .225-.422c.108-.103.246-.187.382-.259.274-.143.673-.302 1.16-.497l1.404-.561C4.697 1.79 5.28 1.55 6 1.55m2.273 6.273c-.969.388-1.552.628-2.273.628-.72 0-1.304-.24-2.273-.628l-.845-.338-.226.091c-.458.183-.784.315-1.007.425.223.11.55.242 1.007.425l1.405.561c1.016.407 1.426.564 1.939.564s.923-.157 1.94-.564l1.404-.561c.457-.183.783-.315 1.006-.425-.223-.11-.549-.242-1.006-.425l-.227-.09zm0-2c-.969.388-1.552.628-2.273.628-.72 0-1.304-.24-2.273-.628l-.845-.338-.226.091c-.458.183-.784.315-1.007.425.223.11.55.242 1.007.425l1.405.561c1.016.407 1.426.564 1.939.564s.923-.157 1.94-.564l1.404-.561c.457-.183.783-.315 1.006-.425-.223-.11-.549-.242-1.006-.425l-.227-.09zM6.001 2.451c-.513 0-.923.157-1.94.564l-1.404.561c-.458.183-.784.315-1.007.425.223.11.55.242 1.007.425l1.405.561c1.016.407 1.426.564 1.939.564s.923-.157 1.94-.564l1.404-.561c.457-.183.783-.315 1.006-.425-.223-.11-.549-.242-1.006-.425L7.94 3.015c-1.016-.407-1.426-.564-1.939-.564" clip-rule="evenodd"/></svg>