<svg xmlns="http://www.w3.org/2000/svg" width="20" height="20" fill="currentColor"><path fill="currentColor" fill-rule="evenodd" d="M10.001 2.781c1.155 0 2.089.382 3.715 1.032l2.34.936c.815.326 1.469.587 1.914.82.221.117.431.246.59.399.164.157.325.388.325.696s-.161.54-.325.697a2.6 2.6 0 0 1-.59.399c-.328.171-.77.355-1.303.571.534.216.975.4 1.303.571.221.117.431.246.59.399.164.157.325.39.325.697 0 .308-.161.54-.325.696a2.6 2.6 0 0 1-.59.399c-.328.172-.77.355-1.306.572.535.217.978.401 1.306.573.221.117.431.246.59.399.164.157.325.389.325.697s-.161.54-.325.696a2.6 2.6 0 0 1-.59.399c-.445.233-1.099.494-1.913.82l-2.341.936c-1.626.65-2.56 1.032-3.715 1.032s-2.089-.382-3.715-1.032l-2.34-.936c-.814-.326-1.468-.587-1.913-.82a2.6 2.6 0 0 1-.59-.399 1 1 0 0 1-.318-.585l-.008-.111.008-.112a1 1 0 0 1 .317-.585c.16-.153.37-.283.591-.399.328-.171.77-.357 1.304-.573-.535-.216-.976-.4-1.304-.572a2.6 2.6 0 0 1-.59-.399 1 1 0 0 1-.318-.585l-.008-.111.008-.112a1 1 0 0 1 .317-.585c.16-.153.37-.282.591-.399.327-.171.768-.355 1.301-.57-.533-.217-.974-.4-1.3-.572a2.6 2.6 0 0 1-.592-.399c-.163-.157-.325-.389-.325-.697s.162-.54.325-.696c.16-.153.37-.282.591-.399.445-.233 1.099-.494 1.913-.82l2.34-.936c1.626-.65 2.56-1.032 3.715-1.032m3.715 10.068c-1.626.65-2.56 1.032-3.715 1.032s-2.089-.382-3.715-1.032l-1.476-.591-.456.182c-.84.336-1.428.572-1.81.773a3 3 0 0 0-.21.121q.079.052.21.121c.382.2.97.437 1.81.772l2.341.936c1.683.673 2.405.954 3.306.954.9 0 1.624-.28 3.307-.954l2.34-.936c.84-.335 1.429-.572 1.811-.772q.13-.07.208-.121a3 3 0 0 0-.208-.121c-.382-.2-.97-.437-1.81-.773l-.457-.182zm0-3.333c-1.626.65-2.56 1.032-3.715 1.032s-2.089-.382-3.715-1.032l-1.48-.593-.452.181c-.84.336-1.428.573-1.81.773a3 3 0 0 0-.21.121q.079.052.21.121c.382.2.97.437 1.81.773l2.341.935c1.683.673 2.405.954 3.306.954.9 0 1.624-.28 3.307-.954l2.34-.935c.84-.336 1.429-.572 1.811-.773a3 3 0 0 0 .208-.121 3 3 0 0 0-.208-.121c-.382-.2-.97-.437-1.81-.773l-.454-.181zM10 3.88c-.9 0-1.623.28-3.306.954l-2.34.936c-.84.335-1.429.572-1.811.772a3 3 0 0 0-.21.121q.079.051.21.121c.382.2.97.437 1.81.773l2.341.936c1.683.673 2.405.953 3.306.953.9 0 1.624-.28 3.307-.953l2.34-.936c.84-.336 1.429-.572 1.811-.773q.13-.07.208-.12a3 3 0 0 0-.208-.122c-.382-.2-.97-.437-1.81-.772l-2.341-.936C11.623 4.161 10.901 3.88 10 3.88" clip-rule="evenodd"/></svg>