<svg width="20" height="20" viewBox="0 0 20 20" fill="none" xmlns="http://www.w3.org/2000/svg"><path d="M10 13.5C10.4142 13.5 10.75 13.8358 10.75 14.25C10.75 14.6642 10.4142 15 10 15C9.58579 15 9.25 14.6642 9.25 14.25C9.25 13.8358 9.58579 13.5 10 13.5ZM11.5 7.49707C11.4999 6.97158 11.345 6.61103 11.1172 6.38281C10.8895 6.15485 10.5298 6 10.0049 6C9.47978 6.00006 9.11732 6.15549 8.88672 6.38477C8.65651 6.61367 8.50006 6.9735 8.5 7.49707C8.5 7.77321 8.27614 7.99707 8 7.99707C7.72386 7.99707 7.5 7.77321 7.5 7.49707C7.50007 6.77097 7.72188 6.13296 8.18164 5.67578C8.64103 5.21899 9.28032 5.00007 10.0049 5C10.7297 5 11.368 5.2187 11.8252 5.67676C12.2822 6.13462 12.4999 6.77287 12.5 7.49707C12.5 7.94493 12.3214 8.33843 12.1084 8.66797C11.897 8.99491 11.6204 9.30519 11.377 9.58008C11.1217 9.86829 10.899 10.1214 10.7363 10.373C10.5756 10.6219 10.5049 10.823 10.5049 11V11.0049L10.5 11.5049C10.4971 11.7809 10.2711 12.0027 9.99512 12C9.7191 11.9971 9.4973 11.7711 9.5 11.4951L9.50488 10.9951C9.50618 10.5493 9.68522 10.1584 9.89746 9.83008C10.1088 9.50309 10.3845 9.19192 10.6279 8.91699C10.8831 8.62881 11.1059 8.37658 11.2686 8.125C11.4296 7.87593 11.5 7.67421 11.5 7.49707Z" fill="currentColor"/><path fill-rule="evenodd" clip-rule="evenodd" d="M14 18H6C3.79086 18 2 16.2091 2 14V6C2 3.79086 3.79086 2 6 2H14L14.2061 2.00488C16.3194 2.11211 18 3.85996 18 6V14L17.9951 14.2061C17.8879 16.3194 16.14 18 14 18ZM14 17H6C4.34315 17 3 15.6569 3 14V6C3 4.34315 4.34315 3 6 3H14C15.6569 3 17 4.34315 17 6V14C17 15.6569 15.6569 17 14 17Z" fill="currentColor"/></svg>