<svg xmlns="http://www.w3.org/2000/svg" width="20" height="20" fill="currentColor"><path fill="currentColor" d="M15 1.5A3.5 3.5 0 0 1 18.5 5v10a3.5 3.5 0 0 1-3.5 3.5H5A3.5 3.5 0 0 1 1.5 15V5A3.5 3.5 0 0 1 5 1.5zM5 2.6A2.4 2.4 0 0 0 2.6 5v10A2.4 2.4 0 0 0 5 17.4h10a2.4 2.4 0 0 0 2.4-2.4V5A2.4 2.4 0 0 0 15 2.6zm5.001 9.7a.7.7 0 1 1 0 1.401.7.7 0 0 1 0-1.401m.004-6.55c.638 0 1.214.188 1.632.599.419.411.614.982.614 1.615 0 .412-.168.767-.355 1.052-.187.282-.43.549-.635.776-.219.242-.4.445-.531.645-.13.196-.174.337-.174.446v.006l-.005.417a.55.55 0 0 1-1.1-.012l.004-.417c.002-.41.169-.762.356-1.046.186-.282.429-.549.634-.776.219-.242.4-.445.532-.645.13-.197.173-.338.173-.446 0-.408-.12-.67-.284-.83-.164-.162-.437-.284-.861-.284s-.7.123-.866.286c-.165.16-.288.422-.288.828a.55.55 0 1 1-1.1 0c0-.635.199-1.206.62-1.616.42-.41.996-.598 1.634-.598"/></svg>