<svg xmlns="http://www.w3.org/2000/svg" width="12" height="12" fill="currentColor"><g clip-path="url(#a)"><path fill="currentColor" d="M9 .5A2.5 2.5 0 0 1 11.5 3v6A2.5 2.5 0 0 1 9 11.5H3A2.5 2.5 0 0 1 .5 9V3A2.5 2.5 0 0 1 3 .5zm-6 .9A1.6 1.6 0 0 0 1.4 3v6A1.6 1.6 0 0 0 3 10.6h6A1.6 1.6 0 0 0 10.6 9V3A1.6 1.6 0 0 0 9 1.4zm2.951 6.4a.65.65 0 1 1-.001 1.3.65.65 0 0 1 .001-1.3m.053-4.95c.465 0 .89.14 1.198.45.309.309.448.734.448 1.198 0 .31-.123.574-.258.784-.134.208-.308.403-.453.566-.154.174-.28.317-.37.457-.09.137-.115.229-.115.295v.004l-.003.3a.45.45 0 0 1-.9-.008l.003-.301c.001-.307.125-.57.26-.779a5 5 0 0 1 .452-.565 4 4 0 0 0 .37-.458c.088-.137.115-.23.115-.295 0-.285-.083-.46-.186-.562-.102-.103-.276-.186-.561-.186s-.461.083-.566.187c-.103.103-.187.277-.187.561a.45.45 0 0 1-.9 0c0-.466.143-.89.453-1.2.31-.307.735-.448 1.2-.448"/></g><defs><clipPath id="a"><path fill="currentColor" d="M0 0h12v12H0z"/></clipPath></defs></svg>