<svg xmlns="http://www.w3.org/2000/svg" width="16" height="16" fill="currentColor"><path fill="currentColor" d="M12 1a3 3 0 0 1 3 3v8a3 3 0 0 1-3 3H4a3 3 0 0 1-3-3V4a3 3 0 0 1 3-3zM4 2a2 2 0 0 0-2 2v8a2 2 0 0 0 2 2h8a2 2 0 0 0 2-2V4a2 2 0 0 0-2-2zm3.95 8a.75.75 0 1 1 0 1.5.75.75 0 0 1 0-1.5m.054-5.5c.553 0 1.06.147 1.433.48.38.339.563.818.563 1.352 0 .36-.161.662-.33.893-.166.23-.383.446-.564.627a5 5 0 0 0-.464.51c-.113.154-.138.249-.138.305v.006l-.004.333a.5.5 0 0 1-1-.012l.004-.333c.002-.358.162-.658.329-.888s.384-.446.564-.627c.194-.194.352-.354.465-.51.113-.154.138-.248.138-.304 0-.3-.097-.487-.23-.605-.14-.125-.382-.227-.766-.227s-.63.101-.773.228c-.134.119-.231.307-.231.604a.5.5 0 0 1-1 0c0-.536.186-1.015.57-1.353.374-.332.88-.479 1.434-.479"/></svg>