<svg xmlns="http://www.w3.org/2000/svg" width="20" height="20" fill="currentColor"><path fill="currentColor" d="M11.14 7.975a.6.6 0 0 1 .849.002c1.478 1.484 1.286 3.934-.243 5.47L7.868 17.34c-1.53 1.536-3.976 1.73-5.456.244-1.48-1.484-1.287-3.936.242-5.47l1.94-1.948a.6.6 0 0 1 .85.847l-1.94 1.947c-1.148 1.153-1.173 2.842-.242 3.776.93.933 2.607.91 3.755-.243l3.879-3.893c1.148-1.153 1.173-2.842.242-3.777a.6.6 0 0 1 .002-.848m.991-5.316c1.53-1.536 3.976-1.73 5.456-.243 1.48 1.485 1.287 3.936-.242 5.47l-1.94 1.947a.6.6 0 0 1-.85-.847l1.94-1.946c1.148-1.153 1.173-2.843.242-3.777-.93-.933-2.608-.909-3.755.243L9.103 7.399c-1.148 1.153-1.173 2.843-.242 3.778a.6.6 0 0 1-.85.847c-1.48-1.485-1.288-3.936.241-5.471z"/></svg>