<svg xmlns="http://www.w3.org/2000/svg" width="12" height="12" fill="currentColor"><g clip-path="url(#a)"><path fill="currentColor" d="M6.624 4.646a.5.5 0 0 1 .707.002c.98.985.844 2.595-.151 3.594l-2.424 2.434c-.996 1-2.605 1.138-3.587.151-.981-.985-.844-2.595.151-3.594l1.212-1.217a.5.5 0 0 1 .709.706L2.029 7.939c-.678.68-.677 1.656-.152 2.183.523.526 1.492.528 2.17-.152L6.47 7.536c.677-.68.677-1.656.152-2.183a.5.5 0 0 1 0-.707m.62-3.322c.996-1 2.604-1.137 3.587-.15.98.984.844 2.595-.151 3.594l-1.21 1.217a.5.5 0 0 1-.71-.706l1.213-1.217c.678-.68.677-1.657.152-2.184-.523-.525-1.493-.527-2.17.153L5.529 4.464c-.678.68-.677 1.657-.152 2.184a.5.5 0 1 1-.708.705c-.981-.985-.844-2.596.151-3.595z"/></g><defs><clipPath id="a"><rect width="12" height="12" fill="currentColor" rx="2"/></clipPath></defs></svg>