<svg xmlns="http://www.w3.org/2000/svg" width="16" height="16" fill="currentColor"><g clip-path="url(#a)"><path fill="currentColor" d="M8.881 6.31a.55.55 0 0 1 .779.002c1.23 1.235 1.064 3.265-.198 4.532l-3.151 3.164c-1.263 1.268-3.29 1.434-4.52.198s-1.066-3.265.196-4.533l1.576-1.582a.55.55 0 1 1 .78.777l-1.577 1.58c-.913.917-.924 2.25-.196 2.981.726.73 2.05.719 2.962-.197l3.151-3.164c.913-.917.925-2.249.197-2.98a.55.55 0 0 1 .001-.778m.807-4.318c1.263-1.268 3.289-1.434 4.52-.198s1.066 3.265-.196 4.533l-1.576 1.582a.55.55 0 1 1-.78-.777l1.577-1.582c.913-.916.924-2.249.196-2.98-.726-.728-2.05-.718-2.962.198L7.316 5.931c-.913.917-.925 2.25-.197 2.98a.55.55 0 1 1-.78.777c-1.23-1.235-1.065-3.265.197-4.532z"/></g><defs><clipPath id="a"><rect width="16" height="16" fill="currentColor" rx="2"/></clipPath></defs></svg>