<svg xmlns="http://www.w3.org/2000/svg" width="20" height="20" fill="currentColor"><path fill="currentColor" d="M15.75 8.354c0-3.21-2.579-5.805-5.75-5.805S4.25 5.144 4.25 8.354c0 1.446.603 3.182 1.58 4.8.972 1.613 2.278 3.045 3.607 3.904.385.248.436.266.564.266.129 0 .18-.018.564-.266 1.33-.86 2.634-2.291 3.607-3.905.976-1.617 1.578-3.353 1.578-4.799M11.95 8a1.95 1.95 0 1 0-3.9 0 1.95 1.95 0 0 0 3.9 0m4.9.355c0 1.717-.7 3.65-1.736 5.368-1.038 1.721-2.452 3.29-3.952 4.26-.346.223-.66.442-1.161.442-.5 0-.815-.219-1.161-.443-1.5-.97-2.914-2.538-3.952-4.26-1.036-1.716-1.738-3.65-1.738-5.367 0-3.81 3.062-6.905 6.85-6.905s6.85 3.096 6.85 6.905M13.05 8a3.05 3.05 0 1 1-6.1 0 3.05 3.05 0 0 1 6.1 0"/></svg>