<svg width="12" height="12" viewBox="0 0 12 12" fill="none" xmlns="http://www.w3.org/2000/svg"><path d="M9.49805 5.07324C9.49786 3.09244 7.9226 1.50195 5.99805 1.50195C4.0735 1.50195 2.49824 3.09244 2.49805 5.07324C2.49805 5.92174 2.83371 6.94812 3.39648 7.93066C3.95668 8.90868 4.71296 9.79355 5.49512 10.3682C5.66402 10.4922 5.74228 10.5467 5.81152 10.5801C5.85783 10.6024 5.90433 10.6172 5.99902 10.6172C6.09339 10.6171 6.13933 10.6024 6.18555 10.5801C6.25478 10.5467 6.33307 10.4922 6.50195 10.3682C7.28394 9.79359 8.03964 8.90861 8.59961 7.93066C9.16217 6.94814 9.49805 5.92179 9.49805 5.07324ZM7 4.99805C7 4.44576 6.55228 3.99805 6 3.99805C5.44772 3.99805 5 4.44576 5 4.99805C5 5.55033 5.44772 5.99805 6 5.99805C6.55228 5.99805 7 5.55033 7 4.99805ZM10.498 5.07324C10.498 6.15592 10.0814 7.35605 9.46777 8.42773C8.85162 9.5038 8.0078 10.5022 7.09375 11.1738C6.94863 11.2805 6.79071 11.3985 6.62109 11.4805C6.42855 11.5734 6.23184 11.6171 5.99902 11.6172C5.76611 11.6172 5.56954 11.5734 5.37695 11.4805C5.20714 11.3985 5.0486 11.2806 4.90332 11.1738C3.98913 10.5022 3.1447 9.50388 2.52832 8.42773C1.91451 7.35607 1.49805 6.15596 1.49805 5.07324C1.49824 2.55696 3.50455 0.501953 5.99805 0.501953C8.49154 0.501953 10.4979 2.55696 10.498 5.07324ZM8 4.99805C8 6.10262 7.10457 6.99805 6 6.99805C4.89543 6.99805 4 6.10262 4 4.99805C4 3.89348 4.89543 2.99805 6 2.99805C7.10457 2.99805 8 3.89348 8 4.99805Z" fill="currentColor"/></svg>