<svg xmlns="http://www.w3.org/2000/svg" width="16" height="16" fill="currentColor"><path fill="currentColor" d="M12.701 6.704A4.703 4.703 0 0 0 8.001 2a4.7 4.7 0 0 0-4.7 4.704c0 1.156.48 2.545 1.265 3.852.783 1.302 1.836 2.464 2.912 3.177.345.23.393.247.523.247s.178-.017.523-.247c1.076-.713 2.129-1.874 2.912-3.176C12.22 9.25 12.7 7.86 12.7 6.704M9.5 6.4a1.5 1.5 0 1 0-3 0 1.5 1.5 0 0 0 3 0m4.201.304c0 1.401-.57 2.971-1.409 4.367-.842 1.401-1.99 2.684-3.215 3.496-.318.211-.604.413-1.076.413s-.757-.202-1.075-.413c-1.225-.812-2.374-2.095-3.216-3.496C2.87 9.675 2.3 8.105 2.3 6.704A5.7 5.7 0 0 1 8.002 1c3.148 0 5.7 2.554 5.7 5.704M10.5 6.4a2.5 2.5 0 1 1-5 0 2.5 2.5 0 0 1 5 0"/></svg>