<svg width="16" height="16" viewBox="0 0 16 16" fill="none" xmlns="http://www.w3.org/2000/svg"><path d="M12.8311 6.76465C12.831 4.03418 10.6581 1.83594 7.99707 1.83594C5.33622 1.83612 3.16414 4.03429 3.16406 6.76465C3.16406 7.97947 3.66099 9.43726 4.46973 10.8037C5.27611 12.1661 6.35974 13.3811 7.4668 14.125C7.81869 14.3615 7.86662 14.3799 7.99805 14.3799C8.12948 14.3799 8.17742 14.3615 8.5293 14.125C9.63622 13.3811 10.7193 12.1661 11.5254 10.8037C12.3339 9.43727 12.8311 7.97954 12.8311 6.76465ZM9.5 6.66406C9.5 5.83564 8.82843 5.16406 8 5.16406C7.17157 5.16406 6.5 5.83564 6.5 6.66406C6.5 7.49249 7.17157 8.16406 8 8.16406C8.82843 8.16406 9.5 7.49249 9.5 6.66406ZM13.8311 6.76465C13.8311 8.22104 13.2484 9.85714 12.3867 11.3135C11.5227 12.7737 10.3444 14.1106 9.08789 14.9551C8.76555 15.1717 8.47618 15.3799 7.99805 15.3799C7.51993 15.3799 7.23056 15.1717 6.9082 14.9551C5.65171 14.1106 4.47365 12.7736 3.60938 11.3135C2.74742 9.85716 2.16406 8.2211 2.16406 6.76465C2.16414 3.49881 4.76728 0.836116 7.99707 0.835938C11.227 0.835938 13.831 3.4987 13.8311 6.76465ZM10.5 6.66406C10.5 8.04477 9.38071 9.16406 8 9.16406C6.61929 9.16406 5.5 8.04477 5.5 6.66406C5.5 5.28335 6.61929 4.16406 8 4.16406C9.38071 4.16406 10.5 5.28335 10.5 6.66406Z" fill="currentColor"/></svg>