<svg xmlns="http://www.w3.org/2000/svg" width="12" height="12" fill="currentColor"><path fill="currentColor" d="M6 .55c2.41.001 4.35 1.99 4.35 4.424 0 1.047-.403 2.21-1 3.252-.598 1.046-1.417 2.016-2.303 2.668-.143.104-.294.217-.456.296-.183.088-.369.13-.591.13s-.408-.042-.59-.13c-.163-.079-.314-.192-.457-.296-.886-.652-1.705-1.622-2.304-2.668-.596-1.042-1-2.205-1-3.252C1.65 2.539 3.59.55 6 .55m0 .901c-1.898 0-3.45 1.57-3.45 3.523 0 .836.33 1.844.88 2.805.549.958 1.29 1.825 2.056 2.389.164.12.243.176.315.21a.4.4 0 0 0 .199.04.4.4 0 0 0 .2-.04c.07-.034.15-.09.314-.21.767-.564 1.507-1.431 2.055-2.389.55-.961.88-1.969.88-2.805C9.45 3.02 7.897 1.45 6 1.45M6 3.7a1.4 1.4 0 1 1 0 2.8 1.4 1.4 0 0 1 0-2.8"/></svg>