<svg width="12" height="12" viewBox="0 0 12 12" fill="none" xmlns="http://www.w3.org/2000/svg"><path d="M0 6C0 9.31371 2.68629 12 6 12V11C3.23858 11 1 8.76142 1 6C1 3.23858 3.23858 1 6 1C8.76142 1 11 3.23858 11 6C11 8.76142 8.76142 11 6 11V12C9.31371 12 12 9.31371 12 6C12 2.68629 9.31371 0 6 0C2.68629 0 0 2.68629 0 6Z" fill="currentColor"/><path fill-rule="evenodd" clip-rule="evenodd" d="M11 6C11 3.23858 8.76142 1 6 1C3.23858 1 1 3.23858 1 6C1 8.76142 3.23858 11 6 11C8.76142 11 11 8.76142 11 6ZM8 6.5V5.5H4V6.5H8Z" fill="currentColor"/></svg>