<svg width="12" height="12" viewBox="0 0 12 12" fill="none" xmlns="http://www.w3.org/2000/svg"><path d="M10.5 9.37207C10.4963 9.2531 10.4502 9.13887 10.3701 9.05078C10.3661 9.04641 10.3612 9.04069 10.3369 9.01563L9.61134 8.26758H2.38868L1.66309 9.01563C1.63881 9.04069 1.63387 9.04641 1.62989 9.05078C1.54985 9.13887 1.50369 9.2531 1.50001 9.37207C1.49983 9.37793 1.50001 9.38567 1.50001 9.41992C1.50001 9.50129 1.50025 9.51948 1.50098 9.53125C1.51686 9.78256 1.71745 9.98315 1.96876 9.99903C1.98053 9.99976 1.99871 10 2.08009 10H9.91993C10.0013 10 10.0195 9.99976 10.0313 9.99903C10.2826 9.98315 10.4832 9.78256 10.499 9.53125C10.4998 9.51948 10.5 9.5013 10.5 9.41992C10.5 9.38567 10.5002 9.37793 10.5 9.37207ZM9.32325 4C9.32325 3.51469 9.32207 3.20095 9.29102 2.96973C9.26187 2.75286 9.21483 2.68455 9.17677 2.64649C9.13869 2.60847 9.07084 2.56135 8.8545 2.53223C8.62325 2.50114 8.30879 2.5 7.82325 2.5H4.17677C3.69123 2.5 3.37677 2.50114 3.14552 2.53223C2.92917 2.56135 2.86132 2.60847 2.82325 2.64649C2.78519 2.68455 2.73815 2.75286 2.70899 2.96973C2.67794 3.20095 2.67677 3.51469 2.67677 4V7.26758H9.32325V4ZM10.3232 7.56446L11.0547 8.32032C11.0747 8.34101 11.0926 8.35853 11.1094 8.37696C11.3501 8.64136 11.488 8.9834 11.499 9.34082C11.4998 9.36578 11.5 9.39102 11.5 9.41992C11.5 9.48677 11.5003 9.54358 11.4971 9.59473C11.4494 10.3485 10.8486 10.9494 10.0947 10.9971C10.0436 11.0003 9.98678 11 9.91993 11H2.08009C2.01324 11 1.95643 11.0003 1.90528 10.9971C1.15146 10.9494 0.550634 10.3485 0.502937 9.59473C0.499706 9.54358 0.500007 9.48678 0.500008 9.41992C0.500008 9.39102 0.500214 9.36578 0.500984 9.34082C0.512037 8.9834 0.649874 8.64136 0.890633 8.37696C0.907406 8.35854 0.925277 8.341 0.94532 8.32032L1.67677 7.56446V4C1.67677 3.54273 1.67565 3.14931 1.71778 2.83594C1.76186 2.50825 1.86144 2.19424 2.11622 1.93946C2.37102 1.68473 2.68501 1.58508 3.0127 1.54102C3.32606 1.4989 3.71956 1.5 4.17677 1.5H7.82325C8.28046 1.5 8.67396 1.4989 8.98731 1.54102C9.31501 1.58508 9.62899 1.68473 9.8838 1.93946C10.1386 2.19424 10.2382 2.50825 10.2822 2.83594C10.3244 3.14931 10.3232 3.54273 10.3232 4V7.56446Z" fill="currentColor"/><path d="M7.25001 8.75C7.52615 8.75 7.75001 8.97386 7.75001 9.25 7.75001 9.52614 7.52615 9.75 7.25001 9.75H4.75001C4.47387 9.75 4.25001 9.52614 4.25001 9.25 4.25001 8.97386 4.47387 8.75 4.75001 8.75H7.25001ZM6.37501 3.375C6.37501 3.58211 6.20711 3.75 6.00001 3.75 5.7929 3.75 5.62501 3.58211 5.62501 3.375 5.62501 3.1679 5.7929 3 6.00001 3 6.20711 3 6.37501 3.1679 6.37501 3.375Z" fill="currentColor"/></svg>