<svg width="12" height="12" viewBox="0 0 12 12" fill="none" xmlns="http://www.w3.org/2000/svg"><path d="M11 10C11.2761 10 11.5 10.2239 11.5 10.5C11.5 10.7761 11.2761 11 11 11H1C0.723858 11 0.5 10.7761 0.5 10.5C0.5 10.2239 0.723858 10 1 10H11ZM10 4.5C10 3.77885 9.9986 3.28829 9.94922 2.9209C9.90176 2.56787 9.81832 2.40425 9.70703 2.29297C9.59575 2.18168 9.43213 2.09825 9.0791 2.05078C8.71171 2.0014 8.22115 2 7.5 2H4.5C3.77885 2 3.28829 2.0014 2.9209 2.05078C2.56787 2.09825 2.40425 2.18168 2.29297 2.29297C2.18168 2.40425 2.09824 2.56787 2.05078 2.9209C2.0014 3.28829 2 3.77885 2 4.5V7C2 7.48529 2.00118 7.79906 2.03223 8.03027C2.06138 8.24714 2.10842 8.31545 2.14648 8.35352C2.18455 8.39158 2.25286 8.43862 2.46973 8.46777C2.70095 8.49882 3.01471 8.5 3.5 8.5H8.5C8.98529 8.5 9.29905 8.49882 9.53027 8.46777C9.74714 8.43862 9.81545 8.39158 9.85352 8.35352C9.89158 8.31545 9.93862 8.24714 9.96777 8.03027C9.99882 7.79906 10 7.48529 10 7V4.5ZM7.5 7C7.77614 7 8 7.22386 8 7.5C8 7.77614 7.77614 8 7.5 8H4.5C4.22386 8 4 7.77614 4 7.5C4 7.22386 4.22386 7 4.5 7H7.5ZM11 7C11 7.45727 11.0011 7.85069 10.959 8.16406C10.9149 8.49176 10.8153 8.80576 10.5605 9.06055C10.3058 9.31534 9.99176 9.41491 9.66406 9.45899C9.35069 9.50112 8.95727 9.5 8.5 9.5H3.5C3.04273 9.5 2.64931 9.50112 2.33594 9.45899C2.00824 9.41491 1.69424 9.31534 1.43945 9.06055C1.18466 8.80576 1.08509 8.49176 1.04102 8.16406C0.998883 7.85069 1 7.45727 1 7V4.5C1 3.80703 0.999132 3.23664 1.05957 2.78711C1.12197 2.32335 1.25797 1.9139 1.58594 1.58594C1.9139 1.25797 2.32335 1.12197 2.78711 1.05957C3.23664 0.999133 3.80703 1 4.5 1H7.5C8.19297 1 8.76336 0.999133 9.21289 1.05957C9.67665 1.12197 10.0861 1.25797 10.4141 1.58594C10.742 1.9139 10.878 2.32335 10.9404 2.78711C11.0009 3.23664 11 3.80703 11 4.5V7Z" fill="currentColor"/></svg>