<svg width="16" height="16" viewBox="0 0 16 16" fill="none" xmlns="http://www.w3.org/2000/svg"><path d="M14.667 13.5C14.9431 13.5 15.167 13.7239 15.167 14C15.167 14.2761 14.9431 14.5 14.667 14.5H1.33398C1.05784 14.5 0.833984 14.2761 0.833984 14C0.833984 13.7239 1.05784 13.5 1.33398 13.5H14.667ZM13.5 6C13.5 5.04308 13.4993 4.37563 13.4316 3.87207C13.3659 3.38289 13.2451 3.12396 13.0605 2.93945C12.876 2.75494 12.6171 2.63413 12.1279 2.56836C11.6244 2.50066 10.9569 2.5 10 2.5H6C5.04308 2.5 4.37563 2.50066 3.87207 2.56836C3.38289 2.63413 3.12396 2.75494 2.93945 2.93945C2.75494 3.12396 2.63413 3.38289 2.56836 3.87207C2.50066 4.37563 2.5 5.04308 2.5 6V9.33301C2.5 9.97548 2.50069 10.4075 2.54395 10.7295C2.58531 11.0371 2.65726 11.169 2.74414 11.2559C2.83102 11.3427 2.96287 11.4147 3.27051 11.4561C3.5925 11.4993 4.02452 11.5 4.66699 11.5H11.333C11.9755 11.5 12.4075 11.4993 12.7295 11.4561C13.0371 11.4147 13.169 11.3427 13.2559 11.2559C13.3427 11.169 13.4147 11.0371 13.4561 10.7295C13.4993 10.4075 13.5 9.97548 13.5 9.33301V6ZM10 9.5C10.2761 9.5 10.5 9.72386 10.5 10C10.5 10.2761 10.2761 10.5 10 10.5H6C5.72386 10.5 5.5 10.2761 5.5 10C5.5 9.72386 5.72386 9.5 6 9.5H10ZM14.5 9.33301C14.5 9.94741 14.5006 10.4591 14.4463 10.8633C14.39 11.2817 14.2665 11.6593 13.9629 11.9629C13.6593 12.2665 13.2817 12.39 12.8633 12.4463C12.4591 12.5006 11.9474 12.5 11.333 12.5H4.66699C4.05259 12.5 3.54086 12.5006 3.13672 12.4463C2.71833 12.39 2.34067 12.2665 2.03711 11.9629C1.73355 11.6593 1.61 11.2817 1.55371 10.8633C1.49937 10.4591 1.5 9.94741 1.5 9.33301V6C1.5 5.07152 1.49943 4.32489 1.57812 3.73926C1.6588 3.13919 1.83114 2.6337 2.23242 2.23242C2.6337 1.83114 3.13919 1.6588 3.73926 1.57813C4.32489 1.49943 5.07152 1.5 6 1.5H10C10.9285 1.5 11.6751 1.49943 12.2607 1.57813C12.8608 1.6588 13.3663 1.83114 13.7676 2.23242C14.1689 2.6337 14.3412 3.13919 14.4219 3.73926C14.5006 4.32489 14.5 5.07152 14.5 6V9.33301Z" fill="currentColor"/></svg>