<svg xmlns="http://www.w3.org/2000/svg" width="16" height="16" fill="currentColor"><path fill="currentColor" d="M11.105 6.614c0-1.578-1.368-2.915-3.09-2.915-1.729 0-3.09 1.331-3.09 2.915V8.26c0 .237-.051.505-.121.745s-.172.493-.297.692l-.001.002-.689 1.087c-.136.216-.138.405-.084.543.055.142.194.295.461.381 2.48.788 5.156.788 7.637 0v-.001c.432-.135.584-.592.375-.924v.001l-.688-1.087-.005-.008a3 3 0 0 1-.287-.688 2.8 2.8 0 0 1-.12-.743zm-4.1 6.648c.055.117.128.225.218.315.198.198.478.322.777.322.438 0 .819-.262.995-.636q-.996.072-1.99-.001M7.999 2.1a.8.8 0 0 0-.34.073c-.129.058-.227.174-.292.404a2 2 0 0 0-.039.179 4.3 4.3 0 0 1 1.363-.002 1.4 1.4 0 0 0-.03-.19c-.04-.161-.102-.253-.18-.31A.82.82 0 0 0 8 2.1m4.106 6.159c0 .11.028.28.081.467.053.18.119.338.177.437l.688 1.087v.001c.581.92.099 2.091-.918 2.411h-.001q-1.017.321-2.063.48A2.104 2.104 0 0 1 8 14.9a2.1 2.1 0 0 1-1.484-.615 2.1 2.1 0 0 1-.584-1.145 13.6 13.6 0 0 1-2.04-.478H3.89c-.511-.164-.908-.509-1.087-.97-.181-.466-.118-.986.17-1.441l.689-1.087c.06-.097.129-.256.183-.44.054-.185.08-.354.08-.464V6.614c0-1.586.981-2.934 2.374-3.552.01-.247.037-.51.107-.757.114-.403.355-.822.84-1.042a1.82 1.82 0 0 1 1.821.18c.328.236.49.57.567.883.06.245.073.499.07.726 1.406.614 2.402 1.97 2.402 3.562z"/></svg>