<svg xmlns="http://www.w3.org/2000/svg" width="20" height="20" fill="currentColor"><path fill="currentColor" d="M13.957 8.267c0-2.018-1.747-3.718-3.938-3.718-2.199 0-3.938 1.693-3.939 3.718v2.055c0 .287-.06.616-.147.911a3.5 3.5 0 0 1-.362.847l-.002.002-.86 1.358c-.182.289-.189.55-.112.747.078.2.271.407.623.52 3.114.99 6.477.99 9.592 0 .583-.184.798-.808.509-1.267l-.86-1.358-.006-.009a3.6 3.6 0 0 1-.351-.842 3.4 3.4 0 0 1-.147-.909zM8.64 16.49a1.46 1.46 0 0 0 1.36.96c.623 0 1.156-.4 1.36-.955-.906.072-1.816.07-2.721-.003M9.999 2.55a1.1 1.1 0 0 0-.606.18c-.133.087-.23.23-.29.464a2 2 0 0 0-.056.346 5.3 5.3 0 0 1 1.902-.007 2 2 0 0 0-.05-.344c-.052-.214-.137-.347-.253-.431a1.1 1.1 0 0 0-.647-.208m5.058 7.773c0 .148.035.368.104.605.066.23.152.436.23.567l.86 1.358v.002c.698 1.106.12 2.516-1.108 2.902l-.001-.001q-1.292.409-2.621.606A2.554 2.554 0 0 1 10 18.55a2.556 2.556 0 0 1-2.523-2.192 17 17 0 0 1-2.593-.602l-.002-.001c-.62-.2-1.096-.615-1.311-1.168-.217-.557-.141-1.182.208-1.734l.858-1.356.062-.11c.062-.124.125-.284.176-.461.07-.236.105-.456.105-.603V8.267c0-1.962 1.221-3.63 2.954-4.385 0-.304.02-.642.103-.965.106-.405.32-.825.751-1.107.348-.229.765-.36 1.21-.36a2.2 2.2 0 0 1 1.29.414c.39.282.585.68.68 1.06.077.317.089.646.083.94 1.757.746 3.005 2.428 3.005 4.403z"/></svg>