<svg xmlns="http://www.w3.org/2000/svg" width="12" height="12" fill="currentColor"><path fill="currentColor" d="M8.253 4.96c0-1.138-.988-2.11-2.242-2.11-1.258 0-2.243.968-2.243 2.11v1.234c0 .188-.04.396-.094.58a2.2 2.2 0 0 1-.23.539l-.001.001-.517.816v-.001c-.092.144-.087.26-.056.34.032.082.116.182.297.241a9.4 9.4 0 0 0 5.683 0h.002c.279-.088.367-.377.238-.581v-.001l-.515-.814-.004-.007a2.3 2.3 0 0 1-.225-.534 2.2 2.2 0 0 1-.093-.579zM5.47 10.13c.136.135.326.22.53.22a.75.75 0 0 0 .61-.32q-.61.036-1.223 0 .038.054.083.1M6 1.65q-.093 0-.173.028c-.084.028-.159.094-.214.279l-.005.019a3.3 3.3 0 0 1 .821.002l-.006-.036c-.027-.11-.066-.161-.106-.19A.54.54 0 0 0 6 1.65m3.154 4.544c0 .074.018.193.057.33.04.135.09.25.13.316h-.002l.512.808h.001c.463.735.076 1.666-.73 1.92a10 10 0 0 1-1.504.355A1.655 1.655 0 0 1 6 11.25a1.654 1.654 0 0 1-1.62-1.33q-.753-.12-1.486-.352h-.002c-.401-.13-.718-.402-.862-.772-.145-.373-.093-.788.135-1.148l.516-.815c.04-.065.09-.177.128-.31a1.3 1.3 0 0 0 .058-.329V4.961c0-1.208.739-2.232 1.789-2.714.013-.182.04-.37.094-.549.105-.35.331-.72.79-.874a1.45 1.45 0 0 1 1.302.198c.265.191.394.459.454.706.043.175.055.354.055.516 1.055.481 1.802 1.508 1.802 2.717z"/></svg>