<svg xmlns="http://www.w3.org/2000/svg" width="12" height="12" fill="currentColor"><path fill="currentColor" d="M2.501 8.419q.264 0 .46.096a.76.76 0 0 1 .309.258.62.62 0 0 1 .109.363.5.5 0 0 1-.134.356.6.6 0 0 1-.347.182v.02q.282.036.428.195a.55.55 0 0 1 .147.395q.001.217-.125.387a.84.84 0 0 1-.347.266 1.3 1.3 0 0 1-.508.097q-.278 0-.495-.096a.85.85 0 0 1-.342-.266.67.67 0 0 1-.128-.393h.541a.3.3 0 0 0 .062.164.4.4 0 0 0 .151.109.6.6 0 0 0 .213.038.5.5 0 0 0 .217-.043.36.36 0 0 0 .148-.121.3.3 0 0 0 .054-.178.3.3 0 0 0-.058-.18.37.37 0 0 0-.16-.125.6.6 0 0 0-.25-.044H2.21v-.395h.237a.5.5 0 0 0 .215-.042.35.35 0 0 0 .147-.117.3.3 0 0 0 .052-.177.31.31 0 0 0-.172-.282.5.5 0 0 0-.389-.001.35.35 0 0 0-.146.11.3.3 0 0 0-.058.17H1.58a.66.66 0 0 1 .125-.389.8.8 0 0 1 .328-.261q.208-.096.469-.096M10 9.999H5v-1h5zm-7.52-5.08q.273 0 .475.097a.76.76 0 0 1 .317.265.7.7 0 0 1 .113.39.8.8 0 0 1-.057.286 1.2 1.2 0 0 1-.2.312q-.144.17-.406.409l-.372.364v.017h1.069v.44H1.604v-.388l.906-.839a4 4 0 0 0 .194-.2.8.8 0 0 0 .12-.176.4.4 0 0 0 .041-.188.35.35 0 0 0-.05-.192.34.34 0 0 0-.14-.126.44.44 0 0 0-.2-.045.4.4 0 0 0-.204.048.33.33 0 0 0-.133.134.44.44 0 0 0-.048.211h-.51q0-.25.112-.434a.76.76 0 0 1 .317-.284q.204-.101.47-.101M10 6.499H5v-1h5zm-7.042-2.5h-.539V1.965h-.015l-.583.365v-.477l.631-.4h.506zm7.042-1H5v-1h5z"/></svg>