<svg xmlns="http://www.w3.org/2000/svg" width="16" height="16" fill="currentColor"><path fill="currentColor" d="M2.501 11.05q.301 0 .527.11.226.108.35.295a.7.7 0 0 1 .126.415q0 .245-.151.407a.7.7 0 0 1-.397.207v.024q.321.04.488.223a.63.63 0 0 1 .168.452.7.7 0 0 1-.143.441.96.96 0 0 1-.397.304 1.4 1.4 0 0 1-.579.111q-.318 0-.567-.11a1 1 0 0 1-.39-.304.76.76 0 0 1-.147-.448h.62q.006.106.07.187a.4.4 0 0 0 .172.123q.108.044.243.044a.6.6 0 0 0 .25-.049.4.4 0 0 0 .168-.138.35.35 0 0 0 .06-.203.34.34 0 0 0-.065-.206.4.4 0 0 0-.184-.142.7.7 0 0 0-.285-.05h-.271v-.453h.271a.6.6 0 0 0 .247-.048.35.35 0 0 0 .228-.336.35.35 0 0 0-.2-.322.56.56 0 0 0-.444-.001.4.4 0 0 0-.165.126.33.33 0 0 0-.067.193h-.59a.76.76 0 0 1 .144-.443.93.93 0 0 1 .375-.3q.237-.11.535-.11M14 12.999H5v-1h9zM2.476 6.55q.312 0 .545.111a.86.86 0 0 1 .36.304q.13.195.13.446 0 .165-.065.325a1.4 1.4 0 0 1-.228.357q-.165.195-.465.468l-.425.416v.02H3.55v.502H1.476v-.443l1.036-.96q.132-.126.221-.229a1 1 0 0 0 .138-.2.5.5 0 0 0 .047-.215.4.4 0 0 0-.059-.22.4.4 0 0 0-.159-.143.5.5 0 0 0-.228-.052.5.5 0 0 0-.233.055.37.37 0 0 0-.154.154.5.5 0 0 0-.054.24h-.584a.87.87 0 0 1 .492-.821q.233-.114.537-.115M14 8.499H5v-1h9zm-10.978-3.5h-.614V2.674h-.017l-.666.418v-.546l.72-.456h.577zm10.978-1H5v-1h9z"/></svg>