<svg xmlns="http://www.w3.org/2000/svg" width="20" height="20" fill="currentColor"><path fill="currentColor" fill-rule="evenodd" d="M4.32 16.995h.362v.492H4.32V18h-.588v-.512H2.336v-.484L3.55 15.09h.77zm-1.364-.023v.023h.788v-1.234h-.022z" clip-rule="evenodd"/><path fill="currentColor" d="M17 16.999H6v-1h11zM3.501 10.717q.301 0 .527.11.226.108.35.295.128.184.126.414 0 .245-.151.408a.7.7 0 0 1-.397.207v.023q.321.04.488.224a.63.63 0 0 1 .168.45.7.7 0 0 1-.143.443.96.96 0 0 1-.397.304q-.252.11-.579.11-.318 0-.567-.11a1 1 0 0 1-.39-.303.77.77 0 0 1-.147-.45h.62q.006.108.07.188a.43.43 0 0 0 .172.124q.108.044.243.044a.6.6 0 0 0 .25-.05.4.4 0 0 0 .168-.137.35.35 0 0 0 .06-.203.34.34 0 0 0-.065-.206.4.4 0 0 0-.184-.142.7.7 0 0 0-.285-.052h-.271v-.451h.271a.6.6 0 0 0 .247-.049.35.35 0 0 0 .228-.335.35.35 0 0 0-.2-.322.56.56 0 0 0-.444-.002.4.4 0 0 0-.165.127.33.33 0 0 0-.067.193h-.59a.76.76 0 0 1 .144-.443.93.93 0 0 1 .375-.3q.237-.11.535-.11M17 12.666H6v-1h11zM3.476 6.384q.312 0 .545.11a.86.86 0 0 1 .36.304.8.8 0 0 1 .13.446q0 .165-.065.325a1.4 1.4 0 0 1-.228.357q-.165.195-.465.468l-.425.416v.02H4.55v.502H2.476V8.89l1.036-.96q.132-.128.221-.23a1 1 0 0 0 .138-.2.5.5 0 0 0 .047-.215.4.4 0 0 0-.059-.22.4.4 0 0 0-.159-.143.5.5 0 0 0-.228-.05.5.5 0 0 0-.233.053.37.37 0 0 0-.154.154.5.5 0 0 0-.054.24h-.584q0-.285.13-.495A.86.86 0 0 1 2.94 6.5q.233-.115.537-.115M17 8.332H6v-1h11zM4.022 4.999h-.614V2.674h-.017l-.666.418v-.546l.72-.456h.577zm12.978-1H6v-1h11z"/></svg>