<svg xmlns="http://www.w3.org/2000/svg" width="12" height="12" fill="currentColor"><path fill="currentColor" fill-rule="evenodd" d="M5.103 1.005a1 1 0 0 1 .892.892L6 2v3a1 1 0 0 1-.897.995L5 6H2.95v1H3a1 1 0 0 1 1 1v.571a.5.5 0 0 1 .134-.021H5V8l.005-.103A1 1 0 0 1 6 7h4l.102.005a1 1 0 0 1 .893.892L11 8v2l-.005.102a1 1 0 0 1-.893.893L10 11H6a1 1 0 0 1-.995-.898L5 10v-.55h-.866A.5.5 0 0 1 4 9.428V10a1 1 0 0 1-1 1H2a1 1 0 0 1-1-1V8l.005-.103A1 1 0 0 1 2 7h.05V6H2a1 1 0 0 1-.995-.897L1 5V2l.005-.103A1 1 0 0 1 2 1h3zM2 7.9a.1.1 0 0 0-.1.1v2a.1.1 0 0 0 .1.1h1a.1.1 0 0 0 .1-.1V8a.1.1 0 0 0-.1-.1zm4 0a.1.1 0 0 0-.1.1v2a.1.1 0 0 0 .1.1h4a.1.1 0 0 0 .1-.1V8a.1.1 0 0 0-.1-.1zm-4-6a.1.1 0 0 0-.1.1v3a.1.1 0 0 0 .1.1h3a.1.1 0 0 0 .1-.1V2a.1.1 0 0 0-.1-.1z" clip-rule="evenodd"/><path fill="currentColor" d="M8.5 1.55a.45.45 0 0 1 .45.45v1.05H10a.45.45 0 0 1 0 .9H8.95V5a.45.45 0 0 1-.9 0V3.95H7a.45.45 0 0 1 0-.9h1.05V2a.45.45 0 0 1 .45-.45"/></svg>