<svg xmlns="http://www.w3.org/2000/svg" width="16" height="16" fill="currentColor"><path fill="currentColor" fill-rule="evenodd" d="M7.103 2.005a1 1 0 0 1 .892.892L8 3v1h2V3a1 1 0 0 1 1-1h2l.102.005a1 1 0 0 1 .893.892L14 3v3l-.005.103A1 1 0 0 1 13 7h-2a1 1 0 0 1-1-1V5H8v1a1 1 0 0 1-.897.995L7 7H4v2l.096.005a1 1 0 0 1 .9.892L5 10v1h2v-1l.005-.103A1 1 0 0 1 8 9h5l.102.005a1 1 0 0 1 .893.892L14 10v3a1 1 0 0 1-.898.995L13 14H8a1 1 0 0 1-.995-.898L7 13v-1H5v1l-.005.102A1 1 0 0 1 4 14H3a1 1 0 0 1-1-1v-3a1 1 0 0 1 .897-.995L3 9V7l-.096-.005a1 1 0 0 1-.9-.892L2 6V3l.005-.103A1 1 0 0 1 3 2h4zM3 13h1v-3H3zm5 0h5v-3H8zM3 6h4V3H3zm8 0h2V3h-2z" clip-rule="evenodd"/></svg>