<svg xmlns="http://www.w3.org/2000/svg" width="20" height="20" fill="currentColor"><path fill="currentColor" d="M8.7 2A1.3 1.3 0 0 1 10 3.3V5h3V3.3A1.3 1.3 0 0 1 14.3 2h2.4A1.3 1.3 0 0 1 18 3.3v4.4A1.3 1.3 0 0 1 16.7 9h-2.4A1.3 1.3 0 0 1 13 7.7V6h-3v1.7A1.3 1.3 0 0 1 8.7 9H5v2h.7A1.3 1.3 0 0 1 7 12.3v1.699h2v-1.7A1.3 1.3 0 0 1 10.3 11h6.4a1.3 1.3 0 0 1 1.3 1.3v4.4a1.3 1.3 0 0 1-1.3 1.3h-6.4A1.3 1.3 0 0 1 9 16.7V15H7v1.7A1.3 1.3 0 0 1 5.7 18H3.3A1.3 1.3 0 0 1 2 16.7v-4.4A1.3 1.3 0 0 1 3.3 11H4V9h-.7A1.3 1.3 0 0 1 2 7.7V3.3A1.3 1.3 0 0 1 3.3 2z"/></svg>