<svg xmlns="http://www.w3.org/2000/svg" width="12" height="12" fill="currentColor"><path fill="currentColor" fill-rule="evenodd" d="M5.103 1.005a1 1 0 0 1 .892.892L6 2v1.05h2V2a1 1 0 0 1 1-1h1a1 1 0 0 1 .995.897L11 2v3l-.005.103A1 1 0 0 1 10 6H9a1 1 0 0 1-1-1V3.95H6V5a1 1 0 0 1-.897.995L5 6H2.95v1H3a1 1 0 0 1 1 1v.55h1V8l.005-.103A1 1 0 0 1 6 7h4l.102.005a1 1 0 0 1 .893.892L11 8v2l-.005.102a1 1 0 0 1-.893.893L10 11H6a1 1 0 0 1-.995-.898L5 10v-.55H4V10a1 1 0 0 1-1 1H2a1 1 0 0 1-1-1V8l.005-.103A1 1 0 0 1 2 7h.05V6H2a1 1 0 0 1-.995-.897L1 5V2l.005-.103A1 1 0 0 1 2 1h3zM2 7.9a.1.1 0 0 0-.1.1v2a.1.1 0 0 0 .1.1h1a.1.1 0 0 0 .1-.1V8a.1.1 0 0 0-.1-.1zm4 0a.1.1 0 0 0-.1.1v2a.1.1 0 0 0 .1.1h4a.1.1 0 0 0 .1-.1V8a.1.1 0 0 0-.1-.1zm-4-6a.1.1 0 0 0-.1.1v3a.1.1 0 0 0 .1.1h3a.1.1 0 0 0 .1-.1V2a.1.1 0 0 0-.1-.1zm7 0a.1.1 0 0 0-.1.1v3a.1.1 0 0 0 .1.1h1a.1.1 0 0 0 .1-.1V2a.1.1 0 0 0-.1-.1z" clip-rule="evenodd"/></svg>