<svg xmlns="http://www.w3.org/2000/svg" width="20" height="20" fill="currentColor"><path fill="currentColor" fill-rule="evenodd" d="M8.833 2.007a1.3 1.3 0 0 1 1.16 1.16L10 3.3v4.4a1.3 1.3 0 0 1-1.167 1.293L8.7 9H5.05v2h.65l.133.007a1.3 1.3 0 0 1 1.16 1.16L7 12.3v1.65h2V12.3l.007-.133A1.3 1.3 0 0 1 10.3 11h6.4l.133.007a1.3 1.3 0 0 1 1.16 1.16L18 12.3v4.4a1.3 1.3 0 0 1-1.167 1.293L16.7 18h-6.4A1.3 1.3 0 0 1 9 16.7v-1.65H7v1.65a1.3 1.3 0 0 1-1.167 1.293L5.7 18H3.3A1.3 1.3 0 0 1 2 16.7v-4.4l.007-.133A1.3 1.3 0 0 1 3.3 11h.65V9H3.3A1.3 1.3 0 0 1 2 7.7V3.3l.007-.133A1.3 1.3 0 0 1 3.3 2h5.4zM3.3 12.1a.2.2 0 0 0-.2.2v4.4c0 .11.09.2.2.2h2.4a.2.2 0 0 0 .2-.2v-4.4a.2.2 0 0 0-.2-.2zm7 0a.2.2 0 0 0-.2.2v4.4c0 .11.09.2.2.2h6.4a.2.2 0 0 0 .2-.2v-4.4a.2.2 0 0 0-.2-.2zm-7-9a.2.2 0 0 0-.2.2v4.4c0 .11.09.2.2.2h5.4a.2.2 0 0 0 .2-.2V3.3a.2.2 0 0 0-.2-.2z" clip-rule="evenodd"/><path fill="currentColor" d="M14.5 2.45a.55.55 0 0 1 .55.55v1.95H17a.55.55 0 1 1 0 1.1h-1.95V8a.55.55 0 1 1-1.1 0V6.05H12a.55.55 0 1 1 0-1.1h1.95V3a.55.55 0 0 1 .55-.55"/></svg>