<svg xmlns="http://www.w3.org/2000/svg" width="12" height="12" fill="currentColor"><path fill="currentColor" d="M7.745 2.754a.45.45 0 0 1 .623-.129 4.4 4.4 0 0 1 1.982 3.682c0 2.42-1.943 4.39-4.35 4.39s-4.35-1.97-4.35-4.39c0-1.542.789-2.9 1.981-3.682a.45.45 0 0 1 .494.752 3.5 3.5 0 0 0-1.575 2.93c0 1.93 1.55 3.489 3.45 3.489s3.45-1.558 3.45-3.49a3.5 3.5 0 0 0-1.575-2.929.45.45 0 0 1-.13-.623"/><path fill="currentColor" d="M6 1.8a.45.45 0 0 1 .45.451v3.3a.45.45 0 1 1-.9 0v-3.3a.45.45 0 0 1 .45-.45"/></svg>