<svg xmlns="http://www.w3.org/2000/svg" width="20" height="20" fill="currentColor"><path fill="currentColor" d="M13.077 4.698a.55.55 0 0 1 .76-.158 7.13 7.13 0 0 1 3.213 5.97c0 3.924-3.151 7.115-7.05 7.115s-7.05-3.19-7.05-7.115a7.13 7.13 0 0 1 3.212-5.97.55.55 0 0 1 .604.92 6.03 6.03 0 0 0-2.716 5.05c0 3.327 2.67 6.015 5.95 6.015s5.95-2.688 5.95-6.015a6.03 6.03 0 0 0-2.716-5.05.55.55 0 0 1-.157-.762"/><path fill="currentColor" d="M10 3a.55.55 0 0 1 .55.55v5.9a.55.55 0 0 1-1.1 0v-5.9A.55.55 0 0 1 10 3"/></svg>