<svg xmlns="http://www.w3.org/2000/svg" width="12" height="12" fill="currentColor"><path fill="currentColor" d="M3.932 4.433a.45.45 0 0 1 .636.636l-.481.482H7.5a.45.45 0 0 1 0 .9H4.087l.481.482a.45.45 0 0 1-.636.636l-1.25-1.25a.45.45 0 0 1 0-.636zM3.55 3.2v-.25H2.5a.55.55 0 0 0-.55.55v5c0 .304.246.55.55.55h1.05V8.8a.45.45 0 0 1 .9 0v.9c0 .47.38.85.85.85h3.9c.47 0 .85-.38.85-.85V2.3a.85.85 0 0 0-.85-.85H5.3a.85.85 0 0 0-.85.85v.9a.45.45 0 0 1-.9 0m7.4 6.5a1.75 1.75 0 0 1-1.75 1.75H5.3a1.75 1.75 0 0 1-1.73-1.5H2.5c-.8 0-1.45-.65-1.45-1.45v-5c0-.8.65-1.45 1.45-1.45h1.07A1.75 1.75 0 0 1 5.3.55h3.9c.966 0 1.75.783 1.75 1.75z"/></svg>