<svg xmlns="http://www.w3.org/2000/svg" width="16" height="16" fill="currentColor"><path fill="currentColor" d="M5.44 6.006a.5.5 0 0 1 .675.738l-.827.756H10.4a.5.5 0 0 1 0 1H5.288l.827.756a.5.5 0 0 1-.675.738L3.663 8.37a.5.5 0 0 1 0-.738zM5 4.5V4H3.5a1 1 0 0 0-1 1v6a1 1 0 0 0 1 1H5v-.5a.5.5 0 0 1 1 0v1A1.5 1.5 0 0 0 7.5 14H12a1.5 1.5 0 0 0 1.5-1.5v-9A1.5 1.5 0 0 0 12 2H7.5A1.5 1.5 0 0 0 6 3.5v1a.5.5 0 0 1-1 0m9.5 8A2.5 2.5 0 0 1 12 15H7.5a2.5 2.5 0 0 1-2.45-2H3.5a2 2 0 0 1-2-2V5a2 2 0 0 1 2-2h1.55A2.5 2.5 0 0 1 7.5 1H12a2.5 2.5 0 0 1 2.5 2.5z"/></svg>