<svg width="12" height="12" viewBox="0 0 12 12" fill="none" xmlns="http://www.w3.org/2000/svg"><path d="M10 4C10 3.27884 9.9986 2.7883 9.94922 2.4209C9.90176 2.06787 9.81832 1.90425 9.70704 1.79297C9.59575 1.68171 9.43208 1.59824 9.07911 1.55078C8.71172 1.50142 8.22109 1.5 7.5 1.5H7C6.27884 1.5 5.78829 1.50139 5.4209 1.55078C5.06788 1.59825 4.90426 1.68168 4.79297 1.79297C4.69477 1.89119 4.61944 2.02872 4.57032 2.2959C4.51856 2.57766 4.50403 2.95518 4.50098 3.50293C4.49937 3.779 4.27414 4.00154 3.99805 4C3.72198 3.99838 3.49944 3.77316 3.50098 3.49707C3.50247 3.22968 3.50555 2.98152 3.51758 2.75293C3.16922 2.7557 2.90661 2.76263 2.69532 2.79102C2.41037 2.82933 2.2944 2.89505 2.21973 2.96973C2.14506 3.0444 2.07933 3.16037 2.04102 3.44531C2.00082 3.74461 2 4.14682 2 4.75V7.25C2 7.85318 2.00082 8.25539 2.04102 8.55469C2.07933 8.83964 2.14506 8.9556 2.21973 9.03027C2.2944 9.10495 2.41037 9.17068 2.69532 9.20899C2.90661 9.23737 3.16922 9.24333 3.51758 9.24609C3.51164 9.13303 3.50852 9.01516 3.50586 8.89258L3.50098 8.50293L3.51075 8.40234C3.55596 8.17413 3.75638 8.00142 3.99805 8C4.23966 7.99866 4.44234 8.16892 4.49024 8.39648L4.50098 8.49707L4.50586 8.87695C4.51363 9.2274 4.53149 9.49273 4.57032 9.7041C4.61944 9.97128 4.69477 10.1088 4.79297 10.207C4.90426 10.3183 5.06788 10.4018 5.4209 10.4492C5.78829 10.4986 6.27884 10.5 7 10.5H7.5C8.22109 10.5 8.71172 10.4986 9.07911 10.4492C9.43208 10.4018 9.59575 10.3183 9.70704 10.207C9.81832 10.0957 9.90176 9.93213 9.94922 9.5791C9.9986 9.21171 10 8.72116 10 8V4ZM3.64649 4.64648C3.84175 4.45122 4.15826 4.45122 4.35352 4.64648C4.54878 4.84175 4.54878 5.15825 4.35352 5.35352L4.20704 5.5H7.5L7.60059 5.50977C7.82856 5.55629 8 5.75829 8 6C8 6.24171 7.82856 6.44371 7.60059 6.49023L7.5 6.5H4.20704L4.35352 6.64648L4.41797 6.72461C4.54614 6.91869 4.52438 7.18265 4.35352 7.35352C4.18266 7.52438 3.91869 7.54613 3.72461 7.41797L3.64649 7.35352L2.64649 6.35352C2.45123 6.15825 2.45123 5.84175 2.64649 5.64648L3.64649 4.64648ZM11 8C11 8.69297 11.0009 9.26336 10.9404 9.71289C10.878 10.1766 10.742 10.5861 10.4141 10.9141C10.0861 11.242 9.67667 11.378 9.2129 11.4404C8.76336 11.5009 8.19298 11.5 7.5 11.5H7C6.30708 11.5 5.73662 11.5009 5.28711 11.4404C4.8234 11.378 4.41388 11.242 4.08594 10.9141C3.8912 10.7193 3.76504 10.4949 3.68067 10.2471C3.24452 10.2458 2.87011 10.2417 2.56153 10.2002C2.16577 10.147 1.80409 10.0287 1.5127 9.73731C1.22131 9.44591 1.10304 9.08424 1.04981 8.68848C0.998524 8.30702 1 7.82512 1 7.25V4.75C1 4.17488 0.998524 3.69298 1.04981 3.31152C1.10304 2.91577 1.22131 2.55409 1.5127 2.2627C1.80409 1.9713 2.16577 1.85304 2.56153 1.79981C2.87011 1.75832 3.24451 1.7532 3.68067 1.75195C3.76504 1.50444 3.89143 1.28047 4.08594 1.08594C4.41388 0.757998 4.8234 0.621972 5.28711 0.559571C5.73662 0.499136 6.30708 0.500001 7 0.500001H7.5C8.19298 0.500001 8.76336 0.499133 9.2129 0.559571C9.67667 0.621956 10.0861 0.757987 10.4141 1.08594C10.742 1.4139 10.878 1.82336 10.9404 2.28711C11.0009 2.73664 11 3.30703 11 4V8Z" fill="currentColor"/></svg>