<svg width="12" height="12" viewBox="0 0 12 12" fill="none" xmlns="http://www.w3.org/2000/svg"><path d="M7.24703 6.0731C7.84801 5.48496 8.76825 5.31022 9.50386 5.72056L10.0859 6.04576C11.2188 6.67837 11.2725 8.19802 10.3847 9.0858C9.92521 9.54524 9.29962 9.96849 8.55269 9.99693C7.48343 10.0375 5.71985 9.75979 3.98043 8.02037C2.241 6.28094 1.96333 4.51737 2.00386 3.4481C2.0323 2.70117 2.45555 2.07558 2.915 1.61607C3.80278 0.72829 5.32242 0.782003 5.95503 1.9149L6.28023 2.49693C6.68944 3.23052 6.51488 4.14586 5.93062 4.74693C5.92974 4.74829 5.92842 4.75061 5.92671 4.75377C5.91952 4.76718 5.90665 4.79741 5.90425 4.84556C5.90024 4.92754 5.92291 5.19137 6.36617 5.63462C6.80941 6.07787 7.07324 6.10056 7.15523 6.09654C7.20338 6.09415 7.23361 6.08127 7.24703 6.07408V6.0731ZM5.08199 2.4022C4.82987 1.95105 4.12696 1.81817 3.62203 2.3231C3.24482 2.70038 3.01757 3.10004 3.00289 3.48619C2.97108 4.32506 3.17631 5.80219 4.68746 7.31334C6.19861 8.82448 7.67573 9.02971 8.51461 8.99791C8.90075 8.98322 9.30041 8.75597 9.67769 8.37877C10.1826 7.87384 10.0497 7.17092 9.59859 6.9188L9.01656 6.59459C8.70921 6.42306 8.26121 6.47498 7.93941 6.79673L7.58589 6.44322C7.93025 6.7876 7.93949 6.79717 7.93941 6.79771L7.93843 6.79869L7.93648 6.79966C7.93569 6.80044 7.93538 6.80176 7.93453 6.80259C7.93259 6.80448 7.92995 6.80632 7.92769 6.80845C7.92295 6.81293 7.91727 6.8186 7.91109 6.82408C7.89881 6.83495 7.88327 6.84725 7.86519 6.86119C7.82883 6.88921 7.77986 6.92314 7.71871 6.95591C7.59557 7.02185 7.42227 7.08486 7.20406 7.09556C6.75272 7.11768 6.23025 6.91277 5.65914 6.34166C5.08802 5.77054 4.88311 5.24808 4.90523 4.79673C4.91594 4.57853 4.97893 4.40522 5.04488 4.28209C5.07765 4.22093 5.11158 4.17196 5.13961 4.1356C5.15355 4.11752 5.16584 4.10198 5.17671 4.0897C5.18219 4.08353 5.18786 4.07785 5.19234 4.0731C5.19448 4.07084 5.19631 4.06821 5.1982 4.06627L5.20308 4.06138C5.20352 4.06131 5.20992 4.06741 5.40718 4.26451L5.20406 4.06138C5.52581 3.73959 5.57773 3.29158 5.40621 2.98423L5.08199 2.4022ZM7.24117 6.08091C7.23995 6.08206 7.23865 6.08348 7.23726 6.08482C7.24004 6.08206 7.24228 6.07877 7.24507 6.07603L7.24117 6.08091ZM7.25484 6.06919L7.24507 6.07603C7.24589 6.07523 7.24621 6.0739 7.24703 6.0731C7.25108 6.07089 7.25392 6.06982 7.25484 6.06919Z" fill="currentColor"/></svg>