<svg xmlns="http://www.w3.org/2000/svg" width="20" height="20" fill="currentColor"><path fill="currentColor" d="M12.756 11.316a.18.18 0 0 1 .005-.138l2.386-5.226a.18.18 0 0 1 .239-.09l.355.163a.18.18 0 0 0 .238-.09l.474-1.036a.18.18 0 0 0-.09-.239L9.868 1.695a.18.18 0 0 0-.238.089L9.156 2.82a.18.18 0 0 0 .09.238l.354.162a.18.18 0 0 1 .09.239L7.302 8.686a.18.18 0 0 1-.1.094l-1.849.69a.18.18 0 0 0-.1.093l-.518 1.133a.18.18 0 0 0 .09.239l3.083 1.408a.18.18 0 0 1 .089.238l-1.72 3.766a.18.18 0 0 0 .09.239l1.037.473a.18.18 0 0 0 .238-.089l1.72-3.766a.18.18 0 0 1 .238-.089l3.084 1.408a.18.18 0 0 0 .238-.089l.518-1.133a.18.18 0 0 0 .004-.137z"/></svg>