<svg xmlns="http://www.w3.org/2000/svg" width="16" height="16" fill="currentColor"><path fill="currentColor" d="M10.208 9.067a.18.18 0 0 1 .005-.138L12.1 4.794a.18.18 0 0 1 .238-.089l.218.1a.18.18 0 0 0 .239-.09l.349-.763a.18.18 0 0 0-.09-.239l-5.13-2.342a.18.18 0 0 0-.238.089l-.349.764a.18.18 0 0 0 .089.238l.218.1a.18.18 0 0 1 .09.239L5.845 6.935a.18.18 0 0 1-.1.094l-1.45.541a.18.18 0 0 0-.102.094l-.392.86a.18.18 0 0 0 .089.239l2.401 1.096a.18.18 0 0 1 .09.239l-1.346 2.947a.18.18 0 0 0 .089.239l.764.349a.18.18 0 0 0 .238-.09l1.346-2.947a.18.18 0 0 1 .238-.089l2.402 1.097a.18.18 0 0 0 .239-.09l.392-.86a.18.18 0 0 0 .005-.137z"/></svg>