<svg xmlns="http://www.w3.org/2000/svg" width="20" height="20" fill="currentColor"><path fill="currentColor" d="M13.054 10.053A.18.18 0 0 1 13 9.925V4.18c0-.1.08-.18.18-.18h.39c.1 0 .18-.08.18-.18V2.68c0-.1-.08-.18-.18-.18H6.43c-.1 0-.18.08-.18.18v1.14c0 .1.08.18.18.18h.39c.1 0 .18.08.18.18v5.745a.18.18 0 0 1-.053.128l-1.394 1.394a.18.18 0 0 0-.053.128v1.245c0 .1.08.18.18.18h3.39c.1 0 .18.08.18.18v4.14c0 .1.08.18.18.18h1.14c.1 0 .18-.08.18-.18v-4.14c0-.1.08-.18.18-.18h3.39c.1 0 .18-.08.18-.18v-1.245a.18.18 0 0 0-.053-.128z"/></svg>