<svg xmlns="http://www.w3.org/2000/svg" width="12" height="12" fill="currentColor"><g clip-path="url(#a)"><path fill="currentColor" d="M8.148 7.351a.2.2 0 0 1 .007-.15l1.723-3.775a.2.2 0 0 1 .265-.099l.126.058a.2.2 0 0 0 .265-.099l.294-.644a.2.2 0 0 0-.099-.265L6.195.307a.2.2 0 0 0-.265.099l-.294.643a.2.2 0 0 0 .1.265l.125.058a.2.2 0 0 1 .099.265L4.236 5.412a.2.2 0 0 1-.11.103l-1.288.501a.2.2 0 0 0-.109.104l-.343.751a.2.2 0 0 0 .099.265l2.183.997a.2.2 0 0 1 .099.265l-1.215 2.66a.2.2 0 0 0 .1.264l.42.192a.2.2 0 0 0 .264-.099L5.55 8.756a.2.2 0 0 1 .265-.099l2.183.997a.2.2 0 0 0 .265-.099l.344-.751a.2.2 0 0 0 .006-.15z"/></g><defs><clipPath id="a"><path fill="currentColor" d="M0 0h12v12H0z"/></clipPath></defs></svg>