<svg xmlns="http://www.w3.org/2000/svg" width="16" height="16" fill="currentColor"><path fill="currentColor" d="M10.452 8.053a.18.18 0 0 1-.053-.128V3.38c0-.1.081-.18.18-.18h.24c.1 0 .18-.08.18-.18v-.84c0-.1-.08-.18-.18-.18H5.18c-.1 0-.18.08-.18.18v.84c0 .1.081.18.18.18h.24c.1 0 .18.08.18.18v4.545a.18.18 0 0 1-.052.128L4.452 9.147a.18.18 0 0 0-.053.128v.945c0 .1.081.18.18.18h2.64c.1 0 .18.08.18.18v3.24c0 .1.081.18.18.18h.84c.1 0 .18-.08.18-.18v-3.24c0-.1.081-.18.18-.18h2.64c.1 0 .18-.08.18-.18v-.945a.18.18 0 0 0-.052-.128z"/></svg>