<svg width="12" height="12" viewBox="0 0 12 12" fill="none" xmlns="http://www.w3.org/2000/svg"><path d="M8.14835 7.35162C8.13084 7.30259 8.13315 7.24866 8.15478 7.20129L9.87843 3.42665C9.92431 3.32617 10.043 3.28191 10.1434 3.32779L10.2694 3.38531C10.3699 3.43119 10.4885 3.38693 10.5344 3.28645L10.8284 2.6427C10.8742 2.54223 10.83 2.42358 10.7295 2.3777L6.19526 0.307182C6.09478 0.2613 5.97614 0.305558 5.93025 0.406035L5.63629 1.04979C5.59041 1.15026 5.63467 1.26891 5.73515 1.31479L5.8611 1.37231C5.96157 1.41819 6.00583 1.53683 5.95995 1.63731L4.2363 5.41196C4.21467 5.45932 4.17542 5.49638 4.1269 5.51527L2.8385 6.01665C2.78998 6.03553 2.75073 6.07259 2.72911 6.11996L2.3858 6.87178C2.33991 6.97225 2.38417 7.0909 2.48465 7.13678L4.6678 8.1337C4.76828 8.17958 4.81254 8.29823 4.76666 8.3987L3.55246 11.0577C3.50658 11.1581 3.55084 11.2768 3.65132 11.3227L4.07115 11.5144C4.17163 11.5603 4.29028 11.516 4.33616 11.4155L5.55035 8.75657C5.59623 8.65609 5.71488 8.61184 5.81536 8.65772L7.99851 9.65463C8.09899 9.70051 8.21764 9.65626 8.26352 9.55578L8.60683 8.80396C8.62846 8.7566 8.63076 8.70267 8.61325 8.65363L8.14835 7.35162Z" fill="currentColor"/></svg>