<svg width="16" height="16" viewBox="0 0 16 16" fill="none" xmlns="http://www.w3.org/2000/svg"><g clip-path="url(#a)"><path d="M14.1665 8.00098C14.1665 4.59533 11.4061 1.83416 8.00049 1.83398C4.59473 1.83398 1.8335 4.59522 1.8335 8.00098C1.83367 11.4066 4.59484 14.167 8.00049 14.167C11.406 14.1668 14.1663 11.4065 14.1665 8.00098ZM9.8335 8.00098C9.8335 7.89881 9.80701 7.81194 9.68506 7.66992C9.54165 7.50294 9.31499 7.31528 8.94287 7.01172C8.75054 6.85482 8.5641 6.71013 8.39697 6.59277C8.25061 6.49 8.08124 6.38155 7.90186 6.27246C7.52468 6.0431 7.30752 5.91377 7.14795 5.85645C7.10401 5.84067 7.07805 5.8374 7.06592 5.83594C7.04833 5.8498 6.99917 5.89725 6.95654 6.11719C6.9098 6.3584 6.88985 6.69638 6.85986 7.21484C6.84372 7.494 6.8335 7.76336 6.8335 8.00098C6.8335 8.23841 6.84374 8.50723 6.85986 8.78613C6.88983 9.30438 6.90984 9.6426 6.95654 9.88379C6.99855 10.1006 7.04673 10.1504 7.06494 10.165C7.07667 10.1637 7.10278 10.1608 7.14795 10.1445C7.30752 10.0872 7.52468 9.95788 7.90186 9.72852C8.08123 9.61943 8.25063 9.51097 8.39697 9.4082C8.56409 9.29085 8.75056 9.14712 8.94287 8.99023C9.31491 8.68675 9.5416 8.49897 9.68506 8.33203C9.80689 8.19015 9.83345 8.10301 9.8335 8.00098ZM10.8335 8.00098C10.8334 8.39859 10.6801 8.70822 10.4438 8.9834C10.229 9.23346 9.91868 9.48405 9.57471 9.76465C9.37139 9.9305 9.16466 10.0907 8.97119 10.2266C8.80141 10.3458 8.61264 10.4667 8.42139 10.583C8.08363 10.7884 7.76389 10.9861 7.48584 11.0859C7.3374 11.1392 7.16709 11.1786 6.98389 11.165C6.79131 11.1507 6.61857 11.0806 6.46826 10.9678C6.16221 10.738 6.0392 10.405 5.9751 10.0742C5.91257 9.75152 5.88912 9.33372 5.86084 8.84473C5.84403 8.55407 5.8335 8.26415 5.8335 8.00098C5.8335 7.73779 5.84403 7.44793 5.86084 7.15723C5.88913 6.66803 5.91255 6.24955 5.9751 5.92676C6.03921 5.5961 6.16241 5.26385 6.46826 5.03418L6.58545 4.95703C6.70631 4.88921 6.83958 4.84764 6.98389 4.83691C7.16719 4.82331 7.33734 4.86268 7.48584 4.91602C7.76389 5.0159 8.08363 5.21258 8.42139 5.41797C8.61263 5.53427 8.80141 5.65521 8.97119 5.77441C9.16466 5.91027 9.37139 6.07047 9.57471 6.23633C9.9189 6.5171 10.229 6.76834 10.4438 7.01855C10.6802 7.2938 10.8335 7.60323 10.8335 8.00098ZM15.1665 8.00098C15.1663 11.9588 11.9583 15.1668 8.00049 15.167C4.04256 15.167 0.833672 11.9589 0.833496 8.00098C0.833496 4.04294 4.04245 0.833984 8.00049 0.833984C11.9584 0.83416 15.1665 4.04304 15.1665 8.00098Z" fill="currentColor"/></g><defs><clipPath id="a"><path fill="currentColor" d="M0 0H16V16H0z"/></clipPath></defs></svg>