<svg xmlns="http://www.w3.org/2000/svg" width="12" height="12" fill="currentColor"><g clip-path="url(#a)"><path fill="currentColor" d="M11.05 6.001a5.05 5.05 0 1 0-10.1 0 5.05 5.05 0 0 0 10.1 0m-6.7-2.105c0-.499.533-.8.953-.576l.082.053 2.862 2.105a.65.65 0 0 1 0 1.046L5.385 8.63a.65.65 0 0 1-1.035-.524zm.9 3.715 2.19-1.61L5.25 4.39zm6.7-1.61a5.95 5.95 0 1 1-11.9 0 5.95 5.95 0 0 1 11.9 0"/></g><defs><clipPath id="a"><rect width="12" height="12" fill="currentColor" rx="2"/></clipPath></defs></svg>