<svg xmlns="http://www.w3.org/2000/svg" width="20" height="20" fill="currentColor"><path fill="currentColor" d="M13.45 12.999a.45.45 0 0 0-.45-.45H7a.45.45 0 0 0-.45.45v4c0 .249.201.45.45.45h6a.45.45 0 0 0 .45-.45zm1.1 1.45H17a.45.45 0 0 0 .45-.45v-6a.45.45 0 0 0-.45-.45H3a.45.45 0 0 0-.45.45v6c0 .249.201.45.45.45h2.45V13c0-.856.694-1.55 1.55-1.55h6c.856 0 1.55.694 1.55 1.55zM14.95 3a.45.45 0 0 0-.45-.45h-9a.45.45 0 0 0-.45.45v3.45h9.9zm1.1 3.45H17c.856 0 1.55.694 1.55 1.55v6A1.55 1.55 0 0 1 17 15.55h-2.45V17A1.55 1.55 0 0 1 13 18.55H7A1.55 1.55 0 0 1 5.45 17v-1.45H3A1.55 1.55 0 0 1 1.45 14V8c0-.856.694-1.55 1.55-1.55h.95V3c0-.856.694-1.55 1.55-1.55h9c.856 0 1.55.694 1.55 1.55z"/></svg>