<svg width="12" height="12" viewBox="0 0 12 12" fill="none" xmlns="http://www.w3.org/2000/svg"><path d="M3.84615 8.58462H2.6C2.26863 8.58462 2 8.31599 2 7.98462V5.06154C2 4.73017 2.26863 4.46154 2.6 4.46154H3.23077M3.84615 8.58462V7.52308C3.84615 7.19171 4.11478 6.92308 4.44615 6.92308H7.55385C7.88522 6.92308 8.15385 7.19171 8.15385 7.52308V9.4C8.15385 9.73137 7.88522 10 7.55385 10H4.44615C4.11478 10 3.84615 9.73137 3.84615 9.4V8.58462ZM8.15385 8.58462H9.4C9.73137 8.58462 10 8.31599 10 7.98462V5.06154C10 4.73017 9.73137 4.46154 9.4 4.46154H8.76923M3.23077 4.46154V2.6C3.23077 2.26863 3.4994 2 3.83077 2H8.16923C8.5006 2 8.76923 2.26863 8.76923 2.6V4.46154M3.23077 4.46154H8.76923" stroke="#1A3748" stroke-linecap="round"/></svg>