<svg width="20" height="20" viewBox="0 0 20 20" fill="none" xmlns="http://www.w3.org/2000/svg"><path d="M6.23077 14.5231H3.6C3.26863 14.5231 3 14.2544 3 13.9231V7.90769C3 7.57632 3.26863 7.30769 3.6 7.30769H5.15385M6.23077 14.5231V12.2154C6.23077 11.884 6.4994 11.6154 6.83077 11.6154H13.1692C13.5006 11.6154 13.7692 11.884 13.7692 12.2154V16.4C13.7692 16.7314 13.5006 17 13.1692 17H6.83077C6.4994 17 6.23077 16.7314 6.23077 16.4V14.5231ZM13.7692 14.5231H16.4C16.7314 14.5231 17 14.2544 17 13.9231V7.90769C17 7.57632 16.7314 7.30769 16.4 7.30769H14.8462M5.15385 7.30769V3.6C5.15385 3.26863 5.42248 3 5.75385 3H14.2462C14.5775 3 14.8462 3.26863 14.8462 3.6V7.30769M5.15385 7.30769H14.8462" stroke="#1A3748" stroke-linecap="round"/></svg>