<svg xmlns="http://www.w3.org/2000/svg" width="12" height="12" fill="currentColor"><g clip-path="url(#a)"><path fill="currentColor" d="M8.05 8.001a.05.05 0 0 0-.05-.05H4a.05.05 0 0 0-.05.05v2.5c0 .028.022.05.05.05h4a.05.05 0 0 0 .05-.05zm.9.55h1.55a.05.05 0 0 0 .05-.05v-4a.05.05 0 0 0-.05-.05h-9a.05.05 0 0 0-.05.05v4c0 .028.022.05.05.05h1.55V8A.95.95 0 0 1 4 7.05h4a.95.95 0 0 1 .95.95zm.1-7.05a.05.05 0 0 0-.05-.05H3a.05.05 0 0 0-.05.05v2.05h6.1zm.9 2.05h.55a.95.95 0 0 1 .95.95v4a.95.95 0 0 1-.95.95H8.95v1.05a.95.95 0 0 1-.95.95H4a.95.95 0 0 1-.95-.95v-1.05H1.5a.95.95 0 0 1-.95-.95v-4a.95.95 0 0 1 .95-.95h.55V1.5A.95.95 0 0 1 3 .551h6a.95.95 0 0 1 .95.95z"/></g><defs><clipPath id="a"><path fill="currentColor" d="M0 0h12v12H0z"/></clipPath></defs></svg>