<svg xmlns="http://www.w3.org/2000/svg" width="16" height="16" fill="currentColor"><path fill="currentColor" d="M11 10.3a.3.3 0 0 0-.3-.3H5.3a.3.3 0 0 0-.3.3v3.4a.3.3 0 0 0 .3.3h5.4a.3.3 0 0 0 .3-.3zm1 1.2h1.7a.3.3 0 0 0 .3-.3V6.3a.3.3 0 0 0-.3-.3H2.3a.3.3 0 0 0-.3.3v4.9a.3.3 0 0 0 .3.3H4v-1.2A1.3 1.3 0 0 1 5.3 9h5.4a1.3 1.3 0 0 1 1.3 1.3zm0-9.2a.3.3 0 0 0-.24-.294L11.7 2H4.3a.3.3 0 0 0-.3.3V5h8zM13 5h.7A1.3 1.3 0 0 1 15 6.3v4.9a1.3 1.3 0 0 1-1.3 1.3H12v1.2a1.3 1.3 0 0 1-1.3 1.3H5.3A1.3 1.3 0 0 1 4 13.7v-1.2H2.3A1.3 1.3 0 0 1 1 11.2V6.3A1.3 1.3 0 0 1 2.3 5H3V2.3A1.3 1.3 0 0 1 4.3 1h7.4l.133.007A1.3 1.3 0 0 1 13 2.3z"/></svg>