<svg width="16" height="16" viewBox="0 0 16 16" fill="none" xmlns="http://www.w3.org/2000/svg"><path d="M10.1924 9.75391C10.1924 9.69883 10.1478 9.65455 10.0928 9.6543H5.90723C5.85221 9.65455 5.80762 9.69883 5.80762 9.75391V12.4004C5.80783 12.4553 5.85234 12.4998 5.90723 12.5H10.0928C10.1477 12.4998 10.1922 12.4553 10.1924 12.4004V9.75391ZM11.1924 10.7305H12.4004C12.4554 10.7303 12.5 10.6859 12.5 10.6309V6.67676C12.4999 6.62174 12.4554 6.57736 12.4004 6.57715H3.59961C3.54462 6.57736 3.50009 6.62174 3.5 6.67676V10.6309L3.50781 10.6699C3.52299 10.7056 3.55842 10.7303 3.59961 10.7305H4.80762V9.75391C4.80762 9.14655 5.29993 8.65455 5.90723 8.6543H10.0928C10.7001 8.65455 11.1924 9.14655 11.1924 9.75391V10.7305ZM10.9619 3.59961C10.9617 3.54456 10.9164 3.5 10.8613 3.5H5.13867C5.08357 3.5 5.0383 3.54456 5.03809 3.59961V5.57715H10.9619V3.59961ZM11.9619 5.57715H12.4004C13.0077 5.57736 13.4999 6.06945 13.5 6.67676V10.6309C13.5 11.2382 13.0077 11.7303 12.4004 11.7305H11.1924V12.4004C11.1922 13.0076 10.6999 13.4997 10.0928 13.5H5.90723C5.30006 13.4997 4.80783 13.0076 4.80762 12.4004V11.7305H3.59961C3.03022 11.7303 2.56215 11.2977 2.50586 10.7432L2.5 10.6309V6.67676C2.50009 6.06945 2.99233 5.57736 3.59961 5.57715H4.03809V3.59961C4.0383 2.99228 4.53129 2.5 5.13867 2.5H10.8613C11.4687 2.5 11.9617 2.99228 11.9619 3.59961V5.57715Z" fill="currentColor"/></svg>