<svg width="16" height="16" viewBox="0 0 16 16" fill="none" xmlns="http://www.w3.org/2000/svg"><g clip-path="url(#a)" fill="currentColor"><path d="M.835942 11.2666C.835942 10.8399.834985 10.4847.862309 10.1973.890349 9.90236.951976 9.62708 1.10645 9.375 1.2575 9.12868 1.46461 8.92156 1.71094 8.77051 1.96302 8.61604 2.2383 8.55441 2.53321 8.52637 2.82064 8.49905 3.17583 8.5 3.60254 8.5H4.33594C4.9502 8.5 5.46114 8.49942 5.86524 8.55372 6.28377 8.60998 6.66218 8.73347 6.96582 9.03711 7.26928 9.34066 7.39294 9.71839 7.44922 10.1367 7.50356 10.5409 7.50293 11.0526 7.50293 11.667V12.4004C7.50293 12.827 7.50291 13.1824 7.47559 13.4697 7.44754 13.7645 7.38677 14.0391 7.23243 14.291 7.08126 14.5377 6.87364 14.7453 6.62696 14.8965 6.37501 15.0508 6.1004 15.1116 5.80567 15.1397 5.51829 15.167 5.16293 15.167 4.73633 15.167 4.09133 15.167 3.5719 15.1675 3.15528 15.1279 2.73128 15.0876 2.3615 15.0014 2.0293 14.7979 1.69312 14.5917 1.41015 14.3089 1.20411 13.9727 1.00064 13.6405.915312 13.2706.875004 12.8467.835437 12.4301.835942 11.9114.835942 11.2666ZM1.83594 11.2666C1.83594 11.931 1.83605 12.3946 1.87012 12.7529 1.90347 13.1033 1.96566 13.3016 2.05664 13.4502 2.18024 13.6519 2.35013 13.8217 2.55176 13.9453 2.70045 14.0364 2.89922 14.0985 3.25 14.1318 3.60831 14.1659 4.07196 14.167 4.73633 14.167 5.18226 14.167 5.48186 14.1663 5.71094 14.1445 5.93232 14.1235 6.03597 14.0859 6.1045 14.044 6.21663 13.9752 6.31117 13.8807 6.37989 13.7686 6.42184 13.7 6.45941 13.5964 6.48047 13.375 6.50225 13.1459 6.50293 12.8463 6.50293 12.4004V11.667C6.50293 11.0245 6.50128 10.5925 6.45801 10.2705 6.41668 9.96306 6.3456 9.83103 6.25879 9.74415 6.17192 9.65727 6.04005 9.58531 5.73243 9.54395 5.4104 9.50066 4.97862 9.5 4.33594 9.5H3.60254C3.1565 9.5 2.85706 9.50069 2.62793 9.52247 2.40623 9.54355 2.30195 9.58105 2.2334 9.62305 2.12161 9.69165 2.02759 9.78568 1.95899 9.89747 1.91698 9.96601 1.87948 10.0703 1.8584 10.292 1.83662 10.5211 1.83594 10.8206 1.83594 11.2666ZM8.5 4.33594V3.60254C8.5 3.17583 8.49905 2.82064 8.52637 2.53321 8.55441 2.2383 8.61604 1.96302 8.77051 1.71094 8.92156 1.46461 9.12868 1.2575 9.375 1.10645 9.62708.951976 9.90236.890349 10.1973.862309 10.4847.834985 10.8399.835942 11.2666.835942 11.9114.835942 12.4301.835437 12.8467.875004 13.2706.915312 13.6405 1.00064 13.9727 1.20411 14.3089 1.41015 14.5917 1.69312 14.7979 2.0293 15.0014 2.3615 15.0876 2.73128 15.1279 3.15528 15.1675 3.5719 15.167 4.09133 15.167 4.73633 15.167 5.16293 15.167 5.51829 15.1397 5.80567 15.1116 6.1004 15.0508 6.37501 14.8965 6.62696 14.7453 6.87364 14.5377 7.08126 14.291 7.23243 14.0391 7.38677 13.7645 7.44754 13.4697 7.47559 13.1824 7.50291 12.827 7.50293 12.4004 7.50293H11.667C11.0526 7.50293 10.5409 7.50356 10.1367 7.44922 9.71839 7.39294 9.34066 7.26928 9.03711 6.96582 8.73347 6.66218 8.60998 6.28377 8.55372 5.86524 8.49942 5.46114 8.5 4.9502 8.5 4.33594ZM9.5 4.33594C9.5 4.97862 9.50066 5.4104 9.54395 5.73243 9.58531 6.04005 9.65727 6.17192 9.74415 6.25879 9.83103 6.3456 9.96306 6.41668 10.2705 6.45801 10.5925 6.50128 11.0245 6.50293 11.667 6.50293H12.4004C12.8463 6.50293 13.1459 6.50225 13.375 6.48047 13.5964 6.45941 13.7 6.42184 13.7686 6.37989 13.8807 6.31117 13.9752 6.21663 14.044 6.1045 14.0859 6.03597 14.1235 5.93232 14.1445 5.71094 14.1663 5.48186 14.167 5.18226 14.167 4.73633 14.167 4.07196 14.1659 3.60831 14.1318 3.25 14.0985 2.89922 14.0364 2.70045 13.9453 2.55176 13.8217 2.35013 13.6519 2.18024 13.4502 2.05664 13.3016 1.96566 13.1033 1.90347 12.7529 1.87012 12.3946 1.83605 11.931 1.83594 11.2666 1.83594 10.8206 1.83594 10.5211 1.83662 10.292 1.8584 10.0703 1.87948 9.96601 1.91698 9.89747 1.95899 9.78568 2.02759 9.69165 2.12161 9.62305 2.2334 9.58105 2.30195 9.54355 2.40623 9.52247 2.62793 9.50069 2.85706 9.5 3.1565 9.5 3.60254V4.33594Z"/><path d="M11 4.16928C11 3.82567 11 3.65387 11.0861 3.53256 11.1164 3.48976 11.1538 3.45238 11.1966 3.42201 11.3179 3.33594 11.4897 3.33594 11.8333 3.33594 12.1769 3.33594 12.3487 3.33594 12.4701 3.42201 12.5129 3.45238 12.5502 3.48976 12.5806 3.53256 12.6667 3.65387 12.6667 3.82567 12.6667 4.16928 12.6667 4.51288 12.6667 4.68468 12.5806 4.80599 12.5502 4.84879 12.5129 4.88617 12.4701 4.91654 12.3487 5.00261 12.1769 5.00261 11.8333 5.00261 11.4897 5.00261 11.3179 5.00261 11.1966 4.91654 11.1538 4.88617 11.1164 4.84879 11.0861 4.80599 11 4.68468 11 4.51288 11 4.16928ZM8.5 14.667V12.667H9.5V14.667C9.49983 14.943 9.27604 15.167 9 15.167 8.72397 15.167 8.50018 14.943 8.5 14.667ZM12.667 8.5V9.5H11.333C10.8546 9.5 10.533 9.50048 10.2881 9.5254 10.0518 9.54947 9.94238 9.59235 9.87012 9.64063 9.77932 9.70135 9.70135 9.77932 9.64063 9.87012 9.59235 9.94238 9.54947 10.0518 9.5254 10.2881 9.50048 10.533 9.5 10.8546 9.5 11.333H8.5C8.5 10.8755 8.49905 10.4947 8.53028 10.1875 8.56239 9.87186 8.6322 9.57845 8.8086 9.31446 8.94234 9.11432 9.11432 8.94234 9.31446 8.8086 9.57845 8.6322 9.87186 8.56239 10.1875 8.53028 10.4947 8.49905 10.8755 8.5 11.333 8.5H12.667ZM15.1689 12.667C15.1689 12.9706 15.1694 13.2238 15.1553 13.4307 15.1408 13.6419 15.1094 13.8417 15.0293 14.0352 14.8432 14.4842 14.4862 14.8413 14.0371 15.0273 13.8437 15.1074 13.6439 15.1379 13.4326 15.1523 13.2257 15.1665 12.9726 15.167 12.6689 15.167H11.3359V14.167H12.6689C12.9864 14.167 13.2003 14.1665 13.3652 14.1553 13.5254 14.1443 13.6039 14.1248 13.6553 14.1035 13.8593 14.0189 14.0209 13.8563 14.1055 13.6523 14.1268 13.6009 14.1473 13.5227 14.1582 13.3623 14.1695 13.1974 14.1689 12.9843 14.1689 12.667H15.1689ZM14.1689 9C14.1689 8.72397 14.393 8.50018 14.6689 8.5 14.9451 8.5 15.1689 8.72386 15.1689 9V11.333H14.1689V9ZM6.50293 4.33594V3.60254C6.50293 3.15652 6.50225 2.85706 6.48047 2.62793 6.45939 2.40623 6.42189 2.30195 6.37989 2.2334 6.31119 2.1214 6.21653 2.02764 6.1045 1.95899 6.03597 1.917 5.93246 1.87948 5.71094 1.8584 5.48186 1.83662 5.18226 1.83594 4.73633 1.83594 4.07196 1.83594 3.60831 1.83605 3.25 1.87012 2.89918 1.90348 2.70046 1.96552 2.55176 2.05664 2.35006 2.18029 2.18029 2.35006 2.05664 2.55176 1.96552 2.70046 1.90348 2.89918 1.87012 3.25 1.83605 3.60831 1.83594 4.07196 1.83594 4.73633 1.83594 5.18226 1.83662 5.48186 1.8584 5.71094 1.87948 5.93246 1.917 6.03597 1.95899 6.1045 2.02764 6.21653 2.1214 6.31119 2.2334 6.37989 2.30195 6.42189 2.40623 6.45939 2.62793 6.48047 2.85706 6.50225 3.15652 6.50293 3.60254 6.50293H4.33594C4.97862 6.50293 5.4104 6.50131 5.73243 6.45801 6.03999 6.41665 6.17193 6.34566 6.25879 6.25879 6.34566 6.17193 6.41665 6.03999 6.45801 5.73243 6.50131 5.4104 6.50293 4.97862 6.50293 4.33594ZM7.50293 4.33594C7.50293 4.95018 7.50351 5.46115 7.44922 5.86524 7.39295 6.28377 7.26947 6.66218 6.96582 6.96582 6.66218 7.26947 6.28377 7.39295 5.86524 7.44922 5.46115 7.50351 4.95018 7.50293 4.33594 7.50293H3.60254C3.1758 7.50293 2.82066 7.50292 2.53321 7.47559 2.2383 7.44755 1.96302 7.3869 1.71094 7.23243 1.46439 7.08127 1.25755 6.87354 1.10645 6.62696.952025 6.37495.890359 6.10048.862309 5.80567.834985 5.51829.835941 5.16293.835942 4.73633.835942 4.09133.835392 3.5719.875004 3.15528.915331 2.73129 1.00054 2.36149 1.20411 2.0293 1.4102 1.69305 1.69305 1.4102 2.0293 1.20411 2.36149 1.00054 2.73129.915331 3.15528.875004 3.5719.835392 4.09133.835942 4.73633.835942 5.16293.835941 5.51829.834985 5.80567.862309 6.10048.890359 6.37495.952025 6.62696 1.10645 6.87354 1.25755 7.08127 1.46439 7.23243 1.71094 7.3869 1.96302 7.44755 2.2383 7.47559 2.53321 7.50292 2.82066 7.50293 3.1758 7.50293 3.60254V4.33594Z"/><path d="M3.33594 4.16928C3.33594 3.82567 3.33594 3.65387 3.42201 3.53256 3.45238 3.48976 3.48976 3.45238 3.53256 3.42201 3.65387 3.33594 3.82567 3.33594 4.16928 3.33594 4.51288 3.33594 4.68468 3.33594 4.80599 3.42201 4.84879 3.45238 4.88617 3.48976 4.91654 3.53256 5.00261 3.65387 5.00261 3.82567 5.00261 4.16928 5.00261 4.51288 5.00261 4.68468 4.91654 4.80599 4.88617 4.84879 4.84879 4.88617 4.80599 4.91654 4.68468 5.00261 4.51288 5.00261 4.16928 5.00261 3.82567 5.00261 3.65387 5.00261 3.53256 4.91654 3.48976 4.88617 3.45238 4.84879 3.42201 4.80599 3.33594 4.68468 3.33594 4.51288 3.33594 4.16928ZM3.33594 11.8333C3.33594 11.4897 3.33594 11.3179 3.42201 11.1966 3.45238 11.1538 3.48976 11.1164 3.53256 11.0861 3.65387 11 3.82567 11 4.16928 11 4.51288 11 4.68468 11 4.80599 11.0861 4.84879 11.1164 4.88617 11.1538 4.91654 11.1966 5.00261 11.3179 5.00261 11.4897 5.00261 11.8333 5.00261 12.1769 5.00261 12.3487 4.91654 12.4701 4.88617 12.5129 4.84879 12.5502 4.80599 12.5806 4.68468 12.6667 4.51288 12.6667 4.16928 12.6667 3.82567 12.6667 3.65387 12.6667 3.53256 12.5806 3.48976 12.5502 3.45238 12.5129 3.42201 12.4701 3.33594 12.3487 3.33594 12.1769 3.33594 11.8333ZM10.6641 11.8307C10.6641 11.3626 10.6641 11.1285 10.7764 10.9604 10.8251 10.8876 10.8876 10.8251 10.9604 10.7764 11.1285 10.6641 11.3626 10.6641 11.8307 10.6641 12.2989 10.6641 12.533 10.6641 12.7011 10.7764 12.7739 10.8251 12.8364 10.8876 12.885 10.9604 12.9974 11.1285 12.9974 11.3626 12.9974 11.8307 12.9974 12.2989 12.9974 12.533 12.885 12.7011 12.8364 12.7739 12.7739 12.8364 12.7011 12.885 12.533 12.9974 12.2989 12.9974 11.8307 12.9974 11.3626 12.9974 11.1285 12.9974 10.9604 12.885 10.8876 12.8364 10.8251 12.7739 10.7764 12.7011 10.6641 12.533 10.6641 12.2989 10.6641 11.8307Z"/></g><defs><clipPath id="a"><rect width="16" height="16" rx="5" fill="currentColor"/></clipPath></defs></svg>