<svg xmlns="http://www.w3.org/2000/svg" width="12" height="12" fill="currentColor"><g clip-path="url(#a)"><path fill="currentColor" d="M4.6 6.35c.58 0 1.05.47 1.05 1.05v3c0 .58-.47 1.051-1.05 1.051h-3a1.05 1.05 0 0 1-1.05-1.05v-3c0-.58.47-1.05 1.05-1.05zm2.2 2.851a.45.45 0 0 1 .451.45v.75c0 .082.067.15.15.15h.75a.45.45 0 0 1 0 .9H7.4a1.05 1.05 0 0 1-1.05-1.05v-.75a.45.45 0 0 1 .45-.45m4.201 0a.45.45 0 0 1 .45.45v.75c0 .58-.47 1.05-1.05 1.05h-.75a.45.45 0 0 1 0-.9h.75a.15.15 0 0 0 .15-.15v-.75A.45.45 0 0 1 11 9.2M1.6 7.251a.15.15 0 0 0-.15.15v3c0 .082.067.15.15.15h3a.15.15 0 0 0 .15-.15v-3a.15.15 0 0 0-.15-.15zm1.9 1.05c.11 0 .2.09.2.2v.8a.2.2 0 0 1-.2.2h-.8a.2.2 0 0 1-.2-.2v-.8c0-.11.09-.2.2-.2zm5.8 0c.111 0 .2.09.201.2v.8a.2.2 0 0 1-.2.2h-.8a.2.2 0 0 1-.2-.2v-.8c0-.11.09-.2.2-.2zM8.15 6.35a.45.45 0 0 1 0 .9H7.4a.15.15 0 0 0-.149.15v.75a.45.45 0 0 1-.9 0V7.4c0-.58.47-1.05 1.05-1.05zm2.25 0c.58 0 1.05.47 1.051 1.05v.75a.45.45 0 0 1-.9 0V7.4a.15.15 0 0 0-.15-.15h-.75a.45.45 0 0 1 0-.9zM4.6.55c.58 0 1.05.47 1.05 1.05v3c0 .58-.47 1.05-1.05 1.05h-3A1.05 1.05 0 0 1 .55 4.6v-3c0-.58.47-1.05 1.05-1.05zm5.8 0c.58 0 1.051.47 1.051 1.05v3c0 .58-.47 1.05-1.05 1.05h-3a1.05 1.05 0 0 1-1.05-1.05v-3c0-.58.47-1.05 1.05-1.05zm-8.8.9a.15.15 0 0 0-.15.15v3c0 .082.067.15.15.15h3a.15.15 0 0 0 .15-.15v-3a.15.15 0 0 0-.15-.15zm5.8 0a.15.15 0 0 0-.149.15v3c0 .082.067.15.15.15h3a.15.15 0 0 0 .15-.15v-3a.15.15 0 0 0-.15-.15zM3.5 2.5c.11 0 .2.09.2.2v.8a.2.2 0 0 1-.2.2h-.8a.2.2 0 0 1-.2-.2v-.8c0-.11.09-.2.2-.2zm5.8 0a.2.2 0 0 1 .201.2v.8a.2.2 0 0 1-.2.2h-.8a.2.2 0 0 1-.2-.2v-.8c0-.11.09-.2.2-.2z"/></g><defs><clipPath id="a"><rect width="12" height="12" fill="currentColor" rx="2"/></clipPath></defs></svg>