<svg xmlns="http://www.w3.org/2000/svg" width="20" height="20" fill="currentColor"><path fill="currentColor" d="M7.42 10.729a1.85 1.85 0 0 1 1.85 1.85v4.12a1.85 1.85 0 0 1-1.85 1.849H3.3a1.85 1.85 0 0 1-1.85-1.85v-4.12a1.85 1.85 0 0 1 1.85-1.85zm3.861 4.39a.55.55 0 0 1 .55.549v1.03c0 .414.336.75.75.75h1.03a.55.55 0 0 1 0 1.1h-1.03a1.85 1.85 0 0 1-1.85-1.85v-1.03a.55.55 0 0 1 .55-.55m6.72 0a.55.55 0 0 1 .55.549v1.03a1.85 1.85 0 0 1-1.85 1.85h-1.03a.55.55 0 0 1 0-1.1h1.03a.75.75 0 0 0 .75-.75v-1.03a.55.55 0 0 1 .55-.55M3.3 11.828a.75.75 0 0 0-.75.75v4.12c0 .413.336.75.75.75h4.12a.75.75 0 0 0 .75-.75v-4.12a.75.75 0 0 0-.75-.75zm2.702 1.85a.32.32 0 0 1 .32.319v1.28a.32.32 0 0 1-.32.32h-1.28a.32.32 0 0 1-.32-.32v-1.28a.32.32 0 0 1 .32-.32zm9.277 0a.32.32 0 0 1 .32.319v1.28a.32.32 0 0 1-.32.32H14a.32.32 0 0 1-.32-.32v-1.28a.32.32 0 0 1 .32-.32zm-1.668-2.95a.55.55 0 0 1 0 1.1h-1.03a.75.75 0 0 0-.75.75v1.03a.55.55 0 0 1-1.1 0v-1.03a1.85 1.85 0 0 1 1.85-1.85zm3.09 0a1.85 1.85 0 0 1 1.85 1.85v1.03a.55.55 0 0 1-1.1 0v-1.03a.75.75 0 0 0-.75-.75h-1.03a.55.55 0 1 1 0-1.1zM7.42 1.449A1.85 1.85 0 0 1 9.27 3.3v4.12a1.85 1.85 0 0 1-1.85 1.85H3.3a1.85 1.85 0 0 1-1.85-1.85V3.3A1.85 1.85 0 0 1 3.3 1.45zm9.281 0a1.85 1.85 0 0 1 1.85 1.85v4.12a1.85 1.85 0 0 1-1.85 1.85h-4.12a1.85 1.85 0 0 1-1.85-1.85v-4.12a1.85 1.85 0 0 1 1.85-1.85zM3.3 2.55a.75.75 0 0 0-.75.75v4.12c0 .414.336.75.75.75h4.12a.75.75 0 0 0 .75-.75V3.3a.75.75 0 0 0-.75-.75zm9.281 0a.75.75 0 0 0-.75.75v4.12c0 .414.336.75.75.75h4.12a.75.75 0 0 0 .75-.75V3.3a.75.75 0 0 0-.75-.75zM6.002 4.4a.32.32 0 0 1 .32.32V6a.32.32 0 0 1-.32.32h-1.28a.32.32 0 0 1-.32-.32V4.72a.32.32 0 0 1 .32-.32zm9.277 0a.32.32 0 0 1 .32.32V6a.32.32 0 0 1-.32.32H14a.32.32 0 0 1-.32-.32V4.72A.32.32 0 0 1 14 4.4z"/></svg>