<svg xmlns="http://www.w3.org/2000/svg" width="16" height="16" fill="currentColor"><path fill="currentColor" d="M6.06 8.54a1.4 1.4 0 0 1 1.4 1.4v3.66a1.4 1.4 0 0 1-1.4 1.4H2.4A1.4 1.4 0 0 1 1 13.6V9.94a1.4 1.4 0 0 1 1.4-1.4zm2.983 3.645a.5.5 0 0 1 .5.5v.915c0 .22.18.4.4.4h.915a.5.5 0 0 1 0 1h-.915a1.4 1.4 0 0 1-1.4-1.4v-.915a.5.5 0 0 1 .5-.5m5.46 0a.5.5 0 0 1 .5.5v.915a1.4 1.4 0 0 1-1.4 1.4h-.915a.5.5 0 0 1 0-1h.914a.4.4 0 0 0 .4-.4v-.915a.5.5 0 0 1 .5-.5M2.4 9.54a.4.4 0 0 0-.4.4v3.66c0 .22.18.4.4.4h3.66a.4.4 0 0 0 .4-.4V9.94a.4.4 0 0 0-.4-.4zm2.349 1.45a.26.26 0 0 1 .26.26v1.04a.26.26 0 0 1-.26.26h-1.04a.26.26 0 0 1-.26-.26v-1.04a.26.26 0 0 1 .26-.26zm7.543 0a.26.26 0 0 1 .26.26v1.04a.26.26 0 0 1-.26.26h-1.04a.26.26 0 0 1-.26-.26v-1.04a.26.26 0 0 1 .26-.26zm-1.434-2.45a.5.5 0 0 1 0 1h-.915a.4.4 0 0 0-.4.4v.915a.5.5 0 0 1-1 0V9.94a1.4 1.4 0 0 1 1.4-1.4zm2.744 0a1.4 1.4 0 0 1 1.4 1.4v.915a.5.5 0 0 1-1 0V9.94a.4.4 0 0 0-.4-.4h-.915a.5.5 0 0 1 0-1zM6.06 1a1.4 1.4 0 0 1 1.4 1.4v3.66a1.4 1.4 0 0 1-1.4 1.4H2.4A1.4 1.4 0 0 1 1 6.06V2.4A1.4 1.4 0 0 1 2.4 1zm7.542 0a1.4 1.4 0 0 1 1.4 1.4v3.66a1.4 1.4 0 0 1-1.4 1.4H9.944a1.4 1.4 0 0 1-1.4-1.4V2.4a1.4 1.4 0 0 1 1.4-1.4zM2.4 2a.4.4 0 0 0-.4.4v3.66c0 .22.18.4.4.4h3.66a.4.4 0 0 0 .4-.4V2.4a.4.4 0 0 0-.4-.4zm7.543 0a.4.4 0 0 0-.4.4v3.66c0 .22.18.4.4.4h3.66a.4.4 0 0 0 .4-.4V2.4a.4.4 0 0 0-.4-.4zM4.75 3.45a.26.26 0 0 1 .26.26v1.04a.26.26 0 0 1-.26.26H3.71a.26.26 0 0 1-.26-.26V3.71a.26.26 0 0 1 .26-.26zm7.543 0a.26.26 0 0 1 .26.26v1.04a.26.26 0 0 1-.26.26h-1.04a.26.26 0 0 1-.26-.26V3.71a.26.26 0 0 1 .26-.26z"/></svg>