<svg xmlns="http://www.w3.org/2000/svg" width="12" height="12" fill="currentColor"><g clip-path="url(#a)"><path fill="currentColor" d="M10.326 5.075a.45.45 0 0 1 .563.057l.927.917a.45.45 0 1 1-.632.64l-.166-.165c-.084 2.714-2.331 4.88-5.084 4.88a5.1 5.1 0 0 1-4.347-2.415.45.45 0 0 1 .766-.472 4.2 4.2 0 0 0 3.58 1.987c2.263 0 4.098-1.768 4.185-3.972l-.157.156a.45.45 0 0 1-.633-.64l.928-.916zM6.046.598c1.833 0 3.44.967 4.33 2.415a.45.45 0 0 1-.766.471 4.18 4.18 0 0 0-3.564-1.986c-2.25 0-4.08 1.764-4.168 3.967l.153-.152a.45.45 0 0 1 .634.64l-.924.916a.45.45 0 0 1-.634 0l-.924-.917a.45.45 0 0 1 .634-.639l.16.16C1.064 2.763 3.303.598 6.047.598"/></g><defs><clipPath id="a"><rect width="12" height="12" fill="currentColor" rx="2"/></clipPath></defs></svg>