<svg xmlns="http://www.w3.org/2000/svg" width="12" height="12" fill="currentColor"><g clip-path="url(#a)"><path fill="currentColor" d="M11.05 3.001A2.05 2.05 0 0 0 9 .951H3a2.05 2.05 0 0 0-2.05 2.05v6A2.05 2.05 0 0 0 3 11.051h6A2.05 2.05 0 0 0 11.05 9zM3.91 4.018a2.905 2.905 0 0 1 3.63-.44V3.2a.45.45 0 1 1 .898 0v1.36a.45.45 0 0 1-.45.449H6.663a.45.45 0 0 1-.09-.892 2.01 2.01 0 0 0-2.02.53 2.153 2.153 0 0 0 0 2.99 2.01 2.01 0 0 0 2.893 0 2.14 2.14 0 0 0 .588-1.76.45.45 0 1 1 .893-.108 3.04 3.04 0 0 1-.837 2.498 2.91 2.91 0 0 1-4.18 0 3.05 3.05 0 0 1 0-4.248M11.95 9A2.95 2.95 0 0 1 9 11.951H3a2.95 2.95 0 0 1-2.95-2.95v-6A2.95 2.95 0 0 1 3 .051h6A2.95 2.95 0 0 1 11.95 3z"/></g><defs><clipPath id="a"><rect width="12" height="12" fill="currentColor" rx="2"/></clipPath></defs></svg>