<svg xmlns="http://www.w3.org/2000/svg" width="16" height="16" fill="currentColor"><g clip-path="url(#a)"><path fill="currentColor" d="M14.5 4A2.5 2.5 0 0 0 12 1.5H4A2.5 2.5 0 0 0 1.5 4v8A2.5 2.5 0 0 0 4 14.5h8a2.5 2.5 0 0 0 2.5-2.5zm-4.376.3a.5.5 0 0 1 1 0v1.802a.5.5 0 0 1-.5.5h-1.75a.5.5 0 0 1 0-1h.353a2.73 2.73 0 0 0-3.203.547 2.97 2.97 0 0 0 0 4.108 2.734 2.734 0 0 0 3.95 0 2.95 2.95 0 0 0 .803-2.418.5.5 0 1 1 .993-.12 3.95 3.95 0 0 1-1.079 3.234 3.733 3.733 0 0 1-5.383 0 3.967 3.967 0 0 1 0-5.5 3.73 3.73 0 0 1 4.816-.481zM15.5 12a3.5 3.5 0 0 1-3.5 3.5H4A3.5 3.5 0 0 1 .5 12V4A3.5 3.5 0 0 1 4 .5h8A3.5 3.5 0 0 1 15.5 4z"/></g><defs><clipPath id="a"><rect width="16" height="16" fill="currentColor" rx="2"/></clipPath></defs></svg>