<svg xmlns="http://www.w3.org/2000/svg" width="16" height="16" fill="currentColor"><path fill="currentColor" d="M13.5 8.484V8.48l-.365.362a.501.501 0 0 1-.703-.712l1.217-1.203.078-.064a.5.5 0 0 1 .624.064l1.218 1.203a.5.5 0 0 1-.703.712l-.366-.363v.006c0 3.605-2.955 6.518-6.588 6.518a6.6 6.6 0 0 1-5.626-3.126.5.5 0 1 1 .85-.524 5.6 5.6 0 0 0 4.776 2.65c3.092 0 5.588-2.476 5.588-5.518M2.855 7.164a.501.501 0 0 1 .705.71L2.348 9.077a.5.5 0 0 1-.706 0L.43 7.874a.5.5 0 0 1 .705-.71l.36.357V7.52c0-3.603 2.943-6.518 6.564-6.518a6.57 6.57 0 0 1 5.608 3.126.5.5 0 0 1-.852.524 5.57 5.57 0 0 0-4.756-2.65c-3.076 0-5.564 2.474-5.564 5.518v.001z"/></svg>