<svg xmlns="http://www.w3.org/2000/svg" width="20" height="20" fill="currentColor"><g clip-path="url(#a)"><path fill="currentColor" d="M17.95 4.999A2.95 2.95 0 0 0 15 2.049H5a2.95 2.95 0 0 0-2.95 2.95v10A2.95 2.95 0 0 0 5 17.949h10A2.95 2.95 0 0 0 17.95 15zm-5.158.4a.55.55 0 1 1 1.1 0v2.27a.55.55 0 0 1-.55.55h-2.228a.55.55 0 0 1 0-1.1h.766a3.59 3.59 0 0 0-4.456.557 3.79 3.79 0 0 0 0 5.284 3.594 3.594 0 0 0 5.154 0c.83-.846 1.18-2 1.044-3.11a.55.55 0 0 1 1.092-.134 4.88 4.88 0 0 1-1.35 4.015 4.694 4.694 0 0 1-6.725 0 4.89 4.89 0 0 1 0-6.825 4.69 4.69 0 0 1 6.153-.497zM19.05 15A4.05 4.05 0 0 1 15 19.05H5A4.05 4.05 0 0 1 .95 15V5A4.05 4.05 0 0 1 5 .949h10A4.05 4.05 0 0 1 19.05 5z"/></g><defs><clipPath id="a"><rect width="20" height="20" fill="currentColor" rx="2"/></clipPath></defs></svg>