<svg xmlns="http://www.w3.org/2000/svg" width="20" height="20" fill="currentColor"><path fill="currentColor" d="M16.517 10.567v-.1l-.497.491a.55.55 0 0 1-.774-.782l1.435-1.417.086-.07a.55.55 0 0 1 .686.07l1.435 1.417a.55.55 0 0 1-.774.782l-.497-.491v.1c0 4.222-3.464 7.633-7.722 7.633a7.74 7.74 0 0 1-6.593-3.66.55.55 0 0 1 .935-.58 6.64 6.64 0 0 0 5.658 3.14c3.663 0 6.621-2.93 6.622-6.533M3.972 9.035a.55.55 0 0 1 .775.781l-1.429 1.417a.55.55 0 0 1-.775 0L1.114 9.816a.55.55 0 0 1 .776-.78l.49.485v-.095c.001-4.22 3.45-7.633 7.694-7.633a7.7 7.7 0 0 1 6.571 3.662.55.55 0 0 1-.936.576 6.6 6.6 0 0 0-5.635-3.138c-3.646 0-6.593 2.929-6.594 6.533v.095z"/></svg>