<svg width="16" height="16" viewBox="0 0 16 16" fill="none" xmlns="http://www.w3.org/2000/svg"><path d="M13.2664 6.91699C13.4595 6.79068 13.721 6.81203 13.8914 6.98047L15.0154 8.0918C15.2116 8.28593 15.2134 8.60249 15.0193 8.79883C14.8252 8.99496 14.5086 8.99677 14.3123 8.80273L14.0369 8.53125C13.9913 11.8421 11.2653 14.5029 7.91873 14.5029C5.70638 14.5028 3.76622 13.3406 2.69119 11.5986C2.54621 11.3636 2.6193 11.0552 2.85428 10.9102C3.08927 10.7652 3.39774 10.8383 3.54275 11.0732C4.44132 12.5293 6.06386 13.5028 7.91873 13.5029C10.7224 13.5029 12.9893 11.2813 13.0369 8.53516L12.7674 8.80273C12.5711 8.99675 12.2545 8.99492 12.0603 8.79883C11.8663 8.60247 11.868 8.28593 12.0642 8.0918L13.1883 6.98047L13.2664 6.91699ZM8.05545 1.5C10.2609 1.50017 12.1936 2.66344 13.2644 4.40527C13.4089 4.64049 13.3355 4.9482 13.1004 5.09277C12.8652 5.23718 12.5575 5.16374 12.4129 4.92871C11.5177 3.47261 9.9016 2.50017 8.05545 2.5C5.26674 2.5 3.00764 4.7171 2.95779 7.46289L3.22342 7.2002C3.41943 7.006 3.73603 7.0073 3.93045 7.20312C4.1249 7.39912 4.12343 7.71565 3.92752 7.91016L2.8074 9.02148C2.61245 9.21478 2.2982 9.21486 2.1033 9.02148L0.983182 7.91016C0.787513 7.71563 0.786855 7.39903 0.981229 7.20312C1.17575 7.00746 1.49235 7.00584 1.68826 7.2002L1.95779 7.46777C2.0051 4.16028 4.72003 1.5 8.05545 1.5Z" fill="currentColor"/></svg>