<svg width="16" height="16" viewBox="0 0 16 16" fill="none" xmlns="http://www.w3.org/2000/svg"><g clip-path="url(#a)"><path d="M14.1689 8.00293C14.1689 6.41772 14.1682 5.27871 14.0518 4.41211C13.9372 3.56008 13.7194 3.04575 13.3398 2.66602C12.9601 2.28627 12.4459 2.06771 11.5938 1.95312C10.7272 1.83661 9.58824 1.83594 8.00293 1.83594C6.41775 1.83594 5.2787 1.83667 4.41211 1.95312C3.55984 2.06771 3.04579 2.28624 2.66602 2.66602C2.28624 3.04579 2.06771 3.55984 1.95312 4.41211C1.83667 5.2787 1.83594 6.41775 1.83594 8.00293C1.83594 9.58824 1.83661 10.7272 1.95312 11.5938C2.06771 12.4459 2.28627 12.9601 2.66602 13.3398C3.04575 13.7194 3.56008 13.9372 4.41211 14.0518C5.27871 14.1682 6.41772 14.1689 8.00293 14.1689C9.58824 14.1689 10.7272 14.1683 11.5938 14.0518C12.4459 13.9372 12.9601 13.7196 13.3398 13.3398C13.7196 12.9601 13.9372 12.4459 14.0518 11.5938C14.1683 10.7272 14.1689 9.58824 14.1689 8.00293ZM10.1494 4C10.1494 3.72386 10.3733 3.5 10.6494 3.5C10.9254 3.5002 11.1494 3.72398 11.1494 4V5.80957C11.1494 6.08559 10.9254 6.30937 10.6494 6.30957H8.88086C8.60491 6.30934 8.38086 6.08557 8.38086 5.80957C8.38092 5.53362 8.60495 5.3098 8.88086 5.30957H9.24805C8.19127 4.77464 6.87881 4.9558 5.99805 5.85742C4.88609 6.99574 4.88613 8.84603 5.99805 9.98438C7.10363 11.1162 8.89149 11.1162 9.99707 9.98438C10.642 9.32405 10.9145 8.42259 10.8086 7.55566C10.7751 7.28156 10.97 7.03157 11.2441 6.99805C11.5181 6.9646 11.7671 7.15973 11.8008 7.43359C11.9416 8.58508 11.5808 9.7941 10.7119 10.6836C9.21398 12.2168 6.78006 12.2169 5.28223 10.6836C3.79077 9.15671 3.79073 6.68506 5.28223 5.1582C6.60448 3.80461 8.65617 3.64649 10.1494 4.68262V4ZM15.1689 8.00293C15.1689 9.55984 15.1705 10.7779 15.043 11.7266C14.9135 12.6897 14.6434 13.4503 14.0469 14.0469C13.4503 14.6434 12.6897 14.9135 11.7266 15.043C10.7779 15.1705 9.55984 15.1689 8.00293 15.1689C6.44572 15.1689 5.22709 15.1705 4.27832 15.043C3.31537 14.9135 2.55546 14.6432 1.95898 14.0469C1.36244 13.4503 1.09238 12.6897 0.962891 11.7266C0.835364 10.7779 0.835937 9.55989 0.835938 8.00293C0.835938 6.44572 0.835331 5.22709 0.962891 4.27832C1.09239 3.31523 1.36247 2.55549 1.95898 1.95898C2.55549 1.36247 3.31523 1.09239 4.27832 0.962891C5.22709 0.835331 6.44572 0.835938 8.00293 0.835938C9.55989 0.835937 10.7779 0.835364 11.7266 0.962891C12.6897 1.09238 13.4503 1.36244 14.0469 1.95898C14.6432 2.55546 14.9135 3.31537 15.043 4.27832C15.1705 5.22709 15.1689 6.44572 15.1689 8.00293Z" fill="currentColor"/></g><defs><clipPath id="a"><path fill="currentColor" d="M0 0H16V16H0z"/></clipPath></defs></svg>