<svg width="12" height="12" viewBox="0 0 12 12" fill="none" xmlns="http://www.w3.org/2000/svg"><path d="M8.48341 2.25C8.48341 1.97386 8.70727 1.75 8.98341 1.75C9.25942 1.75016 9.48341 1.97395 9.48341 2.25V4.28613C9.48328 4.56207 9.25934 4.78598 8.98341 4.78613H6.99415C6.7182 4.78601 6.49429 4.56209 6.49415 4.28613C6.49415 4.01007 6.71812 3.78626 6.99415 3.78613H7.65431C6.4092 3.02868 4.77797 3.19863 3.70607 4.2959C2.43137 5.60081 2.43137 7.72145 3.70607 9.02637C4.97434 10.3246 7.02568 10.3246 8.29396 9.02637C8.9875 8.31638 9.30532 7.3635 9.2422 6.42871L9.22462 6.24219L9.22267 6.14062C9.24143 5.90895 9.42044 5.71487 9.66017 5.68555C9.90011 5.65621 10.1205 5.80181 10.1943 6.02246L10.2168 6.12109L10.2402 6.36133C10.3213 7.56463 9.91269 8.80004 9.00978 9.72461C7.34915 11.4246 4.65088 11.4246 2.99025 9.72461C1.33657 8.03127 1.3366 5.29101 2.99025 3.59766C4.48528 2.06718 6.82079 1.91442 8.48341 3.13965V2.25Z" fill="currentColor"/></svg>