<svg width="16" height="16" viewBox="0 0 16 16" fill="none" xmlns="http://www.w3.org/2000/svg"><path d="M11.4775 2C11.4775 1.72386 11.7013 1.5 11.9775 1.5C12.2536 1.50003 12.4775 1.72388 12.4775 2V4.71484C12.4773 4.99082 12.2535 5.21481 11.9775 5.21484H9.3261C9.05007 5.21484 8.82627 4.99084 8.8261 4.71484C8.8261 4.4387 9.04996 4.21484 9.3261 4.21484H10.7343C8.97134 2.82629 6.43778 2.95758 4.82219 4.61133C3.05934 6.41597 3.05934 9.34672 4.82219 11.1514C6.57864 12.9494 9.42121 12.9494 11.1777 11.1514C12.1373 10.169 12.5763 8.85166 12.4892 7.56055L12.4648 7.30273L12.4628 7.20117C12.4815 6.96948 12.6606 6.77542 12.9003 6.74609C13.14 6.71678 13.3604 6.86184 13.4345 7.08203L13.457 7.18164L13.4872 7.49219C13.5926 9.0523 13.063 10.6533 11.8935 11.8506C9.7447 14.0503 6.25515 14.0503 4.10637 11.8506C1.9641 9.65752 1.96434 6.1063 4.10637 3.91309C6.12148 1.8502 9.31573 1.72114 11.4775 3.52734V2Z" fill="currentColor"/></svg>