<svg width="16" height="16" viewBox="0 0 16 16" fill="none" xmlns="http://www.w3.org/2000/svg"><path d="M12.0214 3.27145C12.2167 3.07619 12.5332 3.07619 12.7285 3.27145C12.9237 3.46671 12.9237 3.78322 12.7285 3.97848L8.89449 7.81246L12.7285 11.6464L12.7929 11.7246C12.9211 11.9186 12.8993 12.1826 12.7285 12.3535C12.5576 12.5243 12.2936 12.5461 12.0996 12.4179L12.0214 12.3535L8.18746 8.51949L4.35348 12.3535C4.15822 12.5487 3.84171 12.5487 3.64645 12.3535C3.45119 12.1582 3.45119 11.8417 3.64645 11.6464L7.48043 7.81246L3.64645 3.97848C3.45118 3.78322 3.45118 3.46671 3.64645 3.27145C3.84171 3.07618 4.15822 3.07618 4.35348 3.27145L8.18746 7.10543L12.0214 3.27145Z" fill="currentColor"/></svg>