<svg xmlns="http://www.w3.org/2000/svg" width="12" height="12" fill="currentColor"><g clip-path="url(#a)"><path fill="currentColor" fill-rule="evenodd" d="M7.808.55c.35 0 .636.148.9.348.252.193.533.475.865.807l.723.724c.332.332.614.612.807.865.2.263.348.55.348.9 0 .349-.147.635-.348.899-.193.253-.475.533-.807.865l-4.338 4.339c-.332.332-.613.613-.866.806-.263.202-.55.348-.9.348-.349 0-.635-.147-.899-.348-.253-.192-.533-.474-.865-.806l-.723-.724c-.332-.332-.614-.612-.807-.865-.2-.263-.348-.55-.348-.9s.147-.635.348-.899c.193-.253.475-.533.807-.865l4.338-4.339c.332-.332.613-.614.866-.807.263-.2.55-.347.9-.347m0 .901c-.074 0-.17.024-.353.163a6 6 0 0 0-.504.46l.427.427a.45.45 0 0 1-.636.637l-.429-.429-.424.424.782.782a.45.45 0 0 1-.636.637l-.783-.782-.423.423.428.43a.45.45 0 0 1-.636.636l-.43-.429-.423.424.782.782a.45.45 0 0 1-.636.637L3.13 5.89l-.423.423.428.43a.45.45 0 0 1-.636.636l-.428-.428a6 6 0 0 0-.458.503c-.14.183-.163.28-.163.354s.023.17.163.353c.148.194.378.425.727.775l.724.723c.35.35.58.58.774.728.184.14.28.163.354.163s.17-.024.353-.163c.194-.148.425-.378.775-.728l4.34-4.338c.35-.35.58-.58.727-.774.14-.183.163-.28.163-.354s-.023-.17-.163-.353c-.148-.194-.378-.425-.727-.775l-.724-.723c-.35-.35-.58-.58-.774-.728-.184-.14-.28-.163-.354-.163" clip-rule="evenodd"/></g><defs><clipPath id="a"><rect width="12" height="12" fill="currentColor" rx="5"/></clipPath></defs></svg>