<svg xmlns="http://www.w3.org/2000/svg" width="20" height="20" fill="currentColor"><path fill="currentColor" fill-rule="evenodd" d="M13.014 1.168c.506 0 .93.21 1.347.528.405.31.859.765 1.417 1.323l1.205 1.206c.558.558 1.013 1.01 1.322 1.416.318.416.53.841.53 1.347s-.212.93-.53 1.347c-.309.405-.764.859-1.322 1.417L9.75 16.983c-.558.559-1.011 1.014-1.417 1.323-.416.318-.84.529-1.346.529s-.931-.211-1.348-.53c-.405-.308-.858-.764-1.416-1.322l-1.206-1.205c-.558-.558-1.013-1.011-1.322-1.417-.318-.416-.528-.84-.529-1.346 0-.507.21-.931.529-1.348.309-.405.764-.859 1.322-1.417l7.232-7.231c.558-.559 1.011-1.014 1.416-1.323.417-.318.842-.528 1.348-.528m0 1c-.2 0-.413.073-.741.323-.283.216-.606.53-1.041.963l.889.889a.5.5 0 0 1-.707.707l-.891-.89-1.06 1.06 1.479 1.48a.5.5 0 1 1-.707.706l-1.48-1.48-1.06 1.061.89.89a.5.5 0 0 1-.707.708l-.89-.89-1.06 1.06 1.479 1.48a.5.5 0 1 1-.707.706l-1.48-1.48-1.06 1.062.89.89a.5.5 0 0 1-.707.707l-.888-.889c-.434.436-.748.76-.964 1.042-.25.328-.324.542-.324.742s.074.412.324.74c.259.34.656.738 1.234 1.316l1.206 1.205c.578.579.977.976 1.317 1.235.327.25.54.324.74.324s.412-.074.74-.324c.34-.26.738-.656 1.316-1.235l7.232-7.231c.578-.578.975-.977 1.234-1.316.25-.328.324-.541.324-.74 0-.2-.074-.413-.324-.74-.259-.34-.656-.74-1.234-1.317L15.07 3.726c-.578-.578-.977-.976-1.317-1.235-.327-.25-.54-.323-.74-.323" clip-rule="evenodd"/></svg>