<svg xmlns="http://www.w3.org/2000/svg" width="20" height="20" fill="currentColor"><path fill="currentColor" fill-rule="evenodd" d="M13.015 1.117c.52 0 .955.218 1.377.54.408.31.865.769 1.422 1.325l1.206 1.205c.556.557 1.014 1.014 1.326 1.422.321.422.539.857.539 1.378 0 .522-.218.956-.54 1.377-.31.409-.769.865-1.325 1.422L9.787 17.02c-.557.556-1.013 1.014-1.422 1.326-.42.32-.855.539-1.377.539-.521 0-.956-.218-1.378-.54-.408-.31-.865-.768-1.422-1.325l-1.205-1.206c-.557-.557-1.014-1.014-1.326-1.422-.321-.422-.54-.856-.54-1.377 0-.522.219-.957.54-1.378.312-.409.77-.865 1.326-1.422l7.232-7.232c.557-.556 1.013-1.014 1.422-1.326.42-.321.856-.539 1.378-.539m0 1.1c-.185 0-.388.067-.711.313-.273.208-.583.51-1 .924l.852.853a.55.55 0 0 1-.778.777l-.855-.855-.99.99 1.444 1.444a.55.55 0 0 1-.777.777L8.756 5.997l-.99.99.855.855a.55.55 0 0 1-.778.777l-.855-.854-.99.989 1.444 1.444a.55.55 0 0 1-.777.778L5.22 9.53l-.99.99.856.856a.55.55 0 0 1-.778.777l-.853-.852c-.415.417-.716.728-.924 1-.247.324-.313.527-.313.712s.067.386.313.71c.257.336.652.732 1.23 1.311l1.206 1.205c.579.58.975.974 1.311 1.23.323.247.526.313.71.313s.387-.066.71-.312c.336-.257.733-.652 1.312-1.23l7.231-7.232c.58-.58.974-.976 1.23-1.312.247-.323.313-.525.313-.71s-.066-.387-.312-.71c-.257-.336-.652-.732-1.23-1.311L15.035 3.76c-.579-.58-.975-.974-1.311-1.23-.323-.247-.526-.314-.71-.314" clip-rule="evenodd"/></svg>