<svg xmlns="http://www.w3.org/2000/svg" width="16" height="16" fill="currentColor"><g clip-path="url(#a)"><path fill="currentColor" fill-rule="evenodd" d="M10.411.834c.436 0 .797.182 1.139.443.33.253.699.622 1.143 1.067l.964.965c.445.444.814.812 1.067 1.143.26.342.443.702.443 1.138s-.182.796-.443 1.139c-.253.33-.622.699-1.067 1.143l-5.785 5.785c-.444.445-.813.814-1.143 1.067-.343.26-.703.443-1.14.443-.435 0-.795-.182-1.137-.443-.33-.253-.699-.622-1.143-1.067l-.965-.964c-.445-.444-.814-.812-1.067-1.143-.26-.343-.443-.703-.443-1.139s.182-.796.443-1.139c.253-.33.622-.699 1.067-1.143l5.785-5.785c.444-.445.813-.814 1.143-1.067.343-.26.703-.443 1.14-.443m0 1c-.129 0-.279.045-.532.238-.206.157-.44.382-.752.692l.64.64a.5.5 0 1 1-.707.706l-.642-.641-.707.707 1.113 1.113a.5.5 0 1 1-.707.707L7.004 4.883l-.707.707.641.641a.5.5 0 1 1-.707.707l-.641-.641-.707.707 1.113 1.113a.5.5 0 1 1-.707.707L4.176 7.711l-.707.707.641.642a.5.5 0 1 1-.707.707l-.64-.64c-.309.312-.534.546-.69.752-.194.253-.239.403-.239.532 0 .13.045.279.238.532.202.265.514.579.979 1.043l.965.964c.464.465.778.777 1.043.979.253.193.402.238.53.238.13 0 .28-.045.533-.238.265-.202.579-.514 1.043-.979l5.785-5.785c.465-.464.777-.778.979-1.043.193-.253.238-.403.238-.532 0-.13-.045-.278-.238-.531-.202-.265-.514-.579-.979-1.043l-.964-.965c-.464-.465-.778-.777-1.043-.979-.253-.193-.403-.238-.532-.238" clip-rule="evenodd"/></g><defs><clipPath id="a"><rect width="16" height="16" fill="currentColor" rx="5"/></clipPath></defs></svg>