<svg xmlns="http://www.w3.org/2000/svg" width="16" height="16" fill="currentColor"><path fill="currentColor" fill-rule="evenodd" d="M9.102 1c.714 0 1.394.305 1.869.839l.903 1.016a.5.5 0 0 1-.748.665l-.903-1.016A1.5 1.5 0 0 0 9.102 2H4a1.5 1.5 0 0 0-1.5 1.5v9A1.5 1.5 0 0 0 4 14h1v-1.5A1.5 1.5 0 0 1 6.5 11h3a1.5 1.5 0 0 1 1.5 1.5V14h1a1.5 1.5 0 0 0 1.5-1.5V9a.5.5 0 0 1 1 0v3.5A2.5 2.5 0 0 1 12 15H4a2.5 2.5 0 0 1-2.5-2.5v-9A2.5 2.5 0 0 1 4 1zM6.5 12a.5.5 0 0 0-.5.5V14h4v-1.5a.5.5 0 0 0-.5-.5z" clip-rule="evenodd"/><path fill="currentColor" fill-rule="evenodd" d="M12.762 4.397a.45.45 0 0 1 .321.132l1.25 1.25a.45.45 0 0 1 .005.631l-3.3 3.403a.45.45 0 0 1-.323.137h-1.25a.45.45 0 0 1-.45-.45V8.25a.45.45 0 0 1 .127-.313l3.3-3.403.068-.057a.45.45 0 0 1 .252-.08M9.915 8.432v.618h.61l2.858-2.948-.613-.614zm3.943-5.206a.78.78 0 0 1 1.047.053l.78.78c.306.306.306.8 0 1.106l-.61.61a.45.45 0 0 1-.635 0l-1.25-1.25a.45.45 0 0 1 0-.635l.61-.61zm.286.981.613.613.209-.208L14.352 4z" clip-rule="evenodd"/><path fill="currentColor" d="M8.5 4.047a.5.5 0 1 1 0 1h-3a.5.5 0 0 1 0-1z"/></svg>