<svg xmlns="http://www.w3.org/2000/svg" width="12" height="12" fill="currentColor"><path fill="currentColor" fill-rule="evenodd" d="M7.5 1.05a.45.45 0 0 1 0 .901H2.8a.85.85 0 0 0-.85.85v6.4c0 .47.38.85.85.85h1.272l-.014-1.036a.95.95 0 0 1 .949-.963l1.967-.001a.95.95 0 0 1 .95.936l.014 1.064H9.2c.47 0 .85-.38.85-.85v-3.2a.45.45 0 0 1 .9 0v3.2a1.75 1.75 0 0 1-1.75 1.75H2.8a1.75 1.75 0 0 1-1.75-1.75v-6.4c0-.967.783-1.75 1.75-1.75zM5.007 8.952a.05.05 0 0 0-.05.051l.015 1.049h2.066L7.023 9a.05.05 0 0 0-.05-.049z" clip-rule="evenodd"/><path fill="currentColor" fill-rule="evenodd" d="M10.106 1.493a.72.72 0 0 1 .792 0l.114.092.638.634a.72.72 0 0 1 0 1.021L7.84 7.022a.45.45 0 0 1-.317.131H6.5a.45.45 0 0 1-.45-.45V5.687a.45.45 0 0 1 .133-.319l3.81-3.783zM6.95 5.874v.379h.388l3.55-3.524-.386-.382z" clip-rule="evenodd"/><path fill="currentColor" d="M5.5 3.05a.45.45 0 0 1 0 .901h-1a.45.45 0 0 1 0-.9z"/></svg>