<svg xmlns="http://www.w3.org/2000/svg" width="16" height="16" fill="currentColor"><path fill="currentColor" d="M8.5 4.047a.5.5 0 1 1 0 1h-3a.5.5 0 0 1 0-1z"/><path fill="currentColor" fill-rule="evenodd" d="M9.12 1c.701 0 1.37.295 1.843.812l2.88 3.143a2.5 2.5 0 0 1 .657 1.689V12.5A2.5 2.5 0 0 1 12 15H4a2.5 2.5 0 0 1-2.5-2.5v-9A2.5 2.5 0 0 1 4 1zM4 2a1.5 1.5 0 0 0-1.5 1.5v9A1.5 1.5 0 0 0 4 14h1v-1.5A1.5 1.5 0 0 1 6.5 11h3a1.5 1.5 0 0 1 1.5 1.5V14h1a1.5 1.5 0 0 0 1.5-1.5V6.644a1.5 1.5 0 0 0-.394-1.013l-2.88-3.145A1.5 1.5 0 0 0 9.12 2zm2.5 10a.5.5 0 0 0-.5.5V14h4v-1.5a.5.5 0 0 0-.5-.5z" clip-rule="evenodd"/></svg>