<svg xmlns="http://www.w3.org/2000/svg" width="12" height="12" fill="currentColor"><path fill="currentColor" d="M6.5 3.05a.45.45 0 0 1 0 .901h-2a.45.45 0 0 1 0-.9z"/><path fill="currentColor" fill-rule="evenodd" d="M6.962 1.05c.464 0 .91.185 1.237.513l2.239 2.239c.328.328.512.773.512 1.237v4.162a1.75 1.75 0 0 1-1.75 1.75H2.8a1.75 1.75 0 0 1-1.75-1.75v-6.4c0-.967.783-1.75 1.75-1.75zM2.8 1.952a.85.85 0 0 0-.85.85v6.4c0 .47.38.85.85.85h1.272l-.014-1.036a.95.95 0 0 1 .949-.963l1.967-.001a.95.95 0 0 1 .95.936l.014 1.064H9.2c.47 0 .85-.38.85-.85V5.04a.85.85 0 0 0-.25-.6L7.563 2.2a.85.85 0 0 0-.6-.249zm2.207 7a.05.05 0 0 0-.05.051l.015 1.049h2.066L7.023 9a.05.05 0 0 0-.05-.049z" clip-rule="evenodd"/></svg>