<svg xmlns="http://www.w3.org/2000/svg" width="20" height="20" fill="currentColor"><path fill="currentColor" fill-rule="evenodd" d="M11.476 1.95c.807 0 1.578.342 2.119.943l.44.488a.55.55 0 0 1-.818.736l-.44-.49a1.75 1.75 0 0 0-1.301-.578H5.3a1.75 1.75 0 0 0-1.75 1.75v10.4c0 .967.783 1.75 1.75 1.75h.65v-1.451c0-.856.694-1.55 1.55-1.55h5c.856 0 1.55.693 1.55 1.55v1.451h.65a1.75 1.75 0 0 0 1.75-1.75v-4.7a.55.55 0 1 1 1.1 0v4.7a2.85 2.85 0 0 1-2.85 2.85H5.3a2.85 2.85 0 0 1-2.85-2.85V4.8A2.85 2.85 0 0 1 5.3 1.95zM7.5 15.047a.45.45 0 0 0-.45.45v1.451h5.9v-1.452a.45.45 0 0 0-.45-.45z" clip-rule="evenodd"/><path fill="currentColor" fill-rule="evenodd" d="M15.5 4.524a.55.55 0 0 1 .392.16l1.706 1.694a.55.55 0 0 1 .006.774L13.1 11.764a.55.55 0 0 1-.394.165H11a.55.55 0 0 1-.55-.55V9.686c0-.144.056-.282.156-.385l4.504-4.61.084-.07a.55.55 0 0 1 .306-.097M11.55 9.91v.92h.925l3.96-4.057-.925-.918zm5.49-6.987c.393-.32.972-.297 1.339.068l1.064 1.057a.997.997 0 0 1 0 1.417l-.832.826a.55.55 0 0 1-.775 0L16.13 4.598a.55.55 0 0 1 0-.78l.833-.827zm.258 1.284.925.918.372-.37-.925-.917z" clip-rule="evenodd"/><path fill="currentColor" d="M10.5 4.95a.55.55 0 1 1 0 1.099h-4a.55.55 0 1 1 0-1.1z"/></svg>