<svg xmlns="http://www.w3.org/2000/svg" width="20" height="20" fill="currentColor"><path fill="currentColor" d="M10.5 4.95a.55.55 0 1 1 0 1.099h-4a.55.55 0 1 1 0-1.1z"/><path fill="currentColor" fill-rule="evenodd" d="M11.476 1.95c.807 0 1.578.342 2.119.943l3.223 3.582c.471.523.732 1.203.732 1.907v6.817a2.85 2.85 0 0 1-2.85 2.85H5.3a2.85 2.85 0 0 1-2.85-2.85V4.8A2.85 2.85 0 0 1 5.3 1.95zM5.3 3.048a1.75 1.75 0 0 0-1.75 1.75v10.4c0 .967.783 1.75 1.75 1.75h.65v-1.451c0-.856.694-1.55 1.55-1.55h5c.856 0 1.55.693 1.55 1.55v1.451h.65a1.75 1.75 0 0 0 1.75-1.75V8.382c0-.432-.16-.85-.449-1.171l-3.225-3.583a1.75 1.75 0 0 0-1.3-.58zm2.2 11.999a.45.45 0 0 0-.45.45v1.451h5.9v-1.452a.45.45 0 0 0-.45-.45z" clip-rule="evenodd"/></svg>