<svg xmlns="http://www.w3.org/2000/svg" width="20" height="20" fill="currentColor"><path fill="currentColor" d="M1.45 15.7v-3.701a.55.55 0 1 1 1.1 0v3.7c0 .967.783 1.75 1.75 1.75H8a.55.55 0 1 1 0 1.1H4.3a2.85 2.85 0 0 1-2.85-2.85m16 0v-3.701a.55.55 0 1 1 1.1 0v3.7a2.85 2.85 0 0 1-2.85 2.85H12a.55.55 0 1 1 0-1.1h3.7a1.75 1.75 0 0 0 1.75-1.75M18 9.45a.55.55 0 1 1 0 1.099H2a.55.55 0 1 1 0-1.1zM1.45 7.998v-3.7a2.85 2.85 0 0 1 2.85-2.85H8a.55.55 0 1 1 0 1.1H4.3a1.75 1.75 0 0 0-1.75 1.75v3.7a.55.55 0 1 1-1.1 0m16 0v-3.7a1.75 1.75 0 0 0-1.75-1.75H12a.55.55 0 1 1 0-1.1h3.7a2.85 2.85 0 0 1 2.85 2.85v3.7a.55.55 0 1 1-1.1 0"/></svg>