<svg xmlns="http://www.w3.org/2000/svg" width="16" height="16" fill="currentColor"><path fill="currentColor" d="M1 12.5V9.625a.5.5 0 0 1 1 0V12.5A1.5 1.5 0 0 0 3.5 14h2.875a.5.5 0 0 1 0 1H3.5A2.5 2.5 0 0 1 1 12.5m13 0V9.625a.5.5 0 0 1 1 0V12.5a2.5 2.5 0 0 1-2.5 2.5H9.625a.5.5 0 0 1 0-1H12.5a1.5 1.5 0 0 0 1.5-1.5m.5-5a.5.5 0 0 1 0 1h-13a.5.5 0 0 1 0-1zM1 6.375V3.5A2.5 2.5 0 0 1 3.5 1h2.875a.5.5 0 0 1 0 1H3.5A1.5 1.5 0 0 0 2 3.5v2.875a.5.5 0 0 1-1 0m13 0V3.5A1.5 1.5 0 0 0 12.5 2H9.625a.5.5 0 0 1 0-1H12.5A2.5 2.5 0 0 1 15 3.5v2.875a.5.5 0 0 1-1 0"/></svg>