<svg width="16" height="16" viewBox="0 0 16 16" fill="none" xmlns="http://www.w3.org/2000/svg"><g clip-path="url(#a)"><path d="M0.828126 10C0.828126 9.72386 1.05198 9.5 1.32813 9.5C1.60427 9.5 1.82813 9.72386 1.82813 10C1.82813 11.2794 1.8297 12.001 1.91797 12.5068C1.99628 12.9556 2.13813 13.2075 2.46289 13.5322C2.74498 13.8142 3.13134 13.9831 3.80176 14.0732C4.48681 14.1653 5.39009 14.167 6.66113 14.167C6.93728 14.167 7.16113 14.3909 7.16113 14.667C7.16096 14.943 6.93717 15.167 6.66113 15.167C5.41842 15.167 4.43609 15.1676 3.66895 15.0645C2.88742 14.9594 2.25474 14.7381 1.75586 14.2393C1.29959 13.783 1.05055 13.3489 0.933595 12.6787C0.8266 12.0655 0.828126 11.2348 0.828126 10ZM14.1611 10C14.1611 9.72397 14.3851 9.50018 14.6611 9.5C14.9373 9.5 15.1611 9.72386 15.1611 10C15.1611 11.2348 15.1636 12.0655 15.0566 12.6787C14.9397 13.3489 14.6906 13.783 14.2344 14.2393C13.7356 14.7381 13.1027 14.9593 12.3213 15.0645C11.5541 15.1676 10.5711 15.167 9.32813 15.167C9.05209 15.167 8.8283 14.943 8.82813 14.667C8.82813 14.3909 9.05198 14.167 9.32813 14.167C10.5993 14.167 11.5024 14.1653 12.1875 14.0732C12.8582 13.9831 13.2452 13.8144 13.5273 13.5322C13.852 13.2076 13.993 12.9555 14.0713 12.5068C14.1596 12.001 14.1611 11.2794 14.1611 10ZM14.6611 7.5C14.9373 7.5 15.1611 7.72386 15.1611 8C15.1611 8.27614 14.9373 8.5 14.6611 8.5H1.32813C1.05198 8.5 0.828126 8.27614 0.828126 8C0.828126 7.72386 1.05198 7.5 1.32813 7.5H14.6611ZM0.828126 6.00293C0.828126 4.76831 0.826638 3.93737 0.933595 3.32422C1.05055 2.654 1.29957 2.21996 1.75586 1.76367C2.25477 1.26476 2.88733 1.04356 3.66895 0.938477C4.4361 0.835349 5.4184 0.835937 6.66113 0.835938C6.93728 0.835938 7.16113 1.0598 7.16113 1.33594C7.16113 1.61208 6.93728 1.83594 6.66113 1.83594C5.39009 1.83594 4.48681 1.83661 3.80176 1.92871C3.13116 2.01889 2.745 2.18859 2.46289 2.4707C2.13813 2.79546 1.99628 3.04731 1.91797 3.49609C1.82976 4.00192 1.82813 4.72381 1.82813 6.00293C1.82795 6.27892 1.60416 6.50293 1.32813 6.50293C1.05209 6.50293 0.828302 6.27892 0.828126 6.00293ZM14.1611 6.00293C14.1611 4.72376 14.1595 4.00192 14.0713 3.49609C13.993 3.04746 13.8519 2.7953 13.5273 2.4707C13.2452 2.18856 12.8582 2.01889 12.1875 1.92871C11.5024 1.83662 10.5993 1.83594 9.32813 1.83594C9.05198 1.83594 8.82813 1.61208 8.82813 1.33594C8.82813 1.0598 9.05198 0.835938 9.32813 0.835938C10.5711 0.835938 11.5541 0.835325 12.3213 0.938477C13.1027 1.04359 13.7356 1.26488 14.2344 1.76367C14.6905 2.21984 14.9397 2.65415 15.0566 3.32422C15.1636 3.93735 15.1611 4.76838 15.1611 6.00293C15.161 6.27892 14.9372 6.50293 14.6611 6.50293C14.3853 6.50275 14.1613 6.27881 14.1611 6.00293Z" fill="currentColor"/></g><defs><clipPath id="a"><rect width="16" height="16" rx="5" fill="currentColor"/></clipPath></defs></svg>