<svg xmlns="http://www.w3.org/2000/svg" width="12" height="12" fill="currentColor"><g clip-path="url(#a)"><path fill="currentColor" d="M.55 9.701v-2.45a.45.45 0 0 1 .9 0v2.45c0 .47.38.85.85.85h2.45a.45.45 0 0 1 0 .9H2.3a1.75 1.75 0 0 1-1.75-1.75m10 0v-2.45a.45.45 0 0 1 .9 0v2.45a1.75 1.75 0 0 1-1.75 1.75H7.25a.45.45 0 0 1 0-.9H9.7c.47 0 .85-.38.85-.85m.45-4.15a.45.45 0 0 1 0 .9H1a.45.45 0 0 1 0-.9zM.55 4.75V2.3c0-.967.783-1.75 1.75-1.75h2.45a.45.45 0 0 1 0 .9H2.3a.85.85 0 0 0-.85.85v2.45a.45.45 0 0 1-.9 0m10 0V2.3a.85.85 0 0 0-.85-.85H7.25a.45.45 0 0 1 0-.9H9.7c.966 0 1.75.783 1.75 1.75v2.45a.45.45 0 0 1-.9 0"/></g><defs><clipPath id="a"><rect width="12" height="12" fill="currentColor" rx="2"/></clipPath></defs></svg>