<svg width="12" height="12" viewBox="0 0 12 12" fill="none" xmlns="http://www.w3.org/2000/svg"><path d="M10.5 6C10.5 5.04308 10.4993 4.37563 10.4316 3.87207C10.3659 3.38289 10.2451 3.12396 10.0605 2.93945C9.87604 2.75494 9.61711 2.63413 9.12793 2.56836C8.62437 2.50066 7.95692 2.5 7 2.5H5C4.04308 2.5 3.37563 2.50066 2.87207 2.56836C2.38289 2.63413 2.12396 2.75494 1.93945 2.93945C1.75494 3.12396 1.63413 3.38289 1.56836 3.87207C1.50066 4.37563 1.5 5.04308 1.5 6C1.5 6.95692 1.50066 7.62437 1.56836 8.12793C1.63413 8.61711 1.75494 8.87604 1.93945 9.06055C2.12396 9.24506 2.38289 9.36587 2.87207 9.43164C3.37563 9.49934 4.04308 9.5 5 9.5H7L8.23438 9.49121C8.5836 9.48248 8.87625 9.46548 9.12793 9.43164C9.61711 9.36587 9.87604 9.24506 10.0605 9.06055C10.2451 8.87604 10.3659 8.61711 10.4316 8.12793C10.4993 7.62437 10.5 6.95692 10.5 6ZM7.5 8C7.77614 8 8 8.22386 8 8.5C8 8.77614 7.77614 9 7.5 9H4.5C4.22386 9 4 8.77614 4 8.5C4 8.22386 4.22386 8 4.5 8H7.5ZM11.5 6C11.5 6.92848 11.5006 7.67511 11.4219 8.26074C11.3412 8.86081 11.1689 9.3663 10.7676 9.76758C10.3663 10.1689 9.86081 10.3412 9.26074 10.4219C8.67511 10.5006 7.92848 10.5 7 10.5H5C4.07152 10.5 3.32489 10.5006 2.73926 10.4219C2.13919 10.3412 1.6337 10.1689 1.23242 9.76758C0.831144 9.3663 0.658803 8.86081 0.578125 8.26074C0.49943 7.67511 0.5 6.92848 0.5 6C0.5 5.07152 0.49943 4.32489 0.578125 3.73926C0.658803 3.13919 0.831144 2.6337 1.23242 2.23242C1.6337 1.83114 2.13919 1.6588 2.73926 1.57813C3.32489 1.49943 4.07152 1.5 5 1.5H7C7.92848 1.5 8.67511 1.49943 9.26074 1.57813C9.86081 1.6588 10.3663 1.83114 10.7676 2.23242C11.1689 2.6337 11.3412 3.13919 11.4219 3.73926C11.5006 4.32489 11.5 5.07152 11.5 6Z" fill="currentColor"/></svg>