<svg xmlns="http://www.w3.org/2000/svg" width="16" height="16" fill="currentColor"><path fill="currentColor" d="M10.148 2.3c.89 0 1.718.463 2.184 1.221l2.195 3.569a1.74 1.74 0 0 1 0 1.821l-1.954 3.176A3.39 3.39 0 0 1 9.687 13.7H4.079A3.08 3.08 0 0 1 1 10.621V5.38A3.08 3.08 0 0 1 4.08 2.3zM3 10.502v-5a.5.5 0 1 1 1 0v5a.5.5 0 0 1-1 0m7.8-2.55a.85.85 0 1 0-1.7 0 .85.85 0 0 0 1.7 0m1 0a1.85 1.85 0 1 1-3.7 0 1.85 1.85 0 0 1 3.7 0M2 10.621c0 1.148.93 2.08 2.08 2.08h5.607c.83 0 1.6-.43 2.035-1.138l1.953-3.175a.74.74 0 0 0 0-.774l-2.196-3.57a1.56 1.56 0 0 0-1.33-.743h-6.07A2.08 2.08 0 0 0 2 5.38z"/></svg>