<svg xmlns="http://www.w3.org/2000/svg" width="12" height="12" fill="currentColor"><path fill="currentColor" d="M7.652 1.55a2.04 2.04 0 0 1 1.736.97l1.688 2.747a1.4 1.4 0 0 1 0 1.468L9.573 9.18a2.67 2.67 0 0 1-2.275 1.272H2.984A2.435 2.435 0 0 1 .55 8.017V3.985a2.435 2.435 0 0 1 2.434-2.434zM2.35 8.002v-4a.45.45 0 0 1 .9 0v4a.45.45 0 0 1-.9 0m5.8-2a.55.55 0 1 0-1.1.001.55.55 0 0 0 1.1-.001m.9 0a1.45 1.45 0 1 1-2.9 0 1.45 1.45 0 0 1 2.9 0m-7.6 2.016c0 .847.687 1.534 1.534 1.534h4.314c.615 0 1.186-.32 1.509-.844l1.503-2.442a.51.51 0 0 0 0-.528L8.62 2.992a1.14 1.14 0 0 0-.969-.54H2.984c-.847 0-1.534.686-1.534 1.533z"/></svg>