<svg xmlns="http://www.w3.org/2000/svg" width="20" height="20" fill="currentColor"><path fill="currentColor" d="M12.58 2.65a3.95 3.95 0 0 1 3.412 1.96l2.35 4.028a2.7 2.7 0 0 1 0 2.724l-2.35 4.029a3.95 3.95 0 0 1-3.412 1.96H4.9A3.95 3.95 0 0 1 .95 13.4V6.826A4.177 4.177 0 0 1 5.127 2.65zM3.45 13.5v-7a.55.55 0 0 1 1.1 0v7a.55.55 0 1 1-1.1 0m10.4-3.5a1.15 1.15 0 1 0-2.299 0 1.15 1.15 0 0 0 2.299 0m1.1 0a2.25 2.25 0 1 1-4.5 0 2.25 2.25 0 0 1 4.5 0m-12.9 3.4a2.85 2.85 0 0 0 2.85 2.85h7.68a2.85 2.85 0 0 0 2.462-1.414l2.35-4.028c.29-.5.29-1.116 0-1.616l-2.35-4.028A2.85 2.85 0 0 0 12.58 3.75H5.127A3.077 3.077 0 0 0 2.05 6.827z"/></svg>