<svg width="12" height="12" viewBox="0 0 12 12" fill="none" xmlns="http://www.w3.org/2000/svg"><path fill-rule="evenodd" clip-rule="evenodd" d="M5.0909 1.90909C3.33363 1.90909 1.90909 3.33363 1.90909 5.0909C1.90909 6.84816 3.33363 8.27271 5.0909 8.27271C6.84816 8.27271 8.27271 6.84816 8.27271 5.0909C8.27271 3.33363 6.84816 1.90909 5.0909 1.90909ZM1 5.0909C1 2.83156 2.83156 1 5.0909 1C7.35024 1 9.1818 2.83156 9.1818 5.0909C9.1818 7.35024 7.35024 9.1818 5.0909 9.1818C2.83156 9.1818 1 7.35024 1 5.0909Z" fill="currentColor"/><path d="M8.39203 7.50756C8.18271 7.79301 7.93725 8.0503 7.66241 8.27271L10.224 10.8669C10.4016 11.0444 10.6894 11.0444 10.8669 10.8669C11.0444 10.6894 11.0444 10.4016 10.8669 10.2241L8.39203 7.50756Z" fill="currentColor"/></svg>