<svg width="16" height="16" viewBox="0 0 16 16" fill="none" xmlns="http://www.w3.org/2000/svg"><path fill-rule="evenodd" clip-rule="evenodd" d="M7 3.5C5.067 3.5 3.5 5.067 3.5 7C3.5 8.933 5.067 10.5 7 10.5C8.933 10.5 10.5 8.933 10.5 7C10.5 5.067 8.933 3.5 7 3.5ZM2.5 7C2.5 4.51472 4.51472 2.5 7 2.5C9.48528 2.5 11.5 4.51472 11.5 7C11.5 9.48528 9.48528 11.5 7 11.5C4.51472 11.5 2.5 9.48528 2.5 7Z" fill="currentColor"/><path d="M10.6313 9.65834C10.401 9.97233 10.131 10.2554 9.82867 10.5L12.6465 13.3536C12.8417 13.5489 13.1583 13.5489 13.3536 13.3536C13.5488 13.1583 13.5488 12.8417 13.3536 12.6465L10.6313 9.65834Z" fill="currentColor"/></svg>