<svg width="12" height="12" viewBox="0 0 12 12" fill="none" xmlns="http://www.w3.org/2000/svg"><path d="M8 5.5C8 4.11929 6.88071 3 5.5 3C4.11929 3 3 4.11929 3 5.5C3 6.88071 4.11929 8 5.5 8V9C3.567 9 2 7.433 2 5.5C2 3.567 3.567 2 5.5 2C7.433 2 9 3.567 9 5.5C9 7.433 7.433 9 5.5 9V8C6.88071 8 8 6.88071 8 5.5Z" fill="currentColor"/><path d="M9.85352 9.14648L9.91797 9.22461C10.0461 9.41869 10.0244 9.68265 9.85352 9.85352C9.68265 10.0244 9.41869 10.0461 9.22461 9.91797L9.14648 9.85352L7.14648 7.85352L7.85352 7.14648L9.85352 9.14648Z" fill="currentColor"/></svg>