<svg xmlns="http://www.w3.org/2000/svg" width="12" height="12" fill="currentColor"><g clip-path="url(#a)"><path fill="currentColor" d="M11.05 8.911c0-.287-.071-.556-.194-.786-.259-.488-.742-.802-1.28-.802H2.424c-.539 0-1.022.314-1.281.802-.123.23-.194.499-.194.786 0 .902.684 1.589 1.475 1.589h7.15c.79 0 1.475-.687 1.475-1.589M4.725 9.3v-.55a.45.45 0 0 1 .9 0v.55a.45.45 0 0 1-.9 0m1.375 0v-.55a.45.45 0 0 1 .9 0v.55a.45.45 0 0 1-.9 0m1.375 0v-.55a.45.45 0 0 1 .9 0v.55a.45.45 0 0 1-.9 0m1.375 0v-.55a.45.45 0 0 1 .9 0v.55a.45.45 0 0 1-.9 0M3.525 1.5c-.229 0-.4.053-.536.16-.139.108-.288.306-.407.678l-1.05 4.268c.274-.117.575-.183.893-.183h7.15c.317 0 .618.067.893.183L9.417 2.338c-.119-.372-.267-.57-.406-.679-.136-.106-.307-.159-.536-.159zm8.425 7.411c0 1.35-1.04 2.488-2.375 2.488h-7.15C1.089 11.4.05 10.261.05 8.911c0-.414.098-.805.27-1.15l1.393-5.655.008-.027c.155-.494.39-.875.716-1.13.33-.257.71-.35 1.088-.35h4.95c.378 0 .758.093 1.088.35.286.223.5.543.654.95l.062.18.008.027 1.393 5.655c.172.345.27.736.27 1.15"/></g><defs><clipPath id="a"><rect width="12" height="12" fill="currentColor" rx="2"/></clipPath></defs></svg>