<svg xmlns="http://www.w3.org/2000/svg" width="16" height="16" fill="currentColor"><path fill="currentColor" d="M14.5 11.775c0-.388-.094-.75-.256-1.061-.344-.66-.984-1.081-1.694-1.081h-9.1c-.71 0-1.35.421-1.694 1.08a2.3 2.3 0 0 0-.256 1.062c0 1.22.908 2.142 1.95 2.142h9.1c1.042 0 1.95-.922 1.95-2.142m-8.068.542v-.816a.5.5 0 1 1 1 0v.816a.5.5 0 0 1-1 0m1.78 0v-.816a.5.5 0 0 1 1 0v.816a.5.5 0 0 1-1 0m1.783 0v-.816a.5.5 0 1 1 1 0v.816a.5.5 0 0 1-1 0m1.782 0v-.816a.5.5 0 1 1 1 0v.816a.5.5 0 0 1-1 0M4.85 2.084c-.302 0-.534.072-.723.222-.194.153-.393.43-.548.93L2.203 8.927a2.8 2.8 0 0 1 1.247-.295h9.1c.448 0 .87.107 1.246.295L12.42 3.235c-.155-.5-.353-.776-.547-.93-.189-.15-.421-.221-.723-.221zm10.65 9.691c0 1.7-1.286 3.142-2.95 3.142h-9.1c-1.664 0-2.95-1.443-2.95-3.142 0-.526.124-1.025.34-1.463l1.774-7.335.004-.016.004-.015c.194-.628.484-1.106.884-1.424.405-.321.873-.438 1.344-.438h6.3c.471 0 .94.117 1.344.438.35.278.616.679.807 1.196l.077.228.004.015.004.016 1.773 7.335c.217.438.341.937.341 1.463"/></svg>