<svg xmlns="http://www.w3.org/2000/svg" width="20" height="20" fill="currentColor"><path fill="currentColor" d="M17.95 14.58a2.8 2.8 0 0 0-.316-1.295c-.425-.805-1.22-1.326-2.109-1.326H4.475c-.89 0-1.684.521-2.109 1.326-.2.38-.316.822-.316 1.295 0 1.48 1.118 2.62 2.425 2.62h11.05c1.307 0 2.425-1.14 2.425-2.62m-9.78.536v-.931a.55.55 0 1 1 1.1 0v.931a.55.55 0 0 1-1.1 0m2.328 0v-.931a.551.551 0 0 1 1.1 0v.931a.55.55 0 0 1-1.1 0m2.33 0v-.931a.55.55 0 0 1 1.1 0v.931a.55.55 0 0 1-1.1 0m2.328 0v-.931a.55.55 0 1 1 1.1 0v.931a.55.55 0 0 1-1.1 0M6.175 2.9c-.378 0-.673.09-.915.28-.247.193-.492.534-.683 1.14l-1.7 6.943a3.36 3.36 0 0 1 1.598-.404h11.05c.578 0 1.119.147 1.596.404l-1.7-6.944c-.19-.605-.434-.946-.68-1.14-.243-.189-.538-.279-.916-.279zM19.05 14.58c0 2.021-1.546 3.72-3.525 3.72H4.475C2.495 18.3.95 16.602.95 14.58c0-.626.149-1.218.41-1.74l2.156-8.809.004-.016.005-.017c.235-.749.581-1.312 1.055-1.684.48-.376 1.034-.513 1.595-.513h7.65c.561 0 1.115.137 1.595.513.474.372.82.935 1.055 1.684l.005.017.004.016 2.156 8.81c.261.52.41 1.113.41 1.74"/></svg>