<svg width="12" height="12" viewBox="0 0 12 12" fill="none" xmlns="http://www.w3.org/2000/svg"><path d="M10.5 8.64746C10.5 8.40091 10.4393 8.17125 10.335 7.97461C10.1133 7.55731 9.70289 7.29395 9.25 7.29395H2.75C2.29711 7.29395 1.88666 7.55731 1.66504 7.97461C1.56068 8.17125 1.5 8.40091 1.5 8.64746C1.5002 9.42178 2.0863 10 2.75 10H9.25C9.9137 10 10.4998 9.42178 10.5 8.64746ZM4.75 9V8.5C4.75 8.22386 4.97386 8 5.25 8C5.52614 8 5.75 8.22386 5.75 8.5V9C5.75 9.27614 5.52614 9.5 5.25 9.5C4.97386 9.5 4.75 9.27614 4.75 9ZM6 9V8.5C6 8.22386 6.22386 8 6.5 8C6.77614 8 7 8.22386 7 8.5V9C7 9.27614 6.77614 9.5 6.5 9.5C6.22386 9.5 6 9.27614 6 9ZM7.25 9V8.5C7.25 8.22386 7.47386 8 7.75 8C8.02614 8 8.25 8.22386 8.25 8.5V9C8.25 9.27614 8.02614 9.5 7.75 9.5C7.47386 9.5 7.25 9.27614 7.25 9ZM8.5 9V8.5C8.5 8.22386 8.72386 8 9 8C9.27614 8 9.5 8.22386 9.5 8.5V9C9.5 9.27614 9.27614 9.5 9 9.5C8.72386 9.5 8.5 9.27614 8.5 9ZM3.75 2C3.55673 2 3.42352 2.04482 3.31934 2.12598C3.21159 2.20998 3.08374 2.37214 2.97949 2.69824L2.06641 6.40527C2.28125 6.3337 2.51062 6.29395 2.75 6.29395H9.25C9.48906 6.29395 9.71803 6.33389 9.93262 6.40527L9.01953 2.69824C8.9153 2.37233 8.78838 2.20995 8.68066 2.12598C8.57648 2.04482 8.44327 2 8.25 2H3.75ZM11.5 8.64746C11.4998 9.91947 10.519 11 9.25 11H2.75C1.48095 11 0.500206 9.91947 0.5 8.64746C0.5 8.25915 0.590789 7.89059 0.751953 7.56543L2.01465 2.43945L2.01855 2.42383L2.02344 2.4082C2.16857 1.94745 2.38869 1.58281 2.7041 1.33691C3.0243 1.08733 3.39112 1 3.75 1H8.25C8.60888 1 8.9757 1.08733 9.2959 1.33691C9.61131 1.58281 9.83143 1.94745 9.97656 2.4082L9.98145 2.42383L9.98535 2.43945L11.248 7.56543C11.4092 7.89059 11.5 8.25915 11.5 8.64746Z" fill="currentColor"/></svg>