<svg xmlns="http://www.w3.org/2000/svg" width="16" height="16" fill="currentColor"><g clip-path="url(#a)"><path fill="currentColor" d="M12.785 8c0-.577.314-1.085.777-1.376.211-.133.294-.208.341-.27a.9.9 0 0 0 .18-.666 1 1 0 0 0-.108-.298c-.077-.157-.19-.352-.356-.64a12 12 0 0 0-.376-.628 1 1 0 0 0-.204-.242.9.9 0 0 0-.664-.179c-.077.01-.183.045-.404.162a1.63 1.63 0 0 1-1.58-.014 1.63 1.63 0 0 1-.802-1.362c-.01-.25-.032-.36-.062-.431a.9.9 0 0 0-.486-.488 1 1 0 0 0-.312-.056C8.555 1.5 8.33 1.5 7.999 1.5c-.333 0-.558 0-.732.012a1 1 0 0 0-.312.056.9.9 0 0 0-.486.488c-.03.072-.053.18-.063.431a1.63 1.63 0 0 1-.801 1.362 1.63 1.63 0 0 1-1.58.014c-.221-.117-.327-.152-.404-.162a.9.9 0 0 0-.664.179 1 1 0 0 0-.205.242c-.097.145-.21.34-.376.628s-.278.483-.354.64a1 1 0 0 0-.108.298.9.9 0 0 0 .178.666c.047.062.13.137.343.27.463.291.776.799.776 1.376s-.313 1.085-.776 1.376c-.212.133-.296.208-.343.27a.9.9 0 0 0-.178.665 1 1 0 0 0 .108.3c.076.156.188.35.354.639.166.288.279.483.376.628a1 1 0 0 0 .205.242.9.9 0 0 0 .664.179c.077-.01.183-.045.404-.162a1.63 1.63 0 0 1 1.58.014c.5.29.78.815.801 1.362.01.25.033.36.063.431a.9.9 0 0 0 .486.488 1 1 0 0 0 .312.056c.174.012.399.012.731.012s.557 0 .73-.012a1 1 0 0 0 .313-.056.9.9 0 0 0 .486-.488c.03-.072.053-.181.062-.431.02-.547.302-1.073.802-1.362a1.63 1.63 0 0 1 1.58-.014c.221.117.327.152.404.162a.9.9 0 0 0 .664-.179 1 1 0 0 0 .204-.242c.098-.145.21-.34.376-.628.167-.288.279-.483.356-.64a1 1 0 0 0 .107-.298.9.9 0 0 0-.179-.666c-.047-.062-.13-.137-.341-.27A1.63 1.63 0 0 1 12.785 8m-3.184-.003A1.6 1.6 0 1 0 6.4 8a1.6 1.6 0 0 0 3.2-.002M13.785 8c0 .204.111.405.309.53.237.149.445.3.603.507.307.4.442.905.376 1.404-.028.215-.103.41-.2.609-.095.194-.228.423-.388.7-.159.276-.291.506-.412.685a2 2 0 0 1-.425.478c-.4.307-.905.443-1.404.377-.259-.034-.493-.138-.741-.27a.63.63 0 0 0-.611-.002.63.63 0 0 0-.303.532c-.01.28-.038.536-.138.777a1.9 1.9 0 0 1-1.027 1.028 2 2 0 0 1-.627.13c-.216.015-.48.015-.799.015s-.583 0-.799-.015a2 2 0 0 1-.627-.13 1.9 1.9 0 0 1-1.027-1.028c-.1-.241-.127-.497-.138-.777a.63.63 0 0 0-.302-.532.63.63 0 0 0-.612.002c-.248.132-.482.236-.741.27-.5.066-1.005-.07-1.404-.377a2 2 0 0 1-.426-.478c-.12-.18-.253-.409-.412-.685-.16-.277-.292-.506-.387-.7a2 2 0 0 1-.2-.609 1.9 1.9 0 0 1 .376-1.404c.159-.207.365-.358.602-.508A.63.63 0 0 0 2.211 8a.63.63 0 0 0-.31-.53c-.237-.149-.443-.3-.602-.507a1.9 1.9 0 0 1-.376-1.404c.028-.215.103-.41.2-.609.095-.194.227-.423.387-.7s.291-.506.412-.686c.123-.183.255-.345.426-.477.4-.307.905-.443 1.404-.377.259.034.493.138.741.27a.63.63 0 0 0 .612.002.63.63 0 0 0 .302-.532c.01-.28.038-.536.138-.777A1.9 1.9 0 0 1 6.572.645c.2-.083.407-.115.627-.13C7.415.5 7.68.5 8 .5c.318 0 .582 0 .798.015.22.015.427.047.627.13a1.9 1.9 0 0 1 1.027 1.028c.1.241.127.497.138.777.009.234.127.43.303.532a.63.63 0 0 0 .611-.003c.248-.13.482-.235.741-.269.5-.066 1.005.07 1.405.377.17.131.302.294.425.477.121.18.252.41.411.686.16.277.293.506.388.7.097.199.172.394.2.609a1.9 1.9 0 0 1-.376 1.404c-.158.207-.366.358-.603.508a.63.63 0 0 0-.309.529m-3.184-.003a2.601 2.601 0 1 1-5.202 0 2.601 2.601 0 0 1 5.202 0"/></g><defs><clipPath id="a"><rect width="16" height="16" fill="currentColor" rx="5"/></clipPath></defs></svg>