<svg width="16" height="16" viewBox="0 0 16 16" fill="none" xmlns="http://www.w3.org/2000/svg"><path d="M12.546 8.00293C12.546 7.44405 12.8503 6.95309 13.2979 6.67188C13.4989 6.54554 13.5748 6.47612 13.6172 6.4209C13.7518 6.24559 13.8111 6.02377 13.7823 5.80469C13.775 5.7495 13.7534 5.67178 13.6827 5.52735C13.6099 5.37884 13.5035 5.19388 13.3448 4.91895C13.1861 4.64414 13.0796 4.45947 12.9874 4.32227C12.8977 4.18889 12.8411 4.13154 12.7969 4.09766C12.6216 3.96311 12.3998 3.90377 12.1807 3.93262C12.1116 3.94177 12.0131 3.97282 11.8028 4.08399C11.3356 4.33077 10.7593 4.34859 10.2754 4.06934C9.7914 3.78987 9.51786 3.28118 9.4981 2.75293C9.48919 2.51518 9.46714 2.41497 9.44049 2.35059C9.35596 2.14653 9.1943 1.98404 8.99029 1.89942C8.93891 1.87813 8.86042 1.85861 8.70025 1.84766C8.53528 1.8364 8.32143 1.83594 8.00396 1.83594C7.68667 1.83594 7.47357 1.83641 7.30865 1.84766C7.14826 1.85861 7.07003 1.87812 7.01861 1.89942C6.81447 1.98401 6.652 2.14643 6.56744 2.35059C6.54083 2.41498 6.51872 2.51544 6.50982 2.75293C6.49007 3.28116 6.21748 3.78989 5.73346 4.06934C5.24944 4.34878 4.67247 4.33099 4.20514 4.08399C3.99461 3.97273 3.89631 3.94172 3.82721 3.93262C3.60827 3.9039 3.38719 3.96327 3.21197 4.09766C3.16783 4.13153 3.11117 4.18894 3.02154 4.32227C2.92934 4.45946 2.82275 4.64419 2.66412 4.91895C2.5054 5.19386 2.39897 5.37885 2.32623 5.52735C2.25547 5.6718 2.23291 5.74949 2.22564 5.80469C2.19688 6.02373 2.25619 6.24563 2.39068 6.4209C2.43312 6.47619 2.50942 6.54521 2.711 6.67188C3.15862 6.95314 3.46298 7.44396 3.46295 8.00293C3.46281 8.56171 3.1585 9.05183 2.711 9.33301C2.50927 9.45976 2.43312 9.52965 2.39068 9.58496C2.25634 9.76025 2.19682 9.98221 2.22564 10.2012C2.23297 10.2563 2.25572 10.3336 2.32623 10.4775C2.39897 10.626 2.50539 10.811 2.66412 11.0859C2.82281 11.3608 2.92932 11.5454 3.02154 11.6826C3.11123 11.8161 3.16781 11.8743 3.21197 11.9082C3.38712 12.0424 3.60843 12.1019 3.82721 12.0732C3.89633 12.0641 3.99451 12.0322 4.20514 11.9209C4.67246 11.6739 5.24944 11.6562 5.73346 11.9355C6.2175 12.215 6.49006 12.7237 6.50982 13.252C6.51873 13.49 6.54076 13.5909 6.56744 13.6553C6.65202 13.8593 6.81461 14.0209 7.01861 14.1055C7.07004 14.1268 7.14823 14.1473 7.30865 14.1582C7.47357 14.1695 7.68667 14.1689 8.00396 14.1689C8.32143 14.1689 8.53528 14.1695 8.70025 14.1582C8.86045 14.1472 8.9389 14.1268 8.99029 14.1055C9.19408 14.0209 9.35592 13.8591 9.44049 13.6553C9.46717 13.5909 9.4892 13.49 9.4981 13.252C9.51785 12.7238 9.79067 12.2151 10.2745 11.9355C10.7584 11.6561 11.3355 11.6741 11.8028 11.9209C12.0133 12.0321 12.1116 12.0641 12.1807 12.0732C12.3998 12.1021 12.6216 12.0418 12.7969 11.9072C12.8411 11.8733 12.8978 11.8159 12.9874 11.6826C13.0796 11.5454 13.1861 11.3608 13.3448 11.0859C13.5035 10.811 13.6099 10.626 13.6827 10.4775C13.7533 10.3333 13.775 10.2554 13.7823 10.2002C13.811 9.98126 13.7516 9.76018 13.6172 9.58496C13.5748 9.52968 13.4994 9.45964 13.2979 9.33301C12.8504 9.05183 12.5461 8.5617 12.546 8.00293ZM9.50006 8C9.50006 7.17157 8.82849 6.5 8.00006 6.5C7.17163 6.5 6.50006 7.17157 6.50006 8C6.50006 8.82843 7.17163 9.5 8.00006 9.5C8.82849 9.5 9.50006 8.82843 9.50006 8ZM13.546 8.00293C13.5461 8.18794 13.6469 8.37173 13.8292 8.48633C14.0561 8.62895 14.2571 8.77478 14.4112 8.97559C14.7071 9.36129 14.8379 9.84906 14.7745 10.3311C14.7471 10.5388 14.6733 10.7277 14.5801 10.918C14.4889 11.1041 14.3628 11.3231 14.211 11.5859C14.0592 11.8489 13.9331 12.0681 13.8174 12.2402C13.6992 12.4161 13.5716 12.5736 13.4053 12.7012C13.0198 12.9969 12.5326 13.1278 12.0508 13.0645C11.8 13.0314 11.5729 12.9309 11.336 12.8057C11.1456 12.705 10.9358 12.7093 10.7754 12.8018C10.6151 12.8943 10.5062 13.0738 10.4981 13.2891C10.4881 13.5569 10.4611 13.8033 10.3643 14.0371C10.1782 14.4863 9.82134 14.8432 9.37213 15.0293C9.1786 15.1094 8.97896 15.1409 8.76764 15.1553C8.56077 15.1694 8.30765 15.1689 8.00396 15.1689C7.70032 15.1689 7.44713 15.1694 7.24029 15.1553C7.02905 15.1408 6.82926 15.1094 6.6358 15.0293C6.18674 14.8432 5.82964 14.4862 5.64361 14.0371C5.54689 13.8034 5.52081 13.5568 5.5108 13.2891C5.50266 13.0738 5.3938 12.8943 5.23346 12.8018C5.07309 12.7092 4.86341 12.705 4.67291 12.8057C4.43591 12.9309 4.20902 13.0314 3.95807 13.0645C3.47602 13.1279 2.98833 12.9972 2.6026 12.7012C2.43639 12.5736 2.30964 12.4161 2.19146 12.2402C2.07581 12.0681 1.94976 11.849 1.79791 11.5859C1.64605 11.3229 1.51902 11.1042 1.42779 10.918C1.33458 10.7277 1.26178 10.5388 1.23443 10.3311C1.17102 9.84904 1.30175 9.36129 1.59771 8.97559C1.75175 8.77492 1.95192 8.62887 2.17877 8.48633C2.36115 8.37173 2.46282 8.18805 2.46295 8.00293C2.46296 7.81769 2.36129 7.63324 2.17877 7.51856C1.95191 7.376 1.75173 7.23002 1.59771 7.0293C1.30172 6.64355 1.17097 6.15589 1.23443 5.67383C1.26177 5.46629 1.33471 5.27799 1.42779 5.08789C1.51902 4.90164 1.64602 4.68203 1.79791 4.41895C1.94974 4.15597 2.07582 3.93673 2.19146 3.76465C2.30964 3.58882 2.43638 3.43125 2.6026 3.30371C2.9883 3.00777 3.47606 2.87702 3.95807 2.94043C4.20903 2.97347 4.43589 3.07492 4.67291 3.2002C4.86334 3.30072 5.07316 3.29567 5.23346 3.20313C5.3938 3.11051 5.50275 2.93114 5.5108 2.71582C5.52082 2.44802 5.54681 2.20156 5.64361 1.96777C5.82965 1.51863 6.18669 1.16169 6.6358 0.975587C6.82927 0.895449 7.02904 0.864047 7.24029 0.849611C7.44713 0.835499 7.70032 0.835939 8.00396 0.835939C8.30764 0.835939 8.56077 0.83551 8.76764 0.849611C8.97892 0.864027 9.17863 0.895495 9.37213 0.975587C9.82132 1.16165 10.1782 1.51859 10.3643 1.96777C10.4612 2.20161 10.4881 2.44796 10.4981 2.71582C10.5062 2.9312 10.615 3.11051 10.7754 3.20313C10.9358 3.29564 11.1455 3.3008 11.336 3.2002C11.573 3.07493 11.7999 2.97445 12.0508 2.94141C12.5326 2.87807 13.0197 3.00805 13.4053 3.30371C13.5716 3.43127 13.6992 3.58878 13.8174 3.76465C13.9331 3.93674 14.0591 4.15594 14.211 4.41895C14.3629 4.68203 14.4889 4.90164 14.5801 5.08789C14.6733 5.2781 14.7471 5.46618 14.7745 5.67383C14.8379 6.15583 14.7071 6.64357 14.4112 7.0293C14.2571 7.23013 14.0562 7.37593 13.8292 7.51856C13.6468 7.63321 13.546 7.81777 13.546 8.00293ZM10.5001 8C10.5001 9.38071 9.38077 10.5 8.00006 10.5C6.61935 10.5 5.50006 9.38071 5.50006 8C5.50006 6.61929 6.61935 5.5 8.00006 5.5C9.38077 5.5 10.5001 6.61929 10.5001 8Z" fill="currentColor"/></svg>