<svg xmlns="http://www.w3.org/2000/svg" width="12" height="12" fill="currentColor"><g clip-path="url(#a)"><path fill="currentColor" d="M9.334 6.001c0-.447.244-.838.6-1.062a.8.8 0 0 0 .22-.17.55.55 0 0 0 .109-.407.6.6 0 0 0-.069-.184 9 9 0 0 0-.25-.452 8 8 0 0 0-.266-.443.6.6 0 0 0-.126-.151.55.55 0 0 0-.406-.11c-.039.005-.102.024-.258.106a1.26 1.26 0 0 1-1.219-.012 1.26 1.26 0 0 1-.62-1.05c-.007-.176-.022-.24-.037-.276a.55.55 0 0 0-.298-.297.6.6 0 0 0-.194-.034c-.12-.008-.278-.008-.517-.008s-.396 0-.517.008a.6.6 0 0 0-.193.034.55.55 0 0 0-.298.297.9.9 0 0 0-.038.276c-.016.42-.232.827-.619 1.05a1.26 1.26 0 0 1-1.219.012.9.9 0 0 0-.258-.106.55.55 0 0 0-.407.11.6.6 0 0 0-.126.151c-.067.1-.146.236-.265.443s-.198.343-.251.452a.6.6 0 0 0-.068.184.55.55 0 0 0 .109.407c.023.03.071.077.22.17.356.224.599.615.599 1.062s-.243.838-.599 1.061c-.149.094-.197.14-.22.171a.55.55 0 0 0-.109.407c.004.03.016.08.068.184.053.109.131.245.25.452.12.207.199.342.266.443a.6.6 0 0 0 .126.151.55.55 0 0 0 .407.11.9.9 0 0 0 .258-.106 1.26 1.26 0 0 1 1.219.012c.387.223.603.63.62 1.05.006.176.023.24.037.276a.55.55 0 0 0 .298.297.6.6 0 0 0 .193.034c.121.008.278.008.517.008.24 0 .396 0 .517-.008a.6.6 0 0 0 .194-.034.55.55 0 0 0 .298-.297c.015-.036.03-.1.037-.276a1.26 1.26 0 0 1 .62-1.05 1.26 1.26 0 0 1 1.219-.012c.156.082.22.1.258.105a.55.55 0 0 0 .406-.109.6.6 0 0 0 .126-.151c.067-.1.146-.236.266-.443s.197-.343.25-.452a.6.6 0 0 0 .069-.184.55.55 0 0 0-.11-.407c-.023-.03-.07-.077-.22-.17A1.26 1.26 0 0 1 9.335 6M7.05 5.999a1.05 1.05 0 1 0-2.1 0 1.05 1.05 0 0 0 2.1 0m3.185.002c0 .11.06.226.177.3.172.108.331.223.455.385.234.305.338.69.288 1.07a1.5 1.5 0 0 1-.152.465c-.07.142-.167.308-.28.505-.114.196-.21.363-.298.495-.09.135-.191.26-.325.363a1.45 1.45 0 0 1-1.072.287 1.7 1.7 0 0 1-.561-.202.36.36 0 0 0-.348-.004.36.36 0 0 0-.17.304 1.7 1.7 0 0 1-.106.587c-.147.355-.43.638-.785.785a1.5 1.5 0 0 1-.477.1c-.158.01-.351.01-.578.01s-.419 0-.577-.01a1.5 1.5 0 0 1-.478-.1 1.45 1.45 0 0 1-.785-.785 1.7 1.7 0 0 1-.105-.587.36.36 0 0 0-.17-.304.36.36 0 0 0-.349.004c-.18.095-.359.176-.56.203a1.45 1.45 0 0 1-1.073-.288 1.5 1.5 0 0 1-.325-.363c-.088-.132-.184-.3-.298-.495-.113-.196-.21-.363-.279-.505a1.5 1.5 0 0 1-.152-.464 1.45 1.45 0 0 1 .287-1.071c.124-.162.284-.277.456-.385a.36.36 0 0 0 .178-.3.36.36 0 0 0-.178-.3 1.7 1.7 0 0 1-.456-.385 1.45 1.45 0 0 1-.287-1.07 1.5 1.5 0 0 1 .152-.465 9 9 0 0 1 .28-.505c.113-.196.209-.363.297-.495.09-.135.192-.26.325-.363A1.45 1.45 0 0 1 2.98 2.13c.202.026.381.107.561.202.122.064.252.06.348.005a.36.36 0 0 0 .17-.304c.007-.203.027-.399.105-.587.147-.355.43-.638.785-.785.156-.064.316-.088.478-.1.158-.01.35-.01.577-.01s.42 0 .578.01c.162.012.321.036.477.1.355.147.638.43.785.785.078.188.098.384.105.587a.36.36 0 0 0 .171.304.36.36 0 0 0 .348-.004c.18-.095.36-.177.561-.203a1.45 1.45 0 0 1 1.072.288c.134.103.234.228.325.363.088.132.184.299.298.495.113.197.21.363.28.505.072.146.13.297.152.464a1.45 1.45 0 0 1-.288 1.071 1.7 1.7 0 0 1-.455.385.36.36 0 0 0-.178.3M7.95 5.999a1.95 1.95 0 1 1-3.9 0 1.95 1.95 0 0 1 3.9 0"/></g><defs><clipPath id="a"><rect width="12" height="12" fill="currentColor" rx="5"/></clipPath></defs></svg>