<svg width="20" height="20" viewBox="0 0 20 20" fill="none" xmlns="http://www.w3.org/2000/svg"><path d="M15.8066 10.0029C15.8067 9.35114 16.1622 8.77695 16.6885 8.44629C16.9438 8.28586 17.0541 8.1889 17.1211 8.10157C17.3093 7.85612 17.3929 7.54595 17.3525 7.23926C17.3409 7.15126 17.3069 7.04054 17.2158 6.8545C17.1226 6.66419 16.9865 6.42899 16.789 6.08692C16.5916 5.745 16.456 5.50986 16.3379 5.33399C16.2222 5.16181 16.1427 5.07654 16.0722 5.02246C15.8268 4.83419 15.5166 4.75164 15.2099 4.792C15.1008 4.80636 14.9619 4.85325 14.6953 4.99414C14.1457 5.28457 13.4708 5.30447 12.9062 4.97852C12.3417 4.65254 12.0213 4.05771 11.998 3.43653C11.9868 3.13547 11.9581 2.9913 11.916 2.88965C11.7975 2.60408 11.5708 2.37713 11.2851 2.25879C11.2031 2.2248 11.0898 2.1987 10.8828 2.18457C10.6714 2.17017 10.3998 2.16993 10.0049 2.16993C9.60996 2.16993 9.33833 2.17015 9.12694 2.18457C8.9203 2.1987 8.80757 2.22484 8.72557 2.25879C8.4398 2.37716 8.21218 2.60392 8.09373 2.88965C8.05163 2.9913 8.02396 3.13547 8.01268 3.43653C7.98945 4.05766 7.66896 4.65255 7.10448 4.97852C6.53996 5.30444 5.86495 5.28453 5.31541 4.99414C5.04881 4.85323 4.9099 4.80539 4.80077 4.79102C4.49409 4.75067 4.18389 4.83421 3.93846 5.02246C3.86799 5.07654 3.78855 5.16181 3.67284 5.33399C3.55467 5.50986 3.41907 5.74499 3.22166 6.08692C3.02417 6.42899 2.88812 6.66419 2.79491 6.8545C2.7038 7.04055 2.66977 7.15126 2.65819 7.23926C2.61781 7.54598 2.70134 7.85611 2.88963 8.10157C2.95661 8.18886 3.06714 8.28501 3.32225 8.44532C3.84855 8.77601 4.20301 9.35109 4.20311 10.0029C4.20307 10.6548 3.84858 11.2298 3.32225 11.5606C3.06722 11.7208 2.95666 11.8171 2.88963 11.9043C2.70127 12.1498 2.6178 12.4608 2.65819 12.7676C2.66982 12.8556 2.7038 12.9663 2.79491 13.1523C2.88814 13.3427 3.0241 13.5777 3.22166 13.9199L3.47655 14.3584C3.55007 14.482 3.61367 14.5848 3.67284 14.6729C3.78852 14.845 3.86801 14.9293 3.93846 14.9834C4.18394 15.1718 4.49399 15.2552 4.80077 15.2148C4.90989 15.2005 5.0489 15.1526 5.31541 15.0117C5.86488 14.7215 6.54008 14.7015 7.10448 15.0273C7.66899 15.3533 7.98936 15.9482 8.01268 16.5693C8.02394 16.8704 8.05167 17.0145 8.09373 17.1162C8.21214 17.4021 8.4397 17.6296 8.72557 17.7481C8.80756 17.782 8.92038 17.8082 9.12694 17.8223C9.33833 17.8367 9.60996 17.8369 10.0049 17.8369C10.3998 17.8369 10.6714 17.8367 10.8828 17.8223C11.0897 17.8081 11.2031 17.782 11.2851 17.7481C11.571 17.6296 11.7976 17.4021 11.916 17.1162C11.9581 17.0145 11.9868 16.8707 11.998 16.5693C12.0213 15.9483 12.3418 15.3533 12.9062 15.0273C13.4707 14.7016 14.1458 14.7215 14.6953 15.0117C14.9619 15.1526 15.1008 15.2005 15.2099 15.2148C15.5167 15.2552 15.8268 15.1717 16.0722 14.9834C16.1426 14.9293 16.2214 14.8447 16.3369 14.6729C16.4551 14.4969 16.5915 14.2621 16.789 13.9199C16.9865 13.5779 17.1216 13.3426 17.2148 13.1523C17.306 12.9663 17.3409 12.8556 17.3525 12.7676C17.3929 12.4608 17.3094 12.1498 17.1211 11.9043C17.0541 11.817 16.9435 11.7208 16.6885 11.5606C16.1621 11.2298 15.8066 10.6549 15.8066 10.0029ZM12 10C12 8.89543 11.1046 8 9.99998 8C8.89541 8 7.99998 8.89543 7.99998 10C7.99998 11.1046 8.89541 12 9.99998 12C11.1046 12 12 11.1046 12 10ZM16.8066 10.0029C16.8066 10.2812 16.9594 10.5497 17.2207 10.7139C17.5011 10.8901 17.7355 11.0632 17.914 11.2959C18.2638 11.7517 18.4187 12.3278 18.3437 12.8975C18.3121 13.138 18.2269 13.3598 18.1133 13.5918C18.0015 13.8199 17.846 14.0896 17.6553 14.4199C17.4645 14.7503 17.3086 15.0197 17.167 15.2305C17.0228 15.445 16.8732 15.6296 16.6806 15.7773C16.2248 16.127 15.6487 16.281 15.0791 16.2061C14.7883 16.1677 14.5213 16.0512 14.2285 15.8965C13.9558 15.7523 13.6472 15.7545 13.4062 15.8936C13.1654 16.0326 13.0087 16.2983 12.9971 16.6064C12.9847 16.9375 12.9531 17.2279 12.8408 17.499C12.6209 18.0299 12.1988 18.452 11.668 18.6719C11.4437 18.7648 11.209 18.8017 10.9512 18.8193C10.6978 18.8366 10.3863 18.8369 10.0049 18.8369C9.62372 18.8369 9.31282 18.8366 9.05955 18.8193C8.80169 18.8017 8.56696 18.7647 8.34276 18.6719C7.81186 18.452 7.38981 18.0299 7.16991 17.499C7.05769 17.2281 7.02605 16.9383 7.01366 16.6074C7.00212 16.2991 6.84544 16.0327 6.60448 15.8936C6.36351 15.7544 6.05499 15.7523 5.78221 15.8965C5.48944 16.0512 5.22238 16.1677 4.93162 16.2061C4.36191 16.2811 3.78497 16.1272 3.32909 15.7773C3.13662 15.6296 2.9869 15.445 2.84276 15.2305C2.77194 15.1251 2.69753 15.0051 2.61717 14.8701L2.35545 14.4199C2.16473 14.0896 2.00917 13.8199 1.89744 13.5918C1.78379 13.3597 1.69865 13.138 1.66698 12.8975C1.59206 12.3279 1.74604 11.7517 2.09569 11.2959C2.27432 11.0631 2.5095 10.8901 2.79002 10.7139C3.05128 10.5497 3.20309 10.2812 3.20311 10.0029C3.20301 9.72477 3.05121 9.45611 2.79002 9.292C2.50983 9.11592 2.27518 8.94342 2.09666 8.71094C1.74685 8.25505 1.59197 7.67812 1.66698 7.1084C1.69869 6.86791 1.78379 6.64609 1.89744 6.41407C2.00913 6.1861 2.16488 5.917 2.35545 5.58692C2.54617 5.25658 2.70109 4.9862 2.84276 4.77539C2.98682 4.56105 3.13676 4.37717 3.32909 4.2295C3.78497 3.87968 4.36191 3.7248 4.93162 3.79981C5.22247 3.83815 5.48936 3.95557 5.78221 4.11036C6.05497 4.25452 6.36354 4.25141 6.60448 4.11231C6.84529 3.97317 7.00213 3.70762 7.01366 3.39942C7.02604 3.06851 7.05775 2.7788 7.16991 2.50782C7.3898 1.97694 7.81189 1.55488 8.34276 1.33496C8.56698 1.24209 8.80167 1.20412 9.05955 1.18653C9.31281 1.16926 9.62374 1.16993 10.0049 1.16993C10.3863 1.16993 10.6978 1.16924 10.9512 1.18653C11.209 1.20412 11.4437 1.24209 11.668 1.33496C12.1987 1.55489 12.6209 1.97699 12.8408 2.50782C12.9529 2.77878 12.9847 3.06853 12.9971 3.39942C13.0086 3.70769 13.1653 3.97317 13.4062 4.11231C13.6472 4.25143 13.9557 4.25453 14.2285 4.11036C14.5213 3.95558 14.7882 3.83813 15.0791 3.79981C15.6487 3.72481 16.2248 3.87978 16.6806 4.2295C16.873 4.37711 17.0229 4.56109 17.167 4.77539C17.3086 4.9862 17.4645 5.25658 17.6553 5.58692C17.8458 5.917 18.0016 6.1861 18.1133 6.41407C18.2269 6.64608 18.312 6.86793 18.3437 7.1084C18.4187 7.67812 18.2639 8.25505 17.914 8.71094C17.7354 8.94355 17.5011 9.1168 17.2207 9.29297C16.9595 9.45705 16.8067 9.72482 16.8066 10.0029ZM13 10C13 11.6569 11.6568 13 9.99998 13C8.34313 13 6.99998 11.6569 6.99998 10C6.99998 8.34315 8.34313 7 9.99998 7C11.6568 7 13 8.34315 13 10Z" fill="currentColor"/></svg>