<svg xmlns="http://www.w3.org/2000/svg" width="20" height="20" fill="currentColor"><path fill="currentColor" d="M15.5 9.999c0-.652.355-1.226.88-1.555.242-.153.34-.24.397-.313.17-.221.244-.5.208-.777a1.2 1.2 0 0 0-.125-.347c-.088-.18-.217-.403-.407-.733s-.32-.552-.431-.718a1.2 1.2 0 0 0-.24-.283 1.05 1.05 0 0 0-.776-.208c-.092.013-.216.053-.47.187-.546.29-1.221.31-1.786-.016a1.84 1.84 0 0 1-.906-1.538c-.01-.287-.038-.415-.073-.5a1.05 1.05 0 0 0-.569-.57 1.2 1.2 0 0 0-.363-.066c-.2-.013-.458-.013-.838-.013s-.638 0-.839.014a1.1 1.1 0 0 0-.363.066 1.05 1.05 0 0 0-.568.568c-.036.086-.063.214-.073.501a1.84 1.84 0 0 1-.907 1.538 1.84 1.84 0 0 1-1.785.016c-.254-.134-.378-.174-.47-.187a1.05 1.05 0 0 0-.777.208 1.2 1.2 0 0 0-.24.283c-.11.166-.24.39-.43.718-.19.33-.319.553-.407.733a1.2 1.2 0 0 0-.125.347c-.036.276.039.556.208.777.056.073.154.16.397.313.524.33.88.903.88 1.555s-.356 1.226-.88 1.555c-.243.152-.34.24-.397.313-.17.221-.244.5-.208.777.01.073.04.172.125.347.088.18.217.403.407.733s.319.552.43.718c.11.163.181.237.24.283.221.17.5.244.776.208.092-.012.216-.053.47-.187a1.85 1.85 0 0 1 1.786.016c.565.326.883.92.907 1.538.01.287.037.415.073.5.106.258.31.463.568.57.069.028.169.052.363.066.2.013.459.013.84.013s.637 0 .837-.014a1.1 1.1 0 0 0 .364-.066 1.05 1.05 0 0 0 .568-.568c.035-.086.062-.214.073-.501a1.84 1.84 0 0 1 .906-1.538 1.85 1.85 0 0 1 1.787-.016c.253.134.377.175.47.187a1.05 1.05 0 0 0 .776-.208c.059-.046.13-.12.239-.283.112-.166.24-.39.43-.718.19-.33.32-.553.408-.733a1.2 1.2 0 0 0 .125-.347 1.05 1.05 0 0 0-.208-.777c-.057-.073-.155-.16-.398-.313a1.84 1.84 0 0 1-.879-1.555m-3.651-.003a1.85 1.85 0 1 0-3.701 0 1.85 1.85 0 0 0 3.701 0m4.752.003c0 .24.131.477.363.623.271.17.506.342.685.575.347.453.5 1.025.426 1.59a2.2 2.2 0 0 1-.227.689c-.108.221-.26.482-.442.798-.183.317-.333.578-.471.783-.14.208-.29.392-.482.54a2.15 2.15 0 0 1-1.59.426c-.292-.038-.558-.156-.841-.305a.74.74 0 0 0-.72-.003.74.74 0 0 0-.358.626c-.012.32-.044.609-.157.88a2.15 2.15 0 0 1-1.164 1.165c-.225.093-.459.13-.71.146-.246.017-.547.017-.912.017s-.667 0-.913-.017a2.2 2.2 0 0 1-.71-.146 2.15 2.15 0 0 1-1.164-1.164c-.112-.272-.143-.561-.155-.881a.74.74 0 0 0-.357-.626.75.75 0 0 0-.722.003c-.283.15-.549.267-.841.305a2.15 2.15 0 0 1-1.59-.425 2.2 2.2 0 0 1-.482-.541c-.138-.205-.288-.466-.471-.783a15 15 0 0 1-.441-.798 2.2 2.2 0 0 1-.228-.689 2.15 2.15 0 0 1 .426-1.59c.18-.233.413-.405.684-.575A.74.74 0 0 0 3.401 10a.74.74 0 0 0-.364-.623c-.27-.17-.505-.342-.684-.575a2.15 2.15 0 0 1-.426-1.59c.032-.242.117-.463.228-.689.108-.221.259-.482.441-.798.183-.317.333-.578.47-.783.141-.208.29-.392.483-.54a2.15 2.15 0 0 1 1.59-.426c.292.038.558.155.84.304a.75.75 0 0 0 .723.004.74.74 0 0 0 .357-.626c.012-.32.043-.609.155-.88a2.15 2.15 0 0 1 1.164-1.165c.225-.093.46-.13.71-.146.246-.017.548-.017.913-.017s.666 0 .912.017c.251.017.485.053.71.146a2.16 2.16 0 0 1 1.165 1.164c.112.272.144.561.156.881.01.274.149.506.357.626.209.12.479.125.72-.003.284-.15.55-.267.842-.305a2.15 2.15 0 0 1 1.59.425c.193.149.341.333.482.541.138.205.288.466.47.783.183.316.334.577.443.798.11.226.196.447.228.689a2.15 2.15 0 0 1-.427 1.59c-.18.233-.414.405-.685.575a.74.74 0 0 0-.363.623m-3.652-.003a2.95 2.95 0 1 1-5.9 0 2.95 2.95 0 0 1 5.9 0"/></svg>