<svg width="12" height="12" viewBox="0 0 12 12" fill="none" xmlns="http://www.w3.org/2000/svg"><g clip-path="url(#a)"><path d="M9.28406 6.00195C9.28408 5.53622 9.53749 5.1302 9.90613 4.89844C10.0543 4.80535 10.0963 4.76256 10.1141 4.73926C10.1947 4.63419 10.2299 4.50138 10.2128 4.37012C10.2098 4.34779 10.1996 4.30281 10.1493 4.2002C10.0971 4.0936 10.02 3.9594 9.90027 3.75195C9.78036 3.54427 9.70285 3.4101 9.6366 3.31152C9.57289 3.21673 9.53923 3.18558 9.52136 3.17188C9.41629 3.09137 9.28347 3.05605 9.15222 3.07324C9.12312 3.07707 9.06561 3.09213 8.91101 3.17383C8.52589 3.37738 8.04692 3.39311 7.64343 3.16016C7.2401 2.92717 7.01518 2.50455 6.9989 2.06934C6.99236 1.89473 6.97595 1.83766 6.96472 1.81055C6.91396 1.6881 6.81668 1.59077 6.69422 1.54004C6.67337 1.53143 6.62997 1.51851 6.51648 1.51074C6.39799 1.50266 6.24262 1.50195 6.00281 1.50195C5.76324 1.50195 5.60854 1.50267 5.49011 1.51074C5.37611 1.51852 5.33221 1.53142 5.3114 1.54004C5.18901 1.59082 5.0916 1.68812 5.04089 1.81055C5.02967 1.83767 5.01424 1.89478 5.00769 2.06934C4.99141 2.50462 4.76566 2.92721 4.36218 3.16016C3.95883 3.39297 3.4806 3.37723 3.09558 3.17383C2.94111 3.09218 2.88352 3.0771 2.85437 3.07324C2.7229 3.05593 2.58946 3.09115 2.48425 3.17188C2.46639 3.1856 2.43356 3.21697 2.37 3.31152C2.30376 3.41008 2.22619 3.54434 2.10632 3.75195C1.98645 3.95958 1.90857 4.09355 1.85632 4.2002C1.80606 4.30281 1.79579 4.34779 1.79285 4.37012C1.77569 4.50143 1.81183 4.63419 1.89246 4.73926C1.91034 4.76256 1.95146 4.80542 2.09949 4.89844C2.46832 5.1302 2.72157 5.53604 2.72156 6.00195C2.72153 6.46784 2.46831 6.87373 2.09949 7.10547C1.95143 7.1985 1.91035 7.24135 1.89246 7.26465C1.81182 7.36973 1.77568 7.50246 1.79285 7.63379C1.79579 7.65612 1.80606 7.7011 1.85632 7.80371C1.90857 7.91035 1.98647 8.04436 2.10632 8.25195C2.22618 8.45954 2.30377 8.59384 2.37 8.69238C2.4336 8.78699 2.4664 8.81833 2.48425 8.83203C2.58946 8.91276 2.7229 8.94797 2.85437 8.93066C2.88353 8.9268 2.9412 8.91167 3.09558 8.83008C3.48062 8.62669 3.95882 8.61092 4.36218 8.84375C4.76567 9.0767 4.99141 9.49927 5.00769 9.93457C5.01424 10.1091 5.02966 10.1662 5.04089 10.1934C5.09161 10.3158 5.18901 10.4131 5.3114 10.4639C5.33221 10.4725 5.37611 10.4854 5.49011 10.4932C5.60854 10.5012 5.76324 10.502 6.00281 10.502C6.24262 10.502 6.39799 10.5012 6.51648 10.4932C6.62997 10.4854 6.67338 10.4725 6.69422 10.4639C6.81668 10.4131 6.91396 10.3158 6.96472 10.1934C6.97595 10.1662 6.99236 10.1092 6.9989 9.93457C7.01518 9.49936 7.24011 9.07673 7.64343 8.84375C8.04693 8.61076 8.52588 8.62652 8.91101 8.83008C9.06557 8.91176 9.12313 8.92683 9.15222 8.93066C9.28346 8.94784 9.4163 8.91253 9.52136 8.83203C9.53923 8.81832 9.57289 8.78718 9.6366 8.69238C9.70285 8.59381 9.78036 8.45964 9.90027 8.25195C10.02 8.04451 10.0971 7.91031 10.1493 7.80371C10.1996 7.7011 10.2098 7.65612 10.2128 7.63379C10.23 7.50254 10.1947 7.36972 10.1141 7.26465C10.0963 7.24135 10.0543 7.19854 9.90613 7.10547C9.53747 6.87369 9.28406 6.46771 9.28406 6.00195ZM6.99988 6C6.99988 5.44772 6.55216 5 5.99988 5C5.44759 5 4.99988 5.44772 4.99988 6C4.99988 6.55229 5.44759 7 5.99988 7C6.55216 7 6.99988 6.55229 6.99988 6ZM10.2841 6.00195C10.2841 6.09411 10.3347 6.19362 10.4384 6.25879C10.6117 6.36774 10.7776 6.48746 10.9071 6.65625C11.1491 6.97182 11.2559 7.37035 11.204 7.76465C11.181 7.93947 11.1204 8.09477 11.0477 8.24316C10.977 8.38754 10.8795 8.55617 10.7665 8.75195C10.6534 8.94773 10.5563 9.11656 10.4667 9.25C10.3745 9.38719 10.2697 9.51762 10.1298 9.625C9.8142 9.867 9.41564 9.97378 9.02136 9.92188C8.81043 9.8941 8.62427 9.81052 8.44324 9.71484C8.33497 9.65762 8.22327 9.66294 8.14343 9.70898C8.06359 9.75509 8.0025 9.84928 7.99793 9.97168C7.99027 10.1763 7.96997 10.3796 7.88855 10.5762C7.73628 10.9436 7.44448 11.2355 7.07703 11.3877C6.91407 11.4552 6.74877 11.48 6.58386 11.4912C6.42351 11.5021 6.22877 11.502 6.00281 11.502C5.77678 11.502 5.58212 11.5022 5.42175 11.4912C5.25688 11.48 5.09152 11.4552 4.92859 11.3877C4.56127 11.2354 4.26927 10.9435 4.11707 10.5762C4.03565 10.3796 4.01535 10.1763 4.00769 9.97168C4.00311 9.84926 3.94204 9.75606 3.86218 9.70996C3.78233 9.66388 3.67068 9.65761 3.56238 9.71484C3.38144 9.81046 3.19506 9.89412 2.98425 9.92188C2.58999 9.97366 2.19135 9.86707 1.87586 9.625C1.73596 9.51765 1.6321 9.38715 1.53992 9.25C1.45024 9.11656 1.35316 8.94775 1.24011 8.75195C1.12705 8.55613 1.0296 8.38756 0.958864 8.24316C0.886151 8.09472 0.824661 7.93953 0.801637 7.76465C0.749768 7.37046 0.856612 6.97176 1.09851 6.65625C1.228 6.4875 1.39392 6.36771 1.56726 6.25879C1.67099 6.19361 1.72155 6.09416 1.72156 6.00195C1.72156 5.90973 1.67102 5.81031 1.56726 5.74512C1.39393 5.6362 1.22799 5.5164 1.09851 5.34766C0.856621 5.03215 0.74978 4.63343 0.801637 4.23926C0.82466 4.06439 0.886157 3.90918 0.958864 3.76074C1.0296 3.61634 1.12705 3.44779 1.24011 3.25195C1.35317 3.05614 1.45023 2.88735 1.53992 2.75391C1.63211 2.61674 1.73595 2.48627 1.87586 2.37891C2.19147 2.13673 2.59081 2.0301 2.98523 2.08203C3.19583 2.10985 3.38159 2.19353 3.56238 2.28906C3.67064 2.34629 3.78235 2.34001 3.86218 2.29395C3.94202 2.24785 4.00311 2.15463 4.00769 2.03223C4.01535 1.82759 4.03564 1.62431 4.11707 1.42773C4.26927 1.06038 4.56127 0.768483 4.92859 0.616211C5.09152 0.548724 5.25688 0.523951 5.42175 0.512696C5.58212 0.501754 5.77678 0.501953 6.00281 0.501953C6.22877 0.501953 6.42351 0.501776 6.58386 0.512696C6.74877 0.523947 6.91407 0.548713 7.07703 0.616211C7.44448 0.768414 7.73628 1.06032 7.88855 1.42773C7.96997 1.6243 7.99027 1.82759 7.99793 2.03223C8.0025 2.15448 8.06374 2.24778 8.14343 2.29395C8.22328 2.34005 8.33493 2.3463 8.44324 2.28906C8.62428 2.19338 8.81043 2.10981 9.02136 2.08203C9.41578 2.0301 9.81512 2.13673 10.1307 2.37891C10.2705 2.48625 10.3745 2.6168 10.4667 2.75391C10.5563 2.88735 10.6534 3.05617 10.7665 3.25195C10.8795 3.44773 10.977 3.61637 11.0477 3.76074C11.1204 3.90914 11.181 4.06444 11.204 4.23926C11.2559 4.63356 11.1491 5.03209 10.9071 5.34766C10.7776 5.51647 10.6118 5.63616 10.4384 5.74512C10.3347 5.81028 10.2841 5.9098 10.2841 6.00195ZM7.99988 6C7.99988 7.10457 7.10445 8 5.99988 8C4.89531 8 3.99988 7.10457 3.99988 6C3.99988 4.89543 4.89531 4 5.99988 4C7.10445 4 7.99988 4.89543 7.99988 6Z" fill="currentColor"/></g><defs><clipPath id="a"><rect width="12" height="12" rx="5" fill="currentColor"/></clipPath></defs></svg>