<svg xmlns="http://www.w3.org/2000/svg" width="16" height="16" fill="currentColor"><path fill="currentColor" d="M13.787 8.867v-.532c0-.133-.118-.276-.31-.276H11.31V13.9h1.024a.6.6 0 1 1 0 1.2h-3.25a.6.6 0 0 1 0-1.2h1.025V8.06H8.65a.6.6 0 0 1 0-1.2h4.829c.813 0 1.51.64 1.51 1.476v.532a.6.6 0 0 1-1.2 0m-1.944-5.2v-.974a.6.6 0 0 0-.606-.593H7.626v9.091h1.025a.6.6 0 0 1 0 1.2H4.86a.6.6 0 1 1 0-1.2h1.567V2.1h-3.61a.6.6 0 0 0-.607.593v.974a.6.6 0 1 1-1.2 0v-.974A1.8 1.8 0 0 1 2.816.9h8.422c.99 0 1.806.798 1.806 1.793v.974a.6.6 0 0 1-1.2 0"/></svg>