<svg xmlns="http://www.w3.org/2000/svg" width="12" height="12" fill="currentColor"><path fill="currentColor" d="M10.509 6.231v-.399a.16.16 0 0 0-.16-.16h-1.81v4.547h.57a.5.5 0 1 1 0 1h-2.14a.5.5 0 0 1 0-1h.57V5.672h-.695a.5.5 0 0 1 0-1h3.505c.64 0 1.16.519 1.16 1.16v.4a.5.5 0 0 1-1 0m-1.707-3.27v-.755a.426.426 0 0 0-.425-.425H5.648v6.766h.595a.5.5 0 0 1 0 1h-2.79a.5.5 0 0 1 0-1h1.195V1.78H1.917a.426.426 0 0 0-.425.425v.755a.5.5 0 0 1-1 0v-.755c0-.786.639-1.425 1.425-1.425h6.46c.786 0 1.425.639 1.425 1.425v.755a.5.5 0 0 1-1 0"/></svg>