<svg xmlns="http://www.w3.org/2000/svg" width="20" height="20" fill="currentColor"><path fill="currentColor" d="M17.35 10.571v-.37q-.008-.01-.024-.02a.8.8 0 0 0-.412-.102H14.08v7.272h1.065a.65.65 0 0 1 0 1.3h-3.43a.65.65 0 0 1 0-1.3h1.065v-7.272h-1.635a.65.65 0 0 1 0-1.3h5.77c.408 0 .807.106 1.124.314.312.204.612.561.612 1.048v.43a.65.65 0 0 1-1.3 0m-2.286-6.285V3.26c0-.223-.27-.609-.876-.609H9.506v11.843h1.064a.65.65 0 1 1 0 1.3H6a.65.65 0 0 1 0-1.3h2.207V2.65h-4.68c-.606 0-.877.386-.877.609v1.027a.65.65 0 0 1-1.3 0V3.26c0-1.165 1.099-1.91 2.176-1.91h10.662c1.077 0 2.176.745 2.176 1.91v1.027a.65.65 0 0 1-1.3 0"/></svg>