<svg xmlns="http://www.w3.org/2000/svg" width="20" height="20" fill="currentColor"><g clip-path="url(#a)"><path fill="currentColor" d="M17.95 4.999A2.95 2.95 0 0 0 15 2.049H5a2.95 2.95 0 0 0-2.95 2.95v10A2.95 2.95 0 0 0 5 17.949h10A2.95 2.95 0 0 0 17.95 15zm-5.738 3.51a.55.55 0 0 1 .777.78l-2.6 2.599a.55.55 0 0 1-.778 0l-2.6-2.6a.55.55 0 0 1 .778-.778L10 10.72zM19.05 15A4.05 4.05 0 0 1 15 19.05H5A4.05 4.05 0 0 1 .95 15V5A4.05 4.05 0 0 1 5 .949h10A4.05 4.05 0 0 1 19.05 5z"/></g><defs><clipPath id="a"><rect width="20" height="20" fill="currentColor" rx="2"/></clipPath></defs></svg>