<svg width="16" height="16" viewBox="0 0 16 16" fill="none" xmlns="http://www.w3.org/2000/svg"><path d="M9.64648 6.64648C9.84175 6.45122 10.1583 6.45122 10.3535 6.64648C10.5488 6.84175 10.5488 7.15825 10.3535 7.35352L8.35352 9.35352C8.25975 9.44728 8.13261 9.5 8 9.5C7.86739 9.5 7.74025 9.44728 7.64648 9.35352L5.64648 7.35352C5.45122 7.15825 5.45122 6.84175 5.64648 6.64648C5.84175 6.45122 6.15825 6.45122 6.35352 6.64648L8 8.29297L9.64648 6.64648Z" fill="currentColor"/><path d="M14 8C14 6.41326 13.9988 5.31797 13.8828 4.49512C13.77 3.69518 13.5561 3.21631 13.1699 2.83008C12.7836 2.44374 12.3052 2.22992 11.5059 2.11719C10.6837 2.00124 9.58951 2 8.00293 2C6.4164 2 5.32066 2.00125 4.49707 2.11719C3.69606 2.22998 3.21623 2.44393 2.83008 2.83008C2.44385 3.21631 2.22995 3.69518 2.11719 4.49512C2.00123 5.31797 2 6.41326 2 8C2 9.5863 2.00129 10.681 2.11719 11.5039C2.22995 12.3042 2.44384 12.7837 2.83008 13.1699C3.21623 13.5561 3.69606 13.77 4.49707 13.8828C5.32066 13.9987 6.4164 14 8.00293 14C9.58951 14 10.6837 13.9988 11.5059 13.8828C12.3052 13.7701 12.7836 13.5563 13.1699 13.1699C13.5562 12.7837 13.77 12.3042 13.8828 11.5039C13.9987 10.681 14 9.5863 14 8ZM15 8C15 9.55565 15.0011 10.7344 14.873 11.6436C14.7417 12.5755 14.467 13.2869 13.877 13.877C13.287 14.4669 12.5768 14.7417 11.6455 14.873C10.737 15.0012 9.55871 15 8.00293 15C6.44699 15 5.26719 15.0011 4.35742 14.873C3.42504 14.7418 2.71321 14.4671 2.12305 13.877C1.53298 13.2869 1.25827 12.5755 1.12695 11.6436C0.998889 10.7344 1 9.55565 1 8C1 6.44404 0.998839 5.26455 1.12695 4.35547C1.25829 3.4238 1.53308 2.71302 2.12305 2.12305C2.71321 1.53288 3.42504 1.25824 4.35742 1.12695C5.26719 0.998859 6.44699 1 8.00293 1C9.55871 1 10.737 0.998839 11.6455 1.12695C12.5768 1.25831 13.287 1.53313 13.877 2.12305C14.4669 2.71302 14.7417 3.4238 14.873 4.35547C15.0012 5.26455 15 6.44404 15 8Z" fill="currentColor"/></svg>