<svg width="12" height="12" viewBox="0 0 12 12" fill="none" xmlns="http://www.w3.org/2000/svg"><g clip-path="url(#a)" fill="currentColor"><path d="M6 7.5C6.13261 7.5 6.25975 7.44728 6.35352 7.35352L7.85352 5.85352L7.91797 5.77539C8.04613 5.58131 8.02438 5.31735 7.85352 5.14648C7.68265 4.97562 7.41869 4.95387 7.22461 5.08203L7.14648 5.14648L6 6.29297L4.85352 5.14648C4.65825 4.95122 4.34175 4.95122 4.14648 5.14648C3.95122 5.34175 3.95122 5.65825 4.14648 5.85352L5.64648 7.35352L5.72266 7.41602C5.80419 7.47037 5.90056 7.5 6 7.5Z"/><path d="M1 6C1 4.44086 1.00289 3.5083 1.10645 2.83887C1.19806 2.24681 1.35518 1.95146 1.65332 1.65332C1.95146 1.35518 2.24681 1.19806 2.83887 1.10645C3.5083 1.00289 4.44086 1 6 1C7.55914 1 8.4917 1.00289 9.16113 1.10645C9.75319 1.19806 10.0485 1.35518 10.3467 1.65332C10.6081 1.91476 10.7896 2.29232 10.8916 3.00098C10.9974 3.73607 11 4.68053 11 6C11 7.55914 10.9971 8.4917 10.8936 9.16113C10.8019 9.75319 10.6448 10.0485 10.3467 10.3467C10.0485 10.6448 9.75319 10.8019 9.16113 10.8936C8.4917 10.9971 7.55914 11 6 11V12C8.85513 12 9.96664 12 10.874 11.2207L11.0537 11.0537C12 10.1074 12 9.046 12 6C12 3.57738 12.0001 2.08736 11.2207 1.13086L11.0537 0.946289C10.1074 1.87159e-05 9.046 0 6 0C2.954 0 1.89256 1.87159e-05 0.946289 0.946289C1.87755e-05 1.89256 0 2.954 0 6C0 9.046 1.87159e-05 10.1074 0.946289 11.0537C1.89256 12 2.954 12 6 12V11C4.44086 11 3.5083 10.9971 2.83887 10.8936C2.24681 10.8019 1.95146 10.6448 1.65332 10.3467C1.35518 10.0485 1.19806 9.75319 1.10645 9.16113C1.00289 8.4917 1 7.55914 1 6Z"/></g><defs><clipPath id="a"><path fill="currentColor" transform="matrix(-1 0 0 1 12 0)" d="M0 0H12V12H0z"/></clipPath></defs></svg>