<svg width="16" height="16" viewBox="0 0 16 16" fill="none" xmlns="http://www.w3.org/2000/svg"><path d="M8 6.5C8.13261 6.5 8.25975 6.55272 8.35352 6.64649L10.3535 8.64649L10.418 8.72461C10.5461 8.91869 10.5244 9.18265 10.3535 9.35352C10.1827 9.52438 9.91869 9.54613 9.72461 9.41797L9.64649 9.35352L8 7.70703L6.35352 9.35352C6.15825 9.54878 5.84175 9.54878 5.64649 9.35352C5.45122 9.15825 5.45122 8.84175 5.64649 8.64649L7.64649 6.64649L7.72266 6.58399C7.80419 6.52963 7.90056 6.5 8 6.5Z" fill="currentColor"/><path d="M14 8C14 6.33217 13.9987 5.26692 13.8779 4.48633C13.7631 3.7444 13.5462 3.30397 13.1211 2.87891C12.696 2.45384 12.2556 2.23688 11.5137 2.12207C10.7331 2.00133 9.66783 2 8 2C6.33217 2 5.26692 2.00133 4.48633 2.12207C3.7444 2.23688 3.30397 2.45384 2.87891 2.87891C2.47222 3.28559 2.24305 3.83415 2.12305 4.66797C2.00117 5.51507 2 6.58646 2 8C2 9.66783 2.00133 10.7331 2.12207 11.5137C2.23688 12.2556 2.45384 12.696 2.87891 13.1211C3.30397 13.5462 3.7444 13.7631 4.48633 13.8779C5.26692 13.9987 6.33217 14 8 14C9.66783 14 10.7331 13.9987 11.5137 13.8779C12.2556 13.7631 12.696 13.5462 13.1211 13.1211C13.5462 12.696 13.7631 12.2556 13.8779 11.5137C13.9987 10.7331 14 9.66783 14 8ZM15 8C15 9.63176 15.0017 10.7914 14.8662 11.667C14.7247 12.5812 14.4282 13.2281 13.8281 13.8281C13.2281 14.4282 12.5812 14.7247 11.667 14.8662C10.7914 15.0017 9.63176 15 8 15C6.36824 15 5.20858 15.0017 4.33301 14.8662C3.41876 14.7247 2.77193 14.4282 2.17188 13.8281C1.57183 13.2281 1.27527 12.5812 1.13379 11.667C0.998303 10.7914 1 9.63176 1 8C1 6.61371 0.998414 5.45949 1.13281 4.52539C1.26912 3.57834 1.55356 2.79019 2.17188 2.17188C2.77193 1.57183 3.41876 1.27527 4.33301 1.13379C5.20858 0.998303 6.36824 1 8 1C9.63176 1 10.7914 0.998303 11.667 1.13379C12.5812 1.27527 13.2281 1.57183 13.8281 2.17188C14.4282 2.77193 14.7247 3.41876 14.8662 4.33301C15.0017 5.20858 15 6.36824 15 8Z" fill="currentColor"/></svg>