<svg xmlns="http://www.w3.org/2000/svg" width="20" height="20" fill="currentColor"><path fill="currentColor" d="M10 5.95a.55.55 0 0 1 .55.55v2.95h2.95a.55.55 0 1 1 0 1.1h-2.95v2.95a.55.55 0 1 1-1.1 0v-2.95H6.5a.55.55 0 1 1 0-1.1h2.95V6.5a.55.55 0 0 1 .55-.55"/><path fill="currentColor" fill-rule="evenodd" d="M15.18 1.505A3.5 3.5 0 0 1 18.5 5v10l-.005.18a3.5 3.5 0 0 1-3.315 3.315L15 18.5H5a3.5 3.5 0 0 1-3.495-3.32L1.5 15V5A3.5 3.5 0 0 1 5 1.5h10zM5 2.6A2.4 2.4 0 0 0 2.6 5v10A2.4 2.4 0 0 0 5 17.4h10a2.4 2.4 0 0 0 2.4-2.4V5A2.4 2.4 0 0 0 15 2.6z" clip-rule="evenodd"/></svg>