<svg xmlns="http://www.w3.org/2000/svg" width="20" height="20" fill="currentColor"><g clip-path="url(#a)"><path fill="currentColor" d="M17.95 5.218a3.17 3.17 0 0 0-3.169-3.17H5.22a3.17 3.17 0 0 0-3.17 3.17v9.562a3.17 3.17 0 0 0 3.17 3.17h9.562a3.17 3.17 0 0 0 3.17-3.17zM9.698 8.04a.55.55 0 0 1 .692.07l2.6 2.6a.55.55 0 0 1-.778.778L10 9.276l-2.21 2.212a.55.55 0 0 1-.778-.778l2.6-2.6zm9.352 6.74a4.27 4.27 0 0 1-4.269 4.269H5.22A4.27 4.27 0 0 1 .95 14.78V5.218A4.27 4.27 0 0 1 5.22.949h9.562a4.27 4.27 0 0 1 4.269 4.269z"/></g><defs><clipPath id="a"><rect width="20" height="20" fill="currentColor" rx="2"/></clipPath></defs></svg>