<svg xmlns="http://www.w3.org/2000/svg" width="16" height="16" fill="currentColor"><g clip-path="url(#a)"><path fill="currentColor" d="M14.5 4A2.5 2.5 0 0 0 12 1.5H4A2.5 2.5 0 0 0 1.5 4v8A2.5 2.5 0 0 0 4 14.5h8a2.5 2.5 0 0 0 2.5-2.5zM9.646 6.847a.5.5 0 1 1 .707.707l-2 2a.5.5 0 0 1-.707 0l-2-2a.5.5 0 0 1 .708-.707L8 8.493zM15.5 12a3.5 3.5 0 0 1-3.5 3.5H4A3.5 3.5 0 0 1 .5 12V4A3.5 3.5 0 0 1 4 .5h8A3.5 3.5 0 0 1 15.5 4z"/></g><defs><clipPath id="a"><path fill="currentColor" d="M0 0h16v16H0z"/></clipPath></defs></svg>