<svg xmlns="http://www.w3.org/2000/svg" width="12" height="12" fill="currentColor"><path fill="currentColor" d="M6 3.55a.45.45 0 0 1 .45.45v1.55H8a.45.45 0 0 1 0 .9H6.45V8a.45.45 0 0 1-.9 0V6.45H4a.45.45 0 0 1 0-.9h1.55V4A.45.45 0 0 1 6 3.55"/><path fill="currentColor" fill-rule="evenodd" d="M9.256.513A2.5 2.5 0 0 1 11.5 3v6l-.013.256a2.5 2.5 0 0 1-2.231 2.231L9 11.5H3A2.5 2.5 0 0 1 .513 9.256L.5 9V3A2.5 2.5 0 0 1 3 .5h6zM3 1.4A1.6 1.6 0 0 0 1.4 3v6A1.6 1.6 0 0 0 3 10.6h6A1.6 1.6 0 0 0 10.6 9V3A1.6 1.6 0 0 0 9 1.4z" clip-rule="evenodd"/></svg>