<svg xmlns="http://www.w3.org/2000/svg" width="20" height="20" fill="currentColor"><path fill="currentColor" d="M9.575 1.683a.5.5 0 0 1 .85 0l2.818 4.533a.5.5 0 0 0 .305.222l5.182 1.28a.5.5 0 0 1 .262.807l-3.44 4.081a.5.5 0 0 0-.117.358l.385 5.325a.5.5 0 0 1-.687.499l-4.944-2.011a.5.5 0 0 0-.377 0l-4.945 2.01-.064.022a.5.5 0 0 1-.623-.52l.384-5.325a.5.5 0 0 0-.061-.278l-.055-.08-3.44-4.081a.5.5 0 0 1 .262-.808l5.182-1.279a.5.5 0 0 0 .305-.222zM7.691 6.797a1.6 1.6 0 0 1-.975.708L2.47 8.555l2.818 3.343a1.6 1.6 0 0 1 .372 1.146l-.314 4.36 4.05-1.646.147-.051a1.6 1.6 0 0 1 .912 0l.146.051 4.05 1.647-.313-4.362c-.03-.415.103-.826.372-1.145l2.817-3.344-4.244-1.049a1.6 1.6 0 0 1-.975-.708L10 3.084z"/></svg>