<svg xmlns="http://www.w3.org/2000/svg" width="12" height="12" fill="currentColor"><path fill="currentColor" fill-rule="evenodd" d="M5.576 1.283a.5.5 0 0 1 .85 0L7.903 3.66c.069.11.178.19.304.221l2.718.671a.5.5 0 0 1 .263.808L9.384 7.5a.5.5 0 0 0-.116.359l.201 2.792a.5.5 0 0 1-.622.52l-.064-.021-2.594-1.054a.5.5 0 0 0-.377 0L3.218 11.15a.5.5 0 0 1-.686-.5l.2-2.791a.5.5 0 0 0-.115-.359L.812 5.361a.5.5 0 0 1 .263-.808l2.717-.67a.5.5 0 0 0 .246-.145l.06-.077zm-.714 2.853c-.193.31-.5.532-.854.62l-2.094.516 1.391 1.65c.235.278.352.638.326 1.002l-.156 2.15 1.998-.81.129-.046a1.4 1.4 0 0 1 .797 0l.129.045 1.997.812-.155-2.15a1.4 1.4 0 0 1 .326-1.004l1.39-1.65-2.093-.516a1.4 1.4 0 0 1-.854-.619L6 2.304z" clip-rule="evenodd"/></svg>