<svg xmlns="http://www.w3.org/2000/svg" width="16" height="16" fill="currentColor"><path fill="currentColor" fill-rule="evenodd" d="M7.575 1.484a.5.5 0 0 1 .85 0l2.148 3.456a.5.5 0 0 0 .305.22l3.95.976a.5.5 0 0 1 .262.808l-2.622 3.111a.5.5 0 0 0-.116.359l.293 4.057a.5.5 0 0 1-.688.5l-3.769-1.533a.5.5 0 0 0-.376 0L4.043 14.97l-.065.022a.5.5 0 0 1-.623-.52l.293-4.058a.5.5 0 0 0-.061-.28l-.055-.079L.91 6.944a.5.5 0 0 1 .262-.808l3.95-.975a.5.5 0 0 0 .246-.145l.059-.076zM6.276 5.467a1.5 1.5 0 0 1-.914.664l-3.17.783L4.297 9.41a1.5 1.5 0 0 1 .349 1.074L4.41 13.74l3.025-1.23c.317-.129.667-.144.993-.048l.137.048 3.024 1.23-.235-3.256a1.5 1.5 0 0 1 .35-1.074l2.103-2.497-3.17-.783a1.5 1.5 0 0 1-.913-.664L8 2.695z" clip-rule="evenodd"/></svg>