<svg xmlns="http://www.w3.org/2000/svg" width="12" height="12" fill="currentColor"><g fill="currentColor" clip-path="url(#a)"><path d="M.625 8.875v-7.75a.5.5 0 0 1 1 0v7.75a1.5 1.5 0 0 0 1.5 1.5h7.75a.5.5 0 0 1 0 1h-7.75a2.5 2.5 0 0 1-2.5-2.5"/><path d="M9.95 2.734a.5.5 0 0 1 .849.532l-1.62 2.577c-.12.191-.223.356-.314.482-.09.126-.2.257-.344.355-.378.255-.85.27-1.243.032a1.4 1.4 0 0 1-.36-.339 10 10 0 0 1-.33-.465 9 9 0 0 0-.293-.413.6.6 0 0 0-.092-.101c-.055-.034-.106-.035-.165.005a.6.6 0 0 0-.092.11 9 9 0 0 0-.28.43L4.05 8.516a.5.5 0 0 1-.848-.532l1.62-2.577c.12-.191.222-.356.314-.482.09-.126.199-.257.343-.355.379-.255.85-.27 1.243-.032.15.091.264.218.36.339s.204.28.33.465c.135.196.223.322.294.413a.6.6 0 0 0 .092.101c.054.034.106.035.165-.005a.6.6 0 0 0 .091-.11 9 9 0 0 0 .28-.43z"/></g><defs><clipPath id="a"><path fill="currentColor" d="M0 0h12v12H0z"/></clipPath></defs></svg>