<svg xmlns="http://www.w3.org/2000/svg" width="20" height="20" fill="currentColor"><path fill="currentColor" d="M1.375 16.125V1.875a.5.5 0 0 1 1 0v14.25a1.5 1.5 0 0 0 1.5 1.5h14.25a.5.5 0 0 1 0 1H3.875a2.5 2.5 0 0 1-2.5-2.5"/><path fill="currentColor" d="M16.867 4.734a.5.5 0 0 1 .848.532L15.017 9.56c-.203.323-.368.585-.513.786-.144.2-.296.379-.488.508a1.56 1.56 0 0 1-1.713.046 2 2 0 0 1-.51-.485 16 16 0 0 1-.539-.758 15 15 0 0 0-.5-.706c-.128-.162-.2-.221-.243-.248a.56.56 0 0 0-.634.019c-.045.03-.115.095-.237.264s-.266.4-.477.735l-2.698 4.294a.5.5 0 0 1-.848-.532l2.7-4.295c.203-.323.367-.585.511-.786.144-.2.297-.379.489-.508a1.56 1.56 0 0 1 1.713-.046c.198.12.358.293.51.485.15.193.325.446.538.758.222.322.375.545.501.706.127.161.199.221.242.248.204.124.43.12.635-.019.046-.03.115-.096.237-.264.121-.169.266-.4.476-.735z"/></svg>