<svg xmlns="http://www.w3.org/2000/svg" width="16" height="16" fill="currentColor"><path fill="currentColor" d="M1 12.5v-11a.5.5 0 0 1 1 0v11A1.5 1.5 0 0 0 3.5 14h11a.5.5 0 0 1 0 1h-11A2.5 2.5 0 0 1 1 12.5"/><path fill="currentColor" d="M13.41 3.734a.5.5 0 0 1 .847.532L12.097 7.7c-.161.258-.295.471-.412.635a1.7 1.7 0 0 1-.416.432 1.35 1.35 0 0 1-1.479.039 1.7 1.7 0 0 1-.434-.412 13 13 0 0 1-.435-.612c-.178-.26-.299-.434-.398-.56a.8.8 0 0 0-.166-.174.35.35 0 0 0-.4.013.8.8 0 0 0-.164.187c-.095.132-.21.313-.378.581l-2.158 3.436a.5.5 0 0 1-.848-.532l2.16-3.436c.161-.257.295-.47.412-.634.118-.163.248-.318.416-.432a1.35 1.35 0 0 1 1.479-.039c.174.106.31.256.434.412.123.158.265.364.435.612.178.26.299.434.398.56a.8.8 0 0 0 .166.174.35.35 0 0 0 .4-.013.8.8 0 0 0 .164-.187c.095-.132.21-.313.378-.581z"/></svg>