<svg xmlns="http://www.w3.org/2000/svg" width="20" height="20" fill="currentColor"><path fill="currentColor" d="M2.5 1.95a.55.55 0 0 1 .55.549v13c0 .8.65 1.45 1.45 1.45h13a.55.55 0 1 1 0 1.1h-13a2.55 2.55 0 0 1-2.55-2.55v-13a.55.55 0 0 1 .55-.55"/><path fill="currentColor" d="M16.825 4.706a.55.55 0 0 1 .932.586l-2.698 4.294a16 16 0 0 1-.515.789c-.145.201-.3.387-.5.521a1.61 1.61 0 0 1-1.768.047 2 2 0 0 1-.522-.497c-.153-.194-.328-.45-.541-.76a15 15 0 0 0-.5-.705c-.125-.16-.191-.214-.228-.236a.51.51 0 0 0-.58.018c-.039.025-.104.085-.224.253s-.265.396-.476.731l-2.698 4.295a.55.55 0 0 1-.932-.586l2.698-4.294c.203-.323.37-.587.515-.789a2 2 0 0 1 .501-.521 1.61 1.61 0 0 1 1.767-.047c.206.125.37.303.522.497s.328.45.541.76c.222.324.375.545.5.705.126.16.193.214.229.236.187.113.39.109.58-.019.038-.025.104-.084.224-.252.12-.166.264-.396.475-.731z"/></svg>