<svg xmlns="http://www.w3.org/2000/svg" width="12" height="12" fill="currentColor"><path fill="currentColor" d="M1.5 1.05a.45.45 0 0 1 .45.451v7.5c0 .58.47 1.05 1.05 1.05h7.725a.45.45 0 0 1 0 .9H3a1.95 1.95 0 0 1-1.95-1.95v-7.5a.45.45 0 0 1 .45-.45"/><path fill="currentColor" d="M9.994 2.762a.45.45 0 1 1 .762.478l-1.62 2.577c-.12.192-.222.355-.312.48a1.4 1.4 0 0 1-.33.342 1.09 1.09 0 0 1-1.19.03 1.3 1.3 0 0 1-.345-.325 10 10 0 0 1-.33-.463 9 9 0 0 0-.295-.416.6.6 0 0 0-.105-.113q-.106-.067-.218.007a.5.5 0 0 0-.105.122 9 9 0 0 0-.281.433L4.005 8.49a.45.45 0 1 1-.76-.478l1.618-2.577q.18-.291.313-.48c.09-.124.194-.249.33-.342a1.09 1.09 0 0 1 1.19-.031c.142.086.252.206.346.326.095.12.202.278.33.463.133.195.222.324.294.416.07.09.1.11.105.113a.19.19 0 0 0 .22-.007.6.6 0 0 0 .103-.122c.07-.097.154-.23.281-.433z"/></svg>