<svg width="12" height="12" viewBox="0 0 12 12" fill="none" xmlns="http://www.w3.org/2000/svg"><path d="M10 6.49805C10 4.28891 8.20914 2.49805 6 2.49805C3.79086 2.49805 2 4.28891 2 6.49805C2 8.70719 3.79086 10.498 6 10.498C8.20914 10.498 10 8.70719 10 6.49805ZM5.5 4.5C5.5 4.22386 5.72386 4 6 4C6.27614 4 6.5 4.22386 6.5 4.5V6.23242L7.77734 7.08398C8.00711 7.23716 8.06919 7.54758 7.91602 7.77734C7.76284 8.00711 7.45242 8.06919 7.22266 7.91602L5.5 6.76758V4.5ZM7.5 0.25C7.77614 0.25 8 0.473858 8 0.75C8 1.02614 7.77614 1.25 7.5 1.25H4.5C4.22386 1.25 4 1.02614 4 0.75C4 0.473858 4.22386 0.25 4.5 0.25H7.5ZM11 6.49805C11 9.25947 8.76142 11.498 6 11.498C3.23858 11.498 1 9.25947 1 6.49805C1 3.73662 3.23858 1.49805 6 1.49805C8.76142 1.49805 11 3.73662 11 6.49805Z" fill="currentColor"/></svg>