<svg width="16" height="16" viewBox="0 0 16 16" fill="none" xmlns="http://www.w3.org/2000/svg"><path d="M13.5 8.66406C13.5 5.6265 11.0376 3.16406 8 3.16406C4.96243 3.16406 2.5 5.6265 2.5 8.66406C2.5 11.7016 4.96243 14.1641 8 14.1641C11.0376 14.1641 13.5 11.7016 13.5 8.66406ZM7.5 6C7.5 5.72386 7.72386 5.5 8 5.5C8.27614 5.5 8.5 5.72386 8.5 6V8.39844L10.2773 9.58398C10.5071 9.73716 10.5692 10.0476 10.416 10.2773C10.2628 10.5071 9.95242 10.5692 9.72266 10.416L7.5 8.93457V6ZM10 0.5C10.2761 0.5 10.5 0.723858 10.5 1C10.5 1.27614 10.2761 1.5 10 1.5H6C5.72386 1.5 5.5 1.27614 5.5 1C5.5 0.723858 5.72386 0.5 6 0.5H10ZM14.5 8.66406C14.5 12.2539 11.5899 15.1641 8 15.1641C4.41015 15.1641 1.5 12.2539 1.5 8.66406C1.5 5.07421 4.41015 2.16406 8 2.16406C11.5899 2.16406 14.5 5.07421 14.5 8.66406Z" fill="currentColor"/></svg>