<svg xmlns="http://www.w3.org/2000/svg" width="16" height="16" fill="currentColor"><path fill="currentColor" d="M12.699 9.783a4.7 4.7 0 0 1-.8.502c-1.023.512-2.403.815-3.9.815s-2.876-.303-3.9-.815a4.7 4.7 0 0 1-.8-.502V11.9l.004.081c.043.41.411.894 1.243 1.31C5.404 13.72 6.625 14 8 14s2.595-.28 3.453-.709c.887-.444 1.245-.964 1.246-1.39zm0-3.9c-.241.19-.512.359-.8.503-1.023.512-2.403.814-3.9.814s-2.876-.302-3.9-.814a4.7 4.7 0 0 1-.8-.502V8l.004.081c.043.41.411.894 1.243 1.31.858.43 2.079.709 3.454.709s2.595-.28 3.453-.708c.832-.417 1.2-.9 1.242-1.311L12.699 8zm0-1.782c0-.427-.359-.948-1.246-1.392C10.595 2.28 9.375 2 8 2s-2.596.28-3.454.709C3.66 3.153 3.3 3.674 3.3 4.101s.36.946 1.247 1.39c.858.43 2.079.71 3.454.71s2.595-.28 3.453-.71c.887-.443 1.245-.964 1.246-1.39m1 7.8c0 1.008-.805 1.787-1.8 2.284-1.023.513-2.403.815-3.9.815s-2.876-.303-3.9-.815c-.932-.465-1.698-1.18-1.79-2.098L2.3 11.9V4.1c0-1.009.806-1.788 1.8-2.286C5.123 1.302 6.503 1 8 1s2.877.302 3.9.814c.995.498 1.8 1.277 1.8 2.287z"/></svg>