<svg xmlns="http://www.w3.org/2000/svg" width="12" height="12" fill="currentColor"><path fill="currentColor" d="M9.55 7.503a4 4 0 0 1-.52.314c-.8.4-1.87.634-3.03.634s-2.23-.234-3.03-.634a4 4 0 0 1-.52-.314V9c0 .29.247.674.923 1.012.65.324 1.577.538 2.627.538s1.978-.214 2.627-.538c.676-.338.923-.722.923-1.012zm0-3a4 4 0 0 1-.52.314c-.8.4-1.87.634-3.03.634s-2.23-.234-3.03-.634a4 4 0 0 1-.52-.314V6l.012.113c.057.273.32.603.911.899.65.324 1.577.538 2.627.538s1.978-.214 2.627-.538c.676-.338.923-.722.923-1.012zM9.55 3c0-.29-.247-.674-.923-1.012C7.977 1.664 7.05 1.45 6 1.45s-1.978.214-2.627.538C2.697 2.326 2.45 2.71 2.45 3s.247.674.923 1.012c.65.324 1.577.538 2.627.538s1.978-.214 2.627-.538c.676-.338.923-.722.923-1.012m.9 6c0 .815-.649 1.43-1.42 1.816-.8.4-1.87.634-3.03.634s-2.23-.234-3.03-.634C2.199 10.43 1.55 9.815 1.55 9V3c0-.815.649-1.43 1.42-1.816C3.77.785 4.84.55 6 .55s2.23.234 3.03.634C9.8 1.57 10.45 2.186 10.45 3z"/></svg>