<svg xmlns="http://www.w3.org/2000/svg" width="20" height="20" fill="currentColor"><path fill="currentColor" d="M15.85 12.057a5.5 5.5 0 0 1-1.078.697c-1.25.625-2.938.995-4.772.995s-3.522-.37-4.771-.995a5.6 5.6 0 0 1-1.08-.696v2.74c0 .564.471 1.222 1.57 1.772 1.068.534 2.58.88 4.281.88s3.212-.346 4.28-.88c1.1-.55 1.57-1.208 1.57-1.771zm0-4.8a5.6 5.6 0 0 1-1.078.697c-1.25.625-2.938.995-4.772.995s-3.522-.37-4.771-.995a5.6 5.6 0 0 1-1.08-.696v2.741c0 .563.471 1.22 1.57 1.77 1.068.534 2.58.88 4.281.88s3.213-.346 4.28-.88c1.099-.55 1.57-1.207 1.57-1.77zm0-2.058c0-.563-.47-1.221-1.57-1.771-1.068-.534-2.58-.88-4.28-.88s-3.213.346-4.28.88c-1.1.55-1.57 1.208-1.57 1.771s.47 1.221 1.57 1.77c1.067.534 2.58.88 4.28.88s3.212-.346 4.28-.88c1.1-.55 1.57-1.207 1.57-1.77m1.1 9.6c0 1.204-.962 2.146-2.178 2.755-1.25.624-2.938.995-4.772.995s-3.522-.37-4.771-.995c-1.217-.609-2.18-1.551-2.18-2.755v-9.6c0-1.204.963-2.146 2.18-2.755C6.478 1.82 8.166 1.45 10 1.45s3.522.37 4.772.995c1.216.609 2.178 1.551 2.178 2.755z"/></svg>