<svg xmlns="http://www.w3.org/2000/svg" width="20" height="20" fill="currentColor"><path fill="currentColor" d="M15.821 12.84q.58 0 1.007.195.428.195.661.541.236.346.235.804 0 .29-.116.576t-.42.632q-.3.345-.855.827l-.61.563v.032h1.568a.496.496 0 0 1 0 .99h-2.663a.609.609 0 0 1-.402-1.065l1.65-1.445q.209-.188.355-.344.147-.16.224-.319a.8.8 0 0 0 .077-.35q0-.211-.093-.36a.6.6 0 0 0-.253-.234.8.8 0 0 0-.37-.082.76.76 0 0 0-.37.087.6.6 0 0 0-.249.246c-.106.197-.27.392-.494.392h-.176c-.322 0-.597-.268-.498-.574q.056-.173.149-.323.233-.378.656-.582.425-.207.987-.206m-4.21-10.229a.55.55 0 1 1 .778.778L8.277 7.5l4.112 4.112a.55.55 0 1 1-.778.778L7.5 8.278 3.39 12.39a.55.55 0 0 1-.779-.778l4.112-4.111L2.61 3.39a.55.55 0 1 1 .778-.778l4.11 4.112z"/></svg>