<svg xmlns="http://www.w3.org/2000/svg" width="12" height="12" fill="currentColor"><path fill="currentColor" d="M9.475 7q.455.002.79.153.337.153.52.426.186.271.186.63 0 .23-.092.454-.092.225-.33.496a7 7 0 0 1-.672.65l-.479.442v.025h1.232a.39.39 0 0 1 0 .78H8.537a.479.479 0 0 1-.315-.838l1.296-1.135q.163-.149.279-.272.115-.124.176-.25a.63.63 0 0 0-.012-.558.5.5 0 0 0-.2-.184.64.64 0 0 0-.29-.064.6.6 0 0 0-.291.068.47.47 0 0 0-.196.194c-.083.155-.211.308-.387.308h-.139c-.253 0-.47-.21-.392-.451q.045-.135.118-.254.183-.297.515-.457.334-.162.776-.162M6.807 1.556a.45.45 0 0 1 .636.636L5.136 4.5l2.307 2.308a.45.45 0 0 1-.636.636L4.499 5.137 2.191 7.444a.45.45 0 0 1-.636-.636L3.862 4.5 1.557 2.194a.45.45 0 0 1 .636-.636L4.5 3.863z"/></svg>