<svg xmlns="http://www.w3.org/2000/svg" width="16" height="16" fill="currentColor"><path fill="currentColor" d="M12.454 9.576q.495 0 .863.166.366.166.566.465.202.296.202.688 0 .25-.1.495a2 2 0 0 1-.36.54 8 8 0 0 1-.732.71l-.523.482v.027h1.344a.425.425 0 0 1 0 .85h-2.283a.522.522 0 0 1-.344-.914l1.413-1.237q.18-.162.305-.296.125-.137.191-.274a.7.7 0 0 0 .067-.3.6.6 0 0 0-.08-.31.53.53 0 0 0-.216-.2.7.7 0 0 0-.317-.07.65.65 0 0 0-.318.076.5.5 0 0 0-.214.21c-.09.17-.23.336-.422.336h-.152c-.276 0-.512-.23-.427-.492q.048-.147.128-.276.2-.324.563-.5.364-.176.845-.176M9.147 2.143a.5.5 0 0 1 .707.707L6.705 5.998l3.149 3.148a.5.5 0 0 1-.708.707L5.997 6.705 2.851 9.852a.5.5 0 0 1-.707-.707L5.29 5.998 2.147 2.853a.5.5 0 1 1 .707-.707l3.144 3.145z"/></svg>