<svg xmlns="http://www.w3.org/2000/svg" width="16" height="16" fill="currentColor"><path fill="currentColor" d="M8 12.832a.5.5 0 0 1 .5.5v1.333a.5.5 0 1 1-1 0v-1.333a.5.5 0 0 1 .5-.5m3.35-1.482a.5.5 0 0 1 .707 0l1.481 1.482a.5.5 0 0 1-.707.707l-1.481-1.481a.5.5 0 0 1 0-.707m-7.408-.001a.501.501 0 0 1 .708.707l-1.482 1.481a.5.5 0 0 1-.707-.707z"/><path fill="currentColor" fill-rule="evenodd" d="M8 4.168a3.834 3.834 0 1 1-.001 7.668 3.834 3.834 0 0 1 0-7.668m0 1a2.833 2.833 0 1 0 0 5.667 2.833 2.833 0 0 0 0-5.667" clip-rule="evenodd"/><path fill="currentColor" d="M2.666 7.5a.5.5 0 0 1 0 1H1.333a.5.5 0 0 1 0-1zm12 0a.5.5 0 0 1 0 1h-1.333a.5.5 0 1 1 0-1zM2.446 2.477a.5.5 0 0 1 .706-.032L4.633 3.8a.5.5 0 0 1-.675.738L2.477 3.183a.5.5 0 0 1-.031-.706m10.401-.033a.5.5 0 0 1 .675.739l-1.48 1.354a.5.5 0 0 1-.675-.738zM8 .832a.5.5 0 0 1 .5.5v1.333a.5.5 0 0 1-1 0V1.332a.5.5 0 0 1 .5-.5"/></svg>