<svg xmlns="http://www.w3.org/2000/svg" width="20" height="20" fill="currentColor"><path fill="currentColor" d="M10 16.117a.55.55 0 0 1 .55.55v1.667a.55.55 0 0 1-1.1 0v-1.667a.55.55 0 0 1 .55-.55m4.24-1.875a.55.55 0 0 1 .778 0l1.852 1.853a.55.55 0 1 1-.778.777l-1.852-1.851a.55.55 0 0 1 0-.779m-9.26-.002a.55.55 0 0 1 .779.777l-1.853 1.852a.55.55 0 0 1-.777-.778z"/><path fill="currentColor" fill-rule="evenodd" d="M10 5.285a4.717 4.717 0 1 1 0 9.434 4.717 4.717 0 0 1 0-9.434m0 1.1a3.618 3.618 0 1 0 0 7.235 3.618 3.618 0 0 0 0-7.235" clip-rule="evenodd"/><path fill="currentColor" d="M3.333 9.45a.55.55 0 1 1 0 1.099H1.666a.55.55 0 0 1 0-1.1zm15 0a.55.55 0 1 1 0 1.099h-1.667a.55.55 0 0 1 0-1.1zM3.112 3.147a.55.55 0 0 1 .777-.035L5.74 4.806a.55.55 0 1 1-.74.811L3.147 3.925a.55.55 0 0 1-.035-.778m12.998-.035a.55.55 0 1 1 .742.813L15 5.617a.55.55 0 1 1-.741-.811zM10 1.117a.55.55 0 0 1 .55.55v1.667a.55.55 0 0 1-1.1 0V1.667a.55.55 0 0 1 .55-.55"/></svg>