<svg xmlns="http://www.w3.org/2000/svg" width="12" height="12" fill="currentColor"><path fill="currentColor" d="M6 9.547a.45.45 0 0 1 .45.45v1a.45.45 0 0 1-.9 0v-1a.45.45 0 0 1 .45-.45m2.459-1.088a.45.45 0 0 1 .637 0l1.111 1.111a.45.45 0 0 1-.637.637L8.46 9.096a.45.45 0 0 1 0-.637m-5.557-.002a.45.45 0 0 1 .637.637l-1.111 1.111a.45.45 0 0 1-.637-.637z"/><path fill="currentColor" fill-rule="evenodd" d="M6 3.05a2.95 2.95 0 1 1 0 5.901 2.95 2.95 0 0 1 0-5.9m0 .901a2.05 2.05 0 1 0 0 4.1 2.05 2.05 0 0 0 0-4.1" clip-rule="evenodd"/><path fill="currentColor" d="M2 5.547a.45.45 0 0 1 0 .9H1a.45.45 0 0 1 0-.9zm9 0a.45.45 0 0 1 0 .9h-1a.45.45 0 0 1 0-.9zm-9.222-3.74a.45.45 0 0 1 .637-.029l1.111 1.016a.45.45 0 0 1-.607.665L1.807 2.442a.45.45 0 0 1-.029-.635m7.807-.031a.45.45 0 0 1 .607.665L9.081 3.457a.45.45 0 0 1-.607-.664zM6 .547a.45.45 0 0 1 .45.45v1a.45.45 0 0 1-.9 0v-1A.45.45 0 0 1 6 .547"/></svg>