<svg xmlns="http://www.w3.org/2000/svg" width="20" height="20" fill="currentColor"><path fill="currentColor" d="M10 16.166a.5.5 0 0 1 .5.5v1.667a.5.5 0 0 1-1 0v-1.667a.5.5 0 0 1 .5-.5m4.276-1.89a.5.5 0 0 1 .707 0l1.851 1.853a.5.5 0 1 1-.707.707l-1.851-1.853a.5.5 0 0 1 0-.707m-9.26-.001a.501.501 0 0 1 .708.707L3.87 16.835a.5.5 0 0 1-.707-.708z"/><path fill="currentColor" fill-rule="evenodd" d="M10 5.334a4.667 4.667 0 1 1 0 9.333 4.667 4.667 0 0 1 0-9.333m0 1a3.667 3.667 0 1 0 0 7.334 3.667 3.667 0 0 0 0-7.334" clip-rule="evenodd"/><path fill="currentColor" d="M3.333 9.5a.5.5 0 0 1 0 1H1.666a.5.5 0 0 1 0-1zm15 0a.5.5 0 0 1 0 1h-1.667a.5.5 0 0 1 0-1zM3.149 3.18a.5.5 0 0 1 .707-.032l1.851 1.693a.5.5 0 0 1-.675.738L3.181 3.886a.5.5 0 0 1-.032-.706m12.995-.033a.5.5 0 0 1 .675.739l-1.852 1.693a.5.5 0 0 1-.675-.738zM10 1.166a.5.5 0 0 1 .5.5v1.667a.5.5 0 0 1-1 0V1.666a.5.5 0 0 1 .5-.5"/></svg>