<svg xmlns="http://www.w3.org/2000/svg" width="20" height="20" fill="currentColor"><path fill="currentColor" d="M11.612 7.611a.55.55 0 0 1 .777.778l-4.112 4.11 4.112 4.112a.55.55 0 1 1-.777.778l-4.113-4.113-4.109 4.11a.551.551 0 0 1-.778-.777l4.11-4.11-4.11-4.11a.55.55 0 1 1 .777-.778l4.11 4.11zM15.82 1.84q.58 0 1.008.194.427.195.66.541.237.346.237.804 0 .291-.117.576-.117.286-.42.632-.3.345-.855.827l-.609.563v.032h1.567a.496.496 0 0 1 0 .991h-2.664a.608.608 0 0 1-.401-1.066l1.65-1.445a6 6 0 0 0 .355-.344q.147-.16.223-.319a.8.8 0 0 0 .078-.35q0-.212-.092-.36a.6.6 0 0 0-.254-.234.8.8 0 0 0-.37-.082.76.76 0 0 0-.37.087.6.6 0 0 0-.25.246c-.106.197-.268.392-.492.392h-.177c-.322 0-.597-.268-.498-.574q.056-.173.15-.323.233-.378.655-.582.425-.206.987-.206"/></svg>