<svg xmlns="http://www.w3.org/2000/svg" width="16" height="16" fill="currentColor"><path fill="currentColor" d="M9.146 6.143a.5.5 0 0 1 .707.707L6.705 9.998l3.148 3.149a.5.5 0 0 1-.707.707l-3.148-3.149-3.147 3.147a.5.5 0 0 1-.708-.707l3.148-3.147-3.145-3.144a.5.5 0 1 1 .707-.708l3.145 3.145zm3.307-4.567q.497 0 .863.166.367.167.567.465.202.296.202.689 0 .248-.1.494a2 2 0 0 1-.36.54 8 8 0 0 1-.732.71l-.523.482v.027h1.344a.425.425 0 0 1 0 .85H11.43a.522.522 0 0 1-.344-.914L12.5 3.848q.179-.162.305-.296.125-.137.192-.274a.7.7 0 0 0 .065-.3.6.6 0 0 0-.079-.31.53.53 0 0 0-.216-.2.7.7 0 0 0-.318-.07.65.65 0 0 0-.317.076.5.5 0 0 0-.213.21c-.091.17-.232.337-.424.337h-.15c-.276 0-.513-.23-.428-.493q.048-.147.128-.276.2-.324.562-.5.364-.176.846-.176"/></svg>