<svg xmlns="http://www.w3.org/2000/svg" width="12" height="12" fill="currentColor"><path fill="currentColor" d="M6.682 4.682a.45.45 0 0 1 .636.636L5.137 7.5l2.181 2.182a.45.45 0 0 1-.636.636L4.5 8.137l-2.182 2.181a.45.45 0 0 1-.636-.636L3.863 7.5 1.682 5.318a.45.45 0 0 1 .636-.636L4.5 6.863zM9.475.945q.455 0 .79.153.337.152.52.425.186.272.186.631 0 .23-.092.453-.092.225-.33.497a7 7 0 0 1-.672.65l-.479.441v.026h1.232a.39.39 0 0 1 0 .779H8.537a.479.479 0 0 1-.315-.838l1.296-1.135q.163-.149.279-.271.115-.125.176-.25a.63.63 0 0 0-.012-.559.5.5 0 0 0-.2-.183.6.6 0 0 0-.29-.065.6.6 0 0 0-.291.069.47.47 0 0 0-.196.193c-.083.155-.211.309-.387.309h-.139c-.253 0-.47-.211-.392-.452q.045-.135.118-.254.183-.296.515-.457.334-.162.776-.162"/></svg>