<svg xmlns="http://www.w3.org/2000/svg" width="20" height="20" fill="currentColor"><path fill="currentColor" d="M16.5 6.427a.55.55 0 0 1 .55.55V14.2a2.85 2.85 0 0 1-2.85 2.85H6.827l1.562 1.561a.55.55 0 1 1-.778.778l-2.5-2.5a.55.55 0 0 1-.069-.694l.07-.084 2.5-2.5a.55.55 0 1 1 .777.778L6.827 15.95H14.2a1.75 1.75 0 0 0 1.75-1.75V6.977a.55.55 0 0 1 .55-.55M11.611.612a.55.55 0 0 1 .778 0l2.5 2.5a.55.55 0 0 1 .069.694l-.07.084-2.5 2.5a.55.55 0 1 1-.777-.778l1.562-1.561H5.8A1.75 1.75 0 0 0 4.05 5.8v7.325a.55.55 0 1 1-1.1 0V5.8A2.85 2.85 0 0 1 5.8 2.95h7.373L11.61 1.39a.55.55 0 0 1 0-.778"/></svg>