<svg xmlns="http://www.w3.org/2000/svg" width="12" height="12" fill="currentColor"><path fill="currentColor" d="M9.5 3.676a.45.45 0 0 1 .45.45V8.2A1.75 1.75 0 0 1 8.2 9.95H5.087l.731.732a.45.45 0 0 1-.636.636l-1.5-1.5a.45.45 0 0 1-.056-.568l.056-.068 1.5-1.5a.45.45 0 0 1 .636.636l-.731.732H8.2c.47 0 .85-.38.85-.85V4.126a.45.45 0 0 1 .45-.45M6.182.683a.45.45 0 0 1 .636 0l1.5 1.5a.45.45 0 0 1 .056.568l-.056.068-1.5 1.5a.45.45 0 0 1-.636-.636l.731-.732H3.8a.85.85 0 0 0-.85.85v4.075a.45.45 0 0 1-.9 0V3.8c0-.967.783-1.75 1.75-1.75h3.113l-.731-.732a.45.45 0 0 1 0-.636"/></svg>