<svg xmlns="http://www.w3.org/2000/svg" width="16" height="16" fill="currentColor"><path fill="currentColor" d="M13.5 5a.5.5 0 0 1 .5.5v6a2.5 2.5 0 0 1-2.5 2.5H5.207l1.147 1.146a.5.5 0 0 1-.708.707l-2-2a.5.5 0 0 1-.062-.63l.062-.077 2-2a.5.5 0 0 1 .708.707L5.207 13H11.5a1.5 1.5 0 0 0 1.5-1.5v-6a.5.5 0 0 1 .5-.5M9.646.146a.5.5 0 0 1 .707 0l2 2a.5.5 0 0 1 .063.631l-.062.076-2 2a.5.5 0 1 1-.708-.707L10.793 3H4.5A1.5 1.5 0 0 0 3 4.5v6a.5.5 0 0 1-1 0v-6A2.5 2.5 0 0 1 4.5 2h6.293L9.646.853a.5.5 0 0 1 0-.707"/></svg>