<svg xmlns="http://www.w3.org/2000/svg" width="16" height="16" fill="currentColor"><path fill="currentColor" d="M13.41 11H8.5v3h3.41a1.5 1.5 0 0 0 1.5-1.5zm-.093-4H8.5v3h4.91V6.99a.5.5 0 0 1-.093.01M2.591 10H7.5V7H2.59zm0 2.5a1.5 1.5 0 0 0 1.5 1.5H7.5v-3H2.59zm10.818-9a1.5 1.5 0 0 0-1.347-1.492L11.91 2H8.5v4h4.817q.047 0 .092.009zM2.591 6H7.5V2H4.09a1.5 1.5 0 0 0-1.5 1.5zm11.818 6.5a2.5 2.5 0 0 1-2.5 2.5H4.091a2.5 2.5 0 0 1-2.5-2.5v-1.99l-.001-.01v-7A2.5 2.5 0 0 1 4.09 1h7.82l.255.013A2.5 2.5 0 0 1 14.409 3.5z"/></svg>