<svg xmlns="http://www.w3.org/2000/svg" width="20" height="20" fill="currentColor"><path fill="currentColor" d="M16.649 13.115h-5.97v4.334h4.22a1.75 1.75 0 0 0 1.75-1.75zm-5.97-1.1h5.97V8.05h-5.97zm-7.33 0h6.23V8.05H3.35zm0 3.684c0 .967.784 1.75 1.75 1.75h4.48v-4.334H3.35zm13.3-11.4a1.75 1.75 0 0 0-1.75-1.75h-4.22v4.4h5.97zm-13.3 2.65h6.23v-4.4H5.1a1.75 1.75 0 0 0-1.75 1.75zm14.4 8.75a2.85 2.85 0 0 1-2.85 2.85h-9.8a2.85 2.85 0 0 1-2.85-2.85V4.3a2.85 2.85 0 0 1 2.85-2.85h9.8a2.85 2.85 0 0 1 2.85 2.85z"/></svg>