<svg xmlns="http://www.w3.org/2000/svg" width="12" height="12" fill="currentColor"><path fill="currentColor" d="M10.05 7.896H6.394v2.55a.5.5 0 0 1-.014.105H9.2c.47 0 .85-.38.85-.85zm-3.656-.9h3.656v-2.1H6.394zm-4.444 0h3.543v-2.1H1.95zm0 2.705c0 .47.38.85.85.85h2.708a.5.5 0 0 1-.015-.106v-2.55H1.95zm8.1-7.4a.85.85 0 0 0-.85-.85H6.394v2.544h3.656zm-8.1 1.694h3.543V1.451H2.8a.85.85 0 0 0-.85.85zm9 5.706a1.75 1.75 0 0 1-1.75 1.75H2.8a1.75 1.75 0 0 1-1.75-1.75v-7.4c0-.967.783-1.75 1.75-1.75h6.4c.966 0 1.75.783 1.75 1.75z"/></svg>