<svg width="16" height="16" viewBox="0 0 16 16" fill="none" xmlns="http://www.w3.org/2000/svg"><path d="M12.167 4.79492C12.167 4.4144 12.1665 4.15881 12.1504 3.96192C12.1348 3.771 12.1068 3.67937 12.0762 3.61914C11.9965 3.46271 11.8689 3.33493 11.7119 3.25489C11.6515 3.22411 11.5595 3.1963 11.3682 3.18067C11.2697 3.17263 11.1566 3.16813 11.0205 3.16602L10.5332 3.16407H7.83301V5.49707H12.167V4.79492ZM11.5 12.6641V11.1641H10C9.72386 11.1641 9.5 10.9402 9.5 10.6641C9.5 10.3879 9.72386 10.1641 10 10.1641H11.5V8.66407C11.5 8.38792 11.7239 8.16407 12 8.16407C12.2761 8.16407 12.5 8.38792 12.5 8.66407V10.1641H14C14.2761 10.1641 14.5 10.3879 14.5 10.6641C14.5 10.9402 14.2761 11.1641 14 11.1641H12.5V12.6641C12.5 12.9402 12.2761 13.1641 12 13.1641C11.7239 13.1641 11.5 12.9402 11.5 12.6641ZM2.5 9.49707H6.83301V6.49707H2.5V9.49707ZM2.5 11.1973C2.5 11.5788 2.5005 11.8351 2.5166 12.0322C2.53224 12.2236 2.56005 12.3156 2.59082 12.376C2.67087 12.5329 2.79864 12.6605 2.95508 12.7402C3.01531 12.7709 3.10694 12.7989 3.29785 12.8145C3.49474 12.8305 3.75034 12.8311 4.13086 12.8311H6.83301V10.4971H2.5V11.1973ZM2.5 5.49707H6.83301V3.16407H4.13379C3.75218 3.16407 3.49518 3.16455 3.29785 3.18067C3.10682 3.1963 3.01538 3.2242 2.95508 3.25489C2.79828 3.33478 2.67072 3.46234 2.59082 3.61914C2.56014 3.67944 2.53224 3.77088 2.5166 3.96192C2.50049 4.15925 2.5 4.41624 2.5 4.79785V5.49707ZM13.167 5.99707C13.167 6.12968 13.1143 6.2578 13.0205 6.35157C12.9268 6.4452 12.7994 6.49699 12.667 6.49707H7.83301V13.3311C7.83292 13.4635 7.78113 13.5909 7.6875 13.6846C7.59373 13.7783 7.46562 13.8311 7.33301 13.8311H4.13086C3.76665 13.8311 3.46289 13.8307 3.21582 13.8105C2.96301 13.7899 2.72556 13.7453 2.50098 13.6309C2.1559 13.455 1.87584 13.1745 1.7002 12.8301C1.5857 12.6054 1.54024 12.3674 1.51953 12.1143C1.49932 11.8669 1.5 11.5624 1.5 11.1973V4.79785C1.5 4.43273 1.49932 4.12834 1.51953 3.88086C1.54022 3.6276 1.58563 3.38989 1.7002 3.16504C1.87596 2.82013 2.15607 2.54002 2.50098 2.36426C2.72583 2.24969 2.96354 2.20429 3.2168 2.1836C3.46428 2.16338 3.76867 2.16407 4.13379 2.16407H10.5332L11.0361 2.16602C11.1885 2.16845 11.3266 2.1735 11.4502 2.1836C11.7033 2.2043 11.9413 2.24976 12.166 2.36426C12.5105 2.5399 12.791 2.81996 12.9668 3.16504C13.0812 3.38962 13.1258 3.62707 13.1465 3.87989C13.1667 4.12695 13.167 4.43072 13.167 4.79492V5.99707Z" fill="currentColor"/></svg>