<svg xmlns="http://www.w3.org/2000/svg" width="20" height="20" fill="currentColor"><path fill="currentColor" d="M15.951 4.3a1.75 1.75 0 0 0-1.75-1.75H9.823v4.4h5.678c.248 0 .45-.2.45-.449zm-1.409 12.973v-2.359h-2.358a.551.551 0 0 1 0-1.1h2.358v-2.359a.55.55 0 1 1 1.1 0v2.358h2.359a.55.55 0 0 1 0 1.101h-2.358v2.359a.55.55 0 0 1-1.101 0M2.551 11.95H8.7v-3.9H2.55zm0 3.75c0 .966.784 1.75 1.75 1.75h3.95a.45.45 0 0 0 .45-.45v-3.95h-6.15zm0-8.75h6.173v-4.4H4.3A1.75 1.75 0 0 0 2.55 4.3zm14.5-.449a1.55 1.55 0 0 1-1.55 1.55h-5.7V17a1.55 1.55 0 0 1-1.55 1.55h-3.95a2.85 2.85 0 0 1-2.85-2.85V4.3a2.85 2.85 0 0 1 2.85-2.849h9.9a2.85 2.85 0 0 1 2.85 2.85z"/></svg>