<svg width="16" height="16" viewBox="0 0 16 16" fill="none" xmlns="http://www.w3.org/2000/svg"><path d="M12.5 10.375H8.5V12.5H11.002C11.3596 12.5 11.5983 12.4993 11.7813 12.4844C11.9581 12.4699 12.0395 12.4441 12.0908 12.418C12.2316 12.3461 12.3461 12.2316 12.418 12.0908C12.4441 12.0395 12.4699 11.9581 12.4844 11.7813C12.4993 11.5983 12.5 11.3596 12.5 11.002V10.375ZM8.5 9.375H12.5V6.625H8.5V9.375ZM3.5 9.375H7.5V6.625H3.5V9.375ZM12.5 4.99805C12.5 4.64047 12.4993 4.40186 12.4844 4.21875C12.4699 4.04171 12.4441 3.96047 12.418 3.90918C12.3463 3.76863 12.2319 3.65404 12.0908 3.58203C12.0393 3.5558 11.9577 3.53013 11.7803 3.51563C11.597 3.50065 11.3583 3.5 11 3.5H8.5V5.625H12.5V4.99805ZM3.5 11C3.5 11.3583 3.50065 11.597 3.51563 11.7803C3.53013 11.9577 3.5558 12.0393 3.58203 12.0908C3.65404 12.2319 3.76863 12.3463 3.90918 12.418C3.96047 12.4441 4.04171 12.4699 4.21875 12.4844C4.40186 12.4993 4.64047 12.5 4.99805 12.5H7.5V10.375H3.5V11ZM3.5 5.625H7.5V3.5H5C4.6418 3.5 4.40314 3.50065 4.21973 3.51563C4.0421 3.53013 3.96061 3.55583 3.90918 3.58203C3.76827 3.6539 3.6539 3.76827 3.58203 3.90918C3.55583 3.96061 3.53013 4.0421 3.51563 4.21973C3.50065 4.40314 3.5 4.6418 3.5 5V5.625ZM13.5 11.002C13.5 11.343 13.5005 11.6292 13.4814 11.8623C13.4619 12.1012 13.4193 12.3283 13.3096 12.5439C13.1418 12.8732 12.8732 13.1418 12.5439 13.3096C12.3283 13.4193 12.1012 13.4619 11.8623 13.4814C11.6292 13.5005 11.343 13.5 11.002 13.5H4.99805C4.65698 13.5 4.37097 13.5005 4.1377 13.4814C3.8986 13.4619 3.67089 13.4195 3.45508 13.3096C3.12559 13.1416 2.85804 12.8729 2.69043 12.5439C2.58061 12.3282 2.5381 12.1005 2.51856 11.8613C2.49951 11.6279 2.5 11.3416 2.5 11V5C2.5 4.65846 2.49951 4.37215 2.51856 4.13867C2.53811 3.89929 2.58039 3.67104 2.69043 3.45508C2.85819 3.12589 3.12589 2.85819 3.45508 2.69043C3.67104 2.58039 3.89929 2.53811 4.13867 2.51856C4.37215 2.49951 4.65846 2.5 5 2.5H11C11.3416 2.5 11.6279 2.49951 11.8613 2.51856C12.1005 2.5381 12.3282 2.58061 12.5439 2.69043C12.8729 2.85804 13.1416 3.12559 13.3096 3.45508C13.4195 3.67089 13.4619 3.8986 13.4814 4.1377C13.5005 4.37097 13.5 4.65698 13.5 4.99805V11.002Z" fill="currentColor"/></svg>