<svg xmlns="http://www.w3.org/2000/svg" width="12" height="12" fill="currentColor"><g clip-path="url(#a)"><path fill="currentColor" d="M9.548 2.3a.85.85 0 0 0-.85-.849H5.993V4.05H9.5A.05.05 0 0 0 9.55 4zm-.813 8.247V9.179H7.368a.45.45 0 1 1 0-.9h1.367V6.911a.45.45 0 0 1 .9 0V8.28h1.367a.45.45 0 0 1 0 .9H9.635v1.368a.45.45 0 0 1-.9 0M1.449 7.05h3.6v-2.1h-3.6zm0 2.65c0 .47.38.85.85.85h2.7a.05.05 0 0 0 .05-.05V7.95h-3.6zm0-5.65h3.642v-2.6H2.298a.85.85 0 0 0-.85.85zm9-.051a.95.95 0 0 1-.95.95H6.473l-.018.001h-.506v2.513l.004.037-.004.036V10.5a.95.95 0 0 1-.95.95h-2.7A1.75 1.75 0 0 1 .549 9.7V2.3c0-.967.783-1.75 1.75-1.75h6.4c.966 0 1.75.783 1.75 1.75z"/></g><defs><clipPath id="a"><rect width="12" height="12" fill="currentColor" rx="2"/></clipPath></defs></svg>