<svg width="16" height="16" viewBox="0 0 16 16" fill="none" xmlns="http://www.w3.org/2000/svg"><g clip-path="url(#a)"><path d="M14.1689 8.17766C14.1689 7.77405 14.0137 7.37678 13.5995 6.83391C13.1765 6.2795 12.5331 5.63463 11.6269 4.72844L10.4071 3.50871C9.88532 2.98688 9.51761 2.62018 9.19914 2.35734C8.88917 2.10155 8.65419 1.96873 8.4091 1.89836C8.16387 1.82803 7.89365 1.81544 7.49504 1.86809C7.08574 1.92218 6.58015 2.0391 5.86125 2.205L5.04191 2.39348C4.43482 2.53358 4.0166 2.63056 3.69719 2.74016C3.38877 2.84601 3.21362 2.95029 3.08195 3.08195C2.95029 3.21362 2.84601 3.38877 2.74016 3.69719C2.63056 4.0166 2.53358 4.43482 2.39348 5.04191L2.205 5.86125C2.0391 6.58015 1.92218 7.08574 1.86809 7.49504C1.81544 7.89365 1.82803 8.16387 1.89836 8.4091C1.96873 8.65419 2.10155 8.88917 2.35734 9.19914C2.62018 9.51761 2.98688 9.88532 3.50871 10.4071L4.72844 11.6269C5.63463 12.5331 6.2795 13.1765 6.83391 13.5995C7.37678 14.0137 7.77405 14.1689 8.17766 14.1689C8.5812 14.1688 8.9786 14.0137 9.52141 13.5995C10.0758 13.1765 10.7207 12.5331 11.6269 11.6269C12.5331 10.7207 13.1765 10.0758 13.5995 9.52141C14.0137 8.9786 14.1688 8.5812 14.1689 8.17766ZM11.9941 7.32902C12.1893 7.13376 12.5068 7.13377 12.7021 7.32902C12.8973 7.52428 12.8973 7.84177 12.7021 8.03703L8.04875 12.6894C7.85348 12.8846 7.53695 12.8846 7.34172 12.6894C7.14656 12.4941 7.14656 12.1776 7.34172 11.9823L11.9941 7.32902ZM4.44035 4.6259C5.15631 3.90994 6.31716 3.90994 7.03312 4.6259C7.749 5.34184 7.749 6.50175 7.03312 7.21769C6.31716 7.93366 5.15631 7.93366 4.44035 7.21769C3.72496 6.50184 3.72496 5.34175 4.44035 4.6259ZM6.32609 5.33293C6.00066 5.00749 5.47282 5.00749 5.14738 5.33293C4.82251 5.65826 4.82251 6.18533 5.14738 6.51066C5.47282 6.8361 6.00066 6.8361 6.32609 6.51066C6.65145 6.18524 6.65145 5.65835 6.32609 5.33293ZM15.1689 8.17766C15.1688 8.88773 14.8765 9.49606 14.3945 10.1279C13.9212 10.7481 13.2201 11.4477 12.3339 12.3339C11.4477 13.2201 10.7481 13.9212 10.1279 14.3945C9.49606 14.8765 8.88773 15.1688 8.17766 15.1689C7.46751 15.1689 6.85929 14.8765 6.22746 14.3945C5.60719 13.9212 4.90762 13.2201 4.02141 12.3339L2.80168 11.1142C2.29315 10.6057 1.88612 10.1997 1.58586 9.83586C1.27897 9.46398 1.05876 9.10741 0.937421 8.68449C0.816118 8.26153 0.813742 7.84219 0.876875 7.36418C0.938677 6.89653 1.06868 6.33641 1.23039 5.63566L1.41887 4.8173C1.55437 4.23014 1.66441 3.75203 1.79484 3.37199C1.92905 2.98106 2.09768 2.65216 2.37492 2.37492C2.65216 2.09768 2.98106 1.92905 3.37199 1.79484C3.75203 1.66441 4.23014 1.55437 4.8173 1.41887L5.63566 1.23039C6.33641 1.06868 6.89653 0.938677 7.36418 0.876875C7.84219 0.813742 8.26153 0.816118 8.68449 0.937421C9.10741 1.05876 9.46398 1.27897 9.83586 1.58586C10.1997 1.88612 10.6057 2.29315 11.1142 2.80168L12.3339 4.02141C13.2201 4.90762 13.9212 5.60719 14.3945 6.22746C14.8765 6.85929 15.1689 7.46751 15.1689 8.17766Z" fill="currentColor"/></g><defs><clipPath id="a"><path fill="currentColor" d="M0 0H16V16H0z"/></clipPath></defs></svg>