<svg xmlns="http://www.w3.org/2000/svg" width="12" height="12" fill="currentColor"><g clip-path="url(#a)"><path fill="currentColor" d="M10.55 6.131c0-.28-.106-.561-.412-.962-.313-.41-.792-.89-1.473-1.57l-.915-.916c-.392-.392-.665-.664-.9-.858-.228-.188-.395-.281-.565-.33-.171-.05-.363-.06-.656-.02-.302.04-.678.125-1.218.25l-.614.142c-.457.105-.767.177-1.002.257-.225.078-.343.152-.431.24s-.162.206-.24.431c-.08.235-.152.545-.257 1.002l-.142.614c-.125.54-.21.916-.25 1.218-.04.293-.03.485.02.656.049.17.142.337.33.565.194.235.466.508.858.9l.915.915c.681.681 1.16 1.16 1.571 1.473.4.306.683.412.962.412.28 0 .563-.106.963-.412.411-.313.89-.792 1.571-1.473.681-.68 1.16-1.16 1.473-1.57.306-.401.412-.684.412-.964m-1.608-.688a.45.45 0 0 1 .637.636l-3.49 3.49a.45.45 0 0 1-.636-.637zM3.277 3.414a1.45 1.45 0 1 1 2.05 2.052 1.45 1.45 0 0 1-2.05-2.052m1.414.637a.55.55 0 1 0-.777.777.55.55 0 0 0 .777-.777m6.76 2.08c0 .556-.23 1.029-.597 1.51-.359.47-.889.998-1.552 1.661S8.11 10.495 7.64 10.854c-.48.367-.953.597-1.509.597s-1.027-.23-1.508-.597c-.47-.359-.998-.889-1.662-1.552l-.915-.915c-.38-.38-.688-.687-.916-.964-.234-.283-.406-.56-.5-.89C.533 6.202.533 5.876.581 5.51c.047-.355.145-.779.266-1.303l.142-.614c.1-.439.185-.801.284-1.09.103-.3.234-.558.453-.777s.477-.35.776-.453c.29-.1.652-.183 1.091-.284l.614-.142c.524-.12.948-.219 1.303-.266.365-.048.691-.048 1.022.047.33.095.607.267.89.501.277.228.584.536.964.916l.915.915c.663.664 1.193 1.192 1.552 1.662.367.481.597.953.597 1.508"/></g><defs><clipPath id="a"><path fill="currentColor" d="M0 0h12v12H0z"/></clipPath></defs></svg>