<svg xmlns="http://www.w3.org/2000/svg" width="20" height="20" fill="currentColor"><path fill="currentColor" d="M17.455 10.213c0-.5-.194-.987-.694-1.642-.51-.67-1.285-1.446-2.372-2.533l-1.463-1.464c-.626-.625-1.07-1.066-1.454-1.383-.375-.31-.663-.474-.966-.56-.304-.088-.635-.102-1.118-.038-.494.065-1.103.205-1.964.404l-.983.227c-.728.168-1.233.285-1.619.418-.374.128-.592.256-.757.422s-.293.382-.422.757c-.132.386-.25.891-.418 1.619L3 7.422c-.2.862-.34 1.47-.405 1.965-.063.482-.05.814.038 1.117.087.303.25.592.56.967.317.384.758.828 1.384 1.453l1.464 1.464c1.086 1.086 1.863 1.86 2.532 2.371.656.5 1.143.694 1.643.694s.986-.194 1.642-.694c.669-.51 1.446-1.285 2.532-2.371s1.861-1.864 2.372-2.532c.5-.656.694-1.143.694-1.643m-2.624-.982a.55.55 0 1 1 .777.778l-5.583 5.583a.55.55 0 1 1-.777-.777zM5.765 5.986a2.15 2.15 0 1 1 3.04 3.041 2.15 2.15 0 0 1-3.04-3.041m2.263.778A1.05 1.05 0 1 0 6.543 8.25a1.05 1.05 0 0 0 1.485-1.486m10.526 3.45c0 .836-.343 1.555-.918 2.309-.566.74-1.405 1.578-2.47 2.642-1.064 1.065-1.9 1.904-2.642 2.469-.753.575-1.473.919-2.31.919-.836 0-1.555-.344-2.309-.919-.741-.565-1.578-1.404-2.643-2.469L3.8 13.701c-.611-.61-1.097-1.096-1.456-1.53-.365-.443-.626-.864-.77-1.363-.142-.499-.145-.995-.07-1.565.074-.558.23-1.227.423-2.069l.227-.982c.163-.706.294-1.276.45-1.729.159-.465.358-.852.684-1.178.325-.325.712-.525 1.178-.684.453-.156 1.023-.287 1.728-.45l.983-.226c.841-.194 1.51-.35 2.069-.423.57-.075 1.066-.073 1.564.07.499.144.92.404 1.364.77.434.358.919.844 1.53 1.455l1.464 1.464c1.064 1.064 1.903 1.901 2.469 2.643.574.753.918 1.472.918 2.31"/></svg>