<svg xmlns="http://www.w3.org/2000/svg" width="16" height="16" fill="currentColor"><path fill="currentColor" d="M14.003 8.173c0-.39-.15-.774-.553-1.303-.411-.54-1.038-1.167-1.922-2.051l-1.19-1.19c-.509-.509-.866-.865-1.176-1.12-.301-.25-.53-.378-.766-.446-.237-.068-.498-.08-.886-.03-.398.053-.89.167-1.592.329l-.799.183c-.592.137-1 .232-1.31.339-.3.103-.467.204-.594.33s-.227.295-.33.594c-.107.31-.202.718-.339 1.31l-.183.8c-.162.7-.276 1.193-.329 1.591-.05.388-.038.649.03.886s.196.465.445.766c.256.31.612.667 1.121 1.176l1.19 1.19c.883.884 1.512 1.51 2.051 1.923.529.402.913.552 1.303.552s.774-.15 1.302-.553c.54-.411 1.168-1.038 2.052-1.922.883-.884 1.51-1.512 1.922-2.052.403-.528.553-.912.553-1.302m-2.116-.836a.5.5 0 0 1 .707.707L8.057 12.58a.5.5 0 1 1-.707-.707zM4.522 4.7a1.8 1.8 0 1 1 2.546 2.547A1.8 1.8 0 0 1 4.522 4.7m1.838.707A.8.8 0 1 0 5.229 6.54a.8.8 0 0 0 1.13-1.133m8.643 2.766c0 .696-.287 1.291-.758 1.908-.462.606-1.146 1.289-2.01 2.153s-1.547 1.548-2.153 2.01c-.617.471-1.212.758-1.908.758s-1.292-.287-1.91-.758c-.605-.462-1.288-1.146-2.151-2.01l-1.19-1.189c-.495-.495-.892-.892-1.185-1.247-.3-.363-.517-.713-.636-1.128s-.12-.825-.059-1.292c.06-.457.187-1.003.345-1.686l.185-.798c.132-.572.238-1.04.366-1.41.13-.383.297-.705.57-.977.271-.272.593-.438.976-.57.37-.127.838-.233 1.41-.365l.798-.185c.683-.158 1.23-.284 1.686-.345.467-.061.878-.06 1.292.059s.765.336 1.128.636c.355.293.752.69 1.247 1.185l1.189 1.19c.864.864 1.548 1.546 2.01 2.152.471.617.758 1.213.758 1.91"/></svg>