<svg width="12" height="12" viewBox="0 0 12 12" fill="none" xmlns="http://www.w3.org/2000/svg"><path d="M10.5938 6C10.5937 5.88617 10.5645 5.75757 10.4619 5.54785C10.3542 5.32749 10.1876 5.06067 9.93848 4.66211L9.60449 4.12793C9.31005 3.65682 9.10769 3.33269 8.92383 3.09277C8.74654 2.8615 8.60893 2.7388 8.46192 2.65723C8.31479 2.57568 8.13783 2.52389 7.84766 2.49609C7.69711 2.48169 7.52596 2.47443 7.32324 2.4707L6.6084 2.4668H5.31445C4.34977 2.4668 3.67605 2.46782 3.16797 2.53613C2.67452 2.60253 2.41249 2.72423 2.22559 2.91113C2.03868 3.09804 1.91698 3.36007 1.85059 3.85352C1.78228 4.36159 1.78125 5.03531 1.78125 6C1.78125 6.96478 1.78228 7.63837 1.85059 8.14649C1.91697 8.64023 2.03863 8.90288 2.22559 9.08984C2.41248 9.27663 2.67467 9.39848 3.16797 9.46484C3.67605 9.53315 4.34977 9.53418 5.31445 9.53418H6.6084C7.16424 9.53418 7.54669 9.53368 7.84766 9.50488C8.13786 9.47709 8.31479 9.4253 8.46192 9.34375C8.609 9.26218 8.74647 9.13958 8.92383 8.9082C9.10772 8.66829 9.31 8.34424 9.60449 7.87305L9.93848 7.33887C10.1876 6.94025 10.3542 6.67253 10.4619 6.45215C10.5644 6.24248 10.5938 6.11384 10.5938 6ZM2.86426 8.47461V3.54004C2.86425 3.2639 3.08812 3.04005 3.36426 3.04004C3.64036 3.04009 3.86425 3.26393 3.86426 3.54004V8.47461C3.86426 8.75075 3.6404 8.97461 3.36426 8.97461C3.08812 8.97461 2.86426 8.75075 2.86426 8.47461ZM8.30274 5.9043C8.30274 5.62816 8.07888 5.4043 7.80274 5.4043C7.52682 5.40456 7.30274 5.62832 7.30274 5.9043C7.30285 6.18018 7.52689 6.40404 7.80274 6.4043C8.07881 6.4043 8.30262 6.18034 8.30274 5.9043ZM11.5938 6C11.5938 6.31981 11.5013 6.60328 11.3604 6.8916C11.2245 7.16941 11.0252 7.48729 10.7871 7.86817L10.4531 8.40332C10.1685 8.85867 9.93649 9.23 9.7168 9.5166C9.49067 9.81155 9.25516 10.0476 8.94629 10.2188C8.63739 10.3899 8.3124 10.4646 7.94238 10.5C7.58293 10.5344 7.14531 10.5342 6.6084 10.5342H5.31445C4.37802 10.5342 3.62535 10.5344 3.03516 10.4551C2.43067 10.3738 1.92223 10.2004 1.51856 9.79688C1.11492 9.39324 0.940691 8.88472 0.859376 8.28027C0.780019 7.69003 0.781251 6.93657 0.781251 6C0.781251 5.06356 0.780027 4.31089 0.859376 3.7207C0.940667 3.11608 1.11483 2.60783 1.51856 2.2041C1.92228 1.80038 2.43053 1.62621 3.03516 1.54492C3.62535 1.46557 4.37802 1.4668 5.31445 1.4668H6.6084L7.3418 1.4707C7.56331 1.47487 7.7626 1.48378 7.94238 1.50098C8.31247 1.53639 8.63734 1.611 8.94629 1.78223C9.25525 1.95347 9.49061 2.18931 9.7168 2.48438C9.9365 2.77099 10.1685 3.14227 10.4531 3.59766L10.7871 4.13184C11.0252 4.5128 11.2245 4.83054 11.3604 5.1084C11.5013 5.39672 11.5937 5.68022 11.5938 6ZM9.30274 5.9043C9.30262 6.73263 8.63109 7.4043 7.80274 7.4043C6.9746 7.40404 6.30285 6.73247 6.30274 5.9043C6.30274 5.07603 6.97453 4.40456 7.80274 4.4043C8.63116 4.4043 9.30274 5.07587 9.30274 5.9043Z" fill="currentColor"/></svg>