<svg xmlns="http://www.w3.org/2000/svg" width="16" height="16" fill="currentColor"><path fill="currentColor" d="M11.95 10.999c0-1.35-1.099-2.45-2.45-2.45H4.05v4.187c0 .39.322.713.713.713H9.5a2.453 2.453 0 0 0 2.45-2.45m1.1 0a3.55 3.55 0 0 1-3.55 3.55H4.763a1.816 1.816 0 0 1-1.813-1.813V3.262c0-.998.815-1.813 1.813-1.813h3.234A3.553 3.553 0 0 1 11.547 5a3.54 3.54 0 0 1-1.11 2.575A3.555 3.555 0 0 1 13.05 11m-9-3.55h3.947c1.35 0 2.45-1.1 2.45-2.45s-1.1-2.45-2.45-2.45H4.763a.717.717 0 0 0-.713.713z"/></svg>