<svg xmlns="http://www.w3.org/2000/svg" width="20" height="20" fill="currentColor"><path fill="currentColor" d="M15.025 13.75a3.154 3.154 0 0 0-3.15-3.15h-6.9v5.32c0 .538.442.98.98.98h5.92a3.154 3.154 0 0 0 3.15-3.15m1.2 0c0 2.4-1.95 4.35-4.35 4.35h-5.92c-1.2 0-2.18-.98-2.18-2.18V4.08c0-1.2.98-2.18 2.18-2.18h4.041c2.4 0 4.35 1.95 4.35 4.35 0 1.3-.573 2.467-1.48 3.265a4.355 4.355 0 0 1 3.359 4.235M4.975 9.4h5.021a3.154 3.154 0 0 0 3.15-3.15 3.154 3.154 0 0 0-3.15-3.15H5.954a.985.985 0 0 0-.98.98z"/></svg>