<svg xmlns="http://www.w3.org/2000/svg" width="12" height="12" fill="currentColor"><path fill="currentColor" d="M3.5 8.05a.45.45 0 0 1 0 .901h-2a.45.45 0 0 1 0-.9z"/><path fill="currentColor" fill-rule="evenodd" d="M8.25 3.176a.45.45 0 0 1 .408.261l2.25 4.876a.45.45 0 1 1-.816.376L9.29 6.951H7.21L6.408 8.69a.45.45 0 1 1-.816-.377l2.25-4.874.031-.057a.45.45 0 0 1 .377-.205M7.626 6.05h1.248L8.25 4.698z" clip-rule="evenodd"/><path fill="currentColor" d="M4.5 5.55a.45.45 0 0 1 0 .901h-3a.45.45 0 0 1 0-.9zm1.875-2.5a.45.45 0 0 1 0 .901H1.5a.45.45 0 0 1 0-.9z"/></svg>