<svg xmlns="http://www.w3.org/2000/svg" width="12" height="12" fill="currentColor"><path fill="currentColor" d="M9.063 8.375A1.877 1.877 0 0 0 7.187 6.5h-4.25v3.25c0 .274.227.5.5.5h3.75a1.877 1.877 0 0 0 1.875-1.875m1 0a2.877 2.877 0 0 1-2.876 2.875h-3.75c-.826 0-1.5-.674-1.5-1.5v-7.5c0-.826.674-1.5 1.5-1.5h2.56a2.877 2.877 0 0 1 2.875 2.875c0 .781-.313 1.49-.82 2.008a2.88 2.88 0 0 1 2.01 2.742M2.936 5.5h3.06a1.877 1.877 0 0 0 1.875-1.875A1.877 1.877 0 0 0 5.997 1.75h-2.56c-.273 0-.5.226-.5.5z"/></svg>