<svg xmlns="http://www.w3.org/2000/svg" width="16" height="16" fill="currentColor"><path fill="currentColor" d="M8.11 1.21q1.275.002 2.251.453.98.446 1.545 1.215h.001q.303.408.453.872c.12.371-.196.709-.587.709-.326 0-.594-.242-.723-.542a2.2 2.2 0 0 0-.846-.984c-.59-.388-1.309-.577-2.146-.577q-.919-.001-1.623.301-.696.303-1.1.844l-.001.001a2.06 2.06 0 0 0-.396 1.238q-.002.578.28 1.01l.003.002q.28.407.714.68.42.258.881.427l.002.001q.452.16.833.26l1.367.367v.001q.517.135 1.156.376l.312.13.015.006H13.5a.5.5 0 0 1 0 1h-1.565q.217.24.39.53c.242.405.367.909.367 1.519q0 1.048-.547 1.89-.472.736-1.338 1.214l-.257.132q-1.046.502-2.57.504-1.245 0-2.182-.348l-.262-.105q-1.018-.453-1.596-1.252a3.4 3.4 0 0 1-.473-.943c-.126-.395.203-.758.617-.758.348 0 .63.264.758.588q.137.347.384.624l.002.002q.48.522 1.203.775l.002.001a4.8 4.8 0 0 0 1.546.244q.959.001 1.733-.313c.515-.214.93-.514 1.236-.9h.001c.311-.396.466-.86.466-1.381 0-.477-.134-.878-.413-1.191a2.9 2.9 0 0 0-1.038-.722 9 9 0 0 0-.27-.11H2.5a.5.5 0 0 1 0-1h3.942q-1.18-.421-1.91-1.09c-.579-.53-.872-1.222-.872-2.09q.001-1.085.583-1.883.592-.814 1.596-1.266V1.67q1.013-.459 2.271-.46"/></svg>