<svg width="12" height="12" viewBox="0 0 12 12" fill="none" xmlns="http://www.w3.org/2000/svg"><path d="M9.4375 1.00032C9.71364 1.00032 9.9375 1.22417 9.9375 1.50032 9.9375 1.77646 9.71364 2.00032 9.4375 2.00032H4.8125C4.53636 2.00032 4.3125 1.77646 4.3125 1.50032 4.3125 1.22417 4.53636 1.00032 4.8125 1.00032H9.4375ZM7.1875 10.0003C7.46364 10.0003 7.6875 10.2242 7.6875 10.5003 7.6875 10.7765 7.46364 11.0003 7.1875 11.0003H2.5625C2.28636 11.0003 2.0625 10.7765 2.0625 10.5003 2.0625 10.2242 2.28636 10.0003 2.5625 10.0003H7.1875Z" fill="currentColor"/><path d="M7.24609 1.01497C7.51391 1.08192 7.67718 1.35359 7.61035 1.62141L5.36035 10.6214C5.2934 10.8892 5.02173 11.0525 4.75391 10.9857C4.48609 10.9187 4.32282 10.647 4.38965 10.3792L6.63965 1.37922C6.7066 1.1114 6.97827 0.948141 7.24609 1.01497Z" fill="currentColor"/></svg>