<svg xmlns="http://www.w3.org/2000/svg" width="12" height="12" fill="currentColor"><path fill="currentColor" d="M6.083.908q.956 0 1.688.34.735.334 1.159.91v.001q.228.304.34.654c.09.278-.147.532-.44.532-.245 0-.446-.183-.543-.408a1.66 1.66 0 0 0-.634-.738c-.442-.29-.982-.431-1.61-.431q-.689-.002-1.217.225a2 2 0 0 0-.825.633 1.55 1.55 0 0 0-.298.93c0 .287.069.542.211.757l.002.001q.211.306.535.51.316.194.661.32l.002.002q.339.119.624.194l1.026.275q.388.102.867.283l.234.097q.057.026.114.055h2.146a.45.45 0 0 1 0 .9H9.112q.07.095.132.197c.181.304.276.683.276 1.14q0 .786-.412 1.417a2.7 2.7 0 0 1-1.003.911l-.193.099q-.784.376-1.928.378-.932-.001-1.635-.26l-.197-.08q-.764-.34-1.197-.939a2.5 2.5 0 0 1-.354-.708c-.095-.295.151-.568.462-.568.26 0 .473.199.569.442q.101.26.287.467l.002.001q.361.391.902.582l.001.001q.542.184 1.16.183.719 0 1.3-.235.58-.24.927-.674v-.001q.35-.448.35-1.036c0-.357-.1-.658-.309-.893a2 2 0 0 0-.541-.424H1.875a.45.45 0 0 1 0-.9h3.1q-.985-.326-1.576-.867c-.434-.398-.654-.917-.654-1.569q0-.813.438-1.412a2.93 2.93 0 0 1 1.196-.95A4.1 4.1 0 0 1 6.083.909"/></svg>