<svg xmlns="http://www.w3.org/2000/svg" width="20" height="20" fill="currentColor"><path fill="currentColor" d="M10.138 1.613q1.574.002 2.772.557l.293.143a4.6 4.6 0 0 1 1.6 1.344v.001q.37.495.551 1.06a.53.53 0 0 1-.107.521.7.7 0 0 1-.53.235c-.355 0-.661-.266-.813-.618a2.87 2.87 0 0 0-1.094-1.274c-.757-.496-1.676-.736-2.738-.736-.774 0-1.467.124-2.068.383-.59.257-1.066.617-1.412 1.082l-.001.002-.004.005a2.67 2.67 0 0 0-.515 1.607c0 .496.12.94.368 1.317l.005.009.002.002q.36.516.907.863l.003.004.01.006q.529.323 1.109.537l.003.002-.001.001.011.004q.567.2 1.05.327l1.682.452v.001l.027.007q.639.167 1.43.465l.07.028h4.127a.55.55 0 1 1 0 1.1h-2.294q.426.39.74.913c.29.488.445 1.1.445 1.849q-.001 1.28-.67 2.306c-.382.596-.924 1.094-1.633 1.485l-.321.165c-.855.408-1.908.619-3.167.619q-1.54-.002-2.69-.428l-.325-.13q-1.25-.559-1.954-1.533a4.1 4.1 0 0 1-.577-1.151c-.132-.413.21-.817.675-.817.381 0 .705.292.856.673q.177.45.497.81l.004.004c.41.445.925.774 1.535.99l.009.004.004.002q.92.311 1.966.31 1.214.002 2.203-.398v-.001c.653-.272 1.184-.653 1.579-1.147l.009-.009a2.82 2.82 0 0 0 .603-1.788c0-.614-.174-1.142-.542-1.554-.344-.387-.792-.696-1.333-.928a12 12 0 0 0-.626-.246H3.125a.55.55 0 1 1 0-1.1h5.086c-1.033-.354-1.856-.818-2.479-1.387-.7-.64-1.057-1.478-1.057-2.539 0-.886.24-1.647.71-2.295l.188-.24q.687-.823 1.767-1.31l.01-.005q1.24-.559 2.788-.56"/></svg>