<svg xmlns="http://www.w3.org/2000/svg" width="20" height="20" fill="currentColor"><path fill="currentColor" d="M6.5 13.95a.55.55 0 1 1 0 1.099h-4a.55.55 0 1 1 0-1.1z"/><path fill="currentColor" fill-rule="evenodd" d="M13.5 4.95a.55.55 0 0 1 .513.35l3.5 9a.55.55 0 0 1-1.026.398l-1.03-2.65h-3.914l-1.03 2.65a.55.55 0 0 1-1.026-.398l3.5-9a.55.55 0 0 1 .513-.35m-1.53 6h3.06L13.5 7.016z" clip-rule="evenodd"/><path fill="currentColor" d="M8.325 9.45a.55.55 0 1 1 0 1.099H2.492a.55.55 0 1 1 0-1.1zm2.175-4.5a.55.55 0 1 1 0 1.099h-8a.55.55 0 1 1 0-1.1z"/></svg>