<svg width="12" height="12" viewBox="0 0 12 12" fill="none" xmlns="http://www.w3.org/2000/svg"><path d="M11 6C11 3.23858 8.76142 1 6 1C3.23858 1 1 3.23858 1 6C1 8.76142 3.23858 11 6 11V12C2.68629 12 0 9.31371 0 6C0 2.68629 2.68629 0 6 0C9.31371 0 12 2.68629 12 6C12 9.31371 9.31371 12 6 12V11C8.76142 11 11 8.76142 11 6Z" fill="currentColor"/><path fill-rule="evenodd" clip-rule="evenodd" d="M6 0C2.68629 0 0 2.68629 0 6C0 9.31371 2.68629 12 6 12C9.31371 12 12 9.31371 12 6C12 2.68629 9.31371 0 6 0ZM2.61133 5.50391C2.4378 5.71864 2.47089 6.03345 2.68555 6.20703L5.38574 8.38867C5.59898 8.56099 5.91147 8.52984 6.08594 8.31836L9.38574 4.31836L9.44238 4.23437C9.55149 4.02896 9.50472 3.76806 9.31836 3.61426C9.13206 3.46056 8.86748 3.46446 8.68652 3.61035L8.61426 3.68164L5.62891 7.30078L3.31445 5.42969C3.09971 5.25616 2.78491 5.28923 2.61133 5.50391Z" fill="currentColor"/></svg>