<svg xmlns="http://www.w3.org/2000/svg" width="12" height="12" fill="currentColor"><path fill="currentColor" fill-rule="evenodd" d="M8.625 7.5c.7 0 1.051 0 1.313.15.17.1.313.241.412.412l.05.103c.1.252.1.597.1 1.21s0 .958-.1 1.21l-.05.102q-.113.195-.29.33l-.123.083c-.26.15-.611.15-1.312.15-.7 0-1.051 0-1.312-.15a1.1 1.1 0 0 1-.413-.412c-.15-.261-.15-.612-.15-1.313 0-.7 0-1.051.15-1.312.1-.172.241-.314.412-.413.262-.15.612-.15 1.313-.15m0 .9c-.367 0-.582 0-.74.015-.135.012-.15.03-.128.019a.2.2 0 0 0-.073.073c.01-.022-.007-.007-.019.128a10 10 0 0 0-.015.74c0 .367 0 .582.015.74a1 1 0 0 0 .019.127q.027.046.073.073a1 1 0 0 0 .128.02c.158.014.373.015.74.015s.582 0 .74-.015a1 1 0 0 0 .127-.02.2.2 0 0 0 .073-.073 1 1 0 0 0 .02-.127c.014-.158.015-.373.015-.74s0-.582-.015-.74a1 1 0 0 0-.02-.128.2.2 0 0 0-.073-.073 1 1 0 0 0-.127-.019 10 10 0 0 0-.74-.015" clip-rule="evenodd"/><path fill="currentColor" d="M1.502.656a.45.45 0 0 1 .45.45V3.05l.04-.003h2.475a.45.45 0 0 1 0 .9H1.99q-.02-.001-.039-.004v4.809c0 .193.157.35.35.35H4.5a.45.45 0 0 1 0 .9H2.302c-.69 0-1.25-.56-1.25-1.25V1.106a.45.45 0 0 1 .45-.45m7.006.903a.45.45 0 0 1 .45.45v1.05h1.05a.45.45 0 0 1 0 .9h-1.05v1.05a.45.45 0 0 1-.9 0v-1.05h-1.05a.45.45 0 0 1 0-.9h1.05v-1.05a.45.45 0 0 1 .45-.45"/></svg>