<svg xmlns="http://www.w3.org/2000/svg" width="16" height="16" fill="currentColor"><path fill="currentColor" fill-rule="evenodd" d="M11.5 10c.935 0 1.402 0 1.75.201l.163.11a1.5 1.5 0 0 1 .386.439c.2.348.201.815.201 1.75s0 1.402-.201 1.75a1.5 1.5 0 0 1-.549.549c-.348.2-.815.201-1.75.201s-1.402 0-1.75-.201a1.5 1.5 0 0 1-.549-.549c-.2-.348-.201-.815-.201-1.75s0-1.402.201-1.75l.11-.163c.119-.156.268-.287.439-.386l.137-.066C10.222 10 10.682 10 11.5 10m0 1c-.486 0-.783.001-1.005.021-.103.01-.165.021-.202.03a.2.2 0 0 0-.043.016.5.5 0 0 0-.183.183s-.007.01-.015.043c-.01.037-.021.1-.03.202-.02.222-.022.52-.022 1.005 0 .486.001.783.021 1.005.01.103.021.165.03.202a.2.2 0 0 0 .016.043.5.5 0 0 0 .183.183s.01.007.043.015c.037.01.1.021.202.03.222.02.52.022 1.005.022.486 0 .783-.001 1.005-.021.103-.01.165-.021.202-.03.033-.01.043-.016.043-.016a.5.5 0 0 0 .183-.183s.007-.01.015-.043c.01-.037.021-.1.03-.202.02-.222.022-.52.022-1.005 0-.486-.001-.783-.021-1.005a1.3 1.3 0 0 0-.03-.202c-.01-.033-.016-.043-.016-.043a.5.5 0 0 0-.183-.183s-.01-.007-.043-.015c-.037-.01-.1-.021-.202-.03A13 13 0 0 0 11.5 11" clip-rule="evenodd"/><path fill="currentColor" d="M2.504 1a.5.5 0 0 1 .5.5V4H6a.5.5 0 0 1 0 1H3.004v6.772a.5.5 0 0 0 .5.5h2.568a.5.5 0 1 1 0 1H3.504a1.5 1.5 0 0 1-1.5-1.5V1.5a.5.5 0 0 1 .5-.5M11.5 2a.5.5 0 0 1 .5.5V4h1.5a.5.5 0 0 1 0 1H12v1.5a.5.5 0 0 1-1 0V5H9.5a.5.5 0 0 1 0-1H11V2.5a.5.5 0 0 1 .5-.5"/></svg>