<svg xmlns="http://www.w3.org/2000/svg" width="20" height="20" fill="currentColor"><path fill="currentColor" fill-rule="evenodd" d="M14.742 12.004c.65.011 1.044.056 1.358.237l.1.063c.23.153.42.357.559.596l.08.165c.115.287.148.65.157 1.193L17 15c0 1.121 0 1.682-.241 2.1a1.8 1.8 0 0 1-.66.659c-.313.18-.706.226-1.357.237L14 18c-1.121 0-1.682 0-2.1-.241a1.8 1.8 0 0 1-.659-.66C11.001 16.683 11 16.122 11 15s0-1.682.241-2.1l.063-.1c.153-.23.357-.42.596-.559l.165-.08C12.467 12 13.019 12 14 12zM14 13c-.58 0-.947.001-1.224.026-.262.024-.344.063-.376.081a.8.8 0 0 0-.293.293c-.018.032-.057.114-.08.376C12 14.053 12 14.421 12 15c0 .58.001.947.026 1.224.024.262.063.344.081.376.07.121.172.222.293.293.032.018.114.057.376.08.277.026.645.027 1.224.027.58 0 .947-.001 1.224-.026.262-.024.344-.063.376-.081a.8.8 0 0 0 .293-.293c.018-.032.057-.114.08-.376C16 15.947 16 15.579 16 15c0-.58-.001-.947-.026-1.224-.024-.262-.063-.344-.081-.376a.8.8 0 0 0-.293-.293c-.032-.018-.114-.057-.376-.08C14.947 13 14.579 13 14 13" clip-rule="evenodd"/><path fill="currentColor" d="M3.5 1.5A.5.5 0 0 1 4 2v3h4.501a.5.5 0 0 1 0 1H4v6.5A1.5 1.5 0 0 0 5.5 14h3.03a.5.5 0 0 1 0 1H5.5A2.5 2.5 0 0 1 3 12.5V2a.5.5 0 0 1 .5-.5m10.5 1a.5.5 0 0 1 .5.5v2h2a.5.5 0 0 1 0 1h-2v2a.5.5 0 0 1-1 0V6h-2a.5.5 0 0 1 0-1h2V3a.5.5 0 0 1 .5-.5"/></svg>