<svg width="16" height="16" viewBox="0 0 16 16" fill="none" xmlns="http://www.w3.org/2000/svg"><path d="M12.833 13.0029C12.833 12.6822 12.8326 12.4744 12.8184 12.3174C12.8048 12.1678 12.7823 12.1132 12.7666 12.0859C12.7227 12.0099 12.659 11.9472 12.583 11.9033C12.5557 11.8876 12.5015 11.8642 12.3516 11.8506C12.1946 11.8364 11.9875 11.8359 11.667 11.8359C11.3463 11.8359 11.1384 11.8364 10.9814 11.8506C10.8316 11.8642 10.7772 11.8876 10.75 11.9033C10.6741 11.9472 10.6112 12.0101 10.5674 12.0859C10.5517 12.1132 10.5283 12.1676 10.5146 12.3174C10.5004 12.4744 10.5 12.6822 10.5 13.0029C10.5 13.3235 10.5004 13.5306 10.5146 13.6875C10.5282 13.8374 10.5517 13.8917 10.5674 13.9189C10.6113 13.995 10.674 14.0587 10.75 14.1025C10.7773 14.1183 10.8319 14.1407 10.9814 14.1543C11.1384 14.1685 11.3463 14.1689 11.667 14.1689C11.9875 14.1689 12.1946 14.1685 12.3516 14.1543C12.5009 14.1408 12.5557 14.1183 12.583 14.1025C12.659 14.0587 12.7227 13.995 12.7666 13.9189C12.7823 13.8916 12.8048 13.8369 12.8184 13.6875C12.8326 13.5306 12.833 13.3235 12.833 13.0029ZM2.16406 9.66797V1.5C2.16406 1.22386 2.38792 1 2.66406 1C2.94021 1 3.16406 1.22386 3.16406 1.5V6H7.99707C8.27321 6 8.49707 6.22386 8.49707 6.5C8.49707 6.77614 8.27321 7 7.99707 7H3.16406V9.66797C3.16406 10.4678 3.16521 11.0179 3.2207 11.4307C3.27427 11.829 3.37019 12.0245 3.50586 12.1602C3.64155 12.2958 3.83707 12.3918 4.23535 12.4453C4.64808 12.5008 5.19753 12.502 5.99707 12.502H7.99707C8.27321 12.502 8.49707 12.7258 8.49707 13.002C8.49693 13.278 8.27312 13.502 7.99707 13.502H5.99707C5.22568 13.502 4.59641 13.5031 4.10156 13.4365C3.59249 13.368 3.15118 13.2195 2.79883 12.8672C2.44637 12.5147 2.29797 12.0728 2.22949 11.5635C2.16299 11.0686 2.16406 10.4394 2.16406 9.66797ZM12.833 6.66699C12.833 6.34625 12.8326 6.13842 12.8184 5.98145C12.8048 5.83186 12.7823 5.77725 12.7666 5.75C12.7227 5.67399 12.659 5.61127 12.583 5.56738C12.5557 5.55166 12.5015 5.52824 12.3516 5.51465C12.1946 5.50043 11.9875 5.5 11.667 5.5C11.3463 5.5 11.1384 5.50042 10.9814 5.51465C10.8316 5.52826 10.7772 5.55167 10.75 5.56738C10.6741 5.61123 10.6112 5.67412 10.5674 5.75C10.5517 5.77722 10.5283 5.83163 10.5146 5.98145C10.5004 6.13842 10.5 6.34625 10.5 6.66699C10.5 6.98755 10.5004 7.19464 10.5146 7.35156C10.5282 7.50148 10.5517 7.55574 10.5674 7.58301C10.6113 7.65902 10.674 7.72272 10.75 7.7666C10.7773 7.78231 10.8319 7.80477 10.9814 7.81836C11.1384 7.83259 11.3463 7.83301 11.667 7.83301C11.9875 7.83301 12.1946 7.83258 12.3516 7.81836C12.5009 7.80481 12.5557 7.78232 12.583 7.7666C12.659 7.72272 12.7227 7.65902 12.7666 7.58301C12.7823 7.55565 12.8048 7.50095 12.8184 7.35156C12.8326 7.19464 12.833 6.98755 12.833 6.66699ZM13.833 13.0029C13.833 13.305 13.8337 13.5649 13.8145 13.7773C13.7946 13.9966 13.7509 14.2143 13.6328 14.4189C13.5012 14.647 13.311 14.8371 13.083 14.9688C12.8783 15.0868 12.6607 15.1305 12.4414 15.1504C12.229 15.1696 11.969 15.1689 11.667 15.1689C11.3647 15.1689 11.1042 15.1697 10.8916 15.1504C10.6722 15.1305 10.4548 15.0869 10.25 14.9688C10.022 14.8371 9.83283 14.647 9.70117 14.4189C9.58299 14.2142 9.53844 13.9967 9.51856 13.7773C9.49933 13.5649 9.5 13.3049 9.5 13.0029C9.5 12.7006 9.49929 12.4401 9.51856 12.2275C9.53845 12.0081 9.58293 11.7907 9.70117 11.5859C9.83281 11.358 10.022 11.1687 10.25 11.0371C10.4548 10.9189 10.6721 10.8744 10.8916 10.8545C11.1042 10.8352 11.3647 10.8359 11.667 10.8359C11.969 10.8359 12.229 10.8353 12.4414 10.8545C12.6608 10.8744 12.8782 10.9189 13.083 11.0371C13.311 11.1688 13.5012 11.3579 13.6328 11.5859C13.751 11.7907 13.7946 12.0082 13.8145 12.2275C13.8337 12.4401 13.833 12.7006 13.833 13.0029ZM13.833 6.66699C13.833 6.96902 13.8337 7.22897 13.8145 7.44141C13.7946 7.66071 13.7509 7.87833 13.6328 8.08301C13.5012 8.31104 13.311 8.50116 13.083 8.63281C12.8783 8.75087 12.6607 8.79458 12.4414 8.81445C12.229 8.83368 11.969 8.83301 11.667 8.83301C11.3647 8.83301 11.1042 8.83372 10.8916 8.81445C10.6722 8.79457 10.4548 8.75098 10.25 8.63281C10.022 8.50116 9.83283 8.31104 9.70117 8.08301C9.58299 7.87824 9.53844 7.66081 9.51856 7.44141C9.49933 7.22897 9.5 6.96901 9.5 6.66699C9.5 6.36468 9.49929 6.10417 9.51856 5.8916C9.53845 5.67215 9.58293 5.45481 9.70117 5.25C9.83281 5.02204 10.022 4.8328 10.25 4.70117C10.4548 4.58293 10.6721 4.53844 10.8916 4.51855C11.1042 4.49929 11.3647 4.5 11.667 4.5C11.969 4.5 12.229 4.49933 12.4414 4.51855C12.6608 4.53844 12.8782 4.58299 13.083 4.70117C13.311 4.83282 13.5012 5.02197 13.6328 5.25C13.751 5.45475 13.7946 5.67221 13.8145 5.8916C13.8337 6.10418 13.833 6.36467 13.833 6.66699Z" fill="currentColor"/></svg>