<svg xmlns="http://www.w3.org/2000/svg" width="16" height="16" fill="currentColor"><path fill="currentColor" d="M12.8 12.75c0-.318 0-.523-.015-.678a.6.6 0 0 0-.05-.226.5.5 0 0 0-.18-.18.6.6 0 0 0-.228-.05 9 9 0 0 0-.677-.015c-.317 0-.522 0-.677.014-.149.014-.202.036-.228.051a.5.5 0 0 0-.18.18c-.015.026-.037.08-.05.226-.014.155-.015.36-.015.678s0 .523.015.678c.013.148.035.201.05.227a.5.5 0 0 0 .18.18c.026.015.08.037.228.05.155.015.36.015.677.015s.522 0 .677-.014a.6.6 0 0 0 .228-.051.5.5 0 0 0 .18-.18.6.6 0 0 0 .05-.227c.014-.155.015-.36.015-.678M2.2 11.64V1.4a.5.5 0 1 1 1 0v4.8h4.805a.5.5 0 0 1 0 1H3.2v4.44c0 .31.251.56.56.56H8a.5.5 0 0 1 0 1H3.76a1.56 1.56 0 0 1-1.56-1.56m10.6-4.89c0-.317 0-.523-.015-.678a.6.6 0 0 0-.05-.226.5.5 0 0 0-.18-.18.6.6 0 0 0-.228-.05 8 8 0 0 0-.677-.015c-.317 0-.522 0-.677.014-.149.014-.202.036-.228.051a.5.5 0 0 0-.18.18c-.015.026-.037.08-.05.226-.014.155-.015.36-.015.678s0 .523.015.678c.013.148.035.201.05.227a.5.5 0 0 0 .18.18c.026.015.08.037.228.05.155.015.36.015.677.015s.522 0 .677-.014a.6.6 0 0 0 .228-.051.5.5 0 0 0 .18-.18.6.6 0 0 0 .05-.227c.014-.155.015-.36.015-.678m1 6c0 .299 0 .557-.019.768-.02.217-.063.434-.18.637a1.5 1.5 0 0 1-.546.545c-.204.118-.42.162-.637.182-.21.019-.469.018-.768.018s-.557 0-.768-.018a1.5 1.5 0 0 1-.637-.182 1.5 1.5 0 0 1-.546-.545 1.5 1.5 0 0 1-.18-.637c-.02-.211-.019-.469-.019-.768s0-.557.019-.768c.02-.217.063-.433.18-.636.131-.227.32-.415.546-.546.204-.118.42-.161.637-.18.21-.02.47-.02.768-.02.3 0 .557 0 .768.02.217.019.433.062.637.18.226.13.415.32.546.546.117.203.16.419.18.636.02.211.019.469.019.768m0-6c0 .299 0 .557-.019.768-.02.217-.063.434-.18.637a1.5 1.5 0 0 1-.546.545c-.204.118-.42.162-.637.182-.21.019-.469.018-.768.018s-.557 0-.768-.018a1.5 1.5 0 0 1-.637-.182 1.5 1.5 0 0 1-.546-.545 1.5 1.5 0 0 1-.18-.637c-.02-.211-.019-.469-.019-.768s0-.557.019-.768c.02-.217.063-.433.18-.636.131-.227.32-.415.546-.546.204-.118.42-.161.637-.18.21-.02.47-.02.768-.02.3 0 .557 0 .768.02.217.019.433.062.637.18.226.13.415.32.546.546.117.203.16.419.18.636.02.211.019.469.019.768"/></svg>