<svg xmlns="http://www.w3.org/2000/svg" width="20" height="20" fill="currentColor"><path fill="currentColor" d="M15.95 15.999c0-.384 0-.635-.018-.826-.017-.184-.045-.257-.07-.299a.65.65 0 0 0-.238-.238c-.041-.024-.115-.053-.298-.07a10 10 0 0 0-.827-.017c-.383 0-.635 0-.826.017-.183.017-.257.046-.299.07a.65.65 0 0 0-.238.238c-.024.042-.052.115-.07.299-.016.191-.017.442-.017.826s0 .635.018.826c.017.184.045.257.07.299a.64.64 0 0 0 .237.238c.042.024.116.053.3.07.19.017.442.017.825.017.384 0 .636 0 .827-.017.183-.017.257-.046.298-.07a.65.65 0 0 0 .239-.238c.024-.042.053-.115.07-.299.016-.19.017-.442.017-.826m-13-1.6V2.5a.55.55 0 1 1 1.1 0v5.95H10a.55.55 0 1 1 0 1.1H4.05v4.85c0 .801.649 1.45 1.45 1.45H10a.55.55 0 0 1 0 1.1H5.5a2.55 2.55 0 0 1-2.55-2.55m13-5.4c0-.384 0-.635-.018-.826-.017-.184-.045-.257-.07-.299a.65.65 0 0 0-.238-.238c-.041-.024-.115-.053-.298-.07a10 10 0 0 0-.827-.017c-.383 0-.635 0-.826.017-.183.017-.257.046-.299.07a.65.65 0 0 0-.238.238c-.024.042-.052.115-.07.299-.016.191-.017.442-.017.826s0 .635.018.826c.017.184.045.257.07.299a.64.64 0 0 0 .237.238c.042.024.116.053.3.07.19.017.442.017.825.017.384 0 .636 0 .827-.017.183-.017.257-.046.298-.07a.65.65 0 0 0 .239-.238c.024-.042.053-.116.07-.299.016-.19.017-.442.017-.826m1.1 7c0 .364 0 .673-.023.926-.024.26-.075.512-.212.749a1.75 1.75 0 0 1-.64.64c-.238.137-.49.189-.75.212-.252.023-.562.023-.926.023-.363 0-.673 0-.925-.023a1.8 1.8 0 0 1-.75-.212 1.75 1.75 0 0 1-.64-.64c-.137-.237-.188-.49-.212-.75-.023-.252-.022-.561-.022-.925s0-.673.022-.926c.024-.26.075-.512.212-.749a1.75 1.75 0 0 1 .64-.64c.238-.137.49-.189.75-.212.252-.023.562-.023.925-.023.364 0 .674 0 .926.023.26.023.512.075.75.212.265.153.486.374.64.64.137.237.188.49.212.75.023.252.022.561.022.925m0-7c0 .364 0 .673-.023.926-.024.26-.075.512-.212.749a1.75 1.75 0 0 1-.64.64c-.238.137-.49.189-.75.212-.252.023-.562.023-.926.023-.363 0-.673 0-.925-.023a1.8 1.8 0 0 1-.75-.211 1.75 1.75 0 0 1-.64-.641c-.137-.237-.188-.49-.212-.75-.023-.252-.022-.561-.022-.925s0-.673.022-.926c.024-.26.075-.512.212-.749a1.75 1.75 0 0 1 .64-.64c.238-.137.49-.189.75-.212.252-.023.562-.023.925-.023.364 0 .674 0 .926.023.26.023.512.075.75.212.265.153.486.374.64.64.137.237.188.49.212.75.023.252.022.561.022.925"/></svg>