<svg xmlns="http://www.w3.org/2000/svg" width="12" height="12" fill="currentColor"><path fill="currentColor" d="M9.55 9.55c0-.241 0-.393-.01-.506-.01-.106-.026-.135-.03-.143a.3.3 0 0 0-.11-.11c-.007-.004-.036-.02-.143-.03a6 6 0 0 0-.507-.01c-.242 0-.393 0-.507.01-.107.01-.136.026-.143.03a.3.3 0 0 0-.11.11c-.004.008-.02.037-.03.143-.01.113-.01.265-.01.507s0 .393.01.507c.01.107.026.136.03.143a.3.3 0 0 0 .11.11c.007.004.036.02.143.029.114.01.265.01.507.01s.393 0 .507-.01c.107-.01.136-.025.143-.03a.3.3 0 0 0 .11-.109c.004-.007.02-.036.03-.143.01-.114.01-.265.01-.507m-8-.849v-7.7a.45.45 0 0 1 .9 0v3.55H6a.45.45 0 0 1 0 .9H2.45v3.25c0 .193.157.35.35.35H6a.45.45 0 0 1 0 .9H2.8c-.69 0-1.25-.56-1.25-1.25m8-3.65c0-.242 0-.394-.01-.507-.01-.106-.026-.135-.03-.143a.3.3 0 0 0-.11-.11c-.007-.004-.036-.02-.143-.03a6 6 0 0 0-.507-.01c-.242 0-.393 0-.507.01-.107.01-.136.026-.143.03a.3.3 0 0 0-.11.11c-.004.008-.02.037-.03.143-.01.113-.01.265-.01.507s0 .393.01.507c.01.107.026.136.03.143a.3.3 0 0 0 .11.11c.007.004.036.02.143.029.114.01.265.01.507.01s.393 0 .507-.01c.107-.01.136-.025.143-.03a.3.3 0 0 0 .11-.109c.004-.007.02-.036.03-.143.01-.114.01-.265.01-.507m.9 4.5c0 .225 0 .424-.014.588-.016.17-.05.345-.147.512a1.2 1.2 0 0 1-.44.439 1.2 1.2 0 0 1-.511.146c-.164.015-.363.015-.588.015s-.424 0-.588-.015a1.2 1.2 0 0 1-.512-.146 1.2 1.2 0 0 1-.44-.439 1.2 1.2 0 0 1-.146-.512c-.014-.164-.014-.363-.014-.588 0-.226 0-.425.014-.588.016-.17.05-.345.147-.512.105-.182.257-.334.44-.44a1.2 1.2 0 0 1 .511-.146c.164-.015.363-.014.588-.014s.424 0 .588.014c.17.016.345.05.512.147.182.105.334.257.44.44.095.166.13.341.146.51.014.164.014.363.014.589m0-4.5c0 .225 0 .424-.014.588-.016.17-.05.345-.147.512a1.2 1.2 0 0 1-.44.439 1.2 1.2 0 0 1-.511.146c-.164.015-.363.015-.588.015s-.424 0-.588-.015a1.2 1.2 0 0 1-.512-.146 1.2 1.2 0 0 1-.44-.439 1.2 1.2 0 0 1-.146-.512c-.014-.164-.014-.363-.014-.588 0-.226 0-.425.014-.588.016-.17.05-.345.147-.512.105-.182.257-.334.44-.44a1.2 1.2 0 0 1 .511-.146c.164-.015.363-.014.588-.014s.424 0 .588.014c.17.016.345.05.512.147.182.105.334.257.44.44.095.166.13.341.146.51.014.164.014.363.014.589"/></svg>