<svg width="12" height="12" viewBox="0 0 12 12" fill="none" xmlns="http://www.w3.org/2000/svg"><g clip-path="url(#a)"><path d="M10.5 5.9707C10.5 5.32973 10.4992 4.885 10.4648 4.53613C10.4578 4.46469 10.4482 4.39938 10.4385 4.33887L6.5 6.30859V10.3838C6.51631 10.3774 6.53367 10.3723 6.55078 10.3652C6.80331 10.2608 7.1098 10.1007 7.55664 9.86621L8.55664 9.3418C9.10377 9.05467 9.47955 8.8564 9.75879 8.66992C10.0274 8.49054 10.1722 8.34368 10.2705 8.17676C10.3697 8.00832 10.4315 7.80229 10.4648 7.46387C10.4992 7.115 10.5 6.67027 10.5 6.0293V5.9707ZM6 1.5C5.8524 1.5 5.69232 1.53426 5.44922 1.63477C5.19669 1.7392 4.8902 1.8993 4.44336 2.13379L3.44336 2.6582C2.89623 2.94533 2.52045 3.1436 2.24121 3.33008C2.16989 3.3777 2.10704 3.42276 2.05176 3.4668L6 5.44043L9.94727 3.4668C9.89213 3.42291 9.82985 3.37753 9.75879 3.33008C9.47955 3.1436 9.10377 2.94533 8.55664 2.6582L7.55664 2.13379C7.1098 1.8993 6.80331 1.7392 6.55078 1.63477C6.30768 1.53426 6.1476 1.5 6 1.5ZM1.5 6.0293C1.5 6.67027 1.50079 7.115 1.53516 7.46387C1.5685 7.80229 1.63031 8.00832 1.72949 8.17676C1.82784 8.34368 1.9726 8.49054 2.24121 8.66992C2.52045 8.8564 2.89623 9.05467 3.44336 9.3418L4.44336 9.86621C4.8902 10.1007 5.19669 10.2608 5.44922 10.3652C5.46633 10.3723 5.48369 10.3774 5.5 10.3838V6.30859L1.56055 4.33887C1.55088 4.39934 1.54219 4.46475 1.53516 4.53613C1.50079 4.885 1.5 5.32973 1.5 5.9707V6.0293ZM11.5 6.0293C11.5 6.65052 11.5002 7.15245 11.46 7.56152C11.4186 7.98109 11.3313 8.34479 11.1318 8.68359C10.9315 9.02383 10.6583 9.27232 10.3145 9.50195C9.98119 9.72451 9.54996 9.94923 9.02148 10.2266L8.02148 10.752C7.59064 10.9781 7.23795 11.1632 6.93359 11.2891C6.61997 11.4188 6.32446 11.5 6 11.5C5.67554 11.5 5.38003 11.4188 5.06641 11.2891C4.76205 11.1632 4.40936 10.9781 3.97852 10.752L2.97852 10.2266C2.45004 9.94923 2.01881 9.72451 1.68555 9.50195C1.34169 9.27232 1.06851 9.02383 0.868164 8.68359C0.668671 8.34479 0.581372 7.98109 0.540039 7.56152C0.499768 7.15245 0.5 6.65052 0.5 6.0293V5.9707C0.5 5.34948 0.499768 4.84755 0.540039 4.43848C0.581372 4.01891 0.668671 3.65521 0.868164 3.31641C1.06851 2.97617 1.34169 2.72768 1.68555 2.49805C2.01881 2.27549 2.45004 2.05077 2.97852 1.77344L3.97852 1.24805C4.40936 1.02195 4.76205 0.836828 5.06641 0.710938C5.38003 0.581235 5.67554 0.5 6 0.5C6.32446 0.5 6.61997 0.581235 6.93359 0.710938C7.23795 0.836828 7.59064 1.02195 8.02148 1.24805L9.02148 1.77344C9.54996 2.05077 9.98119 2.27549 10.3145 2.49805C10.6583 2.72768 10.9315 2.97617 11.1318 3.31641C11.3313 3.65521 11.4186 4.01891 11.46 4.43848C11.5002 4.84755 11.5 5.34948 11.5 5.9707V6.0293Z" fill="currentColor"/></g><defs><clipPath id="a"><path fill="currentColor" d="M0 0H12V12H0z"/></clipPath></defs></svg>