<svg width="16" height="16" viewBox="0 0 16 16" fill="none" xmlns="http://www.w3.org/2000/svg"><path d="M12.8388 8.33297C12.8387 6.76831 11.5695 5.49996 10.0048 5.49996H3.87887L5.02535 6.64645L5.08981 6.72457C5.21797 6.91865 5.19622 7.18261 5.02535 7.35348C4.85449 7.52434 4.59053 7.5461 4.39645 7.41793L4.31832 7.35348L2.31832 5.35348C2.12306 5.15822 2.12306 4.84171 2.31832 4.64645L4.31832 2.64645C4.51358 2.45118 4.83009 2.45118 5.02535 2.64645C5.22062 2.84171 5.22062 3.15822 5.02535 3.35348L3.87887 4.49996H10.0048C12.1218 4.49996 13.8387 6.21603 13.8388 8.33297C13.8388 10.4501 12.1219 12.167 10.0048 12.167H5.33883C5.0628 12.167 4.83901 11.9429 4.83883 11.667C4.83883 11.3908 5.06269 11.167 5.33883 11.167H10.0048C11.5697 11.167 12.8388 9.89778 12.8388 8.33297Z" fill="currentColor"/></svg>