<svg xmlns="http://www.w3.org/2000/svg" width="20" height="20" fill="currentColor"><path fill="currentColor" d="M10.003 1.45a8.55 8.55 0 0 1 8.044 11.448l-.032.085a8 8 0 0 1-.405.915l-.06.117a9 9 0 0 1-.49.807l-.02.03q-.267.386-.575.74l-.044.05a8.6 8.6 0 0 1-1.445 1.31l-.013.009.005-.005a8.55 8.55 0 0 1-13.294-5.025l-.03-.132a8 8 0 0 1-.108-.611q-.016-.108-.028-.217l-.012-.098-.026-.337-.001-.02a9 9 0 0 1-.015-.418l-.002-.099a8.54 8.54 0 0 1 3.454-6.864l.077-.056a8.6 8.6 0 0 1 1.52-.88 8.5 8.5 0 0 1 3.5-.75m0 10.4c-2.03 0-3.374.432-4.212 1.3-.583.605-.86 1.365-.998 2.173a7.42 7.42 0 0 0 5.209 2.126 7.42 7.42 0 0 0 5.212-2.129c-.138-.806-.415-1.565-.997-2.17-.838-.868-2.182-1.3-4.213-1.3m-.001-7.2a2.95 2.95 0 1 0 0 5.9 2.95 2.95 0 0 0 0-5.9"/></svg>