<svg xmlns="http://www.w3.org/2000/svg" width="16" height="16" fill="currentColor"><path fill="currentColor" d="M14.003 8a6 6 0 1 0-10.269 4.215c.119-.626.349-1.216.808-1.692.695-.72 1.805-1.073 3.46-1.073 1.657 0 2.767.353 3.463 1.073.458.476.686 1.067.805 1.692A5.98 5.98 0 0 0 14.003 8m-6 2.45c-1.545 0-2.323.333-2.742.767-.383.398-.553.97-.62 1.754A5.97 5.97 0 0 0 8.003 14a5.97 5.97 0 0 0 3.361-1.03c-.067-.783-.235-1.355-.62-1.753-.418-.434-1.196-.767-2.741-.767m1.447-4.4a1.45 1.45 0 1 0-2.9 0 1.45 1.45 0 0 0 2.9 0M15.003 8a7 7 0 1 1-14 0 7 7 0 0 1 14 0M10.45 6.05a2.45 2.45 0 1 1-4.9 0 2.45 2.45 0 0 1 4.9 0"/></svg>