<svg xmlns="http://www.w3.org/2000/svg" width="12" height="12" fill="currentColor"><g clip-path="url(#a)"><path fill="currentColor" d="M6.001.55a5.45 5.45 0 0 1 5.21 7.049l-.016.05a5.4 5.4 0 0 1-.516 1.146l-.037.061-.104.16-.04.06-.103.148-.05.065-.098.125-.067.083q-.054.064-.11.125l-.058.066-.116.12-.06.062q-.067.067-.138.131l-.048.045-.108.095q-.05.045-.104.088l-.057.045-.133.102-.095.067a5.4 5.4 0 0 1-1.727.818l-.019.005q-.675.182-1.406.184v.001H6a5.45 5.45 0 0 1 0-10.9zm0 6.5c-1.259 0-2.132.214-2.69.727-.386.356-.57.812-.663 1.301A4.54 4.54 0 0 0 6 10.551a4.54 4.54 0 0 0 3.366-1.49c-.095-.484-.281-.933-.667-1.285-.56-.511-1.436-.725-2.697-.725m0-4.5a1.95 1.95 0 1 0 .001 3.901 1.95 1.95 0 0 0 0-3.9"/></g><defs><clipPath id="a"><path fill="currentColor" d="M0 0h12v12H0z"/></clipPath></defs></svg>