<svg width="16" height="16" viewBox="0 0 16 16" fill="none" xmlns="http://www.w3.org/2000/svg"><g clip-path="url(#a)"><path d="M14.167 8.00098C14.167 4.59533 11.4066 1.83416 8.00098 1.83398C4.59522 1.83398 1.83398 4.59522 1.83398 8.00098C1.83407 9.69892 2.52053 11.2364 3.63086 12.3516C3.75101 11.7023 3.98539 11.0899 4.45996 10.5977C5.1694 9.86193 6.30379 9.50098 8.00098 9.50098C9.69815 9.50098 10.8326 9.86193 11.542 10.5977C12.0165 11.0899 12.25 11.7023 12.3701 12.3516C13.4805 11.2364 14.1669 9.69901 14.167 8.00098ZM8.00098 10.501C6.41518 10.501 5.6127 10.8421 5.17969 11.291C4.7817 11.7037 4.60696 12.2964 4.53906 13.1045C5.52599 13.7752 6.7178 14.167 8.00098 14.167C9.28413 14.1669 10.475 13.7742 11.4619 13.1035C11.394 12.2959 11.2201 11.7036 10.8223 11.291C10.3893 10.842 9.58679 10.501 8.00098 10.501ZM9.5 6.00098C9.5 5.17255 8.82843 4.50098 8 4.50098C7.17157 4.50098 6.5 5.17255 6.5 6.00098C6.50026 6.82918 7.17174 7.50098 8 7.50098C8.82826 7.50098 9.49974 6.82918 9.5 6.00098ZM15.167 8.00098C15.1668 11.9588 11.9588 15.1668 8.00098 15.167C4.04304 15.167 0.83416 11.9589 0.833984 8.00098C0.833984 4.04294 4.04294 0.833984 8.00098 0.833984C11.9589 0.83416 15.167 4.04304 15.167 8.00098ZM10.5 6.00098C10.4997 7.38146 9.38055 8.50098 8 8.50098C6.61945 8.50098 5.50026 7.38146 5.5 6.00098C5.5 4.62026 6.61929 3.50098 8 3.50098C9.38071 3.50098 10.5 4.62026 10.5 6.00098Z" fill="currentColor"/></g><defs><clipPath id="a"><path fill="currentColor" d="M0 0H16V16H0z"/></clipPath></defs></svg>