<svg xmlns="http://www.w3.org/2000/svg" width="12" height="12" fill="currentColor"><g clip-path="url(#a)"><path fill="currentColor" d="M10.55 6.001a4.55 4.55 0 1 0-7.873 3.106c.1-.444.28-.865.614-1.21.552-.574 1.428-.846 2.71-.846 1.28 0 2.157.272 2.71.845.333.346.512.767.612 1.211a4.53 4.53 0 0 0 1.227-3.106M6 7.951c-1.18 0-1.757.255-2.061.57-.273.284-.404.693-.457 1.269.721.48 1.587.76 2.518.76.932 0 1.797-.28 2.518-.76-.053-.576-.182-.985-.455-1.269-.304-.315-.881-.57-2.063-.57m1.05-3.45a1.05 1.05 0 1 0-2.1 0 1.05 1.05 0 0 0 2.1 0m4.4 1.5a5.45 5.45 0 1 1-10.9 0 5.45 5.45 0 0 1 10.9 0m-3.5-1.5a1.95 1.95 0 1 1-3.9 0 1.95 1.95 0 0 1 3.9 0"/></g><defs><clipPath id="a"><path fill="currentColor" d="M0 0h12v12H0z"/></clipPath></defs></svg>