<svg xmlns="http://www.w3.org/2000/svg" width="16" height="16" fill="currentColor"><path fill="currentColor" d="M8.002 1a6.97 6.97 0 0 1 4.707 1.818 6.98 6.98 0 0 1 2.28 5.599l-.003.034a7 7 0 0 1-.086.728 7 7 0 0 1-.074.375q-.017.082-.038.163-.095.378-.23.74l-.027.066q-.058.151-.124.298l-.037.082q-.068.15-.143.296l-.022.043a7 7 0 0 1-12.732-.719l-.019-.046a7 7 0 0 1-.24-.76l-.025-.11a7 7 0 0 1-.168-1.119q-.004-.036-.006-.073a6.98 6.98 0 0 1 2.799-6.024 7 7 0 0 1 1.463-.841A7 7 0 0 1 8.002 1m0 8.45c-1.655 0-2.766.353-3.461 1.073-.46.477-.688 1.068-.807 1.694A5.98 5.98 0 0 0 8.002 14a5.98 5.98 0 0 0 4.268-1.785c-.118-.625-.346-1.216-.805-1.692-.695-.72-1.806-1.073-3.462-1.073M8 3.6a2.45 2.45 0 1 0 0 4.902A2.45 2.45 0 0 0 8 3.6"/></svg>