<svg xmlns="http://www.w3.org/2000/svg" width="20" height="20" fill="currentColor"><path fill="currentColor" d="M17.452 10.001a7.45 7.45 0 0 0-14.9 0c0 2.085.858 3.969 2.239 5.321.138-.807.415-1.566.998-2.17.838-.87 2.182-1.301 4.213-1.301s3.376.432 4.214 1.3c.583.605.858 1.364.996 2.171a7.43 7.43 0 0 0 2.24-5.321m-7.45 2.95c-1.908 0-2.888.411-3.421.964-.494.513-.704 1.247-.784 2.234a7.4 7.4 0 0 0 4.205 1.302 7.4 7.4 0 0 0 4.205-1.302c-.08-.987-.289-1.722-.783-2.234-.534-.553-1.513-.964-3.422-.964m1.848-5.35a1.85 1.85 0 1 0-3.7 0 1.85 1.85 0 0 0 3.7 0m6.702 2.4a8.55 8.55 0 1 1-17.1 0 8.55 8.55 0 1 1 17.1 0m-5.602-2.4a2.95 2.95 0 1 1-5.9 0 2.95 2.95 0 0 1 5.9 0"/></svg>