<svg xmlns="http://www.w3.org/2000/svg" width="16" height="16" fill="currentColor"><path fill="currentColor" d="M6.953 8.888a1.61 1.61 0 0 1 2.091 0c.098.083.22.134.349.144.788.063 1.415.69 1.478 1.479.01.128.06.25.144.347.163.192.273.412.333.642H12.5A1.5 1.5 0 0 0 14 10V3.5A1.5 1.5 0 0 0 12.5 2h-9A1.5 1.5 0 0 0 2 3.5V10a1.5 1.5 0 0 0 1.5 1.5h1.15c.06-.23.17-.45.332-.642a.6.6 0 0 0 .145-.347 1.61 1.61 0 0 1 1.478-1.479.6.6 0 0 0 .348-.144m1.443.76a.61.61 0 0 0-.793 0c-.259.22-.58.353-.918.38a.61.61 0 0 0-.561.562c-.027.338-.16.659-.38.917a.61.61 0 0 0 0 .794c.22.258.353.579.38.917a.61.61 0 0 0 .56.56c.339.027.66.16.919.38a.61.61 0 0 0 .793 0c.258-.22.579-.353.916-.38a.61.61 0 0 0 .562-.56c.027-.338.16-.66.38-.917a.61.61 0 0 0 0-.794 1.6 1.6 0 0 1-.38-.917.61.61 0 0 0-.562-.562 1.6 1.6 0 0 1-.916-.38m.238 1.24a.5.5 0 0 1 .682.731l-1.393 1.3a.5.5 0 0 1-.682 0l-.557-.52a.5.5 0 0 1 .682-.731l.216.201zm2.617-5.01a.5.5 0 0 1 0 1h-6.5a.5.5 0 0 1 0-1zm-1.3-2.274a.5.5 0 0 1 0 1H6.05a.5.5 0 0 1 0-1zM15 10a2.5 2.5 0 0 1-2.5 2.5h-1.216a1.6 1.6 0 0 1-.27.45.6.6 0 0 0-.143.347 1.61 1.61 0 0 1-1.478 1.478.6.6 0 0 0-.35.145 1.61 1.61 0 0 1-2.09 0 .6.6 0 0 0-.348-.145 1.61 1.61 0 0 1-1.478-1.478.6.6 0 0 0-.145-.348 1.6 1.6 0 0 1-.268-.449H3.5A2.5 2.5 0 0 1 1 10V3.5A2.5 2.5 0 0 1 3.5 1h9A2.5 2.5 0 0 1 15 3.5z"/></svg>