<svg xmlns="http://www.w3.org/2000/svg" width="20" height="20" fill="currentColor"><path fill="currentColor" d="M8.733 11.118a1.96 1.96 0 0 1 2.538 0 .8.8 0 0 0 .446.185 1.96 1.96 0 0 1 1.794 1.795c.013.164.078.32.184.445.22.258.36.558.425.871h1.58c.946 0 1.713-.767 1.713-1.713v-8.4c0-.946-.767-1.713-1.713-1.713H4.3c-.946 0-1.713.767-1.713 1.713v8.4c0 .946.767 1.713 1.713 1.713h1.585c.065-.313.205-.613.425-.871a.8.8 0 0 0 .184-.445 1.96 1.96 0 0 1 1.794-1.795.8.8 0 0 0 .445-.185m1.777.894a.78.78 0 0 0-1.015 0 1.96 1.96 0 0 1-1.113.46.78.78 0 0 0-.718.718c-.033.41-.194.8-.46 1.114a.8.8 0 0 0-.183.433.58.58 0 0 1 .055.37q.045.114.127.212c.267.313.428.703.461 1.113.03.383.335.688.718.718.41.033.8.194 1.113.461a.78.78 0 0 0 1.015 0 1.96 1.96 0 0 1 1.113-.46.78.78 0 0 0 .718-.72 1.96 1.96 0 0 1 .46-1.112.8.8 0 0 0 .123-.203.6.6 0 0 1 .057-.386.8.8 0 0 0-.18-.426 1.96 1.96 0 0 1-.46-1.114.78.78 0 0 0-.718-.717c-.41-.033-.8-.194-1.113-.461m.29 1.568a.587.587 0 1 1 .8.857l-1.714 1.6a.587.587 0 0 1-.801 0l-.686-.64a.587.587 0 0 1 .801-.857l.285.266zm3.198-6.158a.587.587 0 0 1 0 1.173h-8a.586.586 0 1 1 0-1.173zm-1.599-2.8a.587.587 0 0 1 0 1.173H7.6a.586.586 0 0 1 0-1.173zm6.188 8.08a2.887 2.887 0 0 1-2.887 2.886H14a2 2 0 0 1-.305.492.8.8 0 0 0-.184.445 1.956 1.956 0 0 1-1.794 1.794.8.8 0 0 0-.446.185 1.96 1.96 0 0 1-2.538 0 .8.8 0 0 0-.445-.185 1.956 1.956 0 0 1-1.794-1.794.8.8 0 0 0-.184-.445 2 2 0 0 1-.306-.492H4.3A2.887 2.887 0 0 1 1.413 12.7V4.3A2.887 2.887 0 0 1 4.3 1.414h11.4a2.887 2.887 0 0 1 2.887 2.887z"/></svg>