<svg xmlns="http://www.w3.org/2000/svg" width="12" height="12" fill="currentColor"><g clip-path="url(#a)"><path fill="currentColor" d="M5.168 6.633a1.31 1.31 0 0 1 1.703 0c.066.056.148.09.234.096A1.31 1.31 0 0 1 8.31 7.934a.4.4 0 0 0 .097.234q.15.176.227.383H9.7c.47 0 .85-.38.85-.85v-5.4a.85.85 0 0 0-.85-.85H2.3a.85.85 0 0 0-.85.85v5.4c0 .47.38.85.85.85h1.106a1.3 1.3 0 0 1 .227-.383.4.4 0 0 0 .097-.234 1.31 1.31 0 0 1 1.204-1.205.4.4 0 0 0 .234-.096m1.12.684a.41.41 0 0 0-.536 0c-.21.18-.471.288-.746.31a.41.41 0 0 0-.38.378c-.02.26-.118.507-.28.71a.45.45 0 0 1 .104.286.45.45 0 0 1-.119.302c.171.207.274.462.296.73a.41.41 0 0 0 .379.378c.275.022.536.13.746.31a.41.41 0 0 0 .535 0c.21-.18.471-.288.746-.31a.41.41 0 0 0 .38-.378c.021-.275.129-.536.308-.746a.41.41 0 0 0 0-.535 1.3 1.3 0 0 1-.309-.747.41.41 0 0 0-.379-.378 1.3 1.3 0 0 1-.746-.31m.155.855a.45.45 0 0 1 .614.658l-1.072 1a.45.45 0 0 1-.614 0l-.428-.4a.45.45 0 1 1 .614-.658l.12.113zM8.5 4.3a.45.45 0 0 1 0 .9h-5a.45.45 0 0 1 0-.9zm-1-1.75a.45.45 0 0 1 0 .9h-3a.45.45 0 0 1 0-.9zm3.95 5.15A1.75 1.75 0 0 1 9.7 9.45H8.646q-.078.226-.24.42a.4.4 0 0 0-.097.234 1.31 1.31 0 0 1-1.204 1.204.4.4 0 0 0-.234.097 1.31 1.31 0 0 1-1.703 0 .4.4 0 0 0-.234-.097 1.31 1.31 0 0 1-1.204-1.203.4.4 0 0 0-.097-.236 1.3 1.3 0 0 1-.24-.419H2.3A1.75 1.75 0 0 1 .55 7.7V2.3c0-.967.783-1.75 1.75-1.75h7.4c.966 0 1.75.783 1.75 1.75z"/></g><defs><clipPath id="a"><path fill="currentColor" d="M0 0h12v12H0z"/></clipPath></defs></svg>