<svg width="16" height="16" viewBox="0 0 16 16" fill="none" xmlns="http://www.w3.org/2000/svg"><g clip-path="url(#a)"><path d="M14.1665 5.33398C14.1665 4.37704 14.1658 3.70962 14.0981 3.20605C14.0324 2.71687 13.9116 2.45795 13.7271 2.27344C13.5426 2.08902 13.2835 1.96809 12.7944 1.90234C12.2909 1.83469 11.6232 1.83398 10.6665 1.83398H5.3335C4.37658 1.83398 3.70913 1.83465 3.20557 1.90234C2.71638 1.96811 2.45746 2.08893 2.27295 2.27344C2.08844 2.45795 1.96762 2.71687 1.90186 3.20605C1.83416 3.70962 1.8335 4.37707 1.8335 5.33398V8.00098C1.8335 8.95775 1.83416 9.6254 1.90186 10.1289C1.96763 10.6179 2.08848 10.877 2.27295 11.0615C2.43523 11.2237 2.654 11.3349 3.03174 11.4043C3.41203 11.4742 3.90946 11.4932 4.604 11.498C4.66861 11.2971 4.77239 11.1056 4.9165 10.9365C5.00382 10.834 5.05716 10.7065 5.06787 10.5723C5.13204 9.76955 5.76906 9.13253 6.57178 9.06836C6.70601 9.05765 6.83352 9.0043 6.93604 8.91699C7.54906 8.39458 8.45092 8.3946 9.06396 8.91699C9.16648 9.00435 9.29396 9.05762 9.42822 9.06836C10.2311 9.13243 10.869 9.76945 10.9331 10.5723C10.9438 10.7064 10.9963 10.834 11.0835 10.9365C11.2275 11.1055 11.3304 11.2973 11.395 11.498H11.5415L12.0005 11.4893C12.4266 11.476 12.7574 11.448 13.0249 11.3936C13.3675 11.3238 13.5725 11.216 13.7271 11.0615C13.9115 10.8771 14.0324 10.6179 14.0981 10.1289C14.1658 9.6254 14.1665 8.95775 14.1665 8.00098V5.33398ZM8.41553 9.67773C8.17625 9.47393 7.82371 9.47385 7.58447 9.67773C7.32187 9.9015 6.99576 10.0369 6.65186 10.0645C6.33847 10.0895 6.08897 10.339 6.06396 10.6523C6.03644 10.9962 5.90101 11.3224 5.67725 11.585C5.47337 11.8242 5.47344 12.1767 5.67725 12.416C5.90112 12.6787 6.03651 13.0055 6.06396 13.3496C6.0891 13.6629 6.33856 13.9115 6.65186 13.9365C6.9957 13.964 7.32189 14.0996 7.58447 14.3232C7.82376 14.5272 8.17624 14.5272 8.41553 14.3232C8.67822 14.0994 9.00507 13.964 9.34912 13.9365C9.66226 13.9114 9.91089 13.6627 9.93604 13.3496C9.96349 13.0056 10.0989 12.6787 10.3228 12.416C10.5267 12.1767 10.5267 11.8242 10.3228 11.585C10.0991 11.3224 9.96354 10.9962 9.93604 10.6523C9.91103 10.3391 9.66238 10.0896 9.34912 10.0645C9.00506 10.037 8.67823 9.90161 8.41553 9.67773ZM8.65869 10.9688C8.86057 10.7803 9.17731 10.7913 9.36572 10.9932C9.55391 11.195 9.54298 11.5108 9.34131 11.6992L7.9126 13.0332C7.72049 13.2123 7.422 13.2124 7.22998 13.0332L6.65869 12.499C6.4573 12.3106 6.44624 11.9947 6.63428 11.793C6.82269 11.5911 7.13943 11.5801 7.34131 11.7686L7.5708 11.9824L8.65869 10.9688ZM11.3335 5.83398C11.6096 5.83398 11.8335 6.05784 11.8335 6.33398C11.8335 6.61013 11.6096 6.83398 11.3335 6.83398H4.6665C4.39051 6.83381 4.1665 6.61002 4.1665 6.33398C4.1665 6.05795 4.39051 5.83416 4.6665 5.83398H11.3335ZM10.0005 3.50098C10.2765 3.50115 10.5005 3.72494 10.5005 4.00098C10.5003 4.27686 10.2764 4.5008 10.0005 4.50098H6.00049C5.72445 4.50098 5.50066 4.27697 5.50049 4.00098C5.50049 3.72483 5.72435 3.50098 6.00049 3.50098H10.0005ZM15.1665 8.00098C15.1665 8.92943 15.1681 9.67612 15.0894 10.2617C15.0087 10.8617 14.8362 11.3673 14.4351 11.7686C14.1031 12.1005 13.698 12.2766 13.2241 12.373C12.7641 12.4667 12.2092 12.4911 11.5522 12.498H11.396C11.3315 12.7007 11.2287 12.894 11.0835 13.0645C10.9962 13.1669 10.9438 13.2945 10.9331 13.4287C10.869 14.2316 10.2311 14.8695 9.42822 14.9336C9.29403 14.9443 9.16645 14.9967 9.06396 15.084C8.45092 15.6064 7.54908 15.6064 6.93604 15.084C6.83355 14.9968 6.70594 14.9443 6.57178 14.9336C5.76896 14.8694 5.13194 14.2316 5.06787 13.4287C5.05714 13.2945 5.00387 13.167 4.9165 13.0645C4.77122 12.894 4.6675 12.7008 4.60303 12.498C3.90905 12.4934 3.3282 12.4753 2.85107 12.3877C2.34584 12.2949 1.91583 12.1184 1.56592 11.7686C1.16464 11.3673 0.992299 10.8618 0.911621 10.2617C0.832892 9.6761 0.833496 8.92948 0.833496 8.00098V5.33398C0.833496 4.4055 0.832926 3.65888 0.911621 3.07324C0.992299 2.47317 1.16464 1.96768 1.56592 1.56641C1.9672 1.16513 2.47268 0.992787 3.07275 0.91211C3.65839 0.833414 4.40501 0.833985 5.3335 0.833985H10.6665C11.5952 0.833985 12.3425 0.833366 12.9282 0.91211C13.5282 0.992803 14.0338 1.16519 14.4351 1.56641C14.8361 1.96763 15.0087 2.47333 15.0894 3.07324C15.168 3.65887 15.1665 4.40555 15.1665 5.33398V8.00098Z" fill="currentColor"/></g><defs><clipPath id="a"><path fill="currentColor" d="M0 0H16V16H0z"/></clipPath></defs></svg>