<svg xmlns="http://www.w3.org/2000/svg" width="20" height="20" fill="currentColor"><path fill="currentColor" d="M17.498 9.953c0-1.02 0-1.748-.058-2.324a4 4 0 0 0-.128-.728L10.5 10.31v7.12c.148-.038.311-.09.496-.167.42-.174.923-.437 1.633-.81l1.6-.84c.87-.456 1.488-.781 1.95-1.09.453-.303.723-.568.91-.887.19-.32.297-.698.352-1.264.057-.576.058-1.305.058-2.324zM9.998 2.5c-.29 0-.587.069-.997.238-.42.174-.923.437-1.633.81l-1.6.84c-.87.456-1.488.781-1.95 1.09a3.5 3.5 0 0 0-.657.543L10 9.44l6.836-3.42a3.5 3.5 0 0 0-.656-.542c-.463-.31-1.082-.635-1.951-1.091l-1.6-.84c-.71-.373-1.213-.636-1.633-.81-.41-.17-.708-.238-.997-.238m-7.5 7.547c0 1.02 0 1.748.058 2.324.055.566.162.943.351 1.264.188.319.458.584.91.886.463.31 1.082.635 1.952 1.091l1.6.84c.71.373 1.212.636 1.632.81.186.076.349.13.498.169v-7.122l-6.816-3.41a4 4 0 0 0-.127.73c-.057.576-.058 1.305-.058 2.324zm16 0c0 1 0 1.786-.062 2.423-.064.646-.196 1.18-.485 1.672-.29.492-.69.858-1.217 1.21-.517.346-1.19.698-2.042 1.145l-1.6.84c-.694.364-1.244.654-1.715.849-.48.198-.913.314-1.379.314s-.898-.116-1.379-.314c-.471-.195-1.021-.485-1.716-.85l-1.6-.839c-.85-.447-1.524-.8-2.041-1.145-.528-.352-.927-.718-1.217-1.21-.29-.491-.42-1.025-.484-1.672-.063-.637-.063-1.423-.063-2.423v-.094c0-1 0-1.786.063-2.423.063-.647.195-1.18.484-1.672.29-.492.69-.858 1.217-1.21.517-.346 1.19-.698 2.042-1.145l1.6-.84c.694-.364 1.244-.654 1.715-.849.48-.198.913-.314 1.379-.314s.898.116 1.379.314c.471.195 1.021.485 1.716.85l1.6.839c.85.447 1.524.8 2.041 1.144.528.353.927.72 1.217 1.211s.42 1.025.485 1.672c.062.637.062 1.423.062 2.423z"/></svg>