<svg xmlns="http://www.w3.org/2000/svg" width="16" height="16" fill="currentColor"><path fill="currentColor" d="M14.002 7.962c0-.83 0-1.417-.046-1.88a4 4 0 0 0-.075-.463L8.502 8.31v5.603a3 3 0 0 0 .273-.099c.336-.139.741-.35 1.32-.654l1.3-.682c.709-.372 1.206-.633 1.577-.881.36-.241.568-.448.71-.69.145-.245.23-.536.274-.988.046-.463.046-1.05.046-1.88zM8.002 2c-.218 0-.447.051-.773.187-.336.138-.742.35-1.32.654l-1.3.682c-.709.372-1.206.634-1.577.881a3 3 0 0 0-.43.337l5.399 2.7 5.4-2.7a3 3 0 0 0-.43-.337c-.37-.247-.867-.509-1.575-.88l-1.301-.683c-.579-.304-.984-.516-1.32-.654C8.45 2.05 8.22 2 8.002 2m-6 6.038c0 .83 0 1.417.046 1.88.044.452.13.743.273.987.143.243.35.45.711.69.371.248.868.51 1.576.882l1.301.682c.578.304.984.515 1.32.654q.149.06.273.1V8.308l-5.38-2.69c-.03.135-.057.286-.074.463-.046.463-.046 1.05-.046 1.88zm13 0c0 .81 0 1.455-.05 1.978-.053.533-.163.982-.407 1.397-.245.416-.582.723-1.018 1.014-.425.284-.978.573-1.668.935l-1.3.683c-.562.295-1.013.532-1.4.692-.398.165-.762.263-1.157.263s-.76-.098-1.156-.263c-.388-.16-.84-.397-1.402-.692l-1.3-.683c-.69-.362-1.242-.651-1.667-.935-.436-.291-.773-.598-1.018-1.014-.244-.415-.354-.864-.406-1.397-.052-.523-.051-1.167-.051-1.978v-.076c0-.81 0-1.455.05-1.978.053-.533.163-.982.407-1.397.245-.416.582-.723 1.018-1.014.425-.284.977-.573 1.668-.935l1.3-.683c.562-.295 1.013-.532 1.4-.692C7.244 1.098 7.608 1 8.003 1s.759.098 1.156.263c.388.16.84.397 1.402.692l1.3.683c.69.362 1.242.651 1.667.935.436.291.773.598 1.018 1.014.244.415.354.864.406 1.397.052.523.051 1.167.051 1.978z"/></svg>