<svg xmlns="http://www.w3.org/2000/svg" width="12" height="12" fill="currentColor"><g fill="currentColor" clip-path="url(#a)"><path fill-rule="evenodd" d="M6.001.676c.481 0 .91.189 1.45.464a.45.45 0 0 1-.408.802c-.546-.278-.8-.366-1.042-.366-.15 0-.311.035-.551.134-.248.103-.549.26-.984.488l-.974.512c-.533.28-.902.473-1.176.656q-.133.09-.23.173L6 5.496l1.58-.789a.45.45 0 0 1 .402.805l-1.53.765v4.053l.101-.038c.248-.103.549-.26.984-.488l.974-.512c.533-.28.902-.473 1.176-.656.265-.177.411-.325.51-.494.193-.327.227-.745.23-1.816a.45.45 0 0 1 .9.001c-.002 1-.013 1.692-.354 2.272-.191.325-.453.563-.786.785-.323.215-.74.434-1.257.705l-.975.512c-.421.22-.763.4-1.058.522-.303.125-.586.203-.896.203s-.592-.078-.895-.203c-.295-.122-.637-.302-1.058-.522l-.975-.512c-.516-.27-.934-.49-1.257-.705-.333-.222-.595-.46-.786-.785C.84 8.275.755 7.926.715 7.52.676 7.124.676 6.636.676 6.029v-.056c0-.607 0-1.095.04-1.492.04-.405.123-.754.314-1.078s.453-.563.786-.785c.323-.215.74-.434 1.257-.705l.975-.512c.421-.22.763-.4 1.058-.522.303-.125.586-.203.895-.203M1.645 4.324a3 3 0 0 0-.034.246c-.034.343-.034.779-.034 1.403v.056c0 .624 0 1.06.034 1.403.033.332.094.54.194.71s.246.317.51.494c.275.183.644.377 1.177.656l.974.512c.435.228.736.385.984.488l.101.038V6.277z" clip-rule="evenodd"/><path d="M9.5 1.3a.45.45 0 0 1 .45.451v1.05H11a.45.45 0 0 1 0 .9H9.95v1.05a.45.45 0 0 1-.9 0v-1.05H8a.45.45 0 0 1 0-.9h1.05V1.75a.45.45 0 0 1 .45-.45"/></g><defs><clipPath id="a"><rect width="12" height="12" fill="currentColor" rx="2"/></clipPath></defs></svg>