<svg xmlns="http://www.w3.org/2000/svg" width="20" height="20" fill="currentColor"><path fill="currentColor" fill-rule="evenodd" d="M10.003 1.324c.748 0 1.424.292 2.326.751a.55.55 0 0 1-.498.98c-.91-.462-1.372-.631-1.828-.631-.286 0-.583.068-.996.24-.424.174-.934.44-1.655.82l-1.625.853c-.884.464-1.51.793-1.978 1.105a3.6 3.6 0 0 0-.621.503l6.875 3.438 2.72-1.36a.55.55 0 0 1 .493.984l-2.663 1.33v7.152a4 4 0 0 0 .446-.154c.424-.175.934-.442 1.655-.82l1.625-.854c.884-.464 1.51-.793 1.978-1.105.456-.305.725-.57.912-.887.354-.6.406-1.358.41-3.128a.55.55 0 1 1 1.099.002c-.003 1.683-.027 2.775-.562 3.685-.298.507-.71.883-1.248 1.243-.527.352-1.214.712-2.078 1.165l-1.625.852c-.704.37-1.265.665-1.746.864-.49.203-.936.322-1.416.322s-.925-.12-1.416-.322c-.481-.2-1.042-.494-1.746-.864l-1.625-.852c-.864-.453-1.55-.813-2.078-1.165-.539-.36-.95-.736-1.248-1.244-.298-.505-.433-1.055-.498-1.715-.064-.65-.064-1.45-.064-2.465V9.95c0-1.015 0-1.816.064-2.465.065-.66.2-1.21.498-1.715.298-.507.709-.884 1.248-1.244.527-.352 1.214-.711 2.078-1.165L6.84 2.51c.704-.37 1.265-.665 1.746-.864.49-.202.935-.322 1.416-.322M2.6 6.912a4.4 4.4 0 0 0-.115.683c-.057.582-.058 1.32-.058 2.356v.096c0 1.036 0 1.774.058 2.356.057.572.163.947.35 1.266.187.317.457.582.913.887.468.312 1.094.641 1.978 1.105l1.625.854c.721.378 1.231.645 1.655.82q.246.1.446.154v-7.151z" clip-rule="evenodd"/><path fill="currentColor" d="M15.833 2.367a.55.55 0 0 1 .55.55v1.95h1.95a.55.55 0 0 1 0 1.1h-1.95v1.95a.55.55 0 0 1-1.1 0v-1.95h-1.95a.55.55 0 1 1 0-1.1h1.95v-1.95a.55.55 0 0 1 .55-.55"/></svg>