<svg xmlns="http://www.w3.org/2000/svg" width="12" height="12" fill="currentColor"><g clip-path="url(#a)"><path fill="currentColor" d="M10.55 5.972c0-.64 0-1.088-.035-1.44a3 3 0 0 0-.04-.266L6.45 6.278v4.18q.057-.02.12-.046c.255-.105.564-.267 1.01-.5l1-.525c.546-.287.924-.486 1.206-.674.273-.182.424-.334.527-.51.105-.177.168-.39.202-.733.034-.352.035-.8.035-1.44zM6 1.452c-.157 0-.323.036-.57.138-.255.105-.564.267-1.01.5l-1 .525c-.546.287-.924.486-1.206.674q-.147.1-.251.19L6 5.498l4.036-2.019a3 3 0 0 0-.25-.19c-.282-.188-.66-.387-1.206-.674l-1-.524a14 14 0 0 0-1.01-.501c-.247-.102-.413-.139-.57-.139M1.45 6.03c0 .64 0 1.088.035 1.44.034.342.097.556.202.733.103.176.255.328.527.51.282.188.66.387 1.206.674l1 .524c.446.234.755.396 1.01.501q.063.026.12.046v-4.18L1.523 4.266q-.023.119-.038.266c-.034.352-.035.8-.035 1.44zm10 0c0 .622 0 1.122-.04 1.528-.04.415-.127.77-.321 1.101-.195.332-.463.575-.803.802-.33.22-.759.445-1.288.723l-1 .524c-.432.227-.782.411-1.084.536-.31.128-.598.207-.914.207s-.604-.079-.914-.207c-.302-.125-.652-.31-1.084-.536l-1-.524c-.53-.278-.958-.502-1.288-.723-.34-.227-.608-.47-.803-.802-.194-.33-.28-.686-.321-1.101C.55 7.152.55 6.652.55 6.03v-.058c0-.623 0-1.122.04-1.528.04-.415.127-.771.321-1.101.195-.332.463-.575.803-.802.33-.22.759-.445 1.288-.723l1-.524c.432-.227.782-.411 1.084-.536C5.396.63 5.684.55 6 .55s.604.079.914.207c.302.125.652.31 1.084.536l1 .524c.53.278.958.502 1.288.723.34.227.608.47.803.802.194.33.28.686.321 1.101.04.406.04.905.04 1.528z"/></g><defs><clipPath id="a"><rect width="12" height="12" fill="currentColor" rx="2"/></clipPath></defs></svg>