<svg xmlns="http://www.w3.org/2000/svg" width="16" height="16" fill="currentColor"><path fill="currentColor" fill-rule="evenodd" d="M8.002 1c.615 0 1.167.24 1.889.607a.5.5 0 0 1-.453.892C8.708 2.129 8.35 2 8.002 2c-.218 0-.447.051-.773.187-.336.138-.742.35-1.32.654l-1.3.682c-.709.372-1.206.634-1.577.881a3 3 0 0 0-.428.336l5.398 2.7 2.15-1.075a.5.5 0 0 1 .448.895L8.502 8.308v5.604a3 3 0 0 0 .273-.099c.336-.139.741-.35 1.32-.654l1.3-.682c.709-.372 1.206-.633 1.577-.881.36-.241.568-.448.71-.69.274-.465.317-1.052.32-2.472a.5.5 0 1 1 1 .002c-.003 1.341-.019 2.233-.457 2.977-.245.416-.582.723-1.018 1.014-.425.284-.978.573-1.668.935l-1.3.683c-.562.295-1.013.532-1.4.692-.398.165-.762.263-1.157.263s-.76-.098-1.156-.263c-.388-.16-.84-.397-1.402-.692l-1.3-.683c-.69-.362-1.242-.651-1.667-.935-.436-.291-.773-.598-1.018-1.014-.244-.415-.354-.864-.406-1.397-.052-.523-.051-1.167-.051-1.978v-.076c0-.81 0-1.455.05-1.978.053-.533.163-.982.407-1.397.245-.416.582-.723 1.018-1.014.425-.284.977-.573 1.668-.935l1.3-.683c.562-.295 1.013-.532 1.4-.692C7.244 1.098 7.608 1 8.003 1m-5.88 4.618a4 4 0 0 0-.075.464c-.046.463-.046 1.05-.046 1.88v.076c0 .83 0 1.417.046 1.88.044.452.13.743.273.987.143.243.35.45.711.69.371.248.868.51 1.576.882l1.301.682c.578.304.984.515 1.32.654q.149.06.273.1V8.307z" clip-rule="evenodd"/><path fill="currentColor" d="M12.666 1.834a.5.5 0 0 1 .5.5v1.5h1.5a.5.5 0 1 1 0 1h-1.5v1.5a.5.5 0 1 1-1 0v-1.5h-1.5a.5.5 0 0 1 0-1h1.5v-1.5a.5.5 0 0 1 .5-.5"/></svg>