<svg xmlns="http://www.w3.org/2000/svg" width="20" height="20" fill="currentColor"><path fill="currentColor" fill-rule="evenodd" d="M10.002 1.375c.735 0 1.401.287 2.304.746a.5.5 0 1 1-.453.89c-.91-.462-1.381-.636-1.85-.636-.296 0-.599.07-1.016.243-.427.177-.939.444-1.66.822l-1.624.853c-.883.463-1.511.794-1.982 1.108-.29.194-.507.373-.676.56l6.958 3.48 2.744-1.372a.5.5 0 0 1 .447.895l-2.69 1.345v7.248a4 4 0 0 0 .514-.175c.426-.177.938-.444 1.66-.822l1.624-.853c.883-.463 1.511-.794 1.982-1.108.46-.308.736-.578.927-.904.363-.615.413-1.387.416-3.153a.5.5 0 0 1 1 .002c-.003 1.687-.027 2.764-.554 3.66-.294.498-.699.868-1.234 1.226-.524.35-1.207.708-2.072 1.162l-1.625.853c-.705.37-1.264.664-1.742.862-.488.201-.926.318-1.398.318s-.91-.117-1.397-.318c-.478-.198-1.037-.492-1.742-.862l-1.625-.853c-.865-.454-1.548-.812-2.072-1.162-.536-.358-.94-.728-1.234-1.227-.293-.497-.426-1.039-.491-1.695-.064-.646-.064-1.444-.064-2.46v-.096c0-1.016 0-1.814.064-2.46.065-.656.198-1.198.491-1.695.294-.499.698-.87 1.234-1.227.524-.35 1.207-.708 2.072-1.162l1.625-.853c.705-.37 1.264-.664 1.742-.862.488-.201.925-.318 1.397-.318M2.568 6.841c-.06.212-.103.456-.132.75-.058.585-.059 1.326-.059 2.361v.096c0 1.035.001 1.775.059 2.361.057.575.165.96.357 1.286s.468.596.928.904c.47.314 1.099.645 1.982 1.108l1.625.853c.72.378 1.232.645 1.659.822.193.08.362.135.516.175v-7.248z" clip-rule="evenodd"/><path fill="currentColor" d="M15.833 2.418a.5.5 0 0 1 .5.5v2h2a.5.5 0 1 1 0 1h-2v2a.5.5 0 1 1-1 0v-2h-2a.5.5 0 0 1 0-1h2v-2a.5.5 0 0 1 .5-.5"/></svg>