<svg xmlns="http://www.w3.org/2000/svg" width="12" height="12" fill="currentColor"><path fill="currentColor" d="M1.505 9.056a.45.45 0 0 1 .45.45v.994a.45.45 0 0 1-.9 0v-.994a.45.45 0 0 1 .45-.45m8.995 0a.45.45 0 0 1 .45.45v.994a.45.45 0 0 1-.9 0v-.994a.45.45 0 0 1 .45-.45M7.057 7.057a.45.45 0 0 1 .636 0l1.125 1.125.056.068a.45.45 0 0 1-.056.568L7.693 9.943a.45.45 0 0 1-.636-.636l.356-.357H4.587l.356.357a.45.45 0 0 1-.636.636L3.182 8.818a.45.45 0 0 1 0-.636l1.125-1.125a.45.45 0 0 1 .636.636l-.356.357h2.826l-.356-.357a.45.45 0 0 1 0-.636M1.505 6.056a.45.45 0 0 1 .45.45v1a.45.45 0 0 1-.9 0v-1a.45.45 0 0 1 .45-.45m8.995 0a.45.45 0 0 1 .45.45v1a.45.45 0 0 1-.9 0v-1a.45.45 0 0 1 .45-.45"/><path fill="currentColor" fill-rule="evenodd" d="M10.6 1.01c.196.04.35.194.39.39l.01.1v3l-.01.1a.5.5 0 0 1-.39.39l-.1.01h-9a.5.5 0 0 1-.49-.4L1 4.5v-3l.01-.1A.5.5 0 0 1 1.5 1h9zM1.9 4.1h8.2V1.9H1.9z" clip-rule="evenodd"/></svg>