<svg xmlns="http://www.w3.org/2000/svg" width="20" height="20" fill="currentColor"><path fill="currentColor" d="M2.5 14.95a.55.55 0 0 1 .55.55v2a.55.55 0 1 1-1.1 0v-2a.55.55 0 0 1 .55-.55m15 0a.55.55 0 0 1 .55.55v2a.55.55 0 1 1-1.1 0v-2a.55.55 0 0 1 .55-.55m-5.264-2.715a.55.55 0 0 1 .778 0l1.875 1.875a.55.55 0 0 1 0 .778l-1.875 1.875a.55.55 0 1 1-.778-.778l.936-.935H6.826l.938.936a.55.55 0 0 1-.778.778l-1.875-1.875-.069-.084a.55.55 0 0 1 .07-.694l1.874-1.875a.55.55 0 1 1 .778.778l-.937.936h6.346l-.937-.937a.55.55 0 0 1 0-.778M2.5 8.95a.55.55 0 0 1 .55.55v3.625a.55.55 0 1 1-1.1 0V9.5a.55.55 0 0 1 .55-.55m15 0a.55.55 0 0 1 .55.55v3.625a.55.55 0 1 1-1.1 0V9.5a.55.55 0 0 1 .55-.55"/><path fill="currentColor" fill-rule="evenodd" d="M17.6 2.01c.196.04.35.194.39.39l.01.1v5l-.01.1a.5.5 0 0 1-.39.39l-.1.01h-15a.5.5 0 0 1-.5-.5v-5l.01-.1A.5.5 0 0 1 2.5 2h15zM3.1 6.9h13.8V3.1H3.1z" clip-rule="evenodd"/></svg>