<svg xmlns="http://www.w3.org/2000/svg" width="16" height="16" fill="currentColor"><path fill="currentColor" d="M2.5 12a.5.5 0 0 1 .5.5v1a.5.5 0 0 1-1 0v-1a.5.5 0 0 1 .5-.5m11 0a.5.5 0 0 1 .5.5v1a.5.5 0 0 1-1 0v-1a.5.5 0 0 1 .5-.5M9.646 9.646a.5.5 0 0 1 .707 0l1.5 1.5a.5.5 0 0 1 0 .707l-1.5 1.5a.5.5 0 1 1-.707-.707l.647-.646H5.707l.647.646a.5.5 0 1 1-.708.707l-1.5-1.5-.064-.078a.5.5 0 0 1 .064-.629l1.5-1.5a.5.5 0 1 1 .708.707L5.707 11h4.586l-.647-.646a.5.5 0 0 1 0-.708M2.5 7a.5.5 0 0 1 .5.5v3a.5.5 0 0 1-1 0v-3a.5.5 0 0 1 .5-.5m11 0a.5.5 0 0 1 .5.5v3a.5.5 0 0 1-1 0v-3a.5.5 0 0 1 .5-.5"/><path fill="currentColor" fill-rule="evenodd" d="M13.6 2.01a.5.5 0 0 1 .4.49v3a.5.5 0 0 1-.4.49l-.1.01h-11a.5.5 0 0 1-.5-.5v-3a.5.5 0 0 1 .5-.5h11zM3 5h10V3H3z" clip-rule="evenodd"/></svg>