<svg xmlns="http://www.w3.org/2000/svg" width="12" height="12" fill="currentColor"><path fill="currentColor" d="M5.666 3.144a.45.45 0 0 1 .45.45v1.423h1.426a.45.45 0 0 1 0 .9H6.116v1.427a.45.45 0 0 1-.9 0V5.917H3.792a.45.45 0 0 1 0-.9h1.424V3.594a.45.45 0 0 1 .45-.45"/><path fill="currentColor" fill-rule="evenodd" d="M5.907.807a4.667 4.667 0 0 1 4.426 4.66l-.006.241A4.64 4.64 0 0 1 9.27 8.432l2.048 2.05a.45.45 0 0 1-.635.636l-2.051-2.05a4.64 4.64 0 0 1-2.965 1.066l-.24-.006a4.667 4.667 0 0 1-4.421-4.42L1 5.468A4.667 4.667 0 0 1 5.667.8zm-.24.894a3.767 3.767 0 1 0 0 7.533 3.767 3.767 0 0 0 0-7.533" clip-rule="evenodd"/></svg>