<svg xmlns="http://www.w3.org/2000/svg" width="16" height="16" fill="currentColor"><path fill="currentColor" d="M7.553 4.254a.5.5 0 0 1 .5.5v2h2a.5.5 0 1 1 0 1h-2v2a.5.5 0 0 1-1 0v-2h-2a.5.5 0 0 1 0-1h2v-2a.5.5 0 0 1 .5-.5"/><path fill="currentColor" fill-rule="evenodd" d="M7.553 1c3.453 0 6.253 2.8 6.253 6.254l-.008.321a6.23 6.23 0 0 1-1.576 3.836l2.846 2.581a.55.55 0 0 1-.738.816l-2.911-2.64A6.254 6.254 0 0 1 1.308 7.575L1.3 7.254C1.3 3.8 4.1 1 7.553 1m0 1.1a5.155 5.155 0 1 0 .002 10.309 5.155 5.155 0 0 0-.002-10.31" clip-rule="evenodd"/></svg>